G04 Layer_Physical_Order=2*
G04 Layer_Color=16711680*
%FSLAX42Y42*%
%MOMM*%
G71*
G01*
G75*
G04:AMPARAMS|DCode=11|XSize=1mm|YSize=0.9mm|CornerRadius=0.11mm|HoleSize=0mm|Usage=FLASHONLY|Rotation=270.000|XOffset=0mm|YOffset=0mm|HoleType=Round|Shape=RoundedRectangle|*
%AMROUNDEDRECTD11*
21,1,1.00,0.68,0,0,270.0*
21,1,0.78,0.90,0,0,270.0*
1,1,0.23,-0.34,-0.39*
1,1,0.23,-0.34,0.39*
1,1,0.23,0.34,0.39*
1,1,0.23,0.34,-0.39*
%
%ADD11ROUNDEDRECTD11*%
%ADD14C,0.30*%
%ADD15C,0.50*%
%ADD16C,4.50*%
%ADD17C,3.50*%
%ADD18C,1.20*%
%ADD19C,1.60*%
%ADD20C,4.00*%
%ADD21C,1.50*%
%ADD22R,1.50X1.50*%
%ADD23C,1.27*%
%ADD24C,1.00*%
%ADD25C,0.80*%
G04:AMPARAMS|DCode=26|XSize=1mm|YSize=0.9mm|CornerRadius=0.11mm|HoleSize=0mm|Usage=FLASHONLY|Rotation=0.000|XOffset=0mm|YOffset=0mm|HoleType=Round|Shape=RoundedRectangle|*
%AMROUNDEDRECTD26*
21,1,1.00,0.68,0,0,0.0*
21,1,0.78,0.90,0,0,0.0*
1,1,0.23,0.39,-0.34*
1,1,0.23,-0.39,-0.34*
1,1,0.23,-0.39,0.34*
1,1,0.23,0.39,0.34*
%
%ADD26ROUNDEDRECTD26*%
%ADD27R,2.40X1.30*%
G04:AMPARAMS|DCode=28|XSize=1.4mm|YSize=1mm|CornerRadius=0.13mm|HoleSize=0mm|Usage=FLASHONLY|Rotation=90.000|XOffset=0mm|YOffset=0mm|HoleType=Round|Shape=RoundedRectangle|*
%AMROUNDEDRECTD28*
21,1,1.40,0.75,0,0,90.0*
21,1,1.15,1.00,0,0,90.0*
1,1,0.25,0.38,0.57*
1,1,0.25,0.38,-0.57*
1,1,0.25,-0.38,-0.57*
1,1,0.25,-0.38,0.57*
%
%ADD28ROUNDEDRECTD28*%
%ADD29O,0.40X1.50*%
G04:AMPARAMS|DCode=30|XSize=0.6mm|YSize=1mm|CornerRadius=0.08mm|HoleSize=0mm|Usage=FLASHONLY|Rotation=90.000|XOffset=0mm|YOffset=0mm|HoleType=Round|Shape=RoundedRectangle|*
%AMROUNDEDRECTD30*
21,1,0.60,0.85,0,0,90.0*
21,1,0.45,1.00,0,0,90.0*
1,1,0.15,0.42,0.23*
1,1,0.15,0.42,-0.23*
1,1,0.15,-0.42,-0.23*
1,1,0.15,-0.42,0.23*
%
%ADD30ROUNDEDRECTD30*%
G36*
X8450Y379D02*
X8439Y375D01*
X8437Y375D01*
X8423Y393D01*
X8405Y408D01*
X8383Y417D01*
X8373Y418D01*
Y330D01*
Y242D01*
X8383Y243D01*
X8405Y252D01*
X8423Y267D01*
X8437Y285D01*
X8439Y285D01*
X8450Y281D01*
Y50D01*
X50D01*
Y2550D01*
X8450Y2550D01*
Y379D01*
D02*
G37*
%LPC*%
G36*
X3455Y2527D02*
Y2465D01*
X3517D01*
X3516Y2472D01*
X3509Y2491D01*
X3496Y2506D01*
X3481Y2519D01*
X3462Y2526D01*
X3455Y2527D01*
D02*
G37*
G36*
X3430D02*
X3423Y2526D01*
X3405Y2519D01*
X3389Y2506D01*
X3377Y2491D01*
X3369Y2472D01*
X3368Y2465D01*
X3430D01*
Y2527D01*
D02*
G37*
G36*
X4203Y2524D02*
Y2463D01*
X4264D01*
X4263Y2470D01*
X4256Y2488D01*
X4244Y2504D01*
X4228Y2516D01*
X4210Y2523D01*
X4203Y2524D01*
D02*
G37*
G36*
X4177D02*
X4170Y2523D01*
X4152Y2516D01*
X4136Y2504D01*
X4124Y2488D01*
X4117Y2470D01*
X4116Y2463D01*
X4177D01*
Y2524D01*
D02*
G37*
G36*
X3813D02*
Y2463D01*
X3874D01*
X3873Y2470D01*
X3866Y2488D01*
X3854Y2504D01*
X3838Y2516D01*
X3820Y2523D01*
X3813Y2524D01*
D02*
G37*
G36*
X3787D02*
X3780Y2523D01*
X3762Y2516D01*
X3746Y2504D01*
X3734Y2488D01*
X3727Y2470D01*
X3726Y2463D01*
X3787D01*
Y2524D01*
D02*
G37*
G36*
X3063D02*
Y2463D01*
X3124D01*
X3123Y2470D01*
X3116Y2488D01*
X3104Y2504D01*
X3088Y2516D01*
X3070Y2523D01*
X3063Y2524D01*
D02*
G37*
G36*
X3037D02*
X3030Y2523D01*
X3012Y2516D01*
X2996Y2504D01*
X2984Y2488D01*
X2977Y2470D01*
X2976Y2463D01*
X3037D01*
Y2524D01*
D02*
G37*
G36*
X2673D02*
Y2463D01*
X2734D01*
X2733Y2470D01*
X2726Y2488D01*
X2714Y2504D01*
X2698Y2516D01*
X2680Y2523D01*
X2673Y2524D01*
D02*
G37*
G36*
X2647D02*
X2640Y2523D01*
X2622Y2516D01*
X2606Y2504D01*
X2594Y2488D01*
X2587Y2470D01*
X2586Y2463D01*
X2647D01*
Y2524D01*
D02*
G37*
G36*
X2293D02*
Y2463D01*
X2354D01*
X2353Y2470D01*
X2346Y2488D01*
X2334Y2504D01*
X2318Y2516D01*
X2300Y2523D01*
X2293Y2524D01*
D02*
G37*
G36*
X2267D02*
X2260Y2523D01*
X2242Y2516D01*
X2226Y2504D01*
X2214Y2488D01*
X2207Y2470D01*
X2206Y2463D01*
X2267D01*
Y2524D01*
D02*
G37*
G36*
X1933D02*
Y2463D01*
X1994D01*
X1993Y2470D01*
X1986Y2488D01*
X1974Y2504D01*
X1958Y2516D01*
X1940Y2523D01*
X1933Y2524D01*
D02*
G37*
G36*
X1907D02*
X1900Y2523D01*
X1882Y2516D01*
X1866Y2504D01*
X1854Y2488D01*
X1847Y2470D01*
X1846Y2463D01*
X1907D01*
Y2524D01*
D02*
G37*
G36*
X1573D02*
Y2463D01*
X1634D01*
X1633Y2470D01*
X1626Y2488D01*
X1614Y2504D01*
X1598Y2516D01*
X1580Y2523D01*
X1573Y2524D01*
D02*
G37*
G36*
X1547D02*
X1540Y2523D01*
X1522Y2516D01*
X1506Y2504D01*
X1494Y2488D01*
X1487Y2470D01*
X1486Y2463D01*
X1547D01*
Y2524D01*
D02*
G37*
G36*
X5105Y2490D02*
Y2403D01*
X5192D01*
X5190Y2416D01*
X5180Y2441D01*
X5164Y2462D01*
X5143Y2478D01*
X5118Y2488D01*
X5105Y2490D01*
D02*
G37*
G36*
X5079Y2490D02*
X5066Y2488D01*
X5041Y2478D01*
X5020Y2462D01*
X5004Y2441D01*
X4994Y2416D01*
X4992Y2403D01*
X5079D01*
Y2490D01*
D02*
G37*
G36*
X3517Y2440D02*
X3455D01*
Y2378D01*
X3462Y2379D01*
X3481Y2387D01*
X3496Y2399D01*
X3509Y2415D01*
X3516Y2433D01*
X3517Y2440D01*
D02*
G37*
G36*
X3430D02*
X3368D01*
X3369Y2433D01*
X3377Y2415D01*
X3389Y2399D01*
X3405Y2387D01*
X3423Y2379D01*
X3430Y2378D01*
Y2440D01*
D02*
G37*
G36*
X4264Y2437D02*
X4203D01*
Y2376D01*
X4210Y2377D01*
X4228Y2384D01*
X4244Y2396D01*
X4256Y2412D01*
X4263Y2430D01*
X4264Y2437D01*
D02*
G37*
G36*
X4177D02*
X4116D01*
X4117Y2430D01*
X4124Y2412D01*
X4136Y2396D01*
X4152Y2384D01*
X4170Y2377D01*
X4177Y2376D01*
Y2437D01*
D02*
G37*
G36*
X3874D02*
X3813D01*
Y2376D01*
X3820Y2377D01*
X3838Y2384D01*
X3854Y2396D01*
X3866Y2412D01*
X3873Y2430D01*
X3874Y2437D01*
D02*
G37*
G36*
X3787D02*
X3726D01*
X3727Y2430D01*
X3734Y2412D01*
X3746Y2396D01*
X3762Y2384D01*
X3780Y2377D01*
X3787Y2376D01*
Y2437D01*
D02*
G37*
G36*
X3124D02*
X3063D01*
Y2376D01*
X3070Y2377D01*
X3088Y2384D01*
X3104Y2396D01*
X3116Y2412D01*
X3123Y2430D01*
X3124Y2437D01*
D02*
G37*
G36*
X3037D02*
X2976D01*
X2977Y2430D01*
X2984Y2412D01*
X2996Y2396D01*
X3012Y2384D01*
X3030Y2377D01*
X3037Y2376D01*
Y2437D01*
D02*
G37*
G36*
X2734D02*
X2673D01*
Y2376D01*
X2680Y2377D01*
X2698Y2384D01*
X2714Y2396D01*
X2726Y2412D01*
X2733Y2430D01*
X2734Y2437D01*
D02*
G37*
G36*
X2647D02*
X2586D01*
X2587Y2430D01*
X2594Y2412D01*
X2606Y2396D01*
X2622Y2384D01*
X2640Y2377D01*
X2647Y2376D01*
Y2437D01*
D02*
G37*
G36*
X2354D02*
X2293D01*
Y2376D01*
X2300Y2377D01*
X2318Y2384D01*
X2334Y2396D01*
X2346Y2412D01*
X2353Y2430D01*
X2354Y2437D01*
D02*
G37*
G36*
X2267D02*
X2206D01*
X2207Y2430D01*
X2214Y2412D01*
X2226Y2396D01*
X2242Y2384D01*
X2260Y2377D01*
X2267Y2376D01*
Y2437D01*
D02*
G37*
G36*
X1994D02*
X1933D01*
Y2376D01*
X1940Y2377D01*
X1958Y2384D01*
X1974Y2396D01*
X1986Y2412D01*
X1993Y2430D01*
X1994Y2437D01*
D02*
G37*
G36*
X1907D02*
X1846D01*
X1847Y2430D01*
X1854Y2412D01*
X1866Y2396D01*
X1882Y2384D01*
X1900Y2377D01*
X1907Y2376D01*
Y2437D01*
D02*
G37*
G36*
X1634D02*
X1573D01*
Y2376D01*
X1580Y2377D01*
X1598Y2384D01*
X1614Y2396D01*
X1626Y2412D01*
X1633Y2430D01*
X1634Y2437D01*
D02*
G37*
G36*
X1547D02*
X1486D01*
X1487Y2430D01*
X1494Y2412D01*
X1506Y2396D01*
X1522Y2384D01*
X1540Y2377D01*
X1547Y2376D01*
Y2437D01*
D02*
G37*
G36*
X313Y2500D02*
Y2313D01*
X500D01*
X498Y2339D01*
X486Y2377D01*
X467Y2412D01*
X442Y2442D01*
X412Y2467D01*
X377Y2486D01*
X339Y2497D01*
X313Y2500D01*
D02*
G37*
G36*
X287D02*
X261Y2497D01*
X223Y2486D01*
X188Y2467D01*
X158Y2442D01*
X133Y2412D01*
X114Y2377D01*
X103Y2339D01*
X100Y2313D01*
X287D01*
Y2500D01*
D02*
G37*
G36*
X5695Y2485D02*
X5505D01*
Y2295D01*
X5695D01*
Y2485D01*
D02*
G37*
G36*
X5192Y2377D02*
X5105D01*
Y2290D01*
X5118Y2292D01*
X5143Y2302D01*
X5164Y2318D01*
X5180Y2339D01*
X5190Y2364D01*
X5192Y2377D01*
D02*
G37*
G36*
X5079D02*
X4992D01*
X4994Y2364D01*
X5004Y2339D01*
X5020Y2318D01*
X5041Y2302D01*
X5066Y2292D01*
X5079Y2290D01*
Y2377D01*
D02*
G37*
G36*
X5898Y2355D02*
Y2263D01*
X5990D01*
X5988Y2278D01*
X5977Y2303D01*
X5960Y2325D01*
X5938Y2342D01*
X5913Y2353D01*
X5898Y2355D01*
D02*
G37*
G36*
X5872D02*
X5857Y2353D01*
X5832Y2342D01*
X5810Y2325D01*
X5793Y2303D01*
X5782Y2278D01*
X5780Y2263D01*
X5872D01*
Y2355D01*
D02*
G37*
G36*
X5346Y2486D02*
X5321Y2483D01*
X5298Y2473D01*
X5278Y2458D01*
X5263Y2438D01*
X5253Y2415D01*
X5250Y2390D01*
X5253Y2365D01*
X5263Y2342D01*
X5278Y2322D01*
X5298Y2307D01*
X5310Y2302D01*
Y1966D01*
X1720D01*
X1706Y1963D01*
X1695Y1955D01*
X1557Y1818D01*
X1550Y1806D01*
X1547Y1793D01*
Y1769D01*
X1534Y1762D01*
X1533Y1763D01*
X1518Y1766D01*
X1502Y1763D01*
X1489Y1754D01*
X1481D01*
X1468Y1763D01*
X1453Y1766D01*
X1437Y1763D01*
X1429Y1758D01*
X1420Y1755D01*
X1411Y1758D01*
X1403Y1763D01*
X1387Y1766D01*
X1373Y1763D01*
X1362Y1770D01*
X1361Y1780D01*
X1395Y1815D01*
X1395Y1815D01*
X1395Y1815D01*
X1399Y1821D01*
X1403Y1826D01*
X1403Y1826D01*
X1403Y1826D01*
X1404Y1833D01*
X1406Y1840D01*
X1406Y1840D01*
X1406Y1840D01*
Y1980D01*
X1403Y1994D01*
X1401Y1996D01*
X1408Y2009D01*
X1545D01*
X1562D01*
X1565Y2005D01*
X1580Y1994D01*
X1597Y1987D01*
X1615Y1984D01*
X1633Y1987D01*
X1650Y1994D01*
X1665Y2005D01*
X1676Y2020D01*
X1683Y2037D01*
X1686Y2055D01*
X1683Y2073D01*
X1676Y2090D01*
X1665Y2105D01*
X1650Y2116D01*
X1633Y2123D01*
X1615Y2126D01*
X1597Y2123D01*
X1580Y2116D01*
X1565Y2105D01*
X1562Y2101D01*
X1545D01*
X1338D01*
X1338Y2101D01*
X1331Y2111D01*
X1321Y2118D01*
X1309Y2121D01*
X1231D01*
X1219Y2118D01*
X1209Y2111D01*
X1202Y2101D01*
X1199Y2089D01*
Y2039D01*
X1187Y2036D01*
X1186Y2038D01*
X1174Y2054D01*
X1158Y2066D01*
X1140Y2073D01*
X1133Y2074D01*
Y2000D01*
X1107D01*
Y2074D01*
X1100Y2073D01*
X1082Y2066D01*
X1068Y2055D01*
X1056Y2059D01*
Y2185D01*
X1115Y2244D01*
X1277D01*
X1280Y2240D01*
X1295Y2229D01*
X1312Y2222D01*
X1330Y2219D01*
X1348Y2222D01*
X1365Y2229D01*
X1380Y2240D01*
X1391Y2255D01*
X1398Y2272D01*
X1401Y2290D01*
X1398Y2308D01*
X1391Y2325D01*
X1380Y2340D01*
X1365Y2351D01*
X1348Y2358D01*
X1330Y2361D01*
X1312Y2358D01*
X1295Y2351D01*
X1280Y2340D01*
X1269Y2325D01*
X1265Y2316D01*
X1100D01*
X1086Y2313D01*
X1075Y2305D01*
X995Y2225D01*
X987Y2214D01*
X984Y2200D01*
Y1940D01*
X984Y1940D01*
X984Y1940D01*
X986Y1933D01*
X987Y1926D01*
X987Y1926D01*
X987Y1926D01*
X991Y1921D01*
X995Y1915D01*
X995Y1915D01*
X995Y1915D01*
X1132Y1778D01*
X1129Y1770D01*
X1126Y1766D01*
X1112Y1763D01*
X1099Y1754D01*
X1091D01*
X1078Y1763D01*
X1062Y1766D01*
X1047Y1763D01*
X1034Y1754D01*
X1026D01*
X1013Y1763D01*
X998Y1766D01*
X982Y1763D01*
X969Y1754D01*
X960Y1741D01*
X957Y1725D01*
Y1615D01*
X960Y1599D01*
X969Y1586D01*
X982Y1577D01*
X998Y1574D01*
X1013Y1577D01*
X1026Y1586D01*
X1034D01*
X1047Y1577D01*
X1062Y1574D01*
X1078Y1577D01*
X1079Y1578D01*
X1092Y1571D01*
Y1533D01*
X1095Y1519D01*
X1102Y1507D01*
X1190Y1420D01*
X1197Y1415D01*
X1197Y1415D01*
X1200Y1402D01*
X1199Y1400D01*
X1045Y1246D01*
X998D01*
X984Y1243D01*
X972Y1235D01*
X965Y1224D01*
X962Y1210D01*
Y1164D01*
X960Y1161D01*
X957Y1145D01*
Y1035D01*
X960Y1019D01*
X969Y1006D01*
X982Y997D01*
X998Y994D01*
X1013Y997D01*
X1026Y1006D01*
X1034D01*
X1047Y997D01*
X1062Y994D01*
X1078Y997D01*
X1091Y1006D01*
X1099D01*
X1112Y997D01*
X1118Y996D01*
X1122Y982D01*
X1085Y946D01*
X920D01*
X906Y943D01*
X895Y935D01*
X849Y889D01*
X842Y888D01*
X825Y881D01*
X810Y870D01*
X799Y855D01*
X792Y838D01*
X789Y820D01*
X792Y802D01*
X799Y785D01*
X810Y770D01*
X825Y759D01*
X842Y752D01*
X860Y749D01*
X878Y752D01*
X895Y759D01*
X910Y770D01*
X921Y785D01*
X927Y798D01*
X939Y796D01*
Y771D01*
X941Y761D01*
X940Y760D01*
Y688D01*
X937Y683D01*
X934Y669D01*
Y648D01*
X1086D01*
Y669D01*
X1083Y683D01*
X1080Y688D01*
Y754D01*
X1100D01*
Y680D01*
X1101Y679D01*
X1099Y669D01*
Y601D01*
X1102Y589D01*
X1109Y579D01*
X1119Y572D01*
X1131Y569D01*
X1209D01*
X1221Y572D01*
X1231Y579D01*
X1238Y589D01*
X1238Y589D01*
X1292D01*
X1292Y589D01*
X1299Y579D01*
X1309Y572D01*
X1321Y569D01*
X1399D01*
X1404Y570D01*
X1417Y562D01*
Y539D01*
X1120D01*
Y535D01*
X1120D01*
Y441D01*
X1100D01*
X1098Y451D01*
X1091Y461D01*
X1081Y468D01*
X1069Y471D01*
X991D01*
X979Y468D01*
X969Y461D01*
X962Y451D01*
X959Y439D01*
Y422D01*
X957Y419D01*
X954Y405D01*
X957Y391D01*
X959Y388D01*
Y371D01*
X961Y361D01*
X960Y360D01*
Y288D01*
X957Y283D01*
X954Y269D01*
Y248D01*
X1106D01*
Y269D01*
X1103Y283D01*
X1100Y288D01*
Y359D01*
X1110Y368D01*
X1120Y366D01*
Y365D01*
X1120D01*
Y295D01*
X1120D01*
Y125D01*
X1120D01*
Y120D01*
X1839D01*
Y125D01*
X1840D01*
Y209D01*
X1860D01*
X1862Y199D01*
X1869Y189D01*
X1879Y182D01*
X1891Y179D01*
X1969D01*
X1981Y182D01*
X1991Y189D01*
X1998Y199D01*
X2001Y211D01*
Y217D01*
X2005Y220D01*
X2013Y231D01*
X2016Y245D01*
X2013Y259D01*
X2005Y270D01*
X2001Y273D01*
Y279D01*
X1999Y289D01*
X2000Y290D01*
Y362D01*
X2003Y367D01*
X2006Y381D01*
Y402D01*
X1930D01*
X1854D01*
Y381D01*
X1857Y367D01*
X1860Y362D01*
Y291D01*
X1850Y282D01*
X1840Y284D01*
Y295D01*
X1839D01*
Y365D01*
X1840D01*
Y533D01*
X1843Y538D01*
X1850Y544D01*
X1850Y544D01*
X1881D01*
X1882Y539D01*
X1889Y529D01*
X1899Y522D01*
X1911Y519D01*
X1979D01*
X1989Y521D01*
X1990Y520D01*
X2062D01*
X2067Y517D01*
X2081Y514D01*
X2102D01*
Y590D01*
Y666D01*
X2081D01*
X2067Y663D01*
X2062Y660D01*
X1990D01*
X1989Y659D01*
X1979Y661D01*
X1911D01*
X1899Y658D01*
X1889Y651D01*
X1882Y641D01*
X1881Y637D01*
X1869Y636D01*
X1819Y686D01*
X1821Y700D01*
X1818Y721D01*
X1810Y740D01*
X1797Y757D01*
X1780Y770D01*
X1761Y778D01*
X1740Y781D01*
X1719Y778D01*
X1700Y770D01*
X1683Y757D01*
X1670Y740D01*
X1662Y721D01*
X1659Y700D01*
X1662Y679D01*
X1670Y660D01*
X1683Y643D01*
X1700Y630D01*
X1719Y622D01*
X1740Y619D01*
X1754Y621D01*
X1818Y558D01*
X1826Y552D01*
X1822Y539D01*
X1553D01*
Y987D01*
X1563Y992D01*
X1566Y992D01*
X1570Y991D01*
Y1090D01*
X1582D01*
Y1103D01*
X1629D01*
Y1145D01*
X1625Y1163D01*
X1615Y1178D01*
X1609Y1182D01*
X1613Y1194D01*
X1655D01*
X1724Y1125D01*
Y900D01*
X1727Y886D01*
X1735Y875D01*
X1875Y735D01*
X1886Y727D01*
X1900Y724D01*
X4074D01*
X4077Y712D01*
X4063Y705D01*
X4026Y674D01*
X3995Y637D01*
X3973Y594D01*
X3959Y548D01*
X3954Y500D01*
X3959Y452D01*
X3973Y406D01*
X3995Y363D01*
X4026Y326D01*
X4063Y295D01*
X4106Y273D01*
X4152Y259D01*
X4200Y254D01*
X4248Y259D01*
X4294Y273D01*
X4337Y295D01*
X4374Y326D01*
X4405Y363D01*
X4427Y406D01*
X4441Y452D01*
X4446Y500D01*
X4441Y548D01*
X4427Y594D01*
X4405Y637D01*
X4374Y674D01*
X4337Y705D01*
X4323Y712D01*
X4326Y724D01*
X5675D01*
X5865Y535D01*
X5876Y527D01*
X5890Y524D01*
X6520D01*
X6534Y527D01*
X6545Y535D01*
X6595Y584D01*
X6609D01*
X6620Y570D01*
X6635Y559D01*
X6652Y552D01*
X6670Y549D01*
X6688Y552D01*
X6705Y559D01*
X6720Y570D01*
X6731Y585D01*
X6738Y602D01*
X6741Y620D01*
X6738Y638D01*
X6731Y655D01*
X6720Y670D01*
X6705Y681D01*
X6688Y688D01*
X6670Y691D01*
X6652Y688D01*
X6635Y681D01*
X6620Y670D01*
X6609Y656D01*
X6580D01*
X6566Y653D01*
X6555Y645D01*
X6505Y596D01*
X6433D01*
X6429Y608D01*
X6431Y609D01*
X6445Y627D01*
X6453Y648D01*
X6454Y657D01*
X6286D01*
X6287Y648D01*
X6295Y627D01*
X6309Y609D01*
X6311Y608D01*
X6307Y596D01*
X6015D01*
X6011Y608D01*
X6017Y613D01*
X6030Y630D01*
X6038Y649D01*
X6041Y670D01*
X6038Y691D01*
X6030Y710D01*
X6017Y727D01*
X6000Y740D01*
X5995Y742D01*
X5993Y754D01*
X5985Y765D01*
X5885Y865D01*
X5874Y873D01*
X5860Y876D01*
X5572D01*
X5568Y888D01*
X5570Y890D01*
X5581Y905D01*
X5588Y922D01*
X5591Y940D01*
X5588Y958D01*
X5581Y975D01*
X5570Y990D01*
X5555Y1001D01*
X5538Y1008D01*
X5520Y1011D01*
X5502Y1008D01*
X5485Y1025D01*
X5474Y1033D01*
X5460Y1036D01*
X2875D01*
X2435Y1475D01*
X2424Y1483D01*
X2410Y1486D01*
X1688D01*
X1686Y1489D01*
X1686Y1498D01*
X1695Y1505D01*
X1955Y1764D01*
X5650D01*
X5794Y1621D01*
X5788Y1606D01*
X5784Y1580D01*
X5788Y1554D01*
X5798Y1530D01*
X5814Y1509D01*
X5835Y1493D01*
X5859Y1483D01*
X5885Y1479D01*
X5911Y1483D01*
X5935Y1493D01*
X5956Y1509D01*
X5972Y1530D01*
X5982Y1554D01*
X5986Y1580D01*
X5982Y1606D01*
X5972Y1630D01*
X5956Y1651D01*
X5935Y1667D01*
X5911Y1677D01*
X5885Y1681D01*
X5859Y1677D01*
X5844Y1671D01*
X5690Y1825D01*
X5679Y1833D01*
X5665Y1836D01*
X1940D01*
X1926Y1833D01*
X1915Y1825D01*
X1655Y1566D01*
X1602D01*
X1600Y1572D01*
X1600Y1578D01*
X1611Y1586D01*
X1620Y1599D01*
X1623Y1615D01*
Y1725D01*
X1620Y1741D01*
X1618Y1744D01*
Y1778D01*
X1735Y1894D01*
X6235D01*
X6249Y1897D01*
X6260Y1905D01*
X6334Y1979D01*
X6349Y1973D01*
X6375Y1969D01*
X6401Y1973D01*
X6425Y1983D01*
X6446Y1999D01*
X6462Y2020D01*
X6472Y2044D01*
X6476Y2070D01*
X6472Y2096D01*
X6462Y2120D01*
X6446Y2141D01*
X6425Y2157D01*
X6401Y2167D01*
X6375Y2171D01*
X6349Y2167D01*
X6325Y2157D01*
X6304Y2141D01*
X6288Y2120D01*
X6278Y2096D01*
X6274Y2070D01*
X6278Y2044D01*
X6284Y2029D01*
X6220Y1966D01*
X5382D01*
Y2302D01*
X5394Y2307D01*
X5414Y2322D01*
X5429Y2342D01*
X5439Y2365D01*
X5442Y2390D01*
X5439Y2415D01*
X5429Y2438D01*
X5414Y2458D01*
X5394Y2473D01*
X5371Y2483D01*
X5346Y2486D01*
D02*
G37*
G36*
X5990Y2237D02*
X5898D01*
Y2145D01*
X5913Y2147D01*
X5938Y2158D01*
X5960Y2175D01*
X5977Y2197D01*
X5988Y2222D01*
X5990Y2237D01*
D02*
G37*
G36*
X5872D02*
X5780D01*
X5782Y2222D01*
X5793Y2197D01*
X5810Y2175D01*
X5832Y2158D01*
X5857Y2147D01*
X5872Y2145D01*
Y2237D01*
D02*
G37*
G36*
X500Y2287D02*
X313D01*
Y2100D01*
X339Y2102D01*
X377Y2114D01*
X412Y2133D01*
X442Y2158D01*
X467Y2188D01*
X486Y2223D01*
X498Y2261D01*
X500Y2287D01*
D02*
G37*
G36*
X287D02*
X100D01*
X103Y2261D01*
X114Y2223D01*
X133Y2188D01*
X158Y2158D01*
X188Y2133D01*
X223Y2114D01*
X261Y2102D01*
X287Y2100D01*
Y2287D01*
D02*
G37*
G36*
X8200Y2466D02*
X8162Y2462D01*
X8125Y2451D01*
X8091Y2433D01*
X8061Y2409D01*
X8037Y2379D01*
X8019Y2345D01*
X8008Y2308D01*
X8004Y2270D01*
X8008Y2232D01*
X8019Y2195D01*
X8037Y2161D01*
X8061Y2131D01*
X8091Y2107D01*
X8125Y2089D01*
X8162Y2078D01*
X8200Y2074D01*
X8238Y2078D01*
X8275Y2089D01*
X8309Y2107D01*
X8339Y2131D01*
X8363Y2161D01*
X8381Y2195D01*
X8392Y2232D01*
X8396Y2270D01*
X8392Y2308D01*
X8381Y2345D01*
X8363Y2379D01*
X8339Y2409D01*
X8309Y2433D01*
X8275Y2451D01*
X8238Y2462D01*
X8200Y2466D01*
D02*
G37*
G36*
X7000D02*
X6962Y2462D01*
X6925Y2451D01*
X6891Y2433D01*
X6861Y2409D01*
X6837Y2379D01*
X6819Y2345D01*
X6808Y2308D01*
X6804Y2270D01*
X6808Y2232D01*
X6819Y2195D01*
X6837Y2161D01*
X6861Y2131D01*
X6891Y2107D01*
X6925Y2089D01*
X6962Y2078D01*
X7000Y2074D01*
X7038Y2078D01*
X7075Y2089D01*
X7109Y2107D01*
X7139Y2131D01*
X7163Y2161D01*
X7181Y2195D01*
X7192Y2232D01*
X7196Y2270D01*
X7192Y2308D01*
X7181Y2345D01*
X7163Y2379D01*
X7139Y2409D01*
X7109Y2433D01*
X7075Y2451D01*
X7038Y2462D01*
X7000Y2466D01*
D02*
G37*
G36*
X8373Y1854D02*
Y1793D01*
X8434D01*
X8433Y1800D01*
X8426Y1818D01*
X8414Y1834D01*
X8398Y1846D01*
X8380Y1853D01*
X8373Y1854D01*
D02*
G37*
G36*
X8347D02*
X8340Y1853D01*
X8322Y1846D01*
X8306Y1834D01*
X8294Y1818D01*
X8287Y1800D01*
X8286Y1793D01*
X8347D01*
Y1854D01*
D02*
G37*
G36*
X6317Y1716D02*
X6293D01*
X6278Y1713D01*
X6273Y1710D01*
X6192D01*
X6192Y1710D01*
X6187Y1711D01*
X6112D01*
X6100Y1708D01*
X6089Y1701D01*
X6082Y1690D01*
X6079Y1677D01*
Y1562D01*
X6082Y1550D01*
X6089Y1539D01*
X6090Y1534D01*
X6068Y1512D01*
X6068Y1512D01*
X6068Y1512D01*
X6064Y1507D01*
X6058Y1498D01*
X6058Y1498D01*
X6058Y1498D01*
X6056Y1490D01*
X6054Y1480D01*
Y1465D01*
X6047Y1463D01*
X6043Y1461D01*
X5985D01*
X5967Y1457D01*
X5953Y1447D01*
X5943Y1433D01*
X5939Y1415D01*
Y1256D01*
X5910D01*
X5910Y1256D01*
X5910Y1256D01*
X5901Y1254D01*
X5892Y1252D01*
X5892Y1252D01*
X5892Y1252D01*
X5888Y1250D01*
X5880Y1251D01*
X5862Y1248D01*
X5845Y1241D01*
X5830Y1230D01*
X5819Y1215D01*
X5812Y1198D01*
X5809Y1180D01*
X5812Y1162D01*
X5819Y1145D01*
X5830Y1130D01*
X5845Y1119D01*
X5862Y1112D01*
X5880Y1109D01*
X5898Y1112D01*
X5915Y1119D01*
X5919Y1122D01*
X5931Y1117D01*
X5932Y1112D01*
X5939Y1095D01*
X5950Y1080D01*
X5965Y1069D01*
X5982Y1062D01*
X6000Y1059D01*
X6018Y1062D01*
X6035Y1069D01*
X6050Y1080D01*
X6061Y1095D01*
X6068Y1112D01*
X6071Y1130D01*
X6068Y1148D01*
X6063Y1162D01*
X6067Y1171D01*
X6070Y1174D01*
X6142D01*
X6153Y1177D01*
X6162Y1183D01*
X6168Y1192D01*
X6171Y1202D01*
Y1247D01*
X6168Y1258D01*
X6168Y1259D01*
X6177Y1270D01*
X6184Y1268D01*
Y1116D01*
X6172D01*
X6158Y1113D01*
X6145Y1105D01*
X6137Y1092D01*
X6134Y1078D01*
Y1033D01*
X6210D01*
Y1020D01*
X6223D01*
Y924D01*
X6247D01*
X6262Y927D01*
X6267Y930D01*
X6347D01*
X6348Y930D01*
X6353Y929D01*
X6428D01*
X6440Y932D01*
X6451Y939D01*
X6458Y950D01*
X6461Y962D01*
Y1078D01*
X6458Y1090D01*
X6451Y1101D01*
X6440Y1108D01*
X6436Y1109D01*
Y1185D01*
X6447Y1193D01*
X6526Y1271D01*
X6540Y1269D01*
X6561Y1272D01*
X6580Y1280D01*
X6597Y1293D01*
X6610Y1310D01*
X6618Y1329D01*
X6621Y1350D01*
X6618Y1371D01*
X6610Y1390D01*
X6597Y1407D01*
X6580Y1420D01*
X6561Y1428D01*
X6540Y1431D01*
X6519Y1428D01*
X6500Y1420D01*
X6483Y1407D01*
X6470Y1390D01*
X6462Y1371D01*
X6459Y1350D01*
X6461Y1336D01*
X6401Y1276D01*
X6317D01*
X6307Y1273D01*
X6298Y1267D01*
X6292Y1258D01*
X6289Y1247D01*
Y1202D01*
X6292Y1192D01*
X6298Y1183D01*
X6307Y1177D01*
X6317Y1174D01*
X6344D01*
Y1110D01*
X6276D01*
Y1320D01*
Y1418D01*
X6277Y1419D01*
X6289Y1412D01*
Y1393D01*
X6292Y1382D01*
X6298Y1373D01*
X6307Y1367D01*
X6317Y1364D01*
X6403D01*
X6413Y1367D01*
X6422Y1373D01*
X6428Y1382D01*
X6431Y1393D01*
Y1438D01*
X6428Y1448D01*
X6422Y1457D01*
X6413Y1463D01*
X6403Y1466D01*
X6328D01*
X6323Y1478D01*
X6362Y1518D01*
X6367Y1524D01*
X6368D01*
X6382Y1527D01*
X6395Y1535D01*
X6403Y1548D01*
X6406Y1562D01*
Y1607D01*
X6330D01*
Y1620D01*
X6317D01*
Y1716D01*
D02*
G37*
G36*
X8434Y1767D02*
X8373D01*
Y1706D01*
X8380Y1707D01*
X8398Y1714D01*
X8414Y1726D01*
X8426Y1742D01*
X8433Y1760D01*
X8434Y1767D01*
D02*
G37*
G36*
X8347D02*
X8286D01*
X8287Y1760D01*
X8294Y1742D01*
X8306Y1726D01*
X8322Y1714D01*
X8340Y1707D01*
X8347Y1706D01*
Y1767D01*
D02*
G37*
G36*
X680Y1757D02*
Y1695D01*
X742D01*
X741Y1702D01*
X733Y1721D01*
X721Y1736D01*
X705Y1749D01*
X687Y1756D01*
X680Y1757D01*
D02*
G37*
G36*
X655D02*
X648Y1756D01*
X629Y1749D01*
X614Y1736D01*
X601Y1721D01*
X594Y1702D01*
X593Y1695D01*
X655D01*
Y1757D01*
D02*
G37*
G36*
X6368Y1716D02*
X6343D01*
Y1633D01*
X6406D01*
Y1677D01*
X6403Y1692D01*
X6395Y1705D01*
X6382Y1713D01*
X6368Y1716D01*
D02*
G37*
G36*
X2253Y1684D02*
Y1623D01*
X2314D01*
X2313Y1630D01*
X2306Y1648D01*
X2294Y1664D01*
X2278Y1676D01*
X2260Y1683D01*
X2253Y1684D01*
D02*
G37*
G36*
X2227D02*
X2220Y1683D01*
X2202Y1676D01*
X2186Y1664D01*
X2174Y1648D01*
X2167Y1630D01*
X2166Y1623D01*
X2227D01*
Y1684D01*
D02*
G37*
G36*
X2063D02*
Y1623D01*
X2124D01*
X2123Y1630D01*
X2116Y1648D01*
X2104Y1664D01*
X2088Y1676D01*
X2070Y1683D01*
X2063Y1684D01*
D02*
G37*
G36*
X2037D02*
X2030Y1683D01*
X2012Y1676D01*
X1996Y1664D01*
X1984Y1648D01*
X1977Y1630D01*
X1976Y1623D01*
X2037D01*
Y1684D01*
D02*
G37*
G36*
X742Y1670D02*
X680D01*
Y1608D01*
X687Y1609D01*
X705Y1617D01*
X721Y1629D01*
X733Y1645D01*
X741Y1663D01*
X742Y1670D01*
D02*
G37*
G36*
X655D02*
X593D01*
X594Y1663D01*
X601Y1645D01*
X614Y1629D01*
X629Y1617D01*
X648Y1609D01*
X655Y1608D01*
Y1670D01*
D02*
G37*
G36*
X5523Y1654D02*
Y1593D01*
X5584D01*
X5583Y1600D01*
X5576Y1618D01*
X5564Y1634D01*
X5548Y1646D01*
X5530Y1653D01*
X5523Y1654D01*
D02*
G37*
G36*
X5497D02*
X5490Y1653D01*
X5472Y1646D01*
X5456Y1634D01*
X5444Y1618D01*
X5437Y1600D01*
X5436Y1593D01*
X5497D01*
Y1654D01*
D02*
G37*
G36*
X2314Y1597D02*
X2253D01*
Y1536D01*
X2260Y1537D01*
X2278Y1544D01*
X2294Y1556D01*
X2306Y1572D01*
X2313Y1590D01*
X2314Y1597D01*
D02*
G37*
G36*
X2227D02*
X2166D01*
X2167Y1590D01*
X2174Y1572D01*
X2186Y1556D01*
X2202Y1544D01*
X2220Y1537D01*
X2227Y1536D01*
Y1597D01*
D02*
G37*
G36*
X2124D02*
X2063D01*
Y1536D01*
X2070Y1537D01*
X2088Y1544D01*
X2104Y1556D01*
X2116Y1572D01*
X2123Y1590D01*
X2124Y1597D01*
D02*
G37*
G36*
X2037D02*
X1976D01*
X1977Y1590D01*
X1984Y1572D01*
X1996Y1556D01*
X2012Y1544D01*
X2030Y1537D01*
X2037Y1536D01*
Y1597D01*
D02*
G37*
G36*
X5584Y1567D02*
X5523D01*
Y1506D01*
X5530Y1507D01*
X5548Y1514D01*
X5564Y1526D01*
X5576Y1542D01*
X5583Y1560D01*
X5584Y1567D01*
D02*
G37*
G36*
X5497D02*
X5436D01*
X5437Y1560D01*
X5444Y1542D01*
X5456Y1526D01*
X5472Y1514D01*
X5490Y1507D01*
X5497Y1506D01*
Y1567D01*
D02*
G37*
G36*
X8373Y1494D02*
Y1433D01*
X8434D01*
X8433Y1440D01*
X8426Y1458D01*
X8414Y1474D01*
X8398Y1486D01*
X8380Y1493D01*
X8373Y1494D01*
D02*
G37*
G36*
X8347D02*
X8340Y1493D01*
X8322Y1486D01*
X8306Y1474D01*
X8294Y1458D01*
X8287Y1440D01*
X8286Y1433D01*
X8347D01*
Y1494D01*
D02*
G37*
G36*
X8434Y1407D02*
X8373D01*
Y1346D01*
X8380Y1347D01*
X8398Y1354D01*
X8414Y1366D01*
X8426Y1382D01*
X8433Y1400D01*
X8434Y1407D01*
D02*
G37*
G36*
X8347D02*
X8286D01*
X8287Y1400D01*
X8294Y1382D01*
X8306Y1366D01*
X8322Y1354D01*
X8340Y1347D01*
X8347Y1346D01*
Y1407D01*
D02*
G37*
G36*
X4200Y1746D02*
X4152Y1741D01*
X4106Y1727D01*
X4063Y1705D01*
X4026Y1674D01*
X3995Y1637D01*
X3973Y1594D01*
X3959Y1548D01*
X3954Y1500D01*
X3959Y1452D01*
X3973Y1406D01*
X3995Y1363D01*
X4026Y1326D01*
X4063Y1295D01*
X4106Y1273D01*
X4152Y1259D01*
X4200Y1254D01*
X4248Y1259D01*
X4294Y1273D01*
X4337Y1295D01*
X4374Y1326D01*
X4405Y1363D01*
X4427Y1406D01*
X4441Y1452D01*
X4446Y1500D01*
X4441Y1548D01*
X4427Y1594D01*
X4405Y1637D01*
X4374Y1674D01*
X4337Y1705D01*
X4294Y1727D01*
X4248Y1741D01*
X4200Y1746D01*
D02*
G37*
G36*
X5523Y1234D02*
Y1173D01*
X5584D01*
X5583Y1180D01*
X5576Y1198D01*
X5564Y1214D01*
X5548Y1226D01*
X5530Y1233D01*
X5523Y1234D01*
D02*
G37*
G36*
X5497D02*
X5490Y1233D01*
X5472Y1226D01*
X5456Y1214D01*
X5444Y1198D01*
X5437Y1180D01*
X5436Y1173D01*
X5497D01*
Y1234D01*
D02*
G37*
G36*
X8373Y1154D02*
Y1093D01*
X8434D01*
X8433Y1100D01*
X8426Y1118D01*
X8414Y1134D01*
X8398Y1146D01*
X8380Y1153D01*
X8373Y1154D01*
D02*
G37*
G36*
X8347D02*
X8340Y1153D01*
X8322Y1146D01*
X8306Y1134D01*
X8294Y1118D01*
X8287Y1100D01*
X8286Y1093D01*
X8347D01*
Y1154D01*
D02*
G37*
G36*
X5584Y1147D02*
X5523D01*
Y1086D01*
X5530Y1087D01*
X5548Y1094D01*
X5564Y1106D01*
X5576Y1122D01*
X5583Y1140D01*
X5584Y1147D01*
D02*
G37*
G36*
X5497D02*
X5436D01*
X5437Y1140D01*
X5444Y1122D01*
X5456Y1106D01*
X5472Y1094D01*
X5490Y1087D01*
X5497Y1086D01*
Y1147D01*
D02*
G37*
G36*
X8434Y1067D02*
X8373D01*
Y1006D01*
X8380Y1007D01*
X8398Y1014D01*
X8414Y1026D01*
X8426Y1042D01*
X8433Y1060D01*
X8434Y1067D01*
D02*
G37*
G36*
X8347D02*
X8286D01*
X8287Y1060D01*
X8294Y1042D01*
X8306Y1026D01*
X8322Y1014D01*
X8340Y1007D01*
X8347Y1006D01*
Y1067D01*
D02*
G37*
G36*
X1629Y1077D02*
X1595D01*
Y991D01*
X1600Y992D01*
X1615Y1002D01*
X1625Y1017D01*
X1629Y1035D01*
Y1077D01*
D02*
G37*
G36*
X6197Y1007D02*
X6134D01*
Y962D01*
X6137Y948D01*
X6145Y935D01*
X6158Y927D01*
X6172Y924D01*
X6197D01*
Y1007D01*
D02*
G37*
G36*
X355Y1316D02*
X312Y1312D01*
X270Y1299D01*
X232Y1279D01*
X199Y1251D01*
X171Y1218D01*
X151Y1180D01*
X138Y1138D01*
X134Y1095D01*
X138Y1052D01*
X151Y1010D01*
X171Y972D01*
X199Y939D01*
X232Y911D01*
X270Y891D01*
X312Y878D01*
X355Y874D01*
X398Y878D01*
X440Y891D01*
X478Y911D01*
X511Y939D01*
X539Y972D01*
X559Y1010D01*
X572Y1052D01*
X576Y1095D01*
X572Y1138D01*
X559Y1180D01*
X539Y1218D01*
X511Y1251D01*
X478Y1279D01*
X440Y1299D01*
X398Y1312D01*
X355Y1316D01*
D02*
G37*
G36*
X7580Y1426D02*
X7529Y1422D01*
X7479Y1410D01*
X7432Y1390D01*
X7388Y1364D01*
X7349Y1331D01*
X7316Y1292D01*
X7290Y1248D01*
X7270Y1201D01*
X7258Y1151D01*
X7254Y1100D01*
X7258Y1049D01*
X7270Y999D01*
X7290Y952D01*
X7316Y908D01*
X7349Y869D01*
X7388Y836D01*
X7432Y810D01*
X7479Y790D01*
X7529Y778D01*
X7580Y774D01*
Y775D01*
X7582Y775D01*
X7802D01*
X7807Y774D01*
Y774D01*
X7858Y778D01*
X7907Y789D01*
X7955Y809D01*
X7998Y836D01*
X8037Y869D01*
X8070Y908D01*
X8097Y952D01*
X8117Y999D01*
X8129Y1049D01*
X8133Y1100D01*
X8129Y1151D01*
X8117Y1200D01*
X8097Y1248D01*
X8070Y1291D01*
X8037Y1330D01*
X7998Y1363D01*
X7955Y1390D01*
X7907Y1410D01*
X7858Y1422D01*
X7807Y1426D01*
Y1425D01*
X7580D01*
Y1426D01*
D02*
G37*
G36*
X8373Y764D02*
Y703D01*
X8434D01*
X8433Y710D01*
X8426Y728D01*
X8414Y744D01*
X8398Y756D01*
X8380Y763D01*
X8373Y764D01*
D02*
G37*
G36*
X8347D02*
X8340Y763D01*
X8322Y756D01*
X8306Y744D01*
X8294Y728D01*
X8287Y710D01*
X8286Y703D01*
X8347D01*
Y764D01*
D02*
G37*
G36*
X6383Y754D02*
Y683D01*
X6454D01*
X6453Y692D01*
X6445Y713D01*
X6431Y731D01*
X6413Y745D01*
X6392Y753D01*
X6383Y754D01*
D02*
G37*
G36*
X6357D02*
X6348Y753D01*
X6327Y745D01*
X6309Y731D01*
X6295Y713D01*
X6287Y692D01*
X6286Y683D01*
X6357D01*
Y754D01*
D02*
G37*
G36*
X8434Y677D02*
X8373D01*
Y616D01*
X8380Y617D01*
X8398Y624D01*
X8414Y636D01*
X8426Y652D01*
X8433Y670D01*
X8434Y677D01*
D02*
G37*
G36*
X8347D02*
X8286D01*
X8287Y670D01*
X8294Y652D01*
X8306Y636D01*
X8322Y624D01*
X8340Y617D01*
X8347Y616D01*
Y677D01*
D02*
G37*
G36*
X2149Y666D02*
X2128D01*
Y603D01*
X2186D01*
Y629D01*
X2183Y643D01*
X2175Y655D01*
X2163Y663D01*
X2149Y666D01*
D02*
G37*
G36*
X1086Y622D02*
X1023D01*
Y564D01*
X1049D01*
X1063Y567D01*
X1075Y575D01*
X1083Y587D01*
X1086Y601D01*
Y622D01*
D02*
G37*
G36*
X997D02*
X934D01*
Y601D01*
X937Y587D01*
X945Y575D01*
X957Y567D01*
X971Y564D01*
X997D01*
Y622D01*
D02*
G37*
G36*
X680Y587D02*
Y525D01*
X742D01*
X741Y532D01*
X733Y551D01*
X721Y566D01*
X705Y579D01*
X687Y586D01*
X680Y587D01*
D02*
G37*
G36*
X655D02*
X648Y586D01*
X629Y579D01*
X614Y566D01*
X601Y551D01*
X594Y532D01*
X593Y525D01*
X655D01*
Y587D01*
D02*
G37*
G36*
X2186Y577D02*
X2128D01*
Y514D01*
X2149D01*
X2163Y517D01*
X2175Y525D01*
X2183Y537D01*
X2186Y551D01*
Y577D01*
D02*
G37*
G36*
X742Y500D02*
X680D01*
Y438D01*
X687Y439D01*
X705Y447D01*
X721Y459D01*
X733Y475D01*
X741Y493D01*
X742Y500D01*
D02*
G37*
G36*
X655D02*
X593D01*
X594Y493D01*
X601Y475D01*
X614Y459D01*
X629Y447D01*
X648Y439D01*
X655Y438D01*
Y500D01*
D02*
G37*
G36*
X1969Y486D02*
X1943D01*
Y428D01*
X2006D01*
Y449D01*
X2003Y463D01*
X1995Y475D01*
X1983Y483D01*
X1969Y486D01*
D02*
G37*
G36*
X1917D02*
X1891D01*
X1877Y483D01*
X1865Y475D01*
X1857Y463D01*
X1854Y449D01*
Y428D01*
X1917D01*
Y486D01*
D02*
G37*
G36*
X8347Y418D02*
X8337Y417D01*
X8315Y408D01*
X8297Y393D01*
X8282Y375D01*
X8273Y353D01*
X8272Y343D01*
X8347D01*
Y418D01*
D02*
G37*
G36*
Y317D02*
X8272D01*
X8273Y307D01*
X8282Y285D01*
X8297Y267D01*
X8315Y252D01*
X8337Y243D01*
X8347Y242D01*
Y317D01*
D02*
G37*
G36*
X5453Y244D02*
Y183D01*
X5514D01*
X5513Y190D01*
X5506Y208D01*
X5494Y224D01*
X5478Y236D01*
X5460Y243D01*
X5453Y244D01*
D02*
G37*
G36*
X5427D02*
X5420Y243D01*
X5402Y236D01*
X5386Y224D01*
X5374Y208D01*
X5367Y190D01*
X5366Y183D01*
X5427D01*
Y244D01*
D02*
G37*
G36*
X4963D02*
Y183D01*
X5024D01*
X5023Y190D01*
X5016Y208D01*
X5004Y224D01*
X4988Y236D01*
X4970Y243D01*
X4963Y244D01*
D02*
G37*
G36*
X4937D02*
X4930Y243D01*
X4912Y236D01*
X4896Y224D01*
X4884Y208D01*
X4877Y190D01*
X4876Y183D01*
X4937D01*
Y244D01*
D02*
G37*
G36*
X4533D02*
Y183D01*
X4594D01*
X4593Y190D01*
X4586Y208D01*
X4574Y224D01*
X4558Y236D01*
X4540Y243D01*
X4533Y244D01*
D02*
G37*
G36*
X4507D02*
X4500Y243D01*
X4482Y236D01*
X4466Y224D01*
X4454Y208D01*
X4447Y190D01*
X4446Y183D01*
X4507D01*
Y244D01*
D02*
G37*
G36*
X4023D02*
Y183D01*
X4084D01*
X4083Y190D01*
X4076Y208D01*
X4064Y224D01*
X4048Y236D01*
X4030Y243D01*
X4023Y244D01*
D02*
G37*
G36*
X3997D02*
X3990Y243D01*
X3972Y236D01*
X3956Y224D01*
X3944Y208D01*
X3937Y190D01*
X3936Y183D01*
X3997D01*
Y244D01*
D02*
G37*
G36*
X3543D02*
Y183D01*
X3604D01*
X3603Y190D01*
X3596Y208D01*
X3584Y224D01*
X3568Y236D01*
X3550Y243D01*
X3543Y244D01*
D02*
G37*
G36*
X3517D02*
X3510Y243D01*
X3492Y236D01*
X3476Y224D01*
X3464Y208D01*
X3457Y190D01*
X3456Y183D01*
X3517D01*
Y244D01*
D02*
G37*
G36*
X3073D02*
Y183D01*
X3134D01*
X3133Y190D01*
X3126Y208D01*
X3114Y224D01*
X3098Y236D01*
X3080Y243D01*
X3073Y244D01*
D02*
G37*
G36*
X3047D02*
X3040Y243D01*
X3022Y236D01*
X3006Y224D01*
X2994Y208D01*
X2987Y190D01*
X2986Y183D01*
X3047D01*
Y244D01*
D02*
G37*
G36*
X1106Y222D02*
X1043D01*
Y164D01*
X1069D01*
X1083Y167D01*
X1095Y175D01*
X1103Y187D01*
X1106Y201D01*
Y222D01*
D02*
G37*
G36*
X1017D02*
X954D01*
Y201D01*
X957Y187D01*
X965Y175D01*
X977Y167D01*
X991Y164D01*
X1017D01*
Y222D01*
D02*
G37*
G36*
X6050Y496D02*
X6012Y492D01*
X5975Y481D01*
X5941Y463D01*
X5911Y439D01*
X5887Y409D01*
X5869Y375D01*
X5858Y338D01*
X5854Y300D01*
X5858Y262D01*
X5869Y225D01*
X5887Y191D01*
X5911Y161D01*
X5941Y137D01*
X5975Y119D01*
X6012Y108D01*
X6050Y104D01*
X6088Y108D01*
X6125Y119D01*
X6159Y137D01*
X6189Y161D01*
X6213Y191D01*
X6231Y225D01*
X6242Y262D01*
X6246Y300D01*
X6242Y338D01*
X6231Y375D01*
X6213Y409D01*
X6189Y439D01*
X6159Y463D01*
X6125Y481D01*
X6088Y492D01*
X6050Y496D01*
D02*
G37*
G36*
X2450D02*
X2412Y492D01*
X2375Y481D01*
X2341Y463D01*
X2311Y439D01*
X2287Y409D01*
X2269Y375D01*
X2258Y338D01*
X2254Y300D01*
X2258Y262D01*
X2269Y225D01*
X2287Y191D01*
X2311Y161D01*
X2341Y137D01*
X2375Y119D01*
X2412Y108D01*
X2450Y104D01*
X2488Y108D01*
X2525Y119D01*
X2559Y137D01*
X2589Y161D01*
X2613Y191D01*
X2631Y225D01*
X2642Y262D01*
X2646Y300D01*
X2642Y338D01*
X2631Y375D01*
X2613Y409D01*
X2589Y439D01*
X2559Y463D01*
X2525Y481D01*
X2488Y492D01*
X2450Y496D01*
D02*
G37*
G36*
X5514Y157D02*
X5453D01*
Y96D01*
X5460Y97D01*
X5478Y104D01*
X5494Y116D01*
X5506Y132D01*
X5513Y150D01*
X5514Y157D01*
D02*
G37*
G36*
X5427D02*
X5366D01*
X5367Y150D01*
X5374Y132D01*
X5386Y116D01*
X5402Y104D01*
X5420Y97D01*
X5427Y96D01*
Y157D01*
D02*
G37*
G36*
X5024D02*
X4963D01*
Y96D01*
X4970Y97D01*
X4988Y104D01*
X5004Y116D01*
X5016Y132D01*
X5023Y150D01*
X5024Y157D01*
D02*
G37*
G36*
X4937D02*
X4876D01*
X4877Y150D01*
X4884Y132D01*
X4896Y116D01*
X4912Y104D01*
X4930Y97D01*
X4937Y96D01*
Y157D01*
D02*
G37*
G36*
X4594D02*
X4533D01*
Y96D01*
X4540Y97D01*
X4558Y104D01*
X4574Y116D01*
X4586Y132D01*
X4593Y150D01*
X4594Y157D01*
D02*
G37*
G36*
X4507D02*
X4446D01*
X4447Y150D01*
X4454Y132D01*
X4466Y116D01*
X4482Y104D01*
X4500Y97D01*
X4507Y96D01*
Y157D01*
D02*
G37*
G36*
X4084D02*
X4023D01*
Y96D01*
X4030Y97D01*
X4048Y104D01*
X4064Y116D01*
X4076Y132D01*
X4083Y150D01*
X4084Y157D01*
D02*
G37*
G36*
X3997D02*
X3936D01*
X3937Y150D01*
X3944Y132D01*
X3956Y116D01*
X3972Y104D01*
X3990Y97D01*
X3997Y96D01*
Y157D01*
D02*
G37*
G36*
X3604D02*
X3543D01*
Y96D01*
X3550Y97D01*
X3568Y104D01*
X3584Y116D01*
X3596Y132D01*
X3603Y150D01*
X3604Y157D01*
D02*
G37*
G36*
X3517D02*
X3456D01*
X3457Y150D01*
X3464Y132D01*
X3476Y116D01*
X3492Y104D01*
X3510Y97D01*
X3517Y96D01*
Y157D01*
D02*
G37*
G36*
X3134D02*
X3073D01*
Y96D01*
X3080Y97D01*
X3098Y104D01*
X3114Y116D01*
X3126Y132D01*
X3133Y150D01*
X3134Y157D01*
D02*
G37*
G36*
X3047D02*
X2986D01*
X2987Y150D01*
X2994Y132D01*
X3006Y116D01*
X3022Y104D01*
X3040Y97D01*
X3047Y96D01*
Y157D01*
D02*
G37*
%LPD*%
G36*
X2785Y865D02*
X2796Y857D01*
X2810Y854D01*
X5255D01*
X5295Y815D01*
X5304Y808D01*
X5304Y799D01*
X5302Y796D01*
X1915D01*
X1796Y915D01*
Y1140D01*
X1793Y1154D01*
X1785Y1165D01*
X1695Y1255D01*
X1684Y1263D01*
X1670Y1266D01*
X1184D01*
X1179Y1278D01*
X1245Y1344D01*
X2305D01*
X2785Y865D01*
D02*
G37*
%LPC*%
G36*
X2523Y994D02*
Y933D01*
X2584D01*
X2583Y940D01*
X2576Y958D01*
X2564Y974D01*
X2548Y986D01*
X2530Y993D01*
X2523Y994D01*
D02*
G37*
G36*
X2497D02*
X2490Y993D01*
X2472Y986D01*
X2456Y974D01*
X2444Y958D01*
X2437Y940D01*
X2436Y933D01*
X2497D01*
Y994D01*
D02*
G37*
G36*
X2155Y1316D02*
X2112Y1312D01*
X2070Y1299D01*
X2032Y1279D01*
X1999Y1251D01*
X1971Y1218D01*
X1951Y1180D01*
X1938Y1138D01*
X1934Y1095D01*
X1938Y1052D01*
X1951Y1010D01*
X1971Y972D01*
X1999Y939D01*
X2032Y911D01*
X2070Y891D01*
X2112Y878D01*
X2155Y874D01*
X2198Y878D01*
X2240Y891D01*
X2278Y911D01*
X2311Y939D01*
X2339Y972D01*
X2359Y1010D01*
X2372Y1052D01*
X2376Y1095D01*
X2372Y1138D01*
X2359Y1180D01*
X2339Y1218D01*
X2311Y1251D01*
X2278Y1279D01*
X2240Y1299D01*
X2198Y1312D01*
X2155Y1316D01*
D02*
G37*
G36*
X2584Y907D02*
X2523D01*
Y846D01*
X2530Y847D01*
X2548Y854D01*
X2564Y866D01*
X2576Y882D01*
X2583Y900D01*
X2584Y907D01*
D02*
G37*
G36*
X2497D02*
X2436D01*
X2437Y900D01*
X2444Y882D01*
X2456Y866D01*
X2472Y854D01*
X2490Y847D01*
X2497Y846D01*
Y907D01*
D02*
G37*
%LPD*%
D11*
X1945Y590D02*
D03*
X2115D02*
D03*
D14*
X5890Y560D02*
X6520D01*
X5690Y760D02*
X5890Y560D01*
X1900Y760D02*
X5690D01*
X6520Y560D02*
X6580Y620D01*
X6670D01*
X5960Y670D02*
Y740D01*
X1020Y1940D02*
Y2200D01*
X1100Y2280D01*
X1300Y1520D02*
X1340D01*
X1215Y1445D02*
X1331D01*
X1336Y1450D02*
X2410D01*
X1331Y1445D02*
X1336Y1450D01*
X1127Y1533D02*
X1215Y1445D01*
X1340Y1520D02*
X1390Y1570D01*
X1127Y1533D02*
Y1670D01*
X1295Y2055D02*
X1370Y1980D01*
Y1840D02*
Y1980D01*
X1020Y1940D02*
X1193Y1768D01*
Y1670D02*
Y1768D01*
X1100Y2280D02*
X1330D01*
X1390Y1570D02*
Y1668D01*
X5320Y840D02*
X5860D01*
X5270Y890D02*
X5320Y840D01*
X2810Y890D02*
X5270D01*
X5860Y840D02*
X5960Y740D01*
X1760Y900D02*
X1900Y760D01*
X2320Y1380D02*
X2810Y890D01*
X5460Y1000D02*
X5520Y940D01*
X2860Y1000D02*
X5460D01*
X2410Y1450D02*
X2860Y1000D01*
X1230Y1380D02*
X2320D01*
X1060Y1210D02*
X1230Y1380D01*
X1760Y900D02*
Y1140D01*
X1670Y1230D02*
X1760Y1140D01*
X1170Y1230D02*
X1670D01*
X1130Y1190D02*
X1170Y1230D01*
X998Y1210D02*
X1062D01*
X990Y405D02*
X1215D01*
X1735Y245D02*
X1980D01*
X1062Y1090D02*
Y1210D01*
Y1040D02*
Y1090D01*
X998D02*
Y1210D01*
Y1040D02*
Y1090D01*
X1127D02*
X1130Y1092D01*
Y1190D01*
X1940Y1800D02*
X5665D01*
X1670Y1530D02*
X1940Y1800D01*
X1550Y1530D02*
X1670D01*
X5665Y1800D02*
X5885Y1580D01*
X1518Y1562D02*
X1550Y1530D01*
X1518Y1562D02*
Y1670D01*
X6235Y1930D02*
X6375Y2070D01*
X1582Y1793D02*
X1720Y1930D01*
X1582Y1670D02*
Y1793D01*
X920Y910D02*
X1100D01*
X1193Y1002D01*
Y1090D01*
X1240Y940D02*
X1258Y958D01*
Y1090D01*
X1170Y805D02*
X1222D01*
X1322Y905D01*
Y1090D01*
X1360Y805D02*
X1387Y832D01*
Y1040D01*
X1215Y405D02*
X1260Y450D01*
X1700Y210D02*
X1735Y245D01*
X1260Y450D02*
X1410D01*
X1453Y492D01*
Y1040D01*
X1610Y210D02*
X1700D01*
X1518Y303D02*
X1610Y210D01*
X1518Y303D02*
Y1040D01*
X1322Y1793D02*
X1370Y1840D01*
X1322Y1670D02*
Y1793D01*
X1258Y1872D02*
X1270Y1885D01*
X1258Y1670D02*
Y1872D01*
X830Y820D02*
X920Y910D01*
X830Y820D02*
X830Y820D01*
X860D01*
X5346Y1934D02*
Y2390D01*
X1720Y1930D02*
X6235D01*
D15*
X1740Y700D02*
X1850Y590D01*
X1945D01*
X1120Y2000D02*
X1235Y1885D01*
X1270D01*
X1295Y2055D02*
X1545D01*
X1615Y2055D01*
X1270Y2055D02*
X1295D01*
X6360Y1225D02*
X6415D01*
X6540Y1350D01*
X1155Y800D02*
X1170Y815D01*
X1020Y800D02*
X1155D01*
X1200Y635D02*
X1360D01*
X5880Y1180D02*
X5910Y1210D01*
X6000D01*
Y1130D02*
Y1210D01*
X6210Y1020D02*
X6230Y1040D01*
Y1320D01*
X6360Y1225D02*
X6390Y1195D01*
Y1020D02*
Y1195D01*
X5985Y1415D02*
X6100D01*
X5985Y1225D02*
Y1415D01*
Y1225D02*
X6100D01*
X6330Y1550D02*
Y1620D01*
X6230Y1450D02*
X6330Y1550D01*
X6230Y1320D02*
Y1450D01*
X6100Y1320D02*
X6230D01*
X6150Y1530D02*
Y1620D01*
X6100Y1480D02*
X6150Y1530D01*
X6100Y1415D02*
Y1480D01*
X6353Y2092D02*
X6375Y2070D01*
X5885Y2250D02*
X5905Y2270D01*
D16*
X4200Y1500D02*
D03*
Y500D02*
D03*
D17*
X300Y2300D02*
D03*
X8200Y2270D02*
D03*
X7000D02*
D03*
X2450Y300D02*
D03*
X6050D02*
D03*
D18*
X6370Y670D02*
D03*
X5960Y670D02*
D03*
X6540Y1350D02*
D03*
X1740Y700D02*
D03*
D19*
X5885Y1580D02*
D03*
Y2250D02*
D03*
X6375Y2070D02*
D03*
D20*
X2155Y1095D02*
D03*
X355D02*
D03*
D21*
X5092Y2390D02*
D03*
X5346D02*
D03*
D22*
X5600D02*
D03*
D23*
X8360Y330D02*
D03*
D24*
X6670Y620D02*
D03*
X1120Y2000D02*
D03*
X1615Y2055D02*
D03*
X1560Y2450D02*
D03*
X1920D02*
D03*
X2280D02*
D03*
X2660D02*
D03*
X3050D02*
D03*
X4190D02*
D03*
X3800D02*
D03*
X3443Y2453D02*
D03*
X3060Y170D02*
D03*
X3530D02*
D03*
X4010D02*
D03*
X4520D02*
D03*
X4950D02*
D03*
X5440D02*
D03*
X8360Y690D02*
D03*
Y1080D02*
D03*
Y1420D02*
D03*
Y1780D02*
D03*
X2510Y920D02*
D03*
X5520Y940D02*
D03*
X1330Y2290D02*
D03*
X6000Y1130D02*
D03*
X5880Y1180D02*
D03*
X860Y820D02*
D03*
X5510Y1580D02*
D03*
Y1160D02*
D03*
X2050Y1610D02*
D03*
X2240D02*
D03*
X667Y513D02*
D03*
Y1683D02*
D03*
D25*
X1300Y1520D02*
D03*
X1240Y940D02*
D03*
X1360Y635D02*
D03*
D26*
X1270Y2055D02*
D03*
Y1885D02*
D03*
X1170Y805D02*
D03*
Y635D02*
D03*
X1010Y805D02*
D03*
Y635D02*
D03*
X1360Y805D02*
D03*
Y635D02*
D03*
X1930Y245D02*
D03*
Y415D02*
D03*
X1030Y405D02*
D03*
Y235D02*
D03*
D27*
X1260Y210D02*
D03*
X1700D02*
D03*
Y450D02*
D03*
X1260D02*
D03*
D28*
X6150Y1620D02*
D03*
X6330D02*
D03*
X6390Y1020D02*
D03*
X6210D02*
D03*
D29*
X1062Y1670D02*
D03*
X998D02*
D03*
X1193D02*
D03*
X1127D02*
D03*
X1258D02*
D03*
X1322D02*
D03*
X998Y1090D02*
D03*
X1127D02*
D03*
X1062D02*
D03*
X1258D02*
D03*
X1193D02*
D03*
X1322D02*
D03*
X1387Y1670D02*
D03*
X1453D02*
D03*
X1518D02*
D03*
X1582D02*
D03*
X1453Y1090D02*
D03*
X1387D02*
D03*
X1582D02*
D03*
X1518D02*
D03*
D30*
X6360Y1225D02*
D03*
Y1415D02*
D03*
X6100Y1225D02*
D03*
Y1320D02*
D03*
Y1415D02*
D03*
M02*
