M48
;Layer_Color=9474304
;FILE_FORMAT=4:2
METRIC,LZ
;TYPE=PLATED
T1F00S00C0.40
T2F00S00C0.50
T3F00S00C0.60
T4F00S00C0.71
T5F00S00C0.90
T6F00S00C1.00
T7F00S00C2.20
T8F00S00C2.50
T9F00S00C3.50
%
T01
X00136Y000635
X00124Y00094
X0013Y00152
T02
X00306Y00017
X00353
X00401
X00452
X00495
X00544
X00251Y00092
X00224Y00161
X00205
X001615Y002055
X00156Y00245
X00192
X00228
X00266
X00133Y00229
X00112Y002
X000667Y001683
X00086Y00082
X000667Y000513
X00305Y00245
X003443Y002453
X0038Y00245
X00419
X00551Y00158
Y00116
X00552Y00094
X00588Y00118
X006Y00113
X00667Y00062
X00836Y00069
Y00108
Y00142
Y00178
T03
X00174Y0007
X00596Y00067
X00637Y00067
X00654Y00135
T04
X00836Y00033
T05
X005092Y00239
X005346
X0056
T06
X005885Y00158
Y00225
X006375Y00207
T07
X000355Y001095
X002155
T08
X00605Y0003
X00245
X0003Y0023
X007Y00227
X0082
T09
X0042Y0005
Y0015
M30
