%FSLAX34Y34*%
%MOMM*%
%LNCOPPER_BOTTOM*%
G71*
G01*
%ADD10C, 5.00*%
%ADD11C, 1.80*%
%ADD12C, 1.00*%
%ADD13R, 1.20X0.70*%
%ADD14R, 1.20X2.00*%
%ADD15C, 0.80*%
%ADD16C, 0.40*%
%ADD17C, 0.60*%
%ADD18R, 1.60X1.30*%
%ADD19R, 1.40X1.30*%
%ADD20R, 1.90X1.80*%
%ADD21C, 1.80*%
%ADD22C, 0.24*%
%ADD23R, 1.50X3.00*%
%ADD24R, 3.00X1.50*%
%ADD25R, 1.30X1.40*%
%LPD*%
X250000Y-50000D02*
G54D10*
D03*
G54D11*
X183200Y-134600D02*
X183200Y-152600D01*
G54D11*
X210600Y-134600D02*
X210600Y-152600D01*
G54D11*
X236000Y-134600D02*
X236000Y-152600D01*
G54D12*
X182000Y-144000D02*
X208000Y-144000D01*
X141798Y-142967D02*
G54D13*
D03*
X141798Y-123967D02*
G54D13*
D03*
X117998Y-142967D02*
G54D13*
D03*
X117998Y-123967D02*
G54D13*
D03*
X117998Y-133467D02*
G54D13*
D03*
X104000Y-176000D02*
G54D14*
D03*
X136000Y-176000D02*
G54D14*
D03*
G54D15*
X236000Y-138000D02*
X236000Y-162000D01*
X220000Y-178000D01*
X138000Y-178000D01*
G54D16*
X118000Y-124000D02*
X130000Y-124000D01*
X130000Y-142000D01*
X118000Y-142000D01*
G54D17*
X142000Y-144000D02*
X130000Y-158000D01*
X108000Y-158000D01*
X104000Y-162000D01*
X104000Y-182000D01*
G54D17*
X140000Y-124000D02*
X162000Y-124000D01*
X182000Y-138000D01*
X81500Y-151500D02*
G54D18*
D03*
X81500Y-132500D02*
G54D18*
D03*
G54D17*
X118000Y-134000D02*
X82000Y-134000D01*
G54D17*
X114000Y-144000D02*
X106000Y-144000D01*
X98000Y-152000D01*
X78000Y-152000D01*
X183500Y-115500D02*
G54D19*
D03*
X183500Y-96500D02*
G54D19*
D03*
G54D15*
X116000Y-90000D02*
X84000Y-118000D01*
X84000Y-134000D01*
X207500Y-115500D02*
G54D19*
D03*
X207500Y-96500D02*
G54D19*
D03*
X102000Y-204000D02*
G54D20*
D03*
X141000Y-204000D02*
G54D20*
D03*
G54D15*
X182000Y-118000D02*
X182000Y-144000D01*
G54D15*
X208000Y-118000D02*
X208000Y-138000D01*
X210000Y-140000D01*
G54D15*
X118000Y-90000D02*
X236000Y-90000D01*
X258000Y-112000D01*
X258000Y-172000D01*
X278000Y-172000D01*
X80000Y-182000D02*
G54D21*
D03*
G54D22*
X54666Y-194000D02*
X67999Y-194000D01*
X59666Y-189000D01*
X67999Y-184000D01*
X54666Y-184000D01*
G54D22*
X60499Y-179333D02*
X60499Y-171333D01*
G54D22*
X63833Y-175333D02*
X57166Y-175333D01*
X240000Y-104000D02*
G54D21*
D03*
G54D22*
X260666Y-102000D02*
X273999Y-102000D01*
X265666Y-97000D01*
X273999Y-92000D01*
X260666Y-92000D01*
G54D22*
X266499Y-87333D02*
X266499Y-79333D01*
X88000Y-22000D02*
G54D23*
D03*
X154000Y-22000D02*
G54D23*
D03*
G54D22*
X68499Y-42000D02*
X68499Y-34000D01*
G54D22*
X71833Y-38000D02*
X65166Y-38000D01*
G54D22*
X75999Y-21333D02*
X75999Y-29333D01*
X70166Y-29333D01*
X70166Y-28333D01*
X70999Y-26333D01*
X70999Y-24333D01*
X70166Y-22333D01*
X68499Y-21333D01*
X65166Y-21333D01*
X63499Y-22333D01*
X62666Y-24333D01*
X62666Y-26333D01*
X63499Y-28333D01*
X65166Y-29333D01*
G54D22*
X75999Y-16666D02*
X62666Y-11666D01*
X75999Y-6666D01*
X120000Y-22000D02*
G54D23*
D03*
G54D22*
X137333Y-38000D02*
X137333Y-34000D01*
X133166Y-34000D01*
X131499Y-35000D01*
X130666Y-37000D01*
X130666Y-39000D01*
X131499Y-41000D01*
X133166Y-42000D01*
X141499Y-42000D01*
X143166Y-41000D01*
X143999Y-39000D01*
X143999Y-37000D01*
X143166Y-35000D01*
X141499Y-34000D01*
G54D22*
X130666Y-29333D02*
X143999Y-29333D01*
X130666Y-21333D01*
X143999Y-21333D01*
G54D22*
X130666Y-16666D02*
X143999Y-16666D01*
X143999Y-11666D01*
X143166Y-9666D01*
X141499Y-8666D01*
X133166Y-8666D01*
X131499Y-9666D01*
X130666Y-11666D01*
X130666Y-16666D01*
G54D15*
X154000Y-26000D02*
X154000Y-90000D01*
G54D15*
X120000Y-20000D02*
X120000Y-88000D01*
G54D15*
X80000Y-152000D02*
X64000Y-152000D01*
X64000Y-110000D01*
X88000Y-88000D01*
X88000Y-28000D01*
X90000Y-26000D01*
X10000Y-22000D02*
G54D23*
D03*
G54D22*
X20666Y-60000D02*
X33999Y-60000D01*
X33999Y-55000D01*
X33166Y-53000D01*
X31499Y-52000D01*
X23166Y-52000D01*
X21499Y-53000D01*
X20666Y-55000D01*
X20666Y-60000D01*
G54D22*
X20666Y-47333D02*
X33999Y-42333D01*
X20666Y-37333D01*
G54D22*
X25666Y-45333D02*
X25666Y-39333D01*
G54D22*
X20666Y-28666D02*
X33999Y-28666D01*
G54D22*
X33999Y-32666D02*
X33999Y-24666D01*
G54D22*
X20666Y-19999D02*
X33999Y-14999D01*
X20666Y-9999D01*
G54D22*
X25666Y-17999D02*
X25666Y-11999D01*
X44000Y-22000D02*
G54D23*
D03*
G54D15*
X10000Y-26000D02*
X10000Y-230000D01*
X10000Y-240000D02*
G54D23*
D03*
G54D15*
X44000Y-24000D02*
X44000Y-72000D01*
X10000Y-106000D01*
G54D22*
X20666Y-254000D02*
X33999Y-254000D01*
X33999Y-249000D01*
X33166Y-247000D01*
X31499Y-246000D01*
X23166Y-246000D01*
X21499Y-247000D01*
X20666Y-249000D01*
X20666Y-254000D01*
G54D22*
X20666Y-241333D02*
X33999Y-236333D01*
X20666Y-231333D01*
G54D22*
X25666Y-239333D02*
X25666Y-233333D01*
G54D22*
X20666Y-222666D02*
X33999Y-222666D01*
G54D22*
X33999Y-226666D02*
X33999Y-218666D01*
G54D22*
X20666Y-213999D02*
X33999Y-208999D01*
X20666Y-203999D01*
G54D22*
X25666Y-211999D02*
X25666Y-205999D01*
X206000Y-22000D02*
G54D23*
D03*
G54D22*
X180666Y-35000D02*
X180666Y-42000D01*
X193999Y-42000D01*
X193999Y-35000D01*
G54D22*
X187333Y-42000D02*
X187333Y-35000D01*
G54D22*
X180666Y-30333D02*
X193999Y-30333D01*
X180666Y-22333D01*
X193999Y-22333D01*
G54D22*
X183166Y-9666D02*
X181499Y-10666D01*
X180666Y-12666D01*
X180666Y-14666D01*
X181499Y-16666D01*
X183166Y-17666D01*
X191499Y-17666D01*
X193166Y-16666D01*
X193999Y-14666D01*
X193999Y-12666D01*
X193166Y-10666D01*
X191499Y-9666D01*
G54D15*
X208000Y-14000D02*
X274000Y-14000D01*
X290000Y-30000D01*
X290000Y-120000D01*
X282000Y-120000D02*
G54D24*
D03*
G54D22*
X279730Y-131857D02*
X286730Y-131857D01*
X286730Y-145190D01*
X279730Y-145190D01*
G54D22*
X286730Y-138524D02*
X279730Y-138524D01*
X284000Y-172000D02*
G54D24*
D03*
X286000Y-242000D02*
G54D23*
D03*
G54D22*
X242665Y-247333D02*
X246665Y-247333D01*
X246665Y-243167D01*
X245665Y-241500D01*
X243665Y-240667D01*
X241665Y-240667D01*
X239665Y-241500D01*
X238665Y-243167D01*
X238665Y-251500D01*
X239665Y-253167D01*
X241665Y-254000D01*
X243665Y-254000D01*
X245665Y-253167D01*
X246665Y-251500D01*
G54D22*
X251332Y-240667D02*
X251332Y-254000D01*
X259332Y-240667D01*
X259332Y-254000D01*
G54D22*
X263999Y-240667D02*
X263999Y-254000D01*
X268999Y-254000D01*
X270999Y-253167D01*
X271999Y-251500D01*
X271999Y-243167D01*
X270999Y-241500D01*
X268999Y-240667D01*
X263999Y-240667D01*
G54D15*
X286000Y-250000D02*
X286000Y-178000D01*
X288000Y-176000D01*
G54D17*
X134000Y-182000D02*
X106000Y-200000D01*
G54D15*
X144000Y-206000D02*
X224000Y-206000D01*
X258000Y-172000D01*
G54D15*
X102000Y-204000D02*
X92000Y-204000D01*
X80000Y-184000D01*
X254000Y-224000D02*
G54D24*
D03*
X139000Y-238000D02*
G54D25*
D03*
X120000Y-238000D02*
G54D25*
D03*
G54D15*
X262000Y-224000D02*
X228000Y-226000D01*
X210000Y-238000D01*
X140000Y-238000D01*
G54D15*
X120000Y-238000D02*
X78000Y-238000D01*
X40000Y-198000D01*
X40000Y-174000D01*
X62000Y-152000D01*
G54D22*
X269751Y-199336D02*
X269751Y-212669D01*
X262751Y-212669D01*
X78000Y-240000D02*
G54D23*
D03*
G54D22*
X54499Y-260000D02*
X54499Y-252000D01*
G54D22*
X57833Y-256000D02*
X51166Y-256000D01*
G54D22*
X61999Y-239333D02*
X61999Y-247333D01*
X56166Y-247333D01*
X56166Y-246333D01*
X56999Y-244333D01*
X56999Y-242333D01*
X56166Y-240333D01*
X54499Y-239333D01*
X51166Y-239333D01*
X49499Y-240333D01*
X48666Y-242333D01*
X48666Y-244333D01*
X49499Y-246333D01*
X51166Y-247333D01*
G54D22*
X61999Y-234666D02*
X48666Y-229666D01*
X61999Y-224666D01*
M02*
