G04 Layer_Color=65535*
%FSLAX42Y42*%
%MOMM*%
G71*
G01*
G75*
%ADD37C,0.25*%
%ADD38C,0.20*%
%ADD39C,0.13*%
G36*
X4304Y2015D02*
X4306Y2014D01*
X4309Y2014D01*
X4312Y2014D01*
X4315Y2013D01*
X4323Y2011D01*
X4330Y2008D01*
X4334Y2007D01*
X4337Y2005D01*
X4341Y2002D01*
X4344Y1999D01*
X4344Y1999D01*
X4345Y1999D01*
X4345Y1998D01*
X4346Y1997D01*
X4348Y1995D01*
X4349Y1993D01*
X4350Y1991D01*
X4352Y1989D01*
X4355Y1983D01*
X4358Y1977D01*
X4359Y1973D01*
X4359Y1969D01*
X4360Y1965D01*
X4360Y1961D01*
Y1961D01*
Y1959D01*
X4360Y1956D01*
X4360Y1953D01*
X4359Y1950D01*
X4358Y1945D01*
X4357Y1941D01*
X4355Y1936D01*
X4355Y1936D01*
X4355Y1935D01*
X4354Y1932D01*
X4352Y1929D01*
X4350Y1925D01*
X4347Y1921D01*
X4344Y1917D01*
X4341Y1912D01*
X4340Y1912D01*
X4339Y1910D01*
X4338Y1908D01*
X4335Y1906D01*
X4332Y1902D01*
X4328Y1898D01*
X4323Y1893D01*
X4317Y1887D01*
X4316Y1887D01*
X4316Y1887D01*
X4315Y1886D01*
X4314Y1885D01*
X4311Y1882D01*
X4307Y1879D01*
X4304Y1875D01*
X4300Y1871D01*
X4297Y1868D01*
X4296Y1867D01*
X4294Y1866D01*
X4294Y1866D01*
X4294Y1865D01*
X4293Y1864D01*
X4292Y1863D01*
X4289Y1860D01*
X4287Y1856D01*
X4360D01*
Y1822D01*
X4231D01*
Y1822D01*
Y1823D01*
X4231Y1824D01*
X4232Y1825D01*
X4232Y1827D01*
X4232Y1829D01*
X4233Y1834D01*
X4235Y1839D01*
X4237Y1845D01*
X4240Y1852D01*
X4244Y1858D01*
Y1859D01*
X4244Y1859D01*
X4245Y1860D01*
X4246Y1862D01*
X4247Y1863D01*
X4249Y1865D01*
X4251Y1868D01*
X4253Y1871D01*
X4255Y1874D01*
X4258Y1877D01*
X4262Y1881D01*
X4266Y1885D01*
X4270Y1890D01*
X4274Y1894D01*
X4279Y1899D01*
X4285Y1905D01*
X4285Y1905D01*
X4286Y1906D01*
X4287Y1907D01*
X4289Y1908D01*
X4291Y1910D01*
X4293Y1912D01*
X4298Y1917D01*
X4303Y1923D01*
X4308Y1928D01*
X4311Y1930D01*
X4313Y1933D01*
X4314Y1935D01*
X4315Y1936D01*
X4316Y1937D01*
X4317Y1938D01*
X4318Y1940D01*
X4319Y1943D01*
X4321Y1947D01*
X4322Y1951D01*
X4323Y1955D01*
X4323Y1959D01*
Y1959D01*
Y1959D01*
Y1961D01*
X4323Y1963D01*
X4322Y1966D01*
X4322Y1969D01*
X4320Y1972D01*
X4319Y1975D01*
X4317Y1978D01*
X4316Y1978D01*
X4315Y1979D01*
X4314Y1980D01*
X4312Y1981D01*
X4309Y1982D01*
X4306Y1983D01*
X4302Y1984D01*
X4298Y1984D01*
X4296D01*
X4294Y1984D01*
X4292Y1984D01*
X4289Y1983D01*
X4286Y1981D01*
X4282Y1980D01*
X4280Y1978D01*
X4279Y1977D01*
X4279Y1976D01*
X4277Y1974D01*
X4276Y1972D01*
X4275Y1969D01*
X4274Y1965D01*
X4273Y1960D01*
X4272Y1955D01*
X4236Y1958D01*
Y1958D01*
X4236Y1960D01*
Y1961D01*
X4236Y1963D01*
X4237Y1966D01*
X4237Y1968D01*
X4238Y1971D01*
X4239Y1975D01*
X4242Y1982D01*
X4245Y1989D01*
X4247Y1993D01*
X4250Y1996D01*
X4253Y1999D01*
X4256Y2002D01*
X4256Y2002D01*
X4257Y2002D01*
X4257Y2003D01*
X4259Y2004D01*
X4261Y2005D01*
X4263Y2006D01*
X4265Y2007D01*
X4268Y2008D01*
X4271Y2010D01*
X4274Y2011D01*
X4281Y2013D01*
X4290Y2014D01*
X4294Y2015D01*
X4299Y2015D01*
X4302D01*
X4304Y2015D01*
D02*
G37*
G36*
X3942Y1822D02*
X3908D01*
X3852Y1961D01*
X3891D01*
X3917Y1890D01*
X3925Y1866D01*
X3925Y1867D01*
X3925Y1868D01*
X3926Y1869D01*
X3926Y1871D01*
X3928Y1875D01*
X3928Y1877D01*
X3928Y1878D01*
Y1878D01*
X3929Y1879D01*
X3929Y1880D01*
X3930Y1882D01*
X3931Y1886D01*
X3932Y1890D01*
X3959Y1961D01*
X3997D01*
X3942Y1822D01*
D02*
G37*
G36*
X4578D02*
X4542D01*
X4542Y1973D01*
X4504Y1822D01*
X4467D01*
X4429Y1973D01*
Y1822D01*
X4393D01*
Y2014D01*
X4451D01*
X4485Y1883D01*
X4520Y2014D01*
X4578D01*
Y1822D01*
D02*
G37*
G36*
X141Y539D02*
X142D01*
X144Y539D01*
X147Y538D01*
X150Y538D01*
X154Y537D01*
X157Y536D01*
X157D01*
X157Y536D01*
X158Y535D01*
X158Y535D01*
X160Y534D01*
X162Y533D01*
X164Y532D01*
X166Y530D01*
X168Y528D01*
X170Y525D01*
Y525D01*
X170Y525D01*
X170Y525D01*
X170Y524D01*
X171Y523D01*
X172Y521D01*
X173Y519D01*
X174Y516D01*
X174Y513D01*
X175Y510D01*
X162Y509D01*
Y509D01*
Y509D01*
X162Y510D01*
X162Y511D01*
X161Y512D01*
X161Y514D01*
X160Y517D01*
X159Y519D01*
X157Y521D01*
X155Y523D01*
X155Y523D01*
X154Y524D01*
X153Y524D01*
X151Y525D01*
X149Y526D01*
X146Y527D01*
X142Y528D01*
X138Y528D01*
X136D01*
X136Y528D01*
X134Y527D01*
X132Y527D01*
X129Y527D01*
X126Y526D01*
X124Y525D01*
X122Y524D01*
X121Y523D01*
X121Y523D01*
X120Y523D01*
X120Y522D01*
X119Y520D01*
X118Y519D01*
X117Y517D01*
X116Y515D01*
X116Y513D01*
Y513D01*
Y512D01*
X116Y511D01*
X116Y510D01*
X117Y509D01*
X118Y507D01*
X118Y506D01*
X120Y504D01*
X120Y504D01*
X121Y504D01*
X121Y503D01*
X122Y503D01*
X123Y503D01*
X124Y502D01*
X125Y502D01*
X126Y501D01*
X128Y501D01*
X130Y500D01*
X132Y499D01*
X134Y499D01*
X136Y498D01*
X139Y497D01*
X139D01*
X140Y497D01*
X141Y497D01*
X142Y497D01*
X143Y497D01*
X145Y496D01*
X146Y496D01*
X148Y495D01*
X151Y494D01*
X155Y493D01*
X157Y493D01*
X158Y492D01*
X160Y492D01*
X161Y491D01*
X161D01*
X161Y491D01*
X162Y491D01*
X162Y490D01*
X164Y490D01*
X166Y488D01*
X168Y487D01*
X170Y485D01*
X172Y483D01*
X173Y481D01*
X174Y481D01*
X174Y480D01*
X175Y479D01*
X176Y477D01*
X176Y475D01*
X177Y473D01*
X177Y470D01*
X178Y467D01*
Y467D01*
Y467D01*
Y467D01*
Y466D01*
X177Y465D01*
X177Y463D01*
X176Y460D01*
X176Y458D01*
X175Y455D01*
X173Y453D01*
Y453D01*
X173Y452D01*
X172Y452D01*
X171Y450D01*
X170Y449D01*
X168Y447D01*
X166Y445D01*
X163Y444D01*
X160Y442D01*
X160D01*
X160Y442D01*
X159Y442D01*
X159Y442D01*
X158Y441D01*
X157Y441D01*
X155Y440D01*
X152Y440D01*
X149Y439D01*
X145Y438D01*
X141Y438D01*
X139D01*
X138Y438D01*
X137D01*
X135Y439D01*
X134Y439D01*
X130Y439D01*
X127Y440D01*
X123Y441D01*
X119Y442D01*
X119D01*
X119Y442D01*
X118Y443D01*
X118Y443D01*
X116Y444D01*
X114Y445D01*
X112Y447D01*
X110Y449D01*
X107Y451D01*
X105Y454D01*
Y454D01*
X105Y454D01*
X105Y455D01*
X104Y455D01*
X104Y456D01*
X104Y457D01*
X103Y459D01*
X102Y461D01*
X101Y464D01*
X100Y468D01*
X100Y471D01*
X112Y472D01*
Y472D01*
Y472D01*
X112Y472D01*
Y471D01*
X113Y470D01*
X113Y468D01*
X114Y466D01*
X114Y464D01*
X115Y462D01*
X116Y460D01*
X116Y460D01*
X117Y460D01*
X117Y459D01*
X118Y458D01*
X120Y456D01*
X121Y455D01*
X124Y454D01*
X126Y453D01*
X126D01*
X126Y453D01*
X127Y452D01*
X127Y452D01*
X128Y452D01*
X130Y451D01*
X132Y451D01*
X135Y450D01*
X138Y450D01*
X141Y450D01*
X142D01*
X144Y450D01*
X145Y450D01*
X147Y450D01*
X149Y451D01*
X152Y451D01*
X154Y452D01*
X154Y452D01*
X155Y452D01*
X156Y453D01*
X157Y454D01*
X158Y455D01*
X160Y456D01*
X161Y457D01*
X162Y458D01*
X162Y458D01*
X163Y459D01*
X163Y459D01*
X164Y461D01*
X164Y462D01*
X165Y463D01*
X165Y465D01*
X165Y466D01*
Y467D01*
Y467D01*
X165Y468D01*
X165Y469D01*
X164Y470D01*
X164Y472D01*
X163Y473D01*
X162Y474D01*
X162Y475D01*
X162Y475D01*
X161Y476D01*
X160Y476D01*
X159Y477D01*
X158Y478D01*
X156Y479D01*
X154Y480D01*
X153Y480D01*
X153Y480D01*
X152Y481D01*
X151Y481D01*
X150Y481D01*
X149Y482D01*
X148Y482D01*
X146Y482D01*
X145Y483D01*
X143Y483D01*
X141Y484D01*
X139Y484D01*
X136Y485D01*
X136D01*
X136Y485D01*
X135Y485D01*
X134Y485D01*
X133Y486D01*
X132Y486D01*
X129Y487D01*
X126Y488D01*
X123Y489D01*
X120Y490D01*
X118Y490D01*
X117Y491D01*
X117D01*
X117Y491D01*
X116Y492D01*
X115Y492D01*
X114Y493D01*
X112Y495D01*
X110Y496D01*
X108Y498D01*
X107Y500D01*
X107Y500D01*
X106Y501D01*
X106Y502D01*
X105Y504D01*
X105Y505D01*
X104Y508D01*
X104Y510D01*
X104Y512D01*
Y512D01*
Y512D01*
Y513D01*
Y513D01*
X104Y515D01*
X104Y517D01*
X105Y519D01*
X105Y521D01*
X106Y524D01*
X108Y526D01*
Y526D01*
X108Y526D01*
X109Y527D01*
X110Y528D01*
X111Y530D01*
X113Y531D01*
X115Y533D01*
X117Y534D01*
X120Y536D01*
X120D01*
X120Y536D01*
X121Y536D01*
X121Y536D01*
X122Y537D01*
X123Y537D01*
X125Y538D01*
X128Y538D01*
X131Y539D01*
X134Y539D01*
X138Y539D01*
X140D01*
X141Y539D01*
D02*
G37*
G36*
X4106Y1822D02*
X4069D01*
Y1961D01*
X4069Y1961D01*
X4068Y1960D01*
X4067Y1959D01*
X4065Y1958D01*
X4063Y1956D01*
X4061Y1955D01*
X4058Y1953D01*
X4055Y1950D01*
X4052Y1948D01*
X4048Y1946D01*
X4045Y1943D01*
X4040Y1941D01*
X4031Y1937D01*
X4021Y1933D01*
Y1966D01*
X4022D01*
X4022Y1967D01*
X4023Y1967D01*
X4024Y1967D01*
X4027Y1969D01*
X4031Y1970D01*
X4035Y1973D01*
X4041Y1976D01*
X4046Y1979D01*
X4053Y1984D01*
X4053Y1984D01*
X4053Y1984D01*
X4054Y1985D01*
X4055Y1986D01*
X4058Y1989D01*
X4062Y1993D01*
X4066Y1997D01*
X4070Y2003D01*
X4073Y2009D01*
X4076Y2015D01*
X4106D01*
Y1822D01*
D02*
G37*
G36*
X4206D02*
X4169D01*
Y1859D01*
X4206D01*
Y1822D01*
D02*
G37*
G36*
X3050Y2302D02*
X3053D01*
X3057Y2302D01*
X3061Y2301D01*
X3066Y2300D01*
X3071Y2299D01*
X3076Y2298D01*
X3081Y2296D01*
X3087Y2294D01*
X3093Y2291D01*
X3098Y2288D01*
X3104Y2285D01*
X3109Y2281D01*
X3114Y2276D01*
X3114Y2276D01*
X3115Y2275D01*
X3117Y2273D01*
X3118Y2271D01*
X3120Y2268D01*
X3122Y2265D01*
X3124Y2261D01*
X3127Y2257D01*
X3129Y2252D01*
X3132Y2246D01*
X3134Y2240D01*
X3136Y2234D01*
X3137Y2227D01*
X3139Y2219D01*
X3139Y2211D01*
X3140Y2203D01*
Y2202D01*
Y2201D01*
X3139Y2198D01*
Y2195D01*
X3139Y2191D01*
X3138Y2186D01*
X3137Y2181D01*
X3137Y2176D01*
X3135Y2170D01*
X3134Y2164D01*
X3131Y2158D01*
X3129Y2152D01*
X3126Y2146D01*
X3122Y2140D01*
X3119Y2135D01*
X3114Y2129D01*
X3114Y2129D01*
X3113Y2128D01*
X3112Y2127D01*
X3109Y2125D01*
X3107Y2123D01*
X3104Y2121D01*
X3100Y2119D01*
X3096Y2116D01*
X3092Y2114D01*
X3087Y2111D01*
X3081Y2109D01*
X3075Y2107D01*
X3069Y2106D01*
X3062Y2104D01*
X3054Y2103D01*
X3047Y2103D01*
X3045D01*
X3042Y2103D01*
X3040Y2104D01*
X3036Y2104D01*
X3032Y2105D01*
X3027Y2105D01*
X3022Y2106D01*
X3017Y2108D01*
X3011Y2110D01*
X3006Y2112D01*
X3000Y2114D01*
X2994Y2117D01*
X2989Y2121D01*
X2984Y2125D01*
X2979Y2129D01*
X2978Y2130D01*
X2977Y2130D01*
X2976Y2132D01*
X2975Y2134D01*
X2973Y2137D01*
X2971Y2140D01*
X2968Y2144D01*
X2966Y2148D01*
X2964Y2153D01*
X2961Y2158D01*
X2959Y2164D01*
X2957Y2171D01*
X2956Y2178D01*
X2954Y2185D01*
X2954Y2193D01*
X2953Y2201D01*
Y2202D01*
Y2203D01*
Y2204D01*
X2954Y2206D01*
Y2209D01*
X2954Y2212D01*
X2954Y2215D01*
X2954Y2219D01*
X2956Y2226D01*
X2957Y2235D01*
X2959Y2243D01*
X2962Y2251D01*
Y2251D01*
X2962Y2251D01*
X2963Y2252D01*
X2963Y2253D01*
X2965Y2256D01*
X2967Y2260D01*
X2969Y2264D01*
X2972Y2268D01*
X2976Y2273D01*
X2980Y2277D01*
X2980Y2277D01*
X2980Y2278D01*
X2982Y2279D01*
X2984Y2281D01*
X2987Y2284D01*
X2991Y2287D01*
X2995Y2290D01*
X3000Y2292D01*
X3005Y2295D01*
X3005D01*
X3006Y2295D01*
X3007Y2296D01*
X3008Y2296D01*
X3010Y2297D01*
X3012Y2297D01*
X3014Y2298D01*
X3017Y2299D01*
X3023Y2300D01*
X3030Y2301D01*
X3038Y2302D01*
X3046Y2302D01*
X3048D01*
X3050Y2302D01*
D02*
G37*
G36*
X4415Y2107D02*
X4378D01*
Y2299D01*
X4415D01*
Y2107D01*
D02*
G37*
G36*
X4717Y2139D02*
X4814D01*
Y2107D01*
X4678D01*
Y2297D01*
X4717D01*
Y2139D01*
D02*
G37*
G36*
X4879Y2107D02*
X4840D01*
Y2299D01*
X4879D01*
Y2107D01*
D02*
G37*
G36*
X3392Y2249D02*
X3394Y2249D01*
X3398Y2248D01*
X3401Y2248D01*
X3404Y2247D01*
X3408Y2246D01*
X3412Y2244D01*
X3416Y2243D01*
X3421Y2240D01*
X3424Y2238D01*
X3428Y2235D01*
X3432Y2232D01*
X3436Y2228D01*
X3436Y2228D01*
X3436Y2228D01*
X3437Y2226D01*
X3438Y2224D01*
X3440Y2222D01*
X3441Y2220D01*
X3443Y2216D01*
X3444Y2213D01*
X3446Y2209D01*
X3448Y2204D01*
X3449Y2199D01*
X3451Y2193D01*
X3452Y2187D01*
X3453Y2180D01*
X3453Y2173D01*
Y2166D01*
X3361D01*
Y2165D01*
Y2165D01*
Y2164D01*
X3361Y2163D01*
X3361Y2160D01*
X3362Y2156D01*
X3363Y2152D01*
X3365Y2148D01*
X3367Y2144D01*
X3370Y2140D01*
X3370Y2140D01*
X3371Y2139D01*
X3373Y2137D01*
X3375Y2136D01*
X3378Y2134D01*
X3382Y2133D01*
X3386Y2131D01*
X3391Y2131D01*
X3392D01*
X3394Y2131D01*
X3396Y2132D01*
X3398Y2132D01*
X3401Y2133D01*
X3403Y2134D01*
X3405Y2136D01*
X3406Y2136D01*
X3406Y2137D01*
X3408Y2138D01*
X3409Y2140D01*
X3410Y2142D01*
X3412Y2144D01*
X3413Y2148D01*
X3414Y2151D01*
X3451Y2145D01*
Y2145D01*
X3451Y2144D01*
X3450Y2143D01*
X3450Y2142D01*
X3449Y2140D01*
X3448Y2138D01*
X3446Y2134D01*
X3443Y2129D01*
X3439Y2123D01*
X3434Y2119D01*
X3429Y2114D01*
X3428D01*
X3428Y2114D01*
X3427Y2113D01*
X3426Y2113D01*
X3424Y2112D01*
X3423Y2111D01*
X3421Y2110D01*
X3418Y2109D01*
X3413Y2107D01*
X3406Y2105D01*
X3399Y2104D01*
X3391Y2104D01*
X3389D01*
X3387Y2104D01*
X3385D01*
X3382Y2105D01*
X3378Y2105D01*
X3374Y2106D01*
X3370Y2107D01*
X3366Y2108D01*
X3361Y2110D01*
X3357Y2111D01*
X3353Y2114D01*
X3348Y2116D01*
X3344Y2120D01*
X3340Y2123D01*
X3337Y2127D01*
X3336Y2128D01*
X3336Y2128D01*
X3336Y2129D01*
X3335Y2131D01*
X3334Y2133D01*
X3333Y2135D01*
X3331Y2137D01*
X3330Y2140D01*
X3329Y2144D01*
X3328Y2147D01*
X3326Y2151D01*
X3325Y2156D01*
X3325Y2160D01*
X3324Y2165D01*
X3323Y2170D01*
X3323Y2175D01*
Y2176D01*
Y2177D01*
Y2179D01*
X3323Y2181D01*
X3324Y2184D01*
X3324Y2187D01*
X3325Y2191D01*
X3325Y2195D01*
X3328Y2204D01*
X3329Y2208D01*
X3331Y2213D01*
X3333Y2217D01*
X3335Y2221D01*
X3338Y2226D01*
X3341Y2229D01*
X3341Y2230D01*
X3342Y2230D01*
X3343Y2231D01*
X3345Y2233D01*
X3346Y2234D01*
X3348Y2236D01*
X3351Y2238D01*
X3354Y2239D01*
X3357Y2241D01*
X3360Y2243D01*
X3364Y2245D01*
X3368Y2246D01*
X3372Y2247D01*
X3377Y2248D01*
X3382Y2249D01*
X3387Y2249D01*
X3390D01*
X3392Y2249D01*
D02*
G37*
G36*
X4511D02*
X4514Y2249D01*
X4517Y2248D01*
X4520Y2248D01*
X4524Y2247D01*
X4528Y2246D01*
X4532Y2244D01*
X4536Y2243D01*
X4540Y2240D01*
X4544Y2238D01*
X4548Y2235D01*
X4552Y2232D01*
X4555Y2228D01*
X4555Y2228D01*
X4556Y2228D01*
X4557Y2226D01*
X4558Y2224D01*
X4559Y2222D01*
X4561Y2220D01*
X4562Y2216D01*
X4564Y2213D01*
X4565Y2209D01*
X4567Y2204D01*
X4569Y2199D01*
X4570Y2193D01*
X4571Y2187D01*
X4572Y2180D01*
X4572Y2173D01*
Y2166D01*
X4480D01*
Y2165D01*
Y2165D01*
Y2164D01*
X4481Y2163D01*
X4481Y2160D01*
X4481Y2156D01*
X4482Y2152D01*
X4484Y2148D01*
X4486Y2144D01*
X4489Y2140D01*
X4489Y2140D01*
X4491Y2139D01*
X4492Y2137D01*
X4495Y2136D01*
X4498Y2134D01*
X4502Y2133D01*
X4506Y2131D01*
X4510Y2131D01*
X4512D01*
X4513Y2131D01*
X4515Y2132D01*
X4517Y2132D01*
X4520Y2133D01*
X4522Y2134D01*
X4525Y2136D01*
X4525Y2136D01*
X4526Y2137D01*
X4527Y2138D01*
X4528Y2140D01*
X4530Y2142D01*
X4531Y2144D01*
X4532Y2148D01*
X4534Y2151D01*
X4570Y2145D01*
Y2145D01*
X4570Y2144D01*
X4570Y2143D01*
X4569Y2142D01*
X4568Y2140D01*
X4567Y2138D01*
X4565Y2134D01*
X4562Y2129D01*
X4558Y2123D01*
X4553Y2119D01*
X4548Y2114D01*
X4548D01*
X4547Y2114D01*
X4546Y2113D01*
X4545Y2113D01*
X4544Y2112D01*
X4542Y2111D01*
X4540Y2110D01*
X4537Y2109D01*
X4532Y2107D01*
X4526Y2105D01*
X4518Y2104D01*
X4510Y2104D01*
X4508D01*
X4507Y2104D01*
X4504D01*
X4501Y2105D01*
X4497Y2105D01*
X4494Y2106D01*
X4490Y2107D01*
X4485Y2108D01*
X4481Y2110D01*
X4476Y2111D01*
X4472Y2114D01*
X4467Y2116D01*
X4463Y2120D01*
X4460Y2123D01*
X4456Y2127D01*
X4456Y2128D01*
X4456Y2128D01*
X4455Y2129D01*
X4454Y2131D01*
X4453Y2133D01*
X4452Y2135D01*
X4451Y2137D01*
X4449Y2140D01*
X4448Y2144D01*
X4447Y2147D01*
X4446Y2151D01*
X4445Y2156D01*
X4444Y2160D01*
X4443Y2165D01*
X4443Y2170D01*
X4443Y2175D01*
Y2176D01*
Y2177D01*
Y2179D01*
X4443Y2181D01*
X4443Y2184D01*
X4443Y2187D01*
X4444Y2191D01*
X4445Y2195D01*
X4447Y2204D01*
X4448Y2208D01*
X4450Y2213D01*
X4452Y2217D01*
X4455Y2221D01*
X4458Y2226D01*
X4461Y2229D01*
X4461Y2230D01*
X4461Y2230D01*
X4462Y2231D01*
X4464Y2233D01*
X4466Y2234D01*
X4468Y2236D01*
X4470Y2238D01*
X4473Y2239D01*
X4476Y2241D01*
X4480Y2243D01*
X4483Y2245D01*
X4487Y2246D01*
X4492Y2247D01*
X4496Y2248D01*
X4501Y2249D01*
X4506Y2249D01*
X4509D01*
X4511Y2249D01*
D02*
G37*
G36*
X3938Y2107D02*
X3901D01*
Y2246D01*
X3938D01*
Y2107D01*
D02*
G37*
G36*
X9818Y1194D02*
X9845D01*
Y1183D01*
X9818D01*
Y1156D01*
X9807D01*
Y1183D01*
X9780D01*
Y1194D01*
X9807D01*
Y1220D01*
X9818D01*
Y1194D01*
D02*
G37*
G36*
X9649Y889D02*
X9650D01*
X9652Y889D01*
X9653Y889D01*
X9655Y888D01*
X9659Y888D01*
X9663Y887D01*
X9667Y885D01*
X9669Y884D01*
X9671Y883D01*
X9671Y883D01*
X9672Y882D01*
X9672Y882D01*
X9673Y882D01*
X9674Y881D01*
X9675Y880D01*
X9677Y878D01*
X9680Y876D01*
X9683Y872D01*
X9685Y869D01*
X9688Y865D01*
Y865D01*
X9688Y864D01*
X9688Y864D01*
X9688Y863D01*
X9689Y862D01*
X9689Y860D01*
X9690Y859D01*
X9691Y857D01*
X9691Y855D01*
X9692Y853D01*
X9692Y851D01*
X9693Y849D01*
X9693Y844D01*
X9693Y838D01*
Y838D01*
Y838D01*
Y837D01*
X9693Y836D01*
Y835D01*
X9693Y833D01*
X9693Y831D01*
X9693Y830D01*
X9692Y826D01*
X9691Y821D01*
X9689Y817D01*
X9688Y814D01*
X9687Y812D01*
Y812D01*
X9687Y811D01*
X9687Y811D01*
X9686Y810D01*
X9686Y809D01*
X9685Y808D01*
X9683Y805D01*
X9681Y803D01*
X9678Y800D01*
X9674Y797D01*
X9670Y794D01*
X9670D01*
X9670Y794D01*
X9669Y794D01*
X9668Y793D01*
X9667Y793D01*
X9666Y792D01*
X9665Y792D01*
X9663Y791D01*
X9662Y791D01*
X9660Y790D01*
X9656Y789D01*
X9651Y789D01*
X9647Y788D01*
X9645D01*
X9645Y788D01*
X9643D01*
X9642Y789D01*
X9640Y789D01*
X9638Y789D01*
X9635Y790D01*
X9631Y791D01*
X9626Y793D01*
X9624Y794D01*
X9622Y795D01*
X9622Y795D01*
X9622Y795D01*
X9621Y796D01*
X9620Y796D01*
X9619Y797D01*
X9618Y798D01*
X9616Y800D01*
X9613Y802D01*
X9611Y805D01*
X9608Y809D01*
X9606Y813D01*
Y813D01*
X9605Y814D01*
X9605Y814D01*
X9605Y815D01*
X9604Y816D01*
X9604Y817D01*
X9603Y819D01*
X9603Y820D01*
X9602Y822D01*
X9602Y824D01*
X9601Y828D01*
X9600Y833D01*
X9600Y837D01*
Y838D01*
Y838D01*
Y838D01*
X9600Y840D01*
Y841D01*
X9601Y843D01*
X9601Y846D01*
X9601Y849D01*
X9602Y851D01*
X9602Y854D01*
X9603Y857D01*
X9604Y860D01*
X9606Y864D01*
X9607Y867D01*
X9609Y870D01*
X9611Y873D01*
X9613Y875D01*
X9613Y876D01*
X9614Y876D01*
X9614Y877D01*
X9615Y878D01*
X9617Y879D01*
X9618Y880D01*
X9620Y881D01*
X9622Y882D01*
X9624Y884D01*
X9627Y885D01*
X9630Y886D01*
X9633Y887D01*
X9636Y888D01*
X9639Y889D01*
X9643Y889D01*
X9647Y889D01*
X9648D01*
X9649Y889D01*
D02*
G37*
G36*
X9780Y876D02*
X9748D01*
Y790D01*
X9735D01*
Y876D01*
X9703D01*
Y888D01*
X9780D01*
Y876D01*
D02*
G37*
G36*
X9639Y1239D02*
X9640D01*
X9642Y1239D01*
X9643Y1239D01*
X9645Y1238D01*
X9649Y1238D01*
X9653Y1237D01*
X9657Y1235D01*
X9659Y1234D01*
X9661Y1233D01*
X9661Y1233D01*
X9662Y1232D01*
X9662Y1232D01*
X9663Y1232D01*
X9664Y1231D01*
X9665Y1230D01*
X9667Y1228D01*
X9670Y1226D01*
X9673Y1222D01*
X9675Y1219D01*
X9678Y1215D01*
Y1215D01*
X9678Y1214D01*
X9678Y1214D01*
X9678Y1213D01*
X9679Y1212D01*
X9679Y1210D01*
X9680Y1209D01*
X9681Y1207D01*
X9681Y1205D01*
X9682Y1203D01*
X9682Y1201D01*
X9683Y1199D01*
X9683Y1194D01*
X9683Y1188D01*
Y1188D01*
Y1188D01*
Y1187D01*
X9683Y1186D01*
Y1185D01*
X9683Y1183D01*
X9683Y1181D01*
X9683Y1180D01*
X9682Y1176D01*
X9681Y1171D01*
X9679Y1167D01*
X9678Y1164D01*
X9677Y1162D01*
Y1162D01*
X9677Y1161D01*
X9677Y1161D01*
X9676Y1160D01*
X9676Y1159D01*
X9675Y1158D01*
X9673Y1155D01*
X9671Y1153D01*
X9668Y1150D01*
X9664Y1147D01*
X9660Y1144D01*
X9660D01*
X9660Y1144D01*
X9659Y1144D01*
X9658Y1143D01*
X9657Y1143D01*
X9656Y1142D01*
X9655Y1142D01*
X9653Y1141D01*
X9652Y1141D01*
X9650Y1140D01*
X9646Y1139D01*
X9641Y1139D01*
X9637Y1138D01*
X9635D01*
X9635Y1138D01*
X9633D01*
X9632Y1139D01*
X9630Y1139D01*
X9628Y1139D01*
X9625Y1140D01*
X9621Y1141D01*
X9616Y1143D01*
X9614Y1144D01*
X9612Y1145D01*
X9612Y1145D01*
X9612Y1145D01*
X9611Y1146D01*
X9610Y1146D01*
X9609Y1147D01*
X9608Y1148D01*
X9606Y1150D01*
X9603Y1152D01*
X9601Y1155D01*
X9598Y1159D01*
X9596Y1163D01*
Y1163D01*
X9595Y1164D01*
X9595Y1164D01*
X9595Y1165D01*
X9594Y1166D01*
X9594Y1167D01*
X9593Y1169D01*
X9593Y1170D01*
X9592Y1172D01*
X9592Y1174D01*
X9591Y1178D01*
X9590Y1183D01*
X9590Y1187D01*
Y1188D01*
Y1188D01*
Y1188D01*
X9590Y1190D01*
Y1191D01*
X9591Y1193D01*
X9591Y1196D01*
X9591Y1199D01*
X9592Y1201D01*
X9592Y1204D01*
X9593Y1207D01*
X9594Y1210D01*
X9596Y1214D01*
X9597Y1217D01*
X9599Y1220D01*
X9601Y1223D01*
X9603Y1225D01*
X9603Y1226D01*
X9604Y1226D01*
X9604Y1227D01*
X9605Y1228D01*
X9607Y1229D01*
X9608Y1230D01*
X9610Y1231D01*
X9612Y1232D01*
X9614Y1234D01*
X9617Y1235D01*
X9620Y1236D01*
X9623Y1237D01*
X9626Y1238D01*
X9629Y1239D01*
X9633Y1239D01*
X9637Y1239D01*
X9638D01*
X9639Y1239D01*
D02*
G37*
G36*
X9770Y1226D02*
X9738D01*
Y1140D01*
X9725D01*
Y1226D01*
X9693D01*
Y1238D01*
X9770D01*
Y1226D01*
D02*
G37*
G36*
X9573Y1140D02*
X9561D01*
Y1222D01*
X9532Y1140D01*
X9521D01*
X9492Y1223D01*
Y1140D01*
X9480D01*
Y1238D01*
X9499D01*
X9522Y1168D01*
Y1168D01*
X9523Y1168D01*
X9523Y1167D01*
X9523Y1167D01*
X9524Y1165D01*
X9524Y1163D01*
X9525Y1161D01*
X9526Y1158D01*
X9527Y1156D01*
X9527Y1154D01*
X9527Y1154D01*
X9527Y1155D01*
X9528Y1156D01*
X9528Y1158D01*
X9529Y1160D01*
X9530Y1163D01*
X9531Y1166D01*
X9532Y1170D01*
X9556Y1238D01*
X9573D01*
Y1140D01*
D02*
G37*
G36*
X9583Y790D02*
X9571D01*
Y872D01*
X9542Y790D01*
X9531D01*
X9502Y873D01*
Y790D01*
X9490D01*
Y888D01*
X9509D01*
X9532Y818D01*
Y818D01*
X9533Y818D01*
X9533Y817D01*
X9533Y817D01*
X9534Y815D01*
X9534Y813D01*
X9535Y811D01*
X9536Y808D01*
X9537Y806D01*
X9537Y804D01*
X9537Y804D01*
X9537Y805D01*
X9538Y806D01*
X9538Y808D01*
X9539Y810D01*
X9540Y813D01*
X9541Y816D01*
X9542Y820D01*
X9566Y888D01*
X9583D01*
Y790D01*
D02*
G37*
G36*
X138Y1789D02*
X140Y1789D01*
X141Y1789D01*
X143Y1789D01*
X145Y1788D01*
X148Y1787D01*
X153Y1786D01*
X155Y1785D01*
X157Y1784D01*
X159Y1783D01*
X161Y1782D01*
X161Y1782D01*
X161Y1781D01*
X162Y1781D01*
X162Y1780D01*
X163Y1780D01*
X164Y1779D01*
X165Y1778D01*
X166Y1776D01*
X167Y1775D01*
X168Y1773D01*
X170Y1772D01*
X171Y1770D01*
X172Y1768D01*
X173Y1766D01*
X174Y1763D01*
X175Y1761D01*
X162Y1758D01*
Y1758D01*
X162Y1758D01*
X161Y1759D01*
X161Y1759D01*
X161Y1760D01*
X160Y1761D01*
X159Y1764D01*
X158Y1766D01*
X156Y1769D01*
X154Y1771D01*
X152Y1773D01*
X152Y1774D01*
X151Y1774D01*
X149Y1775D01*
X148Y1776D01*
X145Y1777D01*
X142Y1778D01*
X139Y1778D01*
X136Y1778D01*
X135D01*
X134Y1778D01*
X133D01*
X132Y1778D01*
X129Y1778D01*
X126Y1777D01*
X123Y1776D01*
X120Y1775D01*
X117Y1773D01*
X117D01*
X117Y1772D01*
X116Y1772D01*
X114Y1771D01*
X113Y1769D01*
X111Y1767D01*
X109Y1764D01*
X108Y1761D01*
X106Y1758D01*
Y1758D01*
X106Y1758D01*
X106Y1757D01*
X106Y1757D01*
X106Y1756D01*
X105Y1755D01*
X105Y1752D01*
X104Y1750D01*
X104Y1747D01*
X103Y1743D01*
X103Y1739D01*
Y1739D01*
Y1739D01*
Y1738D01*
Y1737D01*
X103Y1736D01*
Y1735D01*
X104Y1734D01*
X104Y1732D01*
X104Y1729D01*
X105Y1725D01*
X106Y1721D01*
X107Y1718D01*
Y1718D01*
X107Y1717D01*
X107Y1717D01*
X107Y1716D01*
X108Y1715D01*
X110Y1713D01*
X111Y1710D01*
X113Y1708D01*
X115Y1706D01*
X118Y1704D01*
X118D01*
X118Y1704D01*
X119Y1703D01*
X119Y1703D01*
X120Y1703D01*
X121Y1702D01*
X123Y1702D01*
X126Y1701D01*
X128Y1700D01*
X131Y1699D01*
X135Y1699D01*
X136D01*
X137Y1699D01*
X138D01*
X138Y1700D01*
X141Y1700D01*
X144Y1701D01*
X147Y1702D01*
X150Y1704D01*
X152Y1704D01*
X153Y1706D01*
X153Y1706D01*
X153Y1706D01*
X154Y1706D01*
X154Y1707D01*
X155Y1707D01*
X156Y1708D01*
X156Y1709D01*
X157Y1710D01*
X158Y1711D01*
X159Y1713D01*
X160Y1714D01*
X161Y1716D01*
X161Y1718D01*
X162Y1720D01*
X163Y1722D01*
X163Y1724D01*
X176Y1721D01*
Y1721D01*
X176Y1720D01*
X176Y1719D01*
X175Y1718D01*
X175Y1717D01*
X174Y1715D01*
X174Y1714D01*
X173Y1712D01*
X171Y1708D01*
X168Y1704D01*
X167Y1702D01*
X165Y1700D01*
X164Y1698D01*
X162Y1697D01*
X161Y1696D01*
X161Y1696D01*
X160Y1696D01*
X160Y1695D01*
X159Y1695D01*
X158Y1694D01*
X156Y1693D01*
X154Y1693D01*
X153Y1692D01*
X151Y1691D01*
X149Y1690D01*
X146Y1690D01*
X144Y1689D01*
X141Y1689D01*
X139Y1688D01*
X136Y1688D01*
X134D01*
X133Y1688D01*
X132D01*
X130Y1689D01*
X129Y1689D01*
X127Y1689D01*
X123Y1690D01*
X118Y1691D01*
X114Y1693D01*
X112Y1694D01*
X110Y1695D01*
X110Y1695D01*
X110Y1695D01*
X109Y1695D01*
X109Y1696D01*
X108Y1696D01*
X107Y1697D01*
X106Y1698D01*
X105Y1699D01*
X103Y1701D01*
X102Y1702D01*
X100Y1705D01*
X97Y1709D01*
X95Y1713D01*
Y1713D01*
X95Y1714D01*
X95Y1715D01*
X94Y1715D01*
X94Y1717D01*
X94Y1718D01*
X93Y1719D01*
X93Y1721D01*
X92Y1723D01*
X92Y1725D01*
X91Y1729D01*
X90Y1734D01*
X90Y1739D01*
Y1740D01*
Y1740D01*
Y1741D01*
X90Y1742D01*
Y1743D01*
X90Y1745D01*
X90Y1747D01*
X91Y1749D01*
X91Y1753D01*
X92Y1757D01*
X94Y1762D01*
X96Y1766D01*
X96Y1766D01*
X96Y1767D01*
X96Y1767D01*
X97Y1768D01*
X97Y1769D01*
X98Y1770D01*
X100Y1772D01*
X102Y1775D01*
X105Y1778D01*
X108Y1781D01*
X112Y1783D01*
X112Y1783D01*
X113Y1784D01*
X113Y1784D01*
X114Y1784D01*
X115Y1785D01*
X116Y1785D01*
X118Y1786D01*
X119Y1786D01*
X121Y1787D01*
X123Y1787D01*
X127Y1788D01*
X131Y1789D01*
X136Y1789D01*
X137D01*
X138Y1789D01*
D02*
G37*
G36*
X210Y440D02*
X197D01*
Y538D01*
X210D01*
Y440D01*
D02*
G37*
G36*
X281Y539D02*
X282D01*
X285Y539D01*
X288Y538D01*
X291Y538D01*
X295Y537D01*
X298Y536D01*
X298D01*
X298Y536D01*
X299Y535D01*
X299Y535D01*
X301Y534D01*
X303Y533D01*
X305Y532D01*
X307Y530D01*
X309Y528D01*
X311Y526D01*
X311Y526D01*
X312Y525D01*
X313Y524D01*
X314Y522D01*
X315Y520D01*
X316Y517D01*
X318Y514D01*
X319Y510D01*
X307Y507D01*
Y507D01*
X307Y507D01*
X307Y508D01*
X307Y508D01*
X306Y510D01*
X306Y511D01*
X305Y513D01*
X304Y515D01*
X303Y517D01*
X301Y519D01*
X301Y519D01*
X301Y520D01*
X300Y520D01*
X299Y521D01*
X298Y522D01*
X296Y523D01*
X294Y525D01*
X292Y526D01*
X292Y526D01*
X291Y526D01*
X290Y526D01*
X288Y527D01*
X286Y527D01*
X284Y528D01*
X281Y528D01*
X279Y528D01*
X277D01*
X276Y528D01*
X276D01*
X274Y528D01*
X271Y528D01*
X268Y527D01*
X266Y526D01*
X263Y525D01*
X263Y525D01*
X262Y525D01*
X261Y524D01*
X260Y524D01*
X258Y522D01*
X256Y521D01*
X255Y520D01*
X253Y518D01*
X253Y518D01*
X252Y518D01*
X252Y517D01*
X251Y516D01*
X250Y514D01*
X249Y512D01*
X248Y511D01*
X247Y509D01*
Y509D01*
X247Y508D01*
X246Y508D01*
X246Y507D01*
X246Y506D01*
X246Y505D01*
X245Y504D01*
X245Y503D01*
X244Y500D01*
X244Y497D01*
X243Y493D01*
X243Y489D01*
Y489D01*
Y488D01*
Y488D01*
X243Y487D01*
Y486D01*
X243Y484D01*
X244Y483D01*
X244Y481D01*
X244Y478D01*
X245Y474D01*
X246Y471D01*
X247Y467D01*
Y467D01*
X248Y467D01*
X248Y466D01*
X248Y466D01*
X249Y464D01*
X251Y462D01*
X253Y460D01*
X255Y458D01*
X258Y456D01*
X261Y454D01*
X261D01*
X261Y454D01*
X261Y454D01*
X262Y453D01*
X263Y453D01*
X264Y453D01*
X266Y452D01*
X269Y451D01*
X272Y451D01*
X275Y450D01*
X279Y450D01*
X280D01*
X281Y450D01*
X282D01*
X284Y450D01*
X287Y451D01*
X289Y451D01*
X292Y452D01*
X295Y453D01*
X295D01*
X296Y453D01*
X296Y453D01*
X297Y454D01*
X298Y454D01*
X300Y455D01*
X302Y456D01*
X304Y457D01*
X306Y458D01*
X308Y460D01*
Y478D01*
X279D01*
Y490D01*
X320D01*
Y454D01*
X320Y453D01*
X320Y453D01*
X319Y453D01*
X319Y452D01*
X318Y452D01*
X317Y451D01*
X315Y450D01*
X314Y449D01*
X311Y447D01*
X308Y445D01*
X304Y444D01*
X300Y442D01*
X300D01*
X300Y442D01*
X299Y442D01*
X299Y442D01*
X298Y441D01*
X297Y441D01*
X295Y441D01*
X294Y440D01*
X291Y440D01*
X287Y439D01*
X284Y438D01*
X280Y438D01*
X278D01*
X277Y438D01*
X276D01*
X275Y439D01*
X273Y439D01*
X271Y439D01*
X267Y440D01*
X263Y441D01*
X258Y442D01*
X256Y443D01*
X254Y444D01*
X253Y445D01*
X253Y445D01*
X252Y445D01*
X252Y445D01*
X251Y446D01*
X250Y447D01*
X247Y449D01*
X244Y451D01*
X241Y455D01*
X238Y458D01*
X236Y462D01*
Y462D01*
X235Y463D01*
X235Y463D01*
X235Y464D01*
X234Y465D01*
X234Y467D01*
X233Y468D01*
X233Y470D01*
X232Y472D01*
X232Y474D01*
X231Y476D01*
X231Y478D01*
X230Y483D01*
X230Y488D01*
Y488D01*
Y489D01*
Y490D01*
X230Y491D01*
Y492D01*
X230Y493D01*
X230Y495D01*
X231Y497D01*
X231Y499D01*
X231Y501D01*
X232Y505D01*
X234Y510D01*
X236Y515D01*
X236Y515D01*
X236Y515D01*
X236Y516D01*
X237Y517D01*
X237Y518D01*
X238Y519D01*
X240Y522D01*
X243Y525D01*
X245Y528D01*
X249Y531D01*
X251Y532D01*
X253Y533D01*
X253Y533D01*
X253Y533D01*
X254Y534D01*
X255Y534D01*
X256Y535D01*
X257Y535D01*
X259Y536D01*
X260Y536D01*
X262Y537D01*
X264Y537D01*
X266Y538D01*
X268Y538D01*
X273Y539D01*
X276Y539D01*
X280D01*
X281Y539D01*
D02*
G37*
G36*
X9824Y819D02*
X9787D01*
Y831D01*
X9824D01*
Y819D01*
D02*
G37*
G36*
X205Y1702D02*
X253D01*
Y1690D01*
X192D01*
Y1788D01*
X205D01*
Y1702D01*
D02*
G37*
G36*
X305Y1748D02*
X348Y1690D01*
X331D01*
X296Y1739D01*
X280Y1724D01*
Y1690D01*
X267D01*
Y1788D01*
X280D01*
Y1739D01*
X329Y1788D01*
X346D01*
X305Y1748D01*
D02*
G37*
G36*
X3795Y2302D02*
X3798Y2302D01*
X3802Y2302D01*
X3805Y2301D01*
X3810Y2301D01*
X3818Y2299D01*
X3823Y2297D01*
X3827Y2296D01*
X3832Y2294D01*
X3836Y2292D01*
X3840Y2289D01*
X3843Y2286D01*
X3844Y2286D01*
X3844Y2286D01*
X3845Y2285D01*
X3846Y2284D01*
X3848Y2282D01*
X3849Y2280D01*
X3851Y2278D01*
X3853Y2275D01*
X3855Y2272D01*
X3856Y2269D01*
X3858Y2266D01*
X3859Y2262D01*
X3861Y2258D01*
X3862Y2253D01*
X3863Y2249D01*
X3863Y2244D01*
X3824Y2243D01*
Y2243D01*
Y2243D01*
X3823Y2245D01*
X3823Y2248D01*
X3822Y2251D01*
X3820Y2254D01*
X3818Y2258D01*
X3816Y2261D01*
X3813Y2264D01*
X3813Y2264D01*
X3812Y2265D01*
X3810Y2266D01*
X3807Y2267D01*
X3804Y2268D01*
X3800Y2269D01*
X3795Y2270D01*
X3789Y2270D01*
X3786D01*
X3783Y2270D01*
X3779Y2269D01*
X3775Y2269D01*
X3771Y2267D01*
X3767Y2266D01*
X3763Y2263D01*
X3762Y2263D01*
X3762Y2262D01*
X3761Y2261D01*
X3760Y2260D01*
X3758Y2258D01*
X3757Y2256D01*
X3757Y2254D01*
X3757Y2251D01*
Y2251D01*
Y2250D01*
X3757Y2249D01*
X3757Y2247D01*
X3758Y2245D01*
X3759Y2243D01*
X3760Y2241D01*
X3762Y2239D01*
X3762Y2239D01*
X3764Y2238D01*
X3765Y2238D01*
X3766Y2237D01*
X3767Y2236D01*
X3769Y2236D01*
X3771Y2235D01*
X3774Y2234D01*
X3777Y2233D01*
X3780Y2231D01*
X3784Y2230D01*
X3788Y2229D01*
X3793Y2228D01*
X3798Y2227D01*
X3798D01*
X3799Y2226D01*
X3800Y2226D01*
X3802Y2226D01*
X3805Y2225D01*
X3807Y2224D01*
X3810Y2223D01*
X3813Y2223D01*
X3820Y2220D01*
X3827Y2218D01*
X3834Y2216D01*
X3836Y2214D01*
X3839Y2213D01*
X3840D01*
X3840Y2213D01*
X3841Y2211D01*
X3844Y2210D01*
X3847Y2208D01*
X3850Y2205D01*
X3854Y2201D01*
X3858Y2198D01*
X3861Y2193D01*
X3861Y2193D01*
X3862Y2191D01*
X3863Y2188D01*
X3865Y2185D01*
X3866Y2180D01*
X3867Y2175D01*
X3868Y2169D01*
X3868Y2163D01*
Y2162D01*
Y2162D01*
Y2161D01*
Y2160D01*
X3868Y2158D01*
X3868Y2156D01*
X3867Y2153D01*
X3866Y2148D01*
X3865Y2142D01*
X3862Y2137D01*
X3859Y2131D01*
Y2131D01*
X3858Y2131D01*
X3857Y2129D01*
X3855Y2126D01*
X3852Y2123D01*
X3849Y2120D01*
X3844Y2116D01*
X3839Y2113D01*
X3833Y2110D01*
X3833D01*
X3832Y2110D01*
X3831Y2110D01*
X3830Y2109D01*
X3828Y2108D01*
X3826Y2108D01*
X3824Y2107D01*
X3821Y2107D01*
X3818Y2106D01*
X3815Y2105D01*
X3808Y2104D01*
X3800Y2103D01*
X3791Y2103D01*
X3788D01*
X3785Y2103D01*
X3782Y2104D01*
X3779Y2104D01*
X3775Y2105D01*
X3771Y2105D01*
X3762Y2107D01*
X3757Y2109D01*
X3752Y2110D01*
X3748Y2112D01*
X3743Y2114D01*
X3739Y2117D01*
X3735Y2120D01*
X3735Y2120D01*
X3734Y2121D01*
X3733Y2121D01*
X3732Y2123D01*
X3730Y2125D01*
X3729Y2127D01*
X3727Y2130D01*
X3725Y2132D01*
X3723Y2136D01*
X3721Y2139D01*
X3719Y2143D01*
X3717Y2148D01*
X3716Y2153D01*
X3714Y2158D01*
X3713Y2163D01*
X3712Y2169D01*
X3750Y2173D01*
Y2173D01*
X3750Y2172D01*
Y2171D01*
X3750Y2170D01*
X3752Y2166D01*
X3753Y2162D01*
X3755Y2158D01*
X3757Y2153D01*
X3760Y2149D01*
X3763Y2145D01*
X3764Y2145D01*
X3765Y2143D01*
X3768Y2142D01*
X3771Y2140D01*
X3775Y2139D01*
X3780Y2137D01*
X3785Y2136D01*
X3792Y2136D01*
X3795D01*
X3798Y2136D01*
X3802Y2137D01*
X3807Y2138D01*
X3811Y2139D01*
X3816Y2141D01*
X3820Y2144D01*
X3820Y2144D01*
X3821Y2145D01*
X3823Y2147D01*
X3825Y2149D01*
X3826Y2152D01*
X3828Y2155D01*
X3829Y2158D01*
X3830Y2162D01*
Y2163D01*
Y2163D01*
X3829Y2165D01*
X3829Y2166D01*
X3828Y2168D01*
X3828Y2170D01*
X3827Y2172D01*
X3825Y2174D01*
X3825Y2174D01*
X3825Y2175D01*
X3824Y2176D01*
X3822Y2177D01*
X3820Y2178D01*
X3818Y2179D01*
X3815Y2181D01*
X3811Y2182D01*
X3811D01*
X3810Y2183D01*
X3808Y2183D01*
X3807Y2184D01*
X3805Y2184D01*
X3803Y2185D01*
X3801Y2186D01*
X3798Y2186D01*
X3796Y2187D01*
X3792Y2188D01*
X3789Y2189D01*
X3785Y2190D01*
X3780Y2191D01*
X3780D01*
X3779Y2191D01*
X3777Y2192D01*
X3775Y2192D01*
X3773Y2193D01*
X3770Y2194D01*
X3767Y2195D01*
X3763Y2196D01*
X3756Y2199D01*
X3749Y2202D01*
X3745Y2204D01*
X3742Y2206D01*
X3739Y2208D01*
X3737Y2210D01*
X3737Y2210D01*
X3736Y2211D01*
X3735Y2211D01*
X3734Y2213D01*
X3733Y2214D01*
X3731Y2216D01*
X3730Y2218D01*
X3728Y2221D01*
X3725Y2226D01*
X3722Y2233D01*
X3721Y2237D01*
X3720Y2240D01*
X3720Y2244D01*
X3719Y2249D01*
Y2249D01*
Y2249D01*
Y2250D01*
Y2251D01*
X3720Y2254D01*
X3720Y2258D01*
X3721Y2262D01*
X3723Y2266D01*
X3725Y2271D01*
X3727Y2276D01*
Y2276D01*
X3728Y2277D01*
X3729Y2278D01*
X3731Y2281D01*
X3733Y2283D01*
X3737Y2286D01*
X3741Y2290D01*
X3746Y2293D01*
X3751Y2296D01*
X3752D01*
X3752Y2296D01*
X3753Y2296D01*
X3754Y2297D01*
X3756Y2297D01*
X3757Y2298D01*
X3760Y2298D01*
X3762Y2299D01*
X3768Y2300D01*
X3774Y2301D01*
X3781Y2302D01*
X3789Y2302D01*
X3793D01*
X3795Y2302D01*
D02*
G37*
G36*
X3938Y2265D02*
X3901D01*
Y2299D01*
X3938D01*
Y2265D01*
D02*
G37*
G36*
X7656Y1870D02*
X7659Y1870D01*
X7661Y1869D01*
X7664Y1869D01*
X7667Y1868D01*
X7671Y1867D01*
X7674Y1866D01*
X7678Y1864D01*
X7682Y1862D01*
X7685Y1860D01*
X7689Y1857D01*
X7692Y1854D01*
X7695Y1851D01*
X7695Y1850D01*
X7696Y1849D01*
X7697Y1848D01*
X7698Y1846D01*
X7700Y1843D01*
X7701Y1840D01*
X7703Y1836D01*
X7705Y1832D01*
X7706Y1827D01*
X7708Y1821D01*
X7710Y1814D01*
X7711Y1807D01*
X7712Y1799D01*
X7713Y1791D01*
X7714Y1782D01*
X7714Y1772D01*
Y1772D01*
Y1771D01*
Y1771D01*
Y1770D01*
Y1767D01*
X7714Y1763D01*
X7714Y1759D01*
X7713Y1753D01*
X7712Y1748D01*
X7712Y1742D01*
X7711Y1735D01*
X7709Y1729D01*
X7708Y1722D01*
X7706Y1716D01*
X7704Y1710D01*
X7701Y1704D01*
X7699Y1698D01*
X7695Y1693D01*
X7695Y1693D01*
X7694Y1693D01*
X7694Y1691D01*
X7692Y1690D01*
X7691Y1689D01*
X7689Y1687D01*
X7686Y1685D01*
X7684Y1684D01*
X7681Y1682D01*
X7678Y1680D01*
X7674Y1678D01*
X7670Y1677D01*
X7666Y1676D01*
X7661Y1675D01*
X7657Y1674D01*
X7652Y1674D01*
X7650D01*
X7649Y1674D01*
X7647D01*
X7645Y1674D01*
X7642Y1675D01*
X7639Y1675D01*
X7636Y1677D01*
X7632Y1678D01*
X7628Y1679D01*
X7624Y1681D01*
X7621Y1683D01*
X7617Y1685D01*
X7613Y1688D01*
X7610Y1691D01*
X7606Y1695D01*
X7606Y1695D01*
X7606Y1696D01*
X7605Y1698D01*
X7604Y1699D01*
X7602Y1702D01*
X7601Y1705D01*
X7599Y1709D01*
X7598Y1713D01*
X7596Y1718D01*
X7595Y1723D01*
X7593Y1730D01*
X7592Y1737D01*
X7591Y1745D01*
X7590Y1753D01*
X7590Y1762D01*
X7589Y1772D01*
Y1773D01*
Y1773D01*
Y1774D01*
Y1775D01*
Y1778D01*
X7590Y1781D01*
X7590Y1786D01*
X7591Y1791D01*
X7591Y1796D01*
X7592Y1803D01*
X7593Y1809D01*
X7594Y1815D01*
X7596Y1822D01*
X7597Y1828D01*
X7599Y1834D01*
X7602Y1840D01*
X7605Y1846D01*
X7608Y1851D01*
X7608Y1851D01*
X7609Y1851D01*
X7610Y1853D01*
X7611Y1854D01*
X7612Y1855D01*
X7614Y1857D01*
X7617Y1859D01*
X7619Y1861D01*
X7622Y1863D01*
X7626Y1864D01*
X7629Y1866D01*
X7633Y1868D01*
X7637Y1869D01*
X7642Y1870D01*
X7647Y1870D01*
X7652Y1871D01*
X7654D01*
X7656Y1870D01*
D02*
G37*
G36*
X3567Y2249D02*
X3570Y2249D01*
X3574Y2248D01*
X3577Y2247D01*
X3581Y2246D01*
X3585Y2245D01*
X3585Y2244D01*
X3587Y2244D01*
X3589Y2243D01*
X3591Y2242D01*
X3593Y2240D01*
X3596Y2238D01*
X3598Y2236D01*
X3600Y2233D01*
X3601Y2233D01*
X3601Y2232D01*
X3602Y2231D01*
X3603Y2229D01*
X3605Y2227D01*
X3606Y2224D01*
X3607Y2221D01*
X3608Y2218D01*
Y2218D01*
X3608Y2216D01*
X3609Y2214D01*
X3609Y2211D01*
X3609Y2208D01*
X3610Y2204D01*
X3610Y2199D01*
Y2193D01*
Y2107D01*
X3573D01*
Y2178D01*
Y2178D01*
Y2179D01*
Y2180D01*
Y2181D01*
Y2183D01*
Y2185D01*
X3573Y2190D01*
X3572Y2194D01*
X3572Y2199D01*
X3571Y2204D01*
X3571Y2205D01*
X3571Y2207D01*
Y2207D01*
X3570Y2208D01*
X3569Y2209D01*
X3569Y2211D01*
X3566Y2214D01*
X3565Y2216D01*
X3563Y2217D01*
X3562Y2217D01*
X3562Y2218D01*
X3561Y2218D01*
X3559Y2219D01*
X3557Y2220D01*
X3555Y2220D01*
X3553Y2221D01*
X3550Y2221D01*
X3548D01*
X3547Y2221D01*
X3544Y2220D01*
X3542Y2219D01*
X3539Y2219D01*
X3536Y2217D01*
X3533Y2216D01*
X3532Y2215D01*
X3532Y2215D01*
X3530Y2213D01*
X3529Y2212D01*
X3527Y2210D01*
X3525Y2208D01*
X3524Y2204D01*
X3522Y2201D01*
Y2201D01*
X3522Y2200D01*
X3522Y2198D01*
X3521Y2194D01*
X3521Y2192D01*
X3521Y2190D01*
X3520Y2187D01*
Y2184D01*
X3520Y2181D01*
X3520Y2178D01*
Y2174D01*
Y2169D01*
Y2107D01*
X3483D01*
Y2246D01*
X3517D01*
Y2226D01*
X3517Y2226D01*
X3518Y2227D01*
X3519Y2228D01*
X3520Y2229D01*
X3522Y2231D01*
X3524Y2233D01*
X3527Y2235D01*
X3529Y2238D01*
X3532Y2239D01*
X3536Y2242D01*
X3540Y2244D01*
X3544Y2246D01*
X3548Y2247D01*
X3553Y2248D01*
X3558Y2249D01*
X3563Y2249D01*
X3565D01*
X3567Y2249D01*
D02*
G37*
G36*
X4295D02*
X4297Y2249D01*
X4300Y2248D01*
X4303Y2248D01*
X4305Y2247D01*
X4309Y2246D01*
X4312Y2244D01*
X4315Y2243D01*
X4319Y2241D01*
X4322Y2239D01*
X4326Y2236D01*
X4329Y2233D01*
X4332Y2230D01*
X4333Y2230D01*
X4333Y2229D01*
X4334Y2228D01*
X4335Y2226D01*
X4336Y2225D01*
X4338Y2222D01*
X4339Y2219D01*
X4341Y2216D01*
X4342Y2213D01*
X4344Y2209D01*
X4345Y2204D01*
X4347Y2200D01*
X4348Y2194D01*
X4348Y2189D01*
X4349Y2183D01*
X4349Y2177D01*
Y2177D01*
Y2176D01*
Y2174D01*
X4349Y2171D01*
X4349Y2168D01*
X4348Y2165D01*
X4348Y2161D01*
X4347Y2157D01*
X4345Y2148D01*
X4344Y2144D01*
X4342Y2140D01*
X4340Y2135D01*
X4338Y2131D01*
X4335Y2127D01*
X4332Y2123D01*
X4332Y2123D01*
X4331Y2122D01*
X4330Y2121D01*
X4329Y2120D01*
X4327Y2118D01*
X4325Y2117D01*
X4323Y2115D01*
X4321Y2113D01*
X4318Y2111D01*
X4315Y2110D01*
X4308Y2107D01*
X4304Y2105D01*
X4300Y2105D01*
X4295Y2104D01*
X4291Y2104D01*
X4289D01*
X4287Y2104D01*
X4284Y2104D01*
X4281Y2105D01*
X4277Y2106D01*
X4273Y2107D01*
X4270Y2108D01*
X4270Y2108D01*
X4268Y2109D01*
X4266Y2110D01*
X4264Y2112D01*
X4261Y2114D01*
X4258Y2117D01*
X4254Y2120D01*
X4250Y2124D01*
Y2053D01*
X4213D01*
Y2246D01*
X4248D01*
Y2226D01*
X4248Y2226D01*
X4249Y2227D01*
X4251Y2229D01*
X4253Y2232D01*
X4255Y2234D01*
X4258Y2237D01*
X4262Y2240D01*
X4266Y2243D01*
X4266Y2243D01*
X4268Y2244D01*
X4270Y2245D01*
X4273Y2246D01*
X4277Y2247D01*
X4281Y2248D01*
X4286Y2249D01*
X4291Y2249D01*
X4293D01*
X4295Y2249D01*
D02*
G37*
G36*
X4137D02*
X4141Y2248D01*
X4145Y2248D01*
X4149Y2246D01*
X4154Y2245D01*
X4158Y2243D01*
X4159Y2243D01*
X4160Y2242D01*
X4162Y2240D01*
X4164Y2238D01*
X4167Y2236D01*
X4169Y2233D01*
X4172Y2229D01*
X4174Y2224D01*
X4174Y2224D01*
X4175Y2223D01*
X4175Y2221D01*
X4176Y2218D01*
X4177Y2214D01*
X4177Y2209D01*
X4178Y2203D01*
X4178Y2196D01*
Y2107D01*
X4141D01*
Y2186D01*
Y2186D01*
Y2187D01*
Y2188D01*
Y2189D01*
X4141Y2193D01*
X4140Y2197D01*
X4140Y2202D01*
X4139Y2206D01*
X4139Y2210D01*
X4138Y2211D01*
X4137Y2213D01*
X4137Y2213D01*
X4136Y2214D01*
X4135Y2215D01*
X4133Y2217D01*
X4131Y2218D01*
X4128Y2220D01*
X4125Y2221D01*
X4121Y2221D01*
X4120D01*
X4119Y2221D01*
X4117Y2220D01*
X4114Y2220D01*
X4112Y2219D01*
X4109Y2218D01*
X4107Y2216D01*
X4106Y2216D01*
X4105Y2215D01*
X4104Y2214D01*
X4103Y2213D01*
X4101Y2211D01*
X4100Y2208D01*
X4098Y2206D01*
X4097Y2202D01*
Y2202D01*
X4096Y2201D01*
X4096Y2198D01*
X4095Y2195D01*
X4095Y2191D01*
X4095Y2186D01*
X4094Y2180D01*
Y2173D01*
Y2107D01*
X4057D01*
Y2183D01*
Y2183D01*
Y2184D01*
Y2185D01*
Y2186D01*
Y2189D01*
X4057Y2194D01*
X4057Y2198D01*
X4056Y2202D01*
X4056Y2206D01*
X4055Y2208D01*
X4055Y2209D01*
Y2209D01*
X4055Y2210D01*
X4054Y2211D01*
X4054Y2212D01*
X4052Y2215D01*
X4050Y2217D01*
X4049Y2218D01*
X4049Y2218D01*
X4048Y2218D01*
X4047Y2219D01*
X4046Y2219D01*
X4044Y2220D01*
X4042Y2220D01*
X4040Y2221D01*
X4036D01*
X4035Y2221D01*
X4033Y2220D01*
X4030Y2220D01*
X4028Y2219D01*
X4025Y2218D01*
X4022Y2216D01*
X4022Y2216D01*
X4021Y2215D01*
X4020Y2214D01*
X4019Y2213D01*
X4017Y2211D01*
X4016Y2209D01*
X4014Y2206D01*
X4013Y2203D01*
Y2203D01*
X4012Y2201D01*
X4012Y2199D01*
X4011Y2196D01*
X4011Y2192D01*
X4011Y2187D01*
X4010Y2181D01*
Y2174D01*
Y2107D01*
X3973D01*
Y2246D01*
X4007D01*
Y2227D01*
X4007Y2227D01*
X4008Y2228D01*
X4009Y2229D01*
X4010Y2231D01*
X4012Y2232D01*
X4014Y2234D01*
X4016Y2236D01*
X4019Y2238D01*
X4022Y2240D01*
X4026Y2242D01*
X4033Y2246D01*
X4037Y2247D01*
X4041Y2248D01*
X4046Y2249D01*
X4050Y2249D01*
X4052D01*
X4055Y2249D01*
X4058Y2249D01*
X4062Y2248D01*
X4066Y2247D01*
X4069Y2246D01*
X4073Y2244D01*
X4074Y2243D01*
X4075Y2243D01*
X4077Y2241D01*
X4079Y2239D01*
X4082Y2237D01*
X4084Y2234D01*
X4087Y2231D01*
X4090Y2227D01*
X4090Y2227D01*
X4091Y2229D01*
X4093Y2231D01*
X4095Y2233D01*
X4099Y2236D01*
X4102Y2239D01*
X4105Y2241D01*
X4109Y2244D01*
X4110Y2244D01*
X4111Y2244D01*
X4114Y2245D01*
X4116Y2246D01*
X4120Y2248D01*
X4124Y2248D01*
X4128Y2249D01*
X4132Y2249D01*
X4135D01*
X4137Y2249D01*
D02*
G37*
G36*
X7508Y1870D02*
X7511Y1870D01*
X7513Y1870D01*
X7516Y1869D01*
X7520Y1869D01*
X7527Y1867D01*
X7534Y1864D01*
X7538Y1862D01*
X7541Y1860D01*
X7545Y1858D01*
X7548Y1855D01*
X7548Y1855D01*
X7549Y1854D01*
X7549Y1853D01*
X7551Y1852D01*
X7552Y1851D01*
X7553Y1849D01*
X7555Y1847D01*
X7556Y1844D01*
X7559Y1839D01*
X7562Y1833D01*
X7563Y1829D01*
X7564Y1825D01*
X7564Y1821D01*
X7564Y1817D01*
Y1816D01*
Y1814D01*
X7564Y1812D01*
X7564Y1809D01*
X7563Y1805D01*
X7562Y1801D01*
X7561Y1796D01*
X7560Y1792D01*
X7559Y1791D01*
X7559Y1790D01*
X7558Y1788D01*
X7556Y1784D01*
X7554Y1781D01*
X7552Y1777D01*
X7549Y1772D01*
X7545Y1768D01*
X7545Y1767D01*
X7544Y1766D01*
X7542Y1764D01*
X7539Y1761D01*
X7536Y1758D01*
X7532Y1753D01*
X7527Y1749D01*
X7521Y1743D01*
X7521Y1743D01*
X7520Y1742D01*
X7519Y1741D01*
X7518Y1740D01*
X7515Y1738D01*
X7511Y1734D01*
X7508Y1731D01*
X7504Y1727D01*
X7501Y1724D01*
X7500Y1723D01*
X7499Y1721D01*
X7498Y1721D01*
X7498Y1721D01*
X7497Y1720D01*
X7496Y1718D01*
X7493Y1715D01*
X7491Y1711D01*
X7564D01*
Y1677D01*
X7435D01*
Y1678D01*
Y1678D01*
X7436Y1679D01*
X7436Y1681D01*
X7436Y1682D01*
X7436Y1684D01*
X7438Y1689D01*
X7439Y1695D01*
X7441Y1701D01*
X7444Y1708D01*
X7448Y1714D01*
Y1714D01*
X7448Y1715D01*
X7449Y1716D01*
X7450Y1717D01*
X7451Y1719D01*
X7453Y1721D01*
X7455Y1723D01*
X7457Y1726D01*
X7459Y1730D01*
X7463Y1733D01*
X7466Y1737D01*
X7470Y1741D01*
X7474Y1745D01*
X7479Y1750D01*
X7484Y1755D01*
X7489Y1760D01*
X7489Y1760D01*
X7490Y1761D01*
X7491Y1762D01*
X7493Y1764D01*
X7495Y1766D01*
X7498Y1768D01*
X7503Y1773D01*
X7508Y1778D01*
X7513Y1783D01*
X7515Y1786D01*
X7517Y1788D01*
X7519Y1790D01*
X7520Y1792D01*
X7520Y1792D01*
X7521Y1794D01*
X7522Y1796D01*
X7524Y1799D01*
X7525Y1802D01*
X7526Y1806D01*
X7527Y1810D01*
X7528Y1814D01*
Y1814D01*
Y1815D01*
Y1816D01*
X7527Y1819D01*
X7527Y1821D01*
X7526Y1824D01*
X7525Y1828D01*
X7523Y1831D01*
X7521Y1833D01*
X7521Y1834D01*
X7520Y1834D01*
X7518Y1836D01*
X7516Y1837D01*
X7513Y1838D01*
X7510Y1839D01*
X7507Y1840D01*
X7503Y1840D01*
X7501D01*
X7498Y1840D01*
X7496Y1839D01*
X7493Y1838D01*
X7490Y1837D01*
X7487Y1835D01*
X7484Y1833D01*
X7484Y1833D01*
X7483Y1832D01*
X7482Y1830D01*
X7481Y1828D01*
X7479Y1824D01*
X7478Y1820D01*
X7477Y1816D01*
X7476Y1810D01*
X7440Y1814D01*
Y1814D01*
X7440Y1815D01*
Y1816D01*
X7441Y1819D01*
X7441Y1821D01*
X7442Y1824D01*
X7443Y1827D01*
X7443Y1831D01*
X7446Y1838D01*
X7449Y1845D01*
X7452Y1848D01*
X7454Y1852D01*
X7457Y1854D01*
X7460Y1857D01*
X7460Y1858D01*
X7461Y1858D01*
X7462Y1858D01*
X7463Y1859D01*
X7465Y1860D01*
X7467Y1861D01*
X7469Y1863D01*
X7472Y1864D01*
X7475Y1865D01*
X7478Y1866D01*
X7486Y1869D01*
X7494Y1870D01*
X7499Y1870D01*
X7503Y1871D01*
X7506D01*
X7508Y1870D01*
D02*
G37*
G36*
X7833Y1677D02*
X7796D01*
Y1816D01*
X7796Y1816D01*
X7795Y1816D01*
X7794Y1815D01*
X7792Y1813D01*
X7790Y1812D01*
X7788Y1810D01*
X7785Y1808D01*
X7782Y1806D01*
X7779Y1804D01*
X7775Y1801D01*
X7772Y1799D01*
X7767Y1797D01*
X7758Y1793D01*
X7748Y1789D01*
Y1822D01*
X7749D01*
X7749Y1822D01*
X7750Y1823D01*
X7751Y1823D01*
X7754Y1824D01*
X7758Y1826D01*
X7762Y1828D01*
X7768Y1831D01*
X7773Y1835D01*
X7780Y1839D01*
X7780Y1840D01*
X7780Y1840D01*
X7781Y1841D01*
X7782Y1842D01*
X7785Y1845D01*
X7789Y1848D01*
X7793Y1853D01*
X7797Y1858D01*
X7800Y1864D01*
X7803Y1871D01*
X7833D01*
Y1677D01*
D02*
G37*
G36*
X7949Y1870D02*
X7952D01*
X7954Y1870D01*
X7957Y1869D01*
X7960Y1869D01*
X7964Y1868D01*
X7968Y1866D01*
X7971Y1865D01*
X7975Y1863D01*
X7979Y1861D01*
X7983Y1858D01*
X7987Y1855D01*
X7991Y1852D01*
X7995Y1848D01*
X7995Y1848D01*
X7996Y1847D01*
X7996Y1845D01*
X7998Y1843D01*
X7999Y1841D01*
X8001Y1838D01*
X8003Y1834D01*
X8004Y1830D01*
X8006Y1825D01*
X8008Y1819D01*
X8009Y1813D01*
X8011Y1807D01*
X8012Y1799D01*
X8013Y1791D01*
X8013Y1783D01*
X8014Y1773D01*
Y1773D01*
Y1773D01*
Y1772D01*
Y1771D01*
Y1768D01*
X8013Y1765D01*
X8013Y1760D01*
X8013Y1755D01*
X8012Y1750D01*
X8011Y1744D01*
X8010Y1738D01*
X8009Y1731D01*
X8007Y1725D01*
X8005Y1719D01*
X8003Y1713D01*
X8000Y1707D01*
X7998Y1702D01*
X7994Y1697D01*
X7994Y1697D01*
X7993Y1696D01*
X7992Y1695D01*
X7990Y1693D01*
X7988Y1692D01*
X7986Y1690D01*
X7983Y1688D01*
X7980Y1685D01*
X7977Y1683D01*
X7973Y1681D01*
X7969Y1679D01*
X7964Y1677D01*
X7959Y1676D01*
X7954Y1675D01*
X7949Y1674D01*
X7943Y1674D01*
X7941D01*
X7940Y1674D01*
X7938D01*
X7936Y1674D01*
X7930Y1675D01*
X7925Y1677D01*
X7919Y1679D01*
X7913Y1682D01*
X7910Y1683D01*
X7907Y1686D01*
X7907Y1686D01*
X7906Y1686D01*
X7906Y1687D01*
X7905Y1688D01*
X7904Y1689D01*
X7902Y1691D01*
X7901Y1693D01*
X7900Y1695D01*
X7898Y1697D01*
X7896Y1700D01*
X7895Y1703D01*
X7894Y1706D01*
X7892Y1709D01*
X7891Y1713D01*
X7890Y1717D01*
X7889Y1721D01*
X7925Y1726D01*
Y1725D01*
X7925Y1724D01*
X7925Y1722D01*
X7926Y1720D01*
X7927Y1717D01*
X7928Y1714D01*
X7930Y1711D01*
X7931Y1709D01*
X7932Y1709D01*
X7933Y1708D01*
X7934Y1708D01*
X7935Y1707D01*
X7938Y1706D01*
X7940Y1705D01*
X7943Y1705D01*
X7946Y1704D01*
X7946D01*
X7948Y1705D01*
X7950Y1705D01*
X7953Y1706D01*
X7956Y1707D01*
X7959Y1709D01*
X7962Y1711D01*
X7965Y1715D01*
X7965Y1715D01*
X7966Y1716D01*
X7966Y1717D01*
X7967Y1718D01*
X7968Y1720D01*
X7968Y1721D01*
X7969Y1724D01*
X7970Y1727D01*
X7971Y1730D01*
X7972Y1733D01*
X7973Y1737D01*
X7974Y1742D01*
X7974Y1747D01*
X7975Y1752D01*
X7975Y1758D01*
X7975Y1758D01*
X7975Y1758D01*
X7974Y1757D01*
X7973Y1756D01*
X7971Y1755D01*
X7970Y1753D01*
X7966Y1750D01*
X7961Y1747D01*
X7955Y1745D01*
X7951Y1743D01*
X7948Y1743D01*
X7944Y1742D01*
X7941Y1742D01*
X7938D01*
X7937Y1742D01*
X7935Y1743D01*
X7933Y1743D01*
X7927Y1744D01*
X7921Y1746D01*
X7918Y1748D01*
X7915Y1750D01*
X7911Y1751D01*
X7908Y1754D01*
X7905Y1756D01*
X7902Y1760D01*
X7901Y1760D01*
X7901Y1760D01*
X7900Y1761D01*
X7899Y1763D01*
X7898Y1765D01*
X7896Y1766D01*
X7895Y1769D01*
X7894Y1772D01*
X7892Y1775D01*
X7891Y1778D01*
X7889Y1782D01*
X7888Y1786D01*
X7887Y1790D01*
X7886Y1795D01*
X7886Y1800D01*
X7885Y1805D01*
Y1805D01*
Y1806D01*
Y1808D01*
X7886Y1810D01*
X7886Y1813D01*
X7886Y1815D01*
X7887Y1819D01*
X7888Y1822D01*
X7890Y1829D01*
X7891Y1834D01*
X7893Y1838D01*
X7895Y1841D01*
X7897Y1845D01*
X7900Y1849D01*
X7903Y1853D01*
X7903Y1853D01*
X7903Y1853D01*
X7904Y1854D01*
X7906Y1855D01*
X7908Y1857D01*
X7910Y1858D01*
X7912Y1860D01*
X7915Y1862D01*
X7918Y1863D01*
X7921Y1865D01*
X7925Y1866D01*
X7929Y1868D01*
X7933Y1869D01*
X7937Y1870D01*
X7942Y1870D01*
X7947Y1871D01*
X7948D01*
X7949Y1870D01*
D02*
G37*
G36*
X7161Y1677D02*
X7124D01*
Y1816D01*
X7124Y1816D01*
X7123Y1816D01*
X7122Y1815D01*
X7120Y1813D01*
X7118Y1812D01*
X7116Y1810D01*
X7113Y1808D01*
X7110Y1806D01*
X7107Y1804D01*
X7103Y1801D01*
X7099Y1799D01*
X7095Y1797D01*
X7086Y1793D01*
X7076Y1789D01*
Y1822D01*
X7077D01*
X7077Y1822D01*
X7078Y1823D01*
X7079Y1823D01*
X7082Y1824D01*
X7086Y1826D01*
X7090Y1828D01*
X7096Y1831D01*
X7101Y1835D01*
X7107Y1839D01*
X7108Y1840D01*
X7108Y1840D01*
X7109Y1841D01*
X7110Y1842D01*
X7113Y1845D01*
X7117Y1848D01*
X7121Y1853D01*
X7124Y1858D01*
X7128Y1864D01*
X7131Y1871D01*
X7161D01*
Y1677D01*
D02*
G37*
G36*
X7284Y1870D02*
X7287Y1870D01*
X7289Y1870D01*
X7292Y1869D01*
X7296Y1869D01*
X7303Y1867D01*
X7310Y1864D01*
X7314Y1862D01*
X7317Y1860D01*
X7321Y1858D01*
X7324Y1855D01*
X7324Y1855D01*
X7325Y1854D01*
X7325Y1853D01*
X7327Y1852D01*
X7328Y1851D01*
X7329Y1849D01*
X7331Y1847D01*
X7332Y1844D01*
X7335Y1839D01*
X7338Y1833D01*
X7339Y1829D01*
X7340Y1825D01*
X7340Y1821D01*
X7340Y1817D01*
Y1816D01*
Y1814D01*
X7340Y1812D01*
X7340Y1809D01*
X7339Y1805D01*
X7338Y1801D01*
X7337Y1796D01*
X7336Y1792D01*
X7335Y1791D01*
X7335Y1790D01*
X7334Y1788D01*
X7332Y1784D01*
X7330Y1781D01*
X7328Y1777D01*
X7325Y1772D01*
X7321Y1768D01*
X7321Y1767D01*
X7320Y1766D01*
X7318Y1764D01*
X7315Y1761D01*
X7312Y1758D01*
X7308Y1753D01*
X7303Y1749D01*
X7297Y1743D01*
X7297Y1743D01*
X7296Y1742D01*
X7295Y1741D01*
X7294Y1740D01*
X7291Y1738D01*
X7287Y1734D01*
X7284Y1731D01*
X7280Y1727D01*
X7277Y1724D01*
X7276Y1723D01*
X7275Y1721D01*
X7274Y1721D01*
X7274Y1721D01*
X7273Y1720D01*
X7272Y1718D01*
X7269Y1715D01*
X7267Y1711D01*
X7340D01*
Y1677D01*
X7211D01*
Y1678D01*
Y1678D01*
X7212Y1679D01*
X7212Y1681D01*
X7212Y1682D01*
X7212Y1684D01*
X7214Y1689D01*
X7215Y1695D01*
X7217Y1701D01*
X7220Y1708D01*
X7224Y1714D01*
Y1714D01*
X7224Y1715D01*
X7225Y1716D01*
X7226Y1717D01*
X7227Y1719D01*
X7229Y1721D01*
X7231Y1723D01*
X7233Y1726D01*
X7235Y1730D01*
X7239Y1733D01*
X7242Y1737D01*
X7246Y1741D01*
X7250Y1745D01*
X7255Y1750D01*
X7260Y1755D01*
X7265Y1760D01*
X7265Y1760D01*
X7266Y1761D01*
X7267Y1762D01*
X7269Y1764D01*
X7271Y1766D01*
X7273Y1768D01*
X7278Y1773D01*
X7283Y1778D01*
X7288Y1783D01*
X7291Y1786D01*
X7293Y1788D01*
X7295Y1790D01*
X7296Y1792D01*
X7296Y1792D01*
X7297Y1794D01*
X7298Y1796D01*
X7300Y1799D01*
X7301Y1802D01*
X7302Y1806D01*
X7303Y1810D01*
X7303Y1814D01*
Y1814D01*
Y1815D01*
Y1816D01*
X7303Y1819D01*
X7303Y1821D01*
X7302Y1824D01*
X7301Y1828D01*
X7299Y1831D01*
X7297Y1833D01*
X7297Y1834D01*
X7296Y1834D01*
X7294Y1836D01*
X7292Y1837D01*
X7289Y1838D01*
X7286Y1839D01*
X7283Y1840D01*
X7278Y1840D01*
X7277D01*
X7274Y1840D01*
X7272Y1839D01*
X7269Y1838D01*
X7266Y1837D01*
X7263Y1835D01*
X7260Y1833D01*
X7260Y1833D01*
X7259Y1832D01*
X7258Y1830D01*
X7257Y1828D01*
X7255Y1824D01*
X7254Y1820D01*
X7253Y1816D01*
X7252Y1810D01*
X7216Y1814D01*
Y1814D01*
X7216Y1815D01*
Y1816D01*
X7217Y1819D01*
X7217Y1821D01*
X7218Y1824D01*
X7219Y1827D01*
X7219Y1831D01*
X7222Y1838D01*
X7225Y1845D01*
X7228Y1848D01*
X7230Y1852D01*
X7233Y1854D01*
X7236Y1857D01*
X7236Y1858D01*
X7237Y1858D01*
X7238Y1858D01*
X7239Y1859D01*
X7241Y1860D01*
X7243Y1861D01*
X7245Y1863D01*
X7248Y1864D01*
X7251Y1865D01*
X7254Y1866D01*
X7262Y1869D01*
X7270Y1870D01*
X7275Y1870D01*
X7279Y1871D01*
X7282D01*
X7284Y1870D01*
D02*
G37*
G36*
X7410Y1677D02*
X7373D01*
Y1714D01*
X7410D01*
Y1677D01*
D02*
G37*
G36*
X5393Y2299D02*
X5396D01*
X5399Y2298D01*
X5403D01*
X5410Y2297D01*
X5418Y2297D01*
X5424Y2295D01*
X5428Y2294D01*
X5430Y2294D01*
X5431D01*
X5431Y2293D01*
X5433Y2292D01*
X5435Y2291D01*
X5438Y2289D01*
X5442Y2287D01*
X5446Y2284D01*
X5449Y2280D01*
X5453Y2275D01*
Y2275D01*
X5453Y2274D01*
X5453Y2274D01*
X5454Y2273D01*
X5455Y2270D01*
X5457Y2266D01*
X5458Y2262D01*
X5460Y2257D01*
X5461Y2251D01*
X5461Y2245D01*
Y2245D01*
Y2244D01*
Y2243D01*
X5461Y2241D01*
Y2239D01*
X5461Y2238D01*
X5459Y2233D01*
X5458Y2227D01*
X5456Y2221D01*
X5453Y2215D01*
X5451Y2212D01*
X5448Y2209D01*
X5448Y2209D01*
X5448Y2209D01*
X5447Y2208D01*
X5446Y2207D01*
X5445Y2206D01*
X5443Y2204D01*
X5441Y2203D01*
X5439Y2202D01*
X5436Y2200D01*
X5433Y2199D01*
X5430Y2197D01*
X5427Y2196D01*
X5423Y2194D01*
X5419Y2193D01*
X5415Y2192D01*
X5410Y2191D01*
X5411D01*
X5411Y2191D01*
X5413Y2190D01*
X5415Y2189D01*
X5418Y2187D01*
X5421Y2184D01*
X5424Y2182D01*
X5428Y2179D01*
X5431Y2175D01*
X5431Y2175D01*
X5433Y2174D01*
X5434Y2171D01*
X5437Y2168D01*
X5440Y2164D01*
X5442Y2161D01*
X5444Y2158D01*
X5446Y2155D01*
X5448Y2152D01*
X5451Y2148D01*
X5453Y2144D01*
X5477Y2107D01*
X5430D01*
X5402Y2148D01*
X5402Y2149D01*
X5402Y2150D01*
X5401Y2151D01*
X5400Y2152D01*
X5399Y2154D01*
X5397Y2156D01*
X5394Y2160D01*
X5391Y2165D01*
X5387Y2170D01*
X5384Y2174D01*
X5383Y2175D01*
X5382Y2177D01*
X5381Y2177D01*
X5381Y2178D01*
X5380Y2179D01*
X5378Y2180D01*
X5376Y2181D01*
X5374Y2183D01*
X5372Y2184D01*
X5370Y2185D01*
X5370D01*
X5369Y2185D01*
X5368Y2186D01*
X5365Y2186D01*
X5363Y2186D01*
X5359Y2187D01*
X5355Y2187D01*
X5343D01*
Y2107D01*
X5304D01*
Y2299D01*
X5391D01*
X5393Y2299D01*
D02*
G37*
G36*
X5283Y2107D02*
X5241D01*
X5225Y2150D01*
X5147D01*
X5132Y2107D01*
X5090D01*
X5165Y2299D01*
X5206D01*
X5283Y2107D01*
D02*
G37*
G36*
X4995Y2299D02*
X5001Y2298D01*
X5006Y2298D01*
X5012Y2297D01*
X5018Y2296D01*
X5024Y2295D01*
X5024D01*
X5024Y2295D01*
X5025Y2294D01*
X5026Y2294D01*
X5030Y2293D01*
X5034Y2291D01*
X5038Y2288D01*
X5043Y2285D01*
X5048Y2282D01*
X5052Y2277D01*
X5053D01*
X5053Y2277D01*
X5054Y2275D01*
X5057Y2272D01*
X5059Y2269D01*
X5062Y2264D01*
X5065Y2259D01*
X5068Y2253D01*
X5071Y2246D01*
Y2246D01*
X5071Y2245D01*
X5071Y2244D01*
X5072Y2243D01*
X5072Y2241D01*
X5073Y2239D01*
X5073Y2236D01*
X5074Y2234D01*
X5075Y2231D01*
X5075Y2227D01*
X5076Y2223D01*
X5076Y2219D01*
X5077Y2211D01*
X5077Y2201D01*
Y2201D01*
Y2200D01*
Y2199D01*
Y2197D01*
X5077Y2195D01*
Y2193D01*
X5077Y2190D01*
X5076Y2187D01*
X5076Y2180D01*
X5075Y2174D01*
X5073Y2167D01*
X5071Y2160D01*
Y2160D01*
X5071Y2159D01*
X5070Y2158D01*
X5070Y2156D01*
X5069Y2155D01*
X5068Y2153D01*
X5066Y2148D01*
X5063Y2143D01*
X5059Y2137D01*
X5055Y2131D01*
X5051Y2126D01*
X5050Y2125D01*
X5049Y2124D01*
X5046Y2123D01*
X5043Y2120D01*
X5039Y2118D01*
X5035Y2115D01*
X5029Y2113D01*
X5023Y2111D01*
X5023D01*
X5023Y2110D01*
X5022D01*
X5021Y2110D01*
X5018Y2110D01*
X5014Y2109D01*
X5009Y2108D01*
X5004Y2107D01*
X4997Y2107D01*
X4989Y2107D01*
X4916D01*
Y2299D01*
X4993D01*
X4995Y2299D01*
D02*
G37*
G36*
X3251Y2249D02*
X3253Y2249D01*
X3255Y2248D01*
X3258Y2248D01*
X3261Y2247D01*
X3264Y2246D01*
X3267Y2244D01*
X3271Y2243D01*
X3274Y2241D01*
X3278Y2239D01*
X3281Y2236D01*
X3284Y2233D01*
X3288Y2230D01*
X3288Y2230D01*
X3288Y2229D01*
X3289Y2228D01*
X3290Y2226D01*
X3291Y2225D01*
X3293Y2222D01*
X3295Y2219D01*
X3296Y2216D01*
X3298Y2213D01*
X3299Y2209D01*
X3301Y2204D01*
X3302Y2200D01*
X3303Y2194D01*
X3304Y2189D01*
X3304Y2183D01*
X3305Y2177D01*
Y2177D01*
Y2176D01*
Y2174D01*
X3304Y2171D01*
X3304Y2168D01*
X3304Y2165D01*
X3303Y2161D01*
X3302Y2157D01*
X3300Y2148D01*
X3299Y2144D01*
X3297Y2140D01*
X3295Y2135D01*
X3293Y2131D01*
X3290Y2127D01*
X3287Y2123D01*
X3287Y2123D01*
X3286Y2122D01*
X3286Y2121D01*
X3284Y2120D01*
X3283Y2118D01*
X3281Y2117D01*
X3278Y2115D01*
X3276Y2113D01*
X3273Y2111D01*
X3270Y2110D01*
X3263Y2107D01*
X3259Y2105D01*
X3255Y2105D01*
X3251Y2104D01*
X3246Y2104D01*
X3244D01*
X3242Y2104D01*
X3239Y2104D01*
X3236Y2105D01*
X3232Y2106D01*
X3229Y2107D01*
X3225Y2108D01*
X3225Y2108D01*
X3223Y2109D01*
X3222Y2110D01*
X3219Y2112D01*
X3216Y2114D01*
X3213Y2117D01*
X3210Y2120D01*
X3206Y2124D01*
Y2053D01*
X3169D01*
Y2246D01*
X3203D01*
Y2226D01*
X3203Y2226D01*
X3204Y2227D01*
X3206Y2229D01*
X3208Y2232D01*
X3210Y2234D01*
X3214Y2237D01*
X3217Y2240D01*
X3221Y2243D01*
X3222Y2243D01*
X3223Y2244D01*
X3226Y2245D01*
X3229Y2246D01*
X3232Y2247D01*
X3237Y2248D01*
X3242Y2249D01*
X3247Y2249D01*
X3249D01*
X3251Y2249D01*
D02*
G37*
%LPC*%
G36*
X3047Y2269D02*
X3044D01*
X3043Y2269D01*
X3041Y2269D01*
X3038Y2269D01*
X3033Y2267D01*
X3027Y2265D01*
X3023Y2264D01*
X3020Y2263D01*
X3017Y2261D01*
X3014Y2258D01*
X3011Y2256D01*
X3008Y2253D01*
X3007Y2253D01*
X3007Y2252D01*
X3006Y2251D01*
X3006Y2250D01*
X3004Y2248D01*
X3003Y2246D01*
X3002Y2243D01*
X3001Y2240D01*
X2999Y2237D01*
X2998Y2233D01*
X2997Y2229D01*
X2996Y2225D01*
X2995Y2220D01*
X2994Y2214D01*
X2994Y2209D01*
X2993Y2203D01*
Y2203D01*
Y2201D01*
Y2200D01*
X2994Y2198D01*
X2994Y2195D01*
X2994Y2191D01*
X2995Y2188D01*
X2995Y2184D01*
X2997Y2176D01*
X3000Y2168D01*
X3001Y2164D01*
X3003Y2160D01*
X3006Y2156D01*
X3008Y2153D01*
X3009Y2153D01*
X3009Y2152D01*
X3010Y2151D01*
X3011Y2151D01*
X3012Y2149D01*
X3014Y2148D01*
X3016Y2146D01*
X3019Y2145D01*
X3024Y2141D01*
X3031Y2139D01*
X3034Y2138D01*
X3038Y2137D01*
X3042Y2136D01*
X3047Y2136D01*
X3049D01*
X3051Y2136D01*
X3052Y2137D01*
X3055Y2137D01*
X3060Y2138D01*
X3066Y2140D01*
X3069Y2142D01*
X3072Y2143D01*
X3076Y2145D01*
X3079Y2147D01*
X3082Y2150D01*
X3085Y2153D01*
X3085Y2153D01*
X3085Y2154D01*
X3086Y2155D01*
X3087Y2156D01*
X3088Y2158D01*
X3089Y2160D01*
X3091Y2163D01*
X3092Y2166D01*
X3094Y2169D01*
X3095Y2173D01*
X3096Y2177D01*
X3097Y2181D01*
X3098Y2186D01*
X3099Y2191D01*
X3099Y2197D01*
X3100Y2203D01*
Y2204D01*
Y2205D01*
Y2206D01*
X3099Y2209D01*
X3099Y2212D01*
X3099Y2215D01*
X3099Y2218D01*
X3098Y2222D01*
X3096Y2230D01*
X3094Y2238D01*
X3092Y2243D01*
X3090Y2246D01*
X3087Y2250D01*
X3085Y2253D01*
X3085Y2253D01*
X3084Y2254D01*
X3084Y2254D01*
X3082Y2256D01*
X3081Y2257D01*
X3079Y2258D01*
X3077Y2260D01*
X3075Y2261D01*
X3072Y2263D01*
X3069Y2264D01*
X3063Y2267D01*
X3059Y2268D01*
X3055Y2269D01*
X3051Y2269D01*
X3047Y2269D01*
D02*
G37*
G36*
X3389Y2221D02*
X3387D01*
X3385Y2220D01*
X3382Y2220D01*
X3379Y2219D01*
X3376Y2217D01*
X3372Y2215D01*
X3369Y2212D01*
X3369Y2212D01*
X3368Y2210D01*
X3367Y2208D01*
X3365Y2206D01*
X3364Y2202D01*
X3363Y2198D01*
X3362Y2193D01*
X3361Y2188D01*
X3416D01*
Y2188D01*
Y2189D01*
Y2189D01*
X3416Y2191D01*
X3416Y2194D01*
X3415Y2197D01*
X3414Y2201D01*
X3413Y2205D01*
X3411Y2209D01*
X3408Y2212D01*
X3408Y2213D01*
X3407Y2214D01*
X3405Y2215D01*
X3403Y2217D01*
X3400Y2218D01*
X3397Y2219D01*
X3393Y2221D01*
X3389Y2221D01*
D02*
G37*
G36*
X4508D02*
X4506D01*
X4504Y2220D01*
X4501Y2220D01*
X4498Y2219D01*
X4495Y2217D01*
X4492Y2215D01*
X4489Y2212D01*
X4488Y2212D01*
X4487Y2210D01*
X4486Y2208D01*
X4485Y2206D01*
X4483Y2202D01*
X4482Y2198D01*
X4481Y2193D01*
X4481Y2188D01*
X4536D01*
Y2188D01*
Y2189D01*
Y2189D01*
X4536Y2191D01*
X4535Y2194D01*
X4535Y2197D01*
X4534Y2201D01*
X4532Y2205D01*
X4530Y2209D01*
X4527Y2212D01*
X4527Y2213D01*
X4526Y2214D01*
X4524Y2215D01*
X4522Y2217D01*
X4519Y2218D01*
X4516Y2219D01*
X4512Y2221D01*
X4508Y2221D01*
D02*
G37*
G36*
X9647Y878D02*
X9645D01*
X9645Y878D01*
X9643Y878D01*
X9642Y878D01*
X9640Y877D01*
X9639Y877D01*
X9635Y876D01*
X9633Y875D01*
X9631Y874D01*
X9629Y873D01*
X9627Y872D01*
X9625Y870D01*
X9623Y869D01*
X9623Y869D01*
X9623Y868D01*
X9622Y868D01*
X9622Y867D01*
X9621Y866D01*
X9620Y865D01*
X9619Y863D01*
X9618Y861D01*
X9617Y859D01*
X9616Y857D01*
X9616Y854D01*
X9615Y851D01*
X9614Y848D01*
X9614Y845D01*
X9613Y841D01*
X9613Y837D01*
Y837D01*
Y837D01*
Y836D01*
X9613Y834D01*
X9614Y833D01*
X9614Y831D01*
X9614Y829D01*
X9614Y827D01*
X9616Y823D01*
X9616Y820D01*
X9617Y818D01*
X9618Y816D01*
X9620Y814D01*
X9621Y811D01*
X9623Y809D01*
X9623Y809D01*
X9623Y809D01*
X9624Y808D01*
X9624Y808D01*
X9625Y807D01*
X9627Y806D01*
X9628Y805D01*
X9629Y804D01*
X9631Y803D01*
X9633Y803D01*
X9635Y802D01*
X9637Y801D01*
X9639Y800D01*
X9641Y800D01*
X9644Y799D01*
X9647Y799D01*
X9647D01*
X9648Y799D01*
X9649D01*
X9650Y800D01*
X9652Y800D01*
X9653Y800D01*
X9655Y801D01*
X9657Y801D01*
X9659Y802D01*
X9661Y803D01*
X9663Y804D01*
X9665Y805D01*
X9667Y806D01*
X9669Y808D01*
X9671Y809D01*
X9671Y810D01*
X9671Y810D01*
X9672Y811D01*
X9672Y811D01*
X9673Y812D01*
X9674Y814D01*
X9675Y815D01*
X9676Y817D01*
X9676Y819D01*
X9677Y821D01*
X9678Y824D01*
X9679Y826D01*
X9679Y829D01*
X9680Y832D01*
X9680Y835D01*
X9680Y839D01*
Y839D01*
Y839D01*
Y840D01*
Y841D01*
X9680Y842D01*
Y843D01*
X9680Y844D01*
X9680Y846D01*
X9679Y849D01*
X9678Y852D01*
X9677Y856D01*
X9676Y859D01*
Y859D01*
X9676Y860D01*
X9676Y860D01*
X9675Y861D01*
X9674Y862D01*
X9673Y864D01*
X9671Y867D01*
X9669Y869D01*
X9667Y871D01*
X9664Y873D01*
X9664D01*
X9664Y873D01*
X9664Y874D01*
X9663Y874D01*
X9662Y874D01*
X9661Y875D01*
X9659Y876D01*
X9657Y877D01*
X9654Y877D01*
X9650Y878D01*
X9647Y878D01*
D02*
G37*
G36*
X9637Y1228D02*
X9635D01*
X9635Y1228D01*
X9633Y1228D01*
X9632Y1228D01*
X9630Y1227D01*
X9629Y1227D01*
X9625Y1226D01*
X9623Y1225D01*
X9621Y1224D01*
X9619Y1223D01*
X9617Y1222D01*
X9615Y1220D01*
X9613Y1219D01*
X9613Y1219D01*
X9613Y1218D01*
X9612Y1218D01*
X9612Y1217D01*
X9611Y1216D01*
X9610Y1215D01*
X9609Y1213D01*
X9608Y1211D01*
X9607Y1209D01*
X9606Y1207D01*
X9606Y1204D01*
X9605Y1201D01*
X9604Y1198D01*
X9604Y1195D01*
X9603Y1191D01*
X9603Y1187D01*
Y1187D01*
Y1187D01*
Y1186D01*
X9603Y1184D01*
X9604Y1183D01*
X9604Y1181D01*
X9604Y1179D01*
X9604Y1177D01*
X9606Y1173D01*
X9606Y1170D01*
X9607Y1168D01*
X9608Y1166D01*
X9610Y1164D01*
X9611Y1161D01*
X9613Y1159D01*
X9613Y1159D01*
X9613Y1159D01*
X9614Y1158D01*
X9614Y1158D01*
X9615Y1157D01*
X9617Y1156D01*
X9618Y1155D01*
X9619Y1154D01*
X9621Y1153D01*
X9623Y1153D01*
X9625Y1152D01*
X9627Y1151D01*
X9629Y1150D01*
X9631Y1150D01*
X9634Y1149D01*
X9637Y1149D01*
X9637D01*
X9638Y1149D01*
X9639D01*
X9640Y1150D01*
X9642Y1150D01*
X9643Y1150D01*
X9645Y1151D01*
X9647Y1151D01*
X9649Y1152D01*
X9651Y1153D01*
X9653Y1154D01*
X9655Y1155D01*
X9657Y1156D01*
X9659Y1158D01*
X9661Y1159D01*
X9661Y1160D01*
X9661Y1160D01*
X9662Y1161D01*
X9662Y1161D01*
X9663Y1162D01*
X9664Y1164D01*
X9665Y1165D01*
X9666Y1167D01*
X9666Y1169D01*
X9667Y1171D01*
X9668Y1174D01*
X9669Y1176D01*
X9669Y1179D01*
X9670Y1182D01*
X9670Y1185D01*
X9670Y1189D01*
Y1189D01*
Y1189D01*
Y1190D01*
Y1191D01*
X9670Y1192D01*
Y1193D01*
X9670Y1194D01*
X9670Y1196D01*
X9669Y1199D01*
X9668Y1202D01*
X9667Y1206D01*
X9666Y1209D01*
Y1209D01*
X9666Y1210D01*
X9666Y1210D01*
X9665Y1211D01*
X9664Y1212D01*
X9663Y1214D01*
X9661Y1217D01*
X9659Y1219D01*
X9657Y1221D01*
X9654Y1223D01*
X9654D01*
X9654Y1223D01*
X9654Y1224D01*
X9653Y1224D01*
X9652Y1224D01*
X9651Y1225D01*
X9649Y1226D01*
X9647Y1227D01*
X9644Y1227D01*
X9640Y1228D01*
X9637Y1228D01*
D02*
G37*
G36*
X7652Y1840D02*
X7650D01*
X7649Y1840D01*
X7648Y1839D01*
X7646Y1839D01*
X7644Y1838D01*
X7642Y1837D01*
X7640Y1836D01*
X7639Y1835D01*
X7639Y1835D01*
X7638Y1834D01*
X7637Y1832D01*
X7636Y1830D01*
X7634Y1828D01*
X7633Y1824D01*
X7632Y1820D01*
Y1820D01*
X7632Y1820D01*
Y1819D01*
X7631Y1818D01*
X7631Y1816D01*
X7631Y1814D01*
X7631Y1812D01*
X7630Y1809D01*
X7630Y1806D01*
X7629Y1802D01*
X7629Y1798D01*
X7629Y1794D01*
X7629Y1789D01*
Y1784D01*
X7628Y1778D01*
Y1772D01*
Y1772D01*
Y1771D01*
Y1769D01*
Y1766D01*
Y1764D01*
X7629Y1761D01*
Y1757D01*
X7629Y1753D01*
X7629Y1746D01*
X7630Y1738D01*
X7630Y1734D01*
X7631Y1731D01*
X7631Y1728D01*
X7632Y1725D01*
X7632Y1725D01*
X7632Y1723D01*
X7633Y1721D01*
X7634Y1718D01*
X7635Y1716D01*
X7637Y1713D01*
X7638Y1710D01*
X7640Y1708D01*
X7640Y1708D01*
X7641Y1708D01*
X7642Y1707D01*
X7643Y1706D01*
X7645Y1706D01*
X7647Y1705D01*
X7649Y1705D01*
X7652Y1704D01*
X7653D01*
X7654Y1705D01*
X7655Y1705D01*
X7657Y1705D01*
X7659Y1706D01*
X7661Y1707D01*
X7663Y1708D01*
X7664Y1709D01*
X7664Y1709D01*
X7665Y1710D01*
X7666Y1712D01*
X7667Y1714D01*
X7669Y1717D01*
X7670Y1720D01*
X7671Y1724D01*
Y1724D01*
X7672Y1724D01*
Y1725D01*
X7672Y1726D01*
X7672Y1728D01*
X7672Y1730D01*
X7673Y1732D01*
X7673Y1735D01*
X7674Y1738D01*
X7674Y1742D01*
X7674Y1746D01*
X7675Y1750D01*
X7675Y1755D01*
Y1760D01*
X7675Y1766D01*
Y1772D01*
Y1772D01*
Y1773D01*
Y1775D01*
Y1778D01*
Y1780D01*
X7675Y1783D01*
Y1787D01*
X7675Y1791D01*
X7674Y1798D01*
X7674Y1806D01*
X7673Y1809D01*
X7673Y1813D01*
X7672Y1816D01*
X7672Y1819D01*
Y1819D01*
X7671Y1819D01*
X7671Y1821D01*
X7670Y1823D01*
X7669Y1826D01*
X7668Y1828D01*
X7667Y1831D01*
X7665Y1834D01*
X7663Y1836D01*
X7663Y1836D01*
X7662Y1836D01*
X7661Y1837D01*
X7660Y1838D01*
X7658Y1839D01*
X7656Y1839D01*
X7654Y1840D01*
X7652Y1840D01*
D02*
G37*
G36*
X4281Y2220D02*
X4280D01*
X4279Y2220D01*
X4276Y2219D01*
X4273Y2219D01*
X4270Y2218D01*
X4266Y2216D01*
X4262Y2213D01*
X4258Y2209D01*
X4258Y2209D01*
X4257Y2208D01*
X4256Y2205D01*
X4254Y2202D01*
X4253Y2197D01*
X4251Y2192D01*
X4250Y2186D01*
X4250Y2179D01*
Y2178D01*
Y2178D01*
Y2176D01*
X4250Y2175D01*
Y2173D01*
X4250Y2171D01*
X4251Y2166D01*
X4252Y2160D01*
X4254Y2154D01*
X4256Y2149D01*
X4257Y2146D01*
X4259Y2144D01*
X4260Y2143D01*
X4261Y2142D01*
X4263Y2140D01*
X4265Y2138D01*
X4268Y2136D01*
X4272Y2135D01*
X4277Y2133D01*
X4281Y2133D01*
X4282D01*
X4284Y2133D01*
X4286Y2133D01*
X4289Y2134D01*
X4292Y2135D01*
X4296Y2137D01*
X4300Y2140D01*
X4303Y2143D01*
X4303Y2144D01*
X4304Y2145D01*
X4306Y2148D01*
X4307Y2151D01*
X4308Y2153D01*
X4309Y2156D01*
X4310Y2159D01*
X4310Y2162D01*
X4311Y2165D01*
X4311Y2169D01*
X4311Y2173D01*
Y2177D01*
Y2177D01*
Y2178D01*
Y2179D01*
Y2180D01*
X4311Y2182D01*
X4311Y2184D01*
X4310Y2189D01*
X4309Y2194D01*
X4308Y2200D01*
X4306Y2205D01*
X4303Y2209D01*
X4302Y2210D01*
X4301Y2211D01*
X4299Y2213D01*
X4296Y2215D01*
X4293Y2217D01*
X4290Y2218D01*
X4286Y2219D01*
X4281Y2220D01*
D02*
G37*
G36*
X7945Y1840D02*
X7943D01*
X7941Y1839D01*
X7939Y1839D01*
X7936Y1838D01*
X7934Y1836D01*
X7931Y1834D01*
X7928Y1832D01*
X7928Y1831D01*
X7927Y1830D01*
X7926Y1828D01*
X7925Y1825D01*
X7924Y1822D01*
X7923Y1817D01*
X7922Y1811D01*
X7921Y1805D01*
Y1805D01*
Y1804D01*
Y1803D01*
Y1802D01*
X7922Y1799D01*
X7922Y1795D01*
X7923Y1790D01*
X7925Y1786D01*
X7926Y1781D01*
X7929Y1778D01*
X7929Y1777D01*
X7930Y1776D01*
X7931Y1775D01*
X7934Y1773D01*
X7936Y1772D01*
X7940Y1770D01*
X7943Y1769D01*
X7947Y1769D01*
X7948D01*
X7949Y1769D01*
X7951Y1770D01*
X7953Y1770D01*
X7956Y1771D01*
X7959Y1773D01*
X7962Y1775D01*
X7965Y1777D01*
X7965Y1778D01*
X7966Y1779D01*
X7967Y1781D01*
X7969Y1783D01*
X7970Y1787D01*
X7971Y1791D01*
X7972Y1796D01*
X7972Y1802D01*
Y1802D01*
Y1803D01*
Y1804D01*
Y1805D01*
X7972Y1808D01*
X7971Y1812D01*
X7970Y1817D01*
X7969Y1821D01*
X7967Y1826D01*
X7964Y1830D01*
X7964Y1831D01*
X7963Y1832D01*
X7961Y1833D01*
X7959Y1835D01*
X7956Y1837D01*
X7953Y1838D01*
X7949Y1839D01*
X7945Y1840D01*
D02*
G37*
G36*
X5387Y2266D02*
X5343D01*
Y2218D01*
X5381D01*
X5386Y2218D01*
X5392Y2218D01*
X5398Y2218D01*
X5400Y2219D01*
X5403Y2219D01*
X5405Y2219D01*
X5406Y2220D01*
X5406D01*
X5407Y2220D01*
X5409Y2221D01*
X5410Y2222D01*
X5414Y2224D01*
X5415Y2226D01*
X5417Y2228D01*
X5417Y2228D01*
X5418Y2229D01*
X5418Y2230D01*
X5419Y2232D01*
X5420Y2234D01*
X5421Y2236D01*
X5421Y2239D01*
X5421Y2242D01*
Y2243D01*
Y2244D01*
X5421Y2246D01*
X5421Y2248D01*
X5420Y2250D01*
X5419Y2253D01*
X5418Y2256D01*
X5416Y2258D01*
X5416Y2258D01*
X5415Y2259D01*
X5414Y2260D01*
X5412Y2261D01*
X5410Y2263D01*
X5408Y2264D01*
X5404Y2265D01*
X5401Y2266D01*
X5401D01*
X5400Y2266D01*
X5398D01*
X5396Y2266D01*
X5390D01*
X5387Y2266D01*
D02*
G37*
G36*
X5185Y2254D02*
X5159Y2183D01*
X5212D01*
X5185Y2254D01*
D02*
G37*
G36*
X4981Y2266D02*
X4955D01*
Y2139D01*
X4989D01*
X4993Y2140D01*
X4997D01*
X5001Y2140D01*
X5004Y2140D01*
X5007Y2141D01*
X5008D01*
X5009Y2141D01*
X5011Y2142D01*
X5013Y2143D01*
X5016Y2144D01*
X5018Y2145D01*
X5021Y2147D01*
X5023Y2149D01*
X5023Y2149D01*
X5024Y2150D01*
X5025Y2151D01*
X5027Y2153D01*
X5028Y2156D01*
X5030Y2159D01*
X5031Y2163D01*
X5033Y2167D01*
Y2168D01*
X5033Y2168D01*
Y2169D01*
X5034Y2170D01*
X5034Y2171D01*
X5034Y2173D01*
X5035Y2177D01*
X5036Y2182D01*
X5037Y2188D01*
X5037Y2195D01*
X5037Y2203D01*
Y2203D01*
Y2204D01*
Y2205D01*
Y2206D01*
Y2208D01*
X5037Y2210D01*
X5037Y2215D01*
X5036Y2221D01*
X5036Y2226D01*
X5034Y2232D01*
X5033Y2237D01*
Y2237D01*
X5033Y2237D01*
X5032Y2239D01*
X5031Y2241D01*
X5030Y2244D01*
X5029Y2246D01*
X5027Y2249D01*
X5024Y2253D01*
X5022Y2255D01*
X5022Y2256D01*
X5021Y2256D01*
X5019Y2258D01*
X5017Y2259D01*
X5014Y2261D01*
X5011Y2262D01*
X5008Y2263D01*
X5004Y2264D01*
X5004D01*
X5002Y2265D01*
X5000Y2265D01*
X4997Y2266D01*
X4995D01*
X4993Y2266D01*
X4990D01*
X4987Y2266D01*
X4984D01*
X4981Y2266D01*
D02*
G37*
G36*
X3236Y2220D02*
X3236D01*
X3234Y2220D01*
X3232Y2219D01*
X3228Y2219D01*
X3225Y2218D01*
X3221Y2216D01*
X3217Y2213D01*
X3214Y2209D01*
X3213Y2209D01*
X3212Y2208D01*
X3211Y2205D01*
X3210Y2202D01*
X3208Y2197D01*
X3207Y2192D01*
X3205Y2186D01*
X3205Y2179D01*
Y2178D01*
Y2178D01*
Y2176D01*
X3205Y2175D01*
Y2173D01*
X3206Y2171D01*
X3206Y2166D01*
X3207Y2160D01*
X3209Y2154D01*
X3211Y2149D01*
X3213Y2146D01*
X3214Y2144D01*
X3215Y2143D01*
X3216Y2142D01*
X3218Y2140D01*
X3221Y2138D01*
X3224Y2136D01*
X3228Y2135D01*
X3232Y2133D01*
X3237Y2133D01*
X3237D01*
X3239Y2133D01*
X3241Y2133D01*
X3244Y2134D01*
X3248Y2135D01*
X3251Y2137D01*
X3255Y2140D01*
X3258Y2143D01*
X3258Y2144D01*
X3260Y2145D01*
X3261Y2148D01*
X3263Y2151D01*
X3263Y2153D01*
X3264Y2156D01*
X3265Y2159D01*
X3265Y2162D01*
X3266Y2165D01*
X3267Y2169D01*
X3267Y2173D01*
Y2177D01*
Y2177D01*
Y2178D01*
Y2179D01*
Y2180D01*
X3267Y2182D01*
X3266Y2184D01*
X3266Y2189D01*
X3265Y2194D01*
X3263Y2200D01*
X3261Y2205D01*
X3258Y2209D01*
X3258Y2210D01*
X3256Y2211D01*
X3254Y2213D01*
X3252Y2215D01*
X3249Y2217D01*
X3245Y2218D01*
X3241Y2219D01*
X3236Y2220D01*
D02*
G37*
%LPD*%
D37*
X750Y950D02*
G03*
X750Y950I-10J0D01*
G01*
X5750Y200D02*
Y1930D01*
X720Y1070D02*
X780D01*
X1720D02*
X1780D01*
X1720Y920D02*
Y1220D01*
X780Y920D02*
Y1220D01*
X6430Y1350D02*
Y1930D01*
Y2210D02*
Y2450D01*
X5830D02*
X6430D01*
X5830Y1350D02*
X6430D01*
X5830D02*
Y1450D01*
Y1720D02*
Y2120D01*
Y2380D02*
Y2450D01*
X612Y2437D02*
Y2500D01*
X2750Y200D02*
Y1940D01*
X8460Y2541D02*
X8460Y61D01*
X2140Y502D02*
X2242D01*
X2191D01*
Y350D01*
X2292Y502D02*
X2394Y350D01*
Y502D02*
X2292Y350D01*
X2445D02*
X2495D01*
X2470D01*
Y502D01*
X2445Y477D01*
X2292Y757D02*
X2266Y782D01*
X2215D01*
X2190Y757D01*
Y655D01*
X2215Y630D01*
X2266D01*
X2292Y655D01*
Y706D01*
X2241D01*
X2342Y630D02*
Y782D01*
X2444Y630D01*
Y782D01*
X2495D02*
Y630D01*
X2571D01*
X2596Y655D01*
Y757D01*
X2571Y782D01*
X2495D01*
X2647Y630D02*
X2698D01*
X2672D01*
Y782D01*
X2647Y757D01*
X540Y2362D02*
Y2210D01*
X642D01*
X794Y2362D02*
X692D01*
Y2210D01*
X794D01*
X692Y2286D02*
X743D01*
X845Y2362D02*
Y2210D01*
X921D01*
X946Y2235D01*
Y2337D01*
X921Y2362D01*
X845D01*
X997Y2210D02*
X1048D01*
X1022D01*
Y2362D01*
X997Y2337D01*
X6850Y390D02*
Y542D01*
X6926D01*
X6952Y517D01*
Y466D01*
X6926Y441D01*
X6850D01*
X6901D02*
X6952Y390D01*
X7104Y542D02*
X7002D01*
Y466D01*
X7053Y492D01*
X7079D01*
X7104Y466D01*
Y415D01*
X7079Y390D01*
X7028D01*
X7002Y415D01*
X1890Y2160D02*
Y2312D01*
X1966D01*
X1992Y2287D01*
Y2236D01*
X1966Y2211D01*
X1890D01*
X1941D02*
X1992Y2160D01*
X2119D02*
Y2312D01*
X2042Y2236D01*
X2144D01*
X1280Y2190D02*
Y2342D01*
X1356D01*
X1382Y2317D01*
Y2266D01*
X1356Y2241D01*
X1280D01*
X1331D02*
X1382Y2190D01*
X1432Y2317D02*
X1458Y2342D01*
X1509D01*
X1534Y2317D01*
Y2292D01*
X1509Y2266D01*
X1483D01*
X1509D01*
X1534Y2241D01*
Y2215D01*
X1509Y2190D01*
X1458D01*
X1432Y2215D01*
X6177Y302D02*
X6151Y327D01*
X6100D01*
X6075Y302D01*
Y200D01*
X6100Y175D01*
X6151D01*
X6177Y200D01*
Y251D01*
X6126D01*
X6227Y175D02*
Y327D01*
X6329Y175D01*
Y327D01*
X6380D02*
Y175D01*
X6456D01*
X6481Y200D01*
Y302D01*
X6456Y327D01*
X6380D01*
X6075Y950D02*
Y1102D01*
X6151D01*
X6177Y1077D01*
Y1026D01*
X6151Y1001D01*
X6075D01*
X6227Y1102D02*
Y950D01*
X6278Y1001D01*
X6329Y950D01*
Y1102D01*
X6380Y950D02*
Y1102D01*
X6456D01*
X6481Y1077D01*
Y1026D01*
X6456Y1001D01*
X6380D01*
X6430D02*
X6481Y950D01*
X6532Y1026D02*
X6634D01*
X6583Y1077D02*
Y975D01*
X2402Y1552D02*
X2300D01*
Y1400D01*
X2402D01*
X2300Y1476D02*
X2351D01*
X2452Y1400D02*
Y1552D01*
X2554Y1400D01*
Y1552D01*
X2706Y1527D02*
X2681Y1552D01*
X2630D01*
X2605Y1527D01*
Y1425D01*
X2630Y1400D01*
X2681D01*
X2706Y1425D01*
X6075Y552D02*
X6177D01*
X6126D01*
Y400D01*
X6227Y552D02*
X6329Y400D01*
Y552D02*
X6227Y400D01*
X1592Y1667D02*
X1566Y1692D01*
X1515D01*
X1490Y1667D01*
Y1565D01*
X1515Y1540D01*
X1566D01*
X1592Y1565D01*
X1642Y1667D02*
X1668Y1692D01*
X1719D01*
X1744Y1667D01*
Y1642D01*
X1719Y1616D01*
X1744Y1591D01*
Y1565D01*
X1719Y1540D01*
X1668D01*
X1642Y1565D01*
Y1591D01*
X1668Y1616D01*
X1642Y1642D01*
Y1667D01*
X1668Y1616D02*
X1719D01*
D38*
X2260Y850D02*
G03*
X2260Y1350I0J250D01*
G01*
X850Y1100D02*
X1650D01*
X8984Y136D02*
Y1152D01*
X8730Y136D02*
X8984D01*
X8730Y9D02*
Y136D01*
X8476Y9D02*
X8730D01*
X8476D02*
Y1152D01*
X8984D01*
X560Y400D02*
X1960D01*
X560Y1800D02*
X1960D01*
X560Y400D02*
Y1800D01*
X2120Y240D02*
Y850D01*
Y1350D02*
Y1960D01*
X400Y1350D02*
Y1960D01*
X2120D01*
X1960Y400D02*
Y1800D01*
X260Y1350D02*
X400D01*
X260Y850D02*
X400D01*
X2120D02*
X2260D01*
X2120Y1350D02*
X2260D01*
X400Y240D02*
Y850D01*
Y240D02*
X2120D01*
D39*
X1985Y2101D02*
X2015D01*
X1985Y2019D02*
X2015D01*
X6630Y429D02*
X6660D01*
X6630Y511D02*
X6660D01*
X1488Y1362D02*
Y1458D01*
X1452Y1362D02*
Y1458D01*
X1245Y2511D02*
X1275D01*
X1245Y2429D02*
X1275D01*
M02*
