G04 Layer_Physical_Order=1*
G04 Layer_Color=255*
%FSLAX42Y42*%
%MOMM*%
G71*
G01*
G75*
%ADD10R,3.00X2.00*%
G04:AMPARAMS|DCode=11|XSize=0.8mm|YSize=0.8mm|CornerRadius=0.1mm|HoleSize=0mm|Usage=FLASHONLY|Rotation=180.000|XOffset=0mm|YOffset=0mm|HoleType=Round|Shape=RoundedRectangle|*
%AMROUNDEDRECTD11*
21,1,0.80,0.60,0,0,180.0*
21,1,0.60,0.80,0,0,180.0*
1,1,0.20,-0.30,0.30*
1,1,0.20,0.30,0.30*
1,1,0.20,0.30,-0.30*
1,1,0.20,-0.30,-0.30*
%
%ADD11ROUNDEDRECTD11*%
%ADD12R,0.80X2.00*%
G04:AMPARAMS|DCode=13|XSize=1mm|YSize=0.9mm|CornerRadius=0.11mm|HoleSize=0mm|Usage=FLASHONLY|Rotation=90.000|XOffset=0mm|YOffset=0mm|HoleType=Round|Shape=RoundedRectangle|*
%AMROUNDEDRECTD13*
21,1,1.00,0.68,0,0,90.0*
21,1,0.78,0.90,0,0,90.0*
1,1,0.23,0.34,0.39*
1,1,0.23,0.34,-0.39*
1,1,0.23,-0.34,-0.39*
1,1,0.23,-0.34,0.39*
%
%ADD13ROUNDEDRECTD13*%
%ADD14C,0.30*%
%ADD15C,0.50*%
%ADD16C,4.00*%
%ADD17C,1.52*%
%ADD18C,1.20*%
%ADD19R,1.20X1.20*%
%ADD20C,3.50*%
%ADD21R,1.50X1.50*%
%ADD22C,1.50*%
%ADD23C,1.60*%
%ADD24C,4.50*%
%ADD25C,1.00*%
%ADD26C,0.80*%
%ADD27C,1.27*%
G36*
X8450Y160D02*
Y50D01*
X8300Y50D01*
X50D01*
Y2550D01*
X1119D01*
X1120Y2548D01*
X1119Y2531D01*
X1112Y2521D01*
X1109Y2509D01*
Y2506D01*
X914D01*
X913Y2512D01*
X907Y2522D01*
X897Y2528D01*
X885Y2531D01*
X825D01*
X813Y2528D01*
X803Y2522D01*
X802Y2520D01*
X744D01*
X741Y2526D01*
X729Y2533D01*
X715Y2536D01*
X698D01*
Y2470D01*
Y2404D01*
X715D01*
X729Y2407D01*
X741Y2414D01*
X744Y2420D01*
X802D01*
X803Y2418D01*
X813Y2412D01*
X825Y2409D01*
X885D01*
X897Y2412D01*
X907Y2418D01*
X913Y2428D01*
X914Y2434D01*
X1109D01*
Y2431D01*
X1112Y2419D01*
X1119Y2409D01*
X1129Y2402D01*
X1141Y2399D01*
X1209D01*
X1219Y2401D01*
X1220Y2400D01*
X1294D01*
Y2351D01*
X1280Y2340D01*
X1269Y2325D01*
X1262Y2308D01*
X1259Y2290D01*
X1262Y2272D01*
X1269Y2255D01*
X1280Y2240D01*
X1295Y2229D01*
X1312Y2222D01*
X1330Y2219D01*
X1348Y2222D01*
X1365Y2229D01*
X1380Y2240D01*
X1391Y2255D01*
X1398Y2272D01*
X1401Y2290D01*
X1398Y2308D01*
X1391Y2325D01*
X1380Y2340D01*
X1366Y2351D01*
Y2399D01*
X1379D01*
X1391Y2402D01*
X1401Y2409D01*
X1408Y2419D01*
X1411Y2431D01*
Y2509D01*
X1408Y2521D01*
X1401Y2531D01*
X1400Y2548D01*
X1401Y2550D01*
X8450Y2550D01*
X8450Y160D01*
D02*
G37*
G36*
X9850Y50D02*
X8550D01*
Y2550D01*
X8744D01*
X8746Y2537D01*
X8725Y2531D01*
X8691Y2513D01*
X8661Y2489D01*
X8637Y2459D01*
X8619Y2425D01*
X8608Y2388D01*
X8604Y2350D01*
X8608Y2312D01*
X8619Y2275D01*
X8637Y2241D01*
X8661Y2211D01*
X8691Y2187D01*
X8725Y2169D01*
X8762Y2158D01*
X8800Y2154D01*
X8838Y2158D01*
X8875Y2169D01*
X8909Y2187D01*
X8939Y2211D01*
X8963Y2241D01*
X8981Y2275D01*
X8992Y2312D01*
X8996Y2350D01*
X8992Y2388D01*
X8981Y2425D01*
X8963Y2459D01*
X8939Y2489D01*
X8909Y2513D01*
X8875Y2531D01*
X8854Y2537D01*
X8856Y2550D01*
X9850D01*
Y50D01*
D02*
G37*
%LPC*%
G36*
X672Y2536D02*
X655D01*
X641Y2533D01*
X629Y2526D01*
X622Y2514D01*
X619Y2500D01*
Y2483D01*
X672D01*
Y2536D01*
D02*
G37*
G36*
X3455Y2527D02*
Y2465D01*
X3517D01*
X3516Y2472D01*
X3509Y2491D01*
X3496Y2506D01*
X3481Y2519D01*
X3462Y2526D01*
X3455Y2527D01*
D02*
G37*
G36*
X3430D02*
X3423Y2526D01*
X3405Y2519D01*
X3389Y2506D01*
X3377Y2491D01*
X3369Y2472D01*
X3368Y2465D01*
X3430D01*
Y2527D01*
D02*
G37*
G36*
X4203Y2524D02*
Y2463D01*
X4264D01*
X4263Y2470D01*
X4256Y2488D01*
X4244Y2504D01*
X4228Y2516D01*
X4210Y2523D01*
X4203Y2524D01*
D02*
G37*
G36*
X4177D02*
X4170Y2523D01*
X4152Y2516D01*
X4136Y2504D01*
X4124Y2488D01*
X4117Y2470D01*
X4116Y2463D01*
X4177D01*
Y2524D01*
D02*
G37*
G36*
X3813D02*
Y2463D01*
X3874D01*
X3873Y2470D01*
X3866Y2488D01*
X3854Y2504D01*
X3838Y2516D01*
X3820Y2523D01*
X3813Y2524D01*
D02*
G37*
G36*
X3787D02*
X3780Y2523D01*
X3762Y2516D01*
X3746Y2504D01*
X3734Y2488D01*
X3727Y2470D01*
X3726Y2463D01*
X3787D01*
Y2524D01*
D02*
G37*
G36*
X3063D02*
Y2463D01*
X3124D01*
X3123Y2470D01*
X3116Y2488D01*
X3104Y2504D01*
X3088Y2516D01*
X3070Y2523D01*
X3063Y2524D01*
D02*
G37*
G36*
X3037D02*
X3030Y2523D01*
X3012Y2516D01*
X2996Y2504D01*
X2984Y2488D01*
X2977Y2470D01*
X2976Y2463D01*
X3037D01*
Y2524D01*
D02*
G37*
G36*
X2673D02*
Y2463D01*
X2734D01*
X2733Y2470D01*
X2726Y2488D01*
X2714Y2504D01*
X2698Y2516D01*
X2680Y2523D01*
X2673Y2524D01*
D02*
G37*
G36*
X2647D02*
X2640Y2523D01*
X2622Y2516D01*
X2606Y2504D01*
X2594Y2488D01*
X2587Y2470D01*
X2586Y2463D01*
X2647D01*
Y2524D01*
D02*
G37*
G36*
X2293D02*
Y2463D01*
X2354D01*
X2353Y2470D01*
X2346Y2488D01*
X2334Y2504D01*
X2318Y2516D01*
X2300Y2523D01*
X2293Y2524D01*
D02*
G37*
G36*
X2267D02*
X2260Y2523D01*
X2242Y2516D01*
X2226Y2504D01*
X2214Y2488D01*
X2207Y2470D01*
X2206Y2463D01*
X2267D01*
Y2524D01*
D02*
G37*
G36*
X1933D02*
Y2463D01*
X1994D01*
X1993Y2470D01*
X1986Y2488D01*
X1974Y2504D01*
X1958Y2516D01*
X1940Y2523D01*
X1933Y2524D01*
D02*
G37*
G36*
X1907D02*
X1900Y2523D01*
X1882Y2516D01*
X1866Y2504D01*
X1854Y2488D01*
X1847Y2470D01*
X1846Y2463D01*
X1907D01*
Y2524D01*
D02*
G37*
G36*
X1573D02*
Y2463D01*
X1634D01*
X1633Y2470D01*
X1626Y2488D01*
X1614Y2504D01*
X1598Y2516D01*
X1580Y2523D01*
X1573Y2524D01*
D02*
G37*
G36*
X1547D02*
X1540Y2523D01*
X1522Y2516D01*
X1506Y2504D01*
X1494Y2488D01*
X1487Y2470D01*
X1486Y2463D01*
X1547D01*
Y2524D01*
D02*
G37*
G36*
X672Y2457D02*
X619D01*
Y2440D01*
X622Y2426D01*
X629Y2414D01*
X641Y2407D01*
X655Y2404D01*
X672D01*
Y2457D01*
D02*
G37*
G36*
X5105Y2490D02*
Y2403D01*
X5192D01*
X5190Y2416D01*
X5180Y2441D01*
X5164Y2462D01*
X5143Y2478D01*
X5118Y2488D01*
X5105Y2490D01*
D02*
G37*
G36*
X5079Y2490D02*
X5066Y2488D01*
X5041Y2478D01*
X5020Y2462D01*
X5004Y2441D01*
X4994Y2416D01*
X4992Y2403D01*
X5079D01*
Y2490D01*
D02*
G37*
G36*
X3517Y2440D02*
X3455D01*
Y2378D01*
X3462Y2379D01*
X3481Y2387D01*
X3496Y2399D01*
X3509Y2415D01*
X3516Y2433D01*
X3517Y2440D01*
D02*
G37*
G36*
X3430D02*
X3368D01*
X3369Y2433D01*
X3377Y2415D01*
X3389Y2399D01*
X3405Y2387D01*
X3423Y2379D01*
X3430Y2378D01*
Y2440D01*
D02*
G37*
G36*
X4264Y2437D02*
X4203D01*
Y2376D01*
X4210Y2377D01*
X4228Y2384D01*
X4244Y2396D01*
X4256Y2412D01*
X4263Y2430D01*
X4264Y2437D01*
D02*
G37*
G36*
X4177D02*
X4116D01*
X4117Y2430D01*
X4124Y2412D01*
X4136Y2396D01*
X4152Y2384D01*
X4170Y2377D01*
X4177Y2376D01*
Y2437D01*
D02*
G37*
G36*
X3874D02*
X3813D01*
Y2376D01*
X3820Y2377D01*
X3838Y2384D01*
X3854Y2396D01*
X3866Y2412D01*
X3873Y2430D01*
X3874Y2437D01*
D02*
G37*
G36*
X3787D02*
X3726D01*
X3727Y2430D01*
X3734Y2412D01*
X3746Y2396D01*
X3762Y2384D01*
X3780Y2377D01*
X3787Y2376D01*
Y2437D01*
D02*
G37*
G36*
X3124D02*
X3063D01*
Y2376D01*
X3070Y2377D01*
X3088Y2384D01*
X3104Y2396D01*
X3116Y2412D01*
X3123Y2430D01*
X3124Y2437D01*
D02*
G37*
G36*
X3037D02*
X2976D01*
X2977Y2430D01*
X2984Y2412D01*
X2996Y2396D01*
X3012Y2384D01*
X3030Y2377D01*
X3037Y2376D01*
Y2437D01*
D02*
G37*
G36*
X2734D02*
X2673D01*
Y2376D01*
X2680Y2377D01*
X2698Y2384D01*
X2714Y2396D01*
X2726Y2412D01*
X2733Y2430D01*
X2734Y2437D01*
D02*
G37*
G36*
X2647D02*
X2586D01*
X2587Y2430D01*
X2594Y2412D01*
X2606Y2396D01*
X2622Y2384D01*
X2640Y2377D01*
X2647Y2376D01*
Y2437D01*
D02*
G37*
G36*
X2354D02*
X2293D01*
Y2376D01*
X2300Y2377D01*
X2318Y2384D01*
X2334Y2396D01*
X2346Y2412D01*
X2353Y2430D01*
X2354Y2437D01*
D02*
G37*
G36*
X2267D02*
X2206D01*
X2207Y2430D01*
X2214Y2412D01*
X2226Y2396D01*
X2242Y2384D01*
X2260Y2377D01*
X2267Y2376D01*
Y2437D01*
D02*
G37*
G36*
X1994D02*
X1933D01*
Y2376D01*
X1940Y2377D01*
X1958Y2384D01*
X1974Y2396D01*
X1986Y2412D01*
X1993Y2430D01*
X1994Y2437D01*
D02*
G37*
G36*
X1907D02*
X1846D01*
X1847Y2430D01*
X1854Y2412D01*
X1866Y2396D01*
X1882Y2384D01*
X1900Y2377D01*
X1907Y2376D01*
Y2437D01*
D02*
G37*
G36*
X1634D02*
X1573D01*
Y2376D01*
X1580Y2377D01*
X1598Y2384D01*
X1614Y2396D01*
X1626Y2412D01*
X1633Y2430D01*
X1634Y2437D01*
D02*
G37*
G36*
X1547D02*
X1486D01*
X1487Y2430D01*
X1494Y2412D01*
X1506Y2396D01*
X1522Y2384D01*
X1540Y2377D01*
X1547Y2376D01*
Y2437D01*
D02*
G37*
G36*
X313Y2500D02*
Y2313D01*
X500D01*
X498Y2339D01*
X486Y2377D01*
X467Y2412D01*
X442Y2442D01*
X412Y2467D01*
X377Y2486D01*
X339Y2497D01*
X313Y2500D01*
D02*
G37*
G36*
X287D02*
X261Y2497D01*
X223Y2486D01*
X188Y2467D01*
X158Y2442D01*
X133Y2412D01*
X114Y2377D01*
X103Y2339D01*
X100Y2313D01*
X287D01*
Y2500D01*
D02*
G37*
G36*
X5346Y2486D02*
X5321Y2483D01*
X5298Y2473D01*
X5278Y2458D01*
X5263Y2438D01*
X5253Y2415D01*
X5250Y2390D01*
X5253Y2365D01*
X5263Y2342D01*
X5278Y2322D01*
X5298Y2307D01*
X5321Y2297D01*
X5346Y2294D01*
X5371Y2297D01*
X5394Y2307D01*
X5414Y2322D01*
X5429Y2342D01*
X5439Y2365D01*
X5442Y2390D01*
X5439Y2415D01*
X5429Y2438D01*
X5414Y2458D01*
X5394Y2473D01*
X5371Y2483D01*
X5346Y2486D01*
D02*
G37*
G36*
X5192Y2377D02*
X5105D01*
Y2290D01*
X5118Y2292D01*
X5143Y2302D01*
X5164Y2318D01*
X5180Y2339D01*
X5190Y2364D01*
X5192Y2377D01*
D02*
G37*
G36*
X5079D02*
X4992D01*
X4994Y2364D01*
X5004Y2339D01*
X5020Y2318D01*
X5041Y2302D01*
X5066Y2292D01*
X5079Y2290D01*
Y2377D01*
D02*
G37*
G36*
X5898Y2355D02*
Y2263D01*
X5990D01*
X5988Y2278D01*
X5977Y2303D01*
X5960Y2325D01*
X5938Y2342D01*
X5913Y2353D01*
X5898Y2355D01*
D02*
G37*
G36*
X5872Y2355D02*
X5857Y2353D01*
X5832Y2342D01*
X5810Y2325D01*
X5793Y2303D01*
X5782Y2278D01*
X5780Y2263D01*
X5872D01*
Y2355D01*
D02*
G37*
G36*
Y2237D02*
X5780D01*
X5782Y2222D01*
X5793Y2197D01*
X5810Y2175D01*
X5832Y2158D01*
X5857Y2147D01*
X5872Y2145D01*
Y2237D01*
D02*
G37*
G36*
X5990D02*
X5898D01*
Y2145D01*
X5913Y2147D01*
X5938Y2158D01*
X5960Y2175D01*
X5977Y2197D01*
X5988Y2222D01*
X5990Y2237D01*
D02*
G37*
G36*
X500Y2287D02*
X313D01*
Y2100D01*
X339Y2102D01*
X377Y2114D01*
X412Y2133D01*
X442Y2158D01*
X467Y2188D01*
X486Y2223D01*
X498Y2261D01*
X500Y2287D01*
D02*
G37*
G36*
X287D02*
X100D01*
X103Y2261D01*
X114Y2223D01*
X133Y2188D01*
X158Y2158D01*
X188Y2133D01*
X223Y2114D01*
X261Y2102D01*
X287Y2100D01*
Y2287D01*
D02*
G37*
G36*
X8200Y2466D02*
X8162Y2462D01*
X8125Y2451D01*
X8091Y2433D01*
X8061Y2409D01*
X8037Y2379D01*
X8019Y2345D01*
X8008Y2308D01*
X8004Y2270D01*
X8008Y2232D01*
X8019Y2195D01*
X8037Y2161D01*
X8061Y2131D01*
X8091Y2107D01*
X8125Y2089D01*
X8162Y2078D01*
X8200Y2074D01*
X8238Y2078D01*
X8275Y2089D01*
X8309Y2107D01*
X8339Y2131D01*
X8363Y2161D01*
X8381Y2195D01*
X8392Y2232D01*
X8396Y2270D01*
X8392Y2308D01*
X8381Y2345D01*
X8363Y2379D01*
X8339Y2409D01*
X8309Y2433D01*
X8275Y2451D01*
X8238Y2462D01*
X8200Y2466D01*
D02*
G37*
G36*
X7000D02*
X6962Y2462D01*
X6925Y2451D01*
X6891Y2433D01*
X6861Y2409D01*
X6837Y2379D01*
X6819Y2345D01*
X6808Y2308D01*
X6804Y2270D01*
X6808Y2232D01*
X6819Y2195D01*
X6837Y2161D01*
X6861Y2131D01*
X6891Y2107D01*
X6925Y2089D01*
X6962Y2078D01*
X7000Y2074D01*
X7038Y2078D01*
X7075Y2089D01*
X7109Y2107D01*
X7139Y2131D01*
X7163Y2161D01*
X7181Y2195D01*
X7192Y2232D01*
X7196Y2270D01*
X7192Y2308D01*
X7181Y2345D01*
X7163Y2379D01*
X7139Y2409D01*
X7109Y2433D01*
X7075Y2451D01*
X7038Y2462D01*
X7000Y2466D01*
D02*
G37*
G36*
X1107Y2074D02*
X1100Y2073D01*
X1082Y2066D01*
X1066Y2054D01*
X1054Y2038D01*
X1047Y2020D01*
X1046Y2013D01*
X1107D01*
Y2074D01*
D02*
G37*
G36*
X6375Y2171D02*
X6349Y2167D01*
X6325Y2157D01*
X6304Y2141D01*
X6288Y2120D01*
X6278Y2096D01*
X6274Y2070D01*
X6278Y2044D01*
X6288Y2020D01*
X6304Y1999D01*
X6325Y1983D01*
X6349Y1973D01*
X6375Y1969D01*
X6401Y1973D01*
X6425Y1983D01*
X6446Y1999D01*
X6462Y2020D01*
X6472Y2044D01*
X6476Y2070D01*
X6472Y2096D01*
X6462Y2120D01*
X6446Y2141D01*
X6425Y2157D01*
X6401Y2167D01*
X6375Y2171D01*
D02*
G37*
G36*
X1107Y1987D02*
X1046D01*
X1047Y1980D01*
X1054Y1962D01*
X1066Y1946D01*
X1082Y1934D01*
X1100Y1927D01*
X1107Y1926D01*
Y1987D01*
D02*
G37*
G36*
X8287Y1861D02*
Y1800D01*
X8348D01*
X8347Y1807D01*
X8340Y1825D01*
X8328Y1841D01*
X8312Y1853D01*
X8294Y1860D01*
X8287Y1861D01*
D02*
G37*
G36*
X8261D02*
X8254Y1860D01*
X8236Y1853D01*
X8220Y1841D01*
X8208Y1825D01*
X8200Y1807D01*
X8199Y1800D01*
X8261D01*
Y1861D01*
D02*
G37*
G36*
X8348Y1774D02*
X8287D01*
Y1713D01*
X8294Y1714D01*
X8312Y1721D01*
X8328Y1733D01*
X8340Y1749D01*
X8347Y1767D01*
X8348Y1774D01*
D02*
G37*
G36*
X8261D02*
X8199D01*
X8200Y1767D01*
X8208Y1749D01*
X8220Y1733D01*
X8236Y1721D01*
X8254Y1714D01*
X8261Y1713D01*
Y1774D01*
D02*
G37*
G36*
X680Y1757D02*
Y1695D01*
X742D01*
X741Y1702D01*
X733Y1721D01*
X721Y1736D01*
X705Y1749D01*
X687Y1756D01*
X680Y1757D01*
D02*
G37*
G36*
X655D02*
X648Y1756D01*
X629Y1749D01*
X614Y1736D01*
X601Y1721D01*
X594Y1702D01*
X593Y1695D01*
X655D01*
Y1757D01*
D02*
G37*
G36*
X2253Y1684D02*
Y1623D01*
X2314D01*
X2313Y1630D01*
X2306Y1648D01*
X2294Y1664D01*
X2278Y1676D01*
X2260Y1683D01*
X2253Y1684D01*
D02*
G37*
G36*
X2227D02*
X2220Y1683D01*
X2202Y1676D01*
X2186Y1664D01*
X2174Y1648D01*
X2167Y1630D01*
X2166Y1623D01*
X2227D01*
Y1684D01*
D02*
G37*
G36*
X2063D02*
Y1623D01*
X2124D01*
X2123Y1630D01*
X2116Y1648D01*
X2104Y1664D01*
X2088Y1676D01*
X2070Y1683D01*
X2063Y1684D01*
D02*
G37*
G36*
X2037D02*
X2030Y1683D01*
X2012Y1676D01*
X1996Y1664D01*
X1984Y1648D01*
X1977Y1630D01*
X1976Y1623D01*
X2037D01*
Y1684D01*
D02*
G37*
G36*
X742Y1670D02*
X680D01*
Y1608D01*
X687Y1609D01*
X705Y1617D01*
X721Y1629D01*
X733Y1645D01*
X741Y1663D01*
X742Y1670D01*
D02*
G37*
G36*
X655D02*
X593D01*
X594Y1663D01*
X601Y1645D01*
X614Y1629D01*
X629Y1617D01*
X648Y1609D01*
X655Y1608D01*
Y1670D01*
D02*
G37*
G36*
X5523Y1654D02*
Y1593D01*
X5584D01*
X5583Y1600D01*
X5576Y1618D01*
X5564Y1634D01*
X5548Y1646D01*
X5530Y1653D01*
X5523Y1654D01*
D02*
G37*
G36*
X5497D02*
X5490Y1653D01*
X5472Y1646D01*
X5456Y1634D01*
X5444Y1618D01*
X5437Y1600D01*
X5436Y1593D01*
X5497D01*
Y1654D01*
D02*
G37*
G36*
X2314Y1597D02*
X2253D01*
Y1536D01*
X2260Y1537D01*
X2278Y1544D01*
X2294Y1556D01*
X2306Y1572D01*
X2313Y1590D01*
X2314Y1597D01*
D02*
G37*
G36*
X2227D02*
X2166D01*
X2167Y1590D01*
X2174Y1572D01*
X2186Y1556D01*
X2202Y1544D01*
X2220Y1537D01*
X2227Y1536D01*
Y1597D01*
D02*
G37*
G36*
X2124D02*
X2063D01*
Y1536D01*
X2070Y1537D01*
X2088Y1544D01*
X2104Y1556D01*
X2116Y1572D01*
X2123Y1590D01*
X2124Y1597D01*
D02*
G37*
G36*
X2037D02*
X1976D01*
X1977Y1590D01*
X1984Y1572D01*
X1996Y1556D01*
X2012Y1544D01*
X2030Y1537D01*
X2037Y1536D01*
Y1597D01*
D02*
G37*
G36*
X5584Y1567D02*
X5523D01*
Y1506D01*
X5530Y1507D01*
X5548Y1514D01*
X5564Y1526D01*
X5576Y1542D01*
X5583Y1560D01*
X5584Y1567D01*
D02*
G37*
G36*
X5497D02*
X5436D01*
X5437Y1560D01*
X5444Y1542D01*
X5456Y1526D01*
X5472Y1514D01*
X5490Y1507D01*
X5497Y1506D01*
Y1567D01*
D02*
G37*
G36*
X5695Y2485D02*
X5505D01*
Y2295D01*
X5564D01*
Y1865D01*
X5567Y1851D01*
X5575Y1840D01*
X5794Y1621D01*
X5788Y1606D01*
X5784Y1580D01*
X5788Y1554D01*
X5798Y1530D01*
X5814Y1509D01*
X5835Y1493D01*
X5859Y1483D01*
X5885Y1479D01*
X5911Y1483D01*
X5935Y1493D01*
X5956Y1509D01*
X5972Y1530D01*
X5982Y1554D01*
X5986Y1580D01*
X5982Y1606D01*
X5972Y1630D01*
X5956Y1651D01*
X5935Y1667D01*
X5911Y1677D01*
X5885Y1681D01*
X5859Y1677D01*
X5844Y1671D01*
X5636Y1880D01*
Y2295D01*
X5695D01*
Y2485D01*
D02*
G37*
G36*
X1615Y2126D02*
X1597Y2123D01*
X1580Y2116D01*
X1565Y2105D01*
X1554Y2090D01*
X1547Y2073D01*
X1544Y2055D01*
X1547Y2037D01*
X1554Y2020D01*
X1565Y2005D01*
X1569Y2002D01*
Y1484D01*
X1566Y1481D01*
X1521D01*
X1511Y1479D01*
X1510Y1480D01*
X1438D01*
X1433Y1483D01*
X1431Y1484D01*
Y1765D01*
X1427Y1783D01*
X1417Y1797D01*
X1192Y2023D01*
X1186Y2038D01*
X1174Y2054D01*
X1158Y2066D01*
X1140Y2073D01*
X1133Y2074D01*
Y2000D01*
Y1926D01*
X1140Y1927D01*
X1153Y1932D01*
X1339Y1746D01*
Y1579D01*
X1328Y1574D01*
X1323Y1577D01*
X1300Y1581D01*
X1277Y1577D01*
X1257Y1563D01*
X1252Y1556D01*
X420D01*
Y1680D01*
X80D01*
Y1440D01*
X420D01*
Y1484D01*
X974D01*
Y1371D01*
X740Y1371D01*
X593Y1218D01*
Y872D01*
X728Y778D01*
X724Y766D01*
X420D01*
Y790D01*
X80D01*
Y550D01*
X420D01*
Y694D01*
X1240D01*
X1254Y697D01*
X1265Y705D01*
X1330Y770D01*
X1605Y770D01*
X1661Y714D01*
X1659Y700D01*
X1660Y692D01*
X1651Y681D01*
X1399D01*
X1383Y692D01*
X1360Y696D01*
X1337Y692D01*
X1317Y678D01*
X1303Y658D01*
X1299Y635D01*
X1303Y612D01*
X1317Y592D01*
X1337Y578D01*
X1360Y574D01*
X1383Y578D01*
X1399Y589D01*
X1675D01*
X1693Y593D01*
X1707Y603D01*
X1726Y621D01*
X1740Y619D01*
X1761Y622D01*
X1780Y630D01*
X1797Y643D01*
X1806Y654D01*
X3860D01*
X3878Y658D01*
X3892Y668D01*
X4529Y1304D01*
X5789D01*
X5800Y1300D01*
X5800Y1291D01*
Y1060D01*
X5995D01*
X6000Y1059D01*
X6005Y1060D01*
X6140D01*
Y1291D01*
X6140Y1300D01*
X6151Y1304D01*
X6474D01*
X6483Y1293D01*
X6500Y1280D01*
X6519Y1272D01*
X6540Y1269D01*
X6561Y1272D01*
X6580Y1280D01*
X6597Y1293D01*
X6610Y1310D01*
X6612Y1314D01*
X6800D01*
X6849Y1265D01*
Y1211D01*
X6852Y1199D01*
X6859Y1189D01*
X6869Y1182D01*
X6879Y1180D01*
Y940D01*
X6869Y938D01*
X6859Y931D01*
X6852Y921D01*
X6849Y909D01*
Y831D01*
X6852Y819D01*
X6859Y809D01*
X6869Y802D01*
X6881Y799D01*
X6946D01*
X6950Y793D01*
X6952Y787D01*
X6892Y727D01*
X6880Y732D01*
Y750D01*
X6540D01*
Y510D01*
X6880D01*
Y615D01*
X7065Y799D01*
X7119D01*
X7131Y802D01*
X7141Y809D01*
X7142Y809D01*
X7154Y805D01*
Y625D01*
X6892Y362D01*
X6880Y367D01*
Y430D01*
X6540D01*
Y346D01*
X6525D01*
X6295Y575D01*
X6284Y583D01*
X6270Y586D01*
X5999D01*
X5996Y598D01*
X6000Y600D01*
X6017Y613D01*
X6030Y630D01*
X6038Y649D01*
X6041Y670D01*
X6038Y691D01*
X6030Y710D01*
X6017Y727D01*
X6000Y740D01*
X5981Y748D01*
X5960Y751D01*
X5939Y748D01*
X5920Y740D01*
X5903Y727D01*
X5890Y710D01*
X5882Y691D01*
X5879Y670D01*
X5882Y649D01*
X5884Y644D01*
X5873Y637D01*
X5588Y922D01*
X5591Y940D01*
X5588Y958D01*
X5581Y975D01*
X5570Y990D01*
X5555Y1001D01*
X5538Y1008D01*
X5520Y1011D01*
X5502Y1008D01*
X5485Y1001D01*
X5470Y990D01*
X5459Y975D01*
X5452Y958D01*
X5449Y940D01*
X5452Y922D01*
X5459Y905D01*
X5470Y890D01*
X5485Y879D01*
X5502Y872D01*
X5520Y869D01*
X5538Y872D01*
X5885Y525D01*
X5896Y517D01*
X5910Y514D01*
X6255D01*
X6485Y285D01*
X6496Y277D01*
X6510Y274D01*
X6540D01*
Y190D01*
X6880D01*
Y253D01*
X6892Y258D01*
X6984Y165D01*
Y131D01*
X6987Y119D01*
X6994Y109D01*
X7004Y102D01*
X7016Y99D01*
X7084D01*
X7094Y101D01*
X7095Y100D01*
X7167D01*
X7172Y97D01*
X7186Y94D01*
X7207D01*
Y170D01*
Y246D01*
X7186D01*
X7172Y243D01*
X7167Y240D01*
X7095D01*
X7094Y239D01*
X7084Y241D01*
X7016D01*
X7011Y240D01*
X6940Y310D01*
X7215Y585D01*
X7223Y596D01*
X7226Y610D01*
Y960D01*
X7223Y974D01*
X7215Y985D01*
X7121Y1080D01*
Y1180D01*
X7131Y1182D01*
X7141Y1189D01*
X7148Y1199D01*
X7151Y1211D01*
Y1289D01*
X7148Y1301D01*
X7141Y1311D01*
X7131Y1318D01*
X7119Y1321D01*
X7051D01*
X7041Y1319D01*
X7040Y1320D01*
X6960D01*
X6959Y1319D01*
X6949Y1321D01*
X6895D01*
X6840Y1375D01*
X6829Y1383D01*
X6815Y1386D01*
X6612D01*
X6610Y1390D01*
X6597Y1407D01*
X6580Y1420D01*
X6561Y1428D01*
X6540Y1431D01*
X6519Y1428D01*
X6500Y1420D01*
X6483Y1407D01*
X6474Y1396D01*
X4510D01*
X4492Y1392D01*
X4478Y1382D01*
X3841Y746D01*
X1806D01*
X1797Y757D01*
X1780Y770D01*
X1769Y775D01*
X1767Y789D01*
X1887Y872D01*
X1887Y1221D01*
X1737Y1371D01*
X1633Y1371D01*
X1621Y1383D01*
Y1406D01*
X1647Y1433D01*
X1657Y1447D01*
X1661Y1465D01*
Y2002D01*
X1665Y2005D01*
X1676Y2020D01*
X1683Y2037D01*
X1686Y2055D01*
X1683Y2073D01*
X1676Y2090D01*
X1665Y2105D01*
X1650Y2116D01*
X1633Y2123D01*
X1615Y2126D01*
D02*
G37*
G36*
X8287Y1501D02*
Y1440D01*
X8348D01*
X8347Y1447D01*
X8340Y1465D01*
X8328Y1481D01*
X8312Y1493D01*
X8294Y1500D01*
X8287Y1501D01*
D02*
G37*
G36*
X8261D02*
X8254Y1500D01*
X8236Y1493D01*
X8220Y1481D01*
X8208Y1465D01*
X8200Y1447D01*
X8199Y1440D01*
X8261D01*
Y1501D01*
D02*
G37*
G36*
X8348Y1414D02*
X8287D01*
Y1353D01*
X8294Y1354D01*
X8312Y1361D01*
X8328Y1373D01*
X8340Y1389D01*
X8347Y1407D01*
X8348Y1414D01*
D02*
G37*
G36*
X8261D02*
X8199D01*
X8200Y1407D01*
X8208Y1389D01*
X8220Y1373D01*
X8236Y1361D01*
X8254Y1354D01*
X8261Y1353D01*
Y1414D01*
D02*
G37*
G36*
X4200Y1746D02*
X4152Y1741D01*
X4106Y1727D01*
X4063Y1705D01*
X4026Y1674D01*
X3995Y1637D01*
X3973Y1594D01*
X3959Y1548D01*
X3954Y1500D01*
X3959Y1452D01*
X3973Y1406D01*
X3995Y1363D01*
X4026Y1326D01*
X4063Y1295D01*
X4106Y1273D01*
X4152Y1259D01*
X4200Y1254D01*
X4248Y1259D01*
X4294Y1273D01*
X4337Y1295D01*
X4374Y1326D01*
X4405Y1363D01*
X4427Y1406D01*
X4441Y1452D01*
X4446Y1500D01*
X4441Y1548D01*
X4427Y1594D01*
X4405Y1637D01*
X4374Y1674D01*
X4337Y1705D01*
X4294Y1727D01*
X4248Y1741D01*
X4200Y1746D01*
D02*
G37*
G36*
X5523Y1234D02*
Y1173D01*
X5584D01*
X5583Y1180D01*
X5576Y1198D01*
X5564Y1214D01*
X5548Y1226D01*
X5530Y1233D01*
X5523Y1234D01*
D02*
G37*
G36*
X5497D02*
X5490Y1233D01*
X5472Y1226D01*
X5456Y1214D01*
X5444Y1198D01*
X5437Y1180D01*
X5436Y1173D01*
X5497D01*
Y1234D01*
D02*
G37*
G36*
X8287Y1161D02*
Y1100D01*
X8348D01*
X8347Y1107D01*
X8340Y1125D01*
X8328Y1141D01*
X8312Y1153D01*
X8294Y1160D01*
X8287Y1161D01*
D02*
G37*
G36*
X8261D02*
X8254Y1160D01*
X8236Y1153D01*
X8220Y1141D01*
X8208Y1125D01*
X8200Y1107D01*
X8199Y1100D01*
X8261D01*
Y1161D01*
D02*
G37*
G36*
X5584Y1147D02*
X5523D01*
Y1086D01*
X5530Y1087D01*
X5548Y1094D01*
X5564Y1106D01*
X5576Y1122D01*
X5583Y1140D01*
X5584Y1147D01*
D02*
G37*
G36*
X5497D02*
X5436D01*
X5437Y1140D01*
X5444Y1122D01*
X5456Y1106D01*
X5472Y1094D01*
X5490Y1087D01*
X5497Y1086D01*
Y1147D01*
D02*
G37*
G36*
X8348Y1074D02*
X8287D01*
Y1013D01*
X8294Y1014D01*
X8312Y1021D01*
X8328Y1033D01*
X8340Y1049D01*
X8347Y1067D01*
X8348Y1074D01*
D02*
G37*
G36*
X8261D02*
X8199D01*
X8200Y1067D01*
X8208Y1049D01*
X8220Y1033D01*
X8236Y1021D01*
X8254Y1014D01*
X8261Y1013D01*
Y1074D01*
D02*
G37*
G36*
X2523Y994D02*
Y933D01*
X2584D01*
X2583Y940D01*
X2576Y958D01*
X2564Y974D01*
X2548Y986D01*
X2530Y993D01*
X2523Y994D01*
D02*
G37*
G36*
X2497D02*
X2490Y993D01*
X2472Y986D01*
X2456Y974D01*
X2444Y958D01*
X2437Y940D01*
X2436Y933D01*
X2497D01*
Y994D01*
D02*
G37*
G36*
X6145Y1045D02*
X5983D01*
Y933D01*
X6145D01*
Y1045D01*
D02*
G37*
G36*
X5957D02*
X5795D01*
Y933D01*
X5957D01*
Y1045D01*
D02*
G37*
G36*
X2155Y1316D02*
X2112Y1312D01*
X2070Y1299D01*
X2032Y1279D01*
X1999Y1251D01*
X1971Y1218D01*
X1951Y1180D01*
X1938Y1138D01*
X1934Y1095D01*
X1938Y1052D01*
X1951Y1010D01*
X1971Y972D01*
X1999Y939D01*
X2032Y911D01*
X2070Y891D01*
X2112Y878D01*
X2155Y874D01*
X2198Y878D01*
X2240Y891D01*
X2278Y911D01*
X2311Y939D01*
X2339Y972D01*
X2359Y1010D01*
X2372Y1052D01*
X2376Y1095D01*
X2372Y1138D01*
X2359Y1180D01*
X2339Y1218D01*
X2311Y1251D01*
X2278Y1279D01*
X2240Y1299D01*
X2198Y1312D01*
X2155Y1316D01*
D02*
G37*
G36*
X355D02*
X312Y1312D01*
X270Y1299D01*
X232Y1279D01*
X199Y1251D01*
X171Y1218D01*
X151Y1180D01*
X138Y1138D01*
X134Y1095D01*
X138Y1052D01*
X151Y1010D01*
X171Y972D01*
X199Y939D01*
X232Y911D01*
X270Y891D01*
X312Y878D01*
X355Y874D01*
X398Y878D01*
X440Y891D01*
X478Y911D01*
X511Y939D01*
X539Y972D01*
X559Y1010D01*
X572Y1052D01*
X576Y1095D01*
X572Y1138D01*
X559Y1180D01*
X539Y1218D01*
X511Y1251D01*
X478Y1279D01*
X440Y1299D01*
X398Y1312D01*
X355Y1316D01*
D02*
G37*
G36*
X2584Y907D02*
X2523D01*
Y846D01*
X2530Y847D01*
X2548Y854D01*
X2564Y866D01*
X2576Y882D01*
X2583Y900D01*
X2584Y907D01*
D02*
G37*
G36*
X2497D02*
X2436D01*
X2437Y900D01*
X2444Y882D01*
X2456Y866D01*
X2472Y854D01*
X2490Y847D01*
X2497Y846D01*
Y907D01*
D02*
G37*
G36*
X6145Y907D02*
X5983D01*
Y795D01*
X6145D01*
Y907D01*
D02*
G37*
G36*
X5957D02*
X5795D01*
Y795D01*
X5957D01*
Y907D01*
D02*
G37*
G36*
X7580Y1426D02*
X7529Y1422D01*
X7479Y1410D01*
X7432Y1390D01*
X7388Y1364D01*
X7349Y1331D01*
X7316Y1292D01*
X7290Y1248D01*
X7270Y1201D01*
X7258Y1151D01*
X7254Y1100D01*
X7258Y1049D01*
X7270Y999D01*
X7290Y952D01*
X7316Y908D01*
X7349Y869D01*
X7388Y836D01*
X7432Y810D01*
X7479Y790D01*
X7529Y778D01*
X7580Y774D01*
Y775D01*
X7582Y775D01*
X7802D01*
X7807Y774D01*
Y774D01*
X7858Y778D01*
X7907Y789D01*
X7955Y809D01*
X7998Y836D01*
X8037Y869D01*
X8070Y908D01*
X8097Y952D01*
X8117Y999D01*
X8129Y1049D01*
X8133Y1100D01*
X8129Y1151D01*
X8117Y1200D01*
X8097Y1248D01*
X8070Y1291D01*
X8037Y1330D01*
X7998Y1363D01*
X7955Y1390D01*
X7907Y1410D01*
X7858Y1422D01*
X7807Y1426D01*
Y1425D01*
X7580D01*
Y1426D01*
D02*
G37*
G36*
X8287Y771D02*
Y710D01*
X8348D01*
X8347Y717D01*
X8340Y735D01*
X8328Y751D01*
X8312Y763D01*
X8294Y770D01*
X8287Y771D01*
D02*
G37*
G36*
X8261D02*
X8254Y770D01*
X8236Y763D01*
X8220Y751D01*
X8208Y735D01*
X8200Y717D01*
X8199Y710D01*
X8261D01*
Y771D01*
D02*
G37*
G36*
X6383Y754D02*
Y683D01*
X6454D01*
X6453Y692D01*
X6445Y713D01*
X6431Y731D01*
X6413Y745D01*
X6392Y753D01*
X6383Y754D01*
D02*
G37*
G36*
X6357D02*
X6348Y753D01*
X6327Y745D01*
X6309Y731D01*
X6295Y713D01*
X6287Y692D01*
X6286Y683D01*
X6357D01*
Y754D01*
D02*
G37*
G36*
X8348Y684D02*
X8287D01*
Y623D01*
X8294Y624D01*
X8312Y631D01*
X8328Y643D01*
X8340Y659D01*
X8347Y677D01*
X8348Y684D01*
D02*
G37*
G36*
X8261D02*
X8199D01*
X8200Y677D01*
X8208Y659D01*
X8220Y643D01*
X8236Y631D01*
X8254Y624D01*
X8261Y623D01*
Y684D01*
D02*
G37*
G36*
X6454Y657D02*
X6383D01*
Y586D01*
X6392Y587D01*
X6413Y595D01*
X6431Y609D01*
X6445Y627D01*
X6453Y648D01*
X6454Y657D01*
D02*
G37*
G36*
X6357D02*
X6286D01*
X6287Y648D01*
X6295Y627D01*
X6309Y609D01*
X6327Y595D01*
X6348Y587D01*
X6357Y586D01*
Y657D01*
D02*
G37*
G36*
X680Y587D02*
Y525D01*
X742D01*
X741Y532D01*
X733Y551D01*
X721Y566D01*
X705Y579D01*
X687Y586D01*
X680Y587D01*
D02*
G37*
G36*
X655D02*
X648Y586D01*
X629Y579D01*
X614Y566D01*
X601Y551D01*
X594Y532D01*
X593Y525D01*
X655D01*
Y587D01*
D02*
G37*
G36*
X742Y500D02*
X680D01*
Y438D01*
X687Y439D01*
X705Y447D01*
X721Y459D01*
X733Y475D01*
X741Y493D01*
X742Y500D01*
D02*
G37*
G36*
X655D02*
X593D01*
X594Y493D01*
X601Y475D01*
X614Y459D01*
X629Y447D01*
X648Y439D01*
X655Y438D01*
Y500D01*
D02*
G37*
G36*
X8287Y425D02*
Y350D01*
X8362D01*
X8360Y360D01*
X8351Y382D01*
X8337Y400D01*
X8319Y415D01*
X8297Y424D01*
X8287Y425D01*
D02*
G37*
G36*
X8261D02*
X8251Y424D01*
X8229Y415D01*
X8210Y400D01*
X8196Y382D01*
X8187Y360D01*
X8186Y350D01*
X8261D01*
Y425D01*
D02*
G37*
G36*
X4200Y746D02*
X4152Y741D01*
X4106Y727D01*
X4063Y705D01*
X4026Y674D01*
X3995Y637D01*
X3973Y594D01*
X3959Y548D01*
X3954Y500D01*
X3959Y452D01*
X3973Y406D01*
X3995Y363D01*
X4026Y326D01*
X4063Y295D01*
X4106Y273D01*
X4152Y259D01*
X4200Y254D01*
X4248Y259D01*
X4294Y273D01*
X4337Y295D01*
X4374Y326D01*
X4405Y363D01*
X4427Y406D01*
X4441Y452D01*
X4446Y500D01*
X4441Y548D01*
X4427Y594D01*
X4405Y637D01*
X4374Y674D01*
X4337Y705D01*
X4294Y727D01*
X4248Y741D01*
X4200Y746D01*
D02*
G37*
G36*
X8362Y324D02*
X8287D01*
Y249D01*
X8297Y250D01*
X8319Y259D01*
X8337Y274D01*
X8351Y292D01*
X8360Y314D01*
X8362Y324D01*
D02*
G37*
G36*
X8261D02*
X8186D01*
X8187Y314D01*
X8196Y292D01*
X8210Y274D01*
X8229Y259D01*
X8251Y250D01*
X8261Y249D01*
Y324D01*
D02*
G37*
G36*
X5453Y244D02*
Y183D01*
X5514D01*
X5513Y190D01*
X5506Y208D01*
X5494Y224D01*
X5478Y236D01*
X5460Y243D01*
X5453Y244D01*
D02*
G37*
G36*
X5427D02*
X5420Y243D01*
X5402Y236D01*
X5386Y224D01*
X5374Y208D01*
X5367Y190D01*
X5366Y183D01*
X5427D01*
Y244D01*
D02*
G37*
G36*
X4963D02*
Y183D01*
X5024D01*
X5023Y190D01*
X5016Y208D01*
X5004Y224D01*
X4988Y236D01*
X4970Y243D01*
X4963Y244D01*
D02*
G37*
G36*
X4937D02*
X4930Y243D01*
X4912Y236D01*
X4896Y224D01*
X4884Y208D01*
X4877Y190D01*
X4876Y183D01*
X4937D01*
Y244D01*
D02*
G37*
G36*
X4533D02*
Y183D01*
X4594D01*
X4593Y190D01*
X4586Y208D01*
X4574Y224D01*
X4558Y236D01*
X4540Y243D01*
X4533Y244D01*
D02*
G37*
G36*
X4507D02*
X4500Y243D01*
X4482Y236D01*
X4466Y224D01*
X4454Y208D01*
X4447Y190D01*
X4446Y183D01*
X4507D01*
Y244D01*
D02*
G37*
G36*
X4023D02*
Y183D01*
X4084D01*
X4083Y190D01*
X4076Y208D01*
X4064Y224D01*
X4048Y236D01*
X4030Y243D01*
X4023Y244D01*
D02*
G37*
G36*
X3997D02*
X3990Y243D01*
X3972Y236D01*
X3956Y224D01*
X3944Y208D01*
X3937Y190D01*
X3936Y183D01*
X3997D01*
Y244D01*
D02*
G37*
G36*
X3543D02*
Y183D01*
X3604D01*
X3603Y190D01*
X3596Y208D01*
X3584Y224D01*
X3568Y236D01*
X3550Y243D01*
X3543Y244D01*
D02*
G37*
G36*
X3517D02*
X3510Y243D01*
X3492Y236D01*
X3476Y224D01*
X3464Y208D01*
X3457Y190D01*
X3456Y183D01*
X3517D01*
Y244D01*
D02*
G37*
G36*
X3073D02*
Y183D01*
X3134D01*
X3133Y190D01*
X3126Y208D01*
X3114Y224D01*
X3098Y236D01*
X3080Y243D01*
X3073Y244D01*
D02*
G37*
G36*
X3047D02*
X3040Y243D01*
X3022Y236D01*
X3006Y224D01*
X2994Y208D01*
X2987Y190D01*
X2986Y183D01*
X3047D01*
Y244D01*
D02*
G37*
G36*
X7254Y246D02*
X7233D01*
Y183D01*
X7291D01*
Y209D01*
X7288Y223D01*
X7280Y235D01*
X7268Y243D01*
X7254Y246D01*
D02*
G37*
G36*
X6050Y496D02*
X6012Y492D01*
X5975Y481D01*
X5941Y463D01*
X5911Y439D01*
X5887Y409D01*
X5869Y375D01*
X5858Y338D01*
X5854Y300D01*
X5858Y262D01*
X5869Y225D01*
X5887Y191D01*
X5911Y161D01*
X5941Y137D01*
X5975Y119D01*
X6012Y108D01*
X6050Y104D01*
X6088Y108D01*
X6125Y119D01*
X6159Y137D01*
X6189Y161D01*
X6213Y191D01*
X6231Y225D01*
X6242Y262D01*
X6246Y300D01*
X6242Y338D01*
X6231Y375D01*
X6213Y409D01*
X6189Y439D01*
X6159Y463D01*
X6125Y481D01*
X6088Y492D01*
X6050Y496D01*
D02*
G37*
G36*
X2450D02*
X2412Y492D01*
X2375Y481D01*
X2341Y463D01*
X2311Y439D01*
X2287Y409D01*
X2269Y375D01*
X2258Y338D01*
X2254Y300D01*
X2258Y262D01*
X2269Y225D01*
X2287Y191D01*
X2311Y161D01*
X2341Y137D01*
X2375Y119D01*
X2412Y108D01*
X2450Y104D01*
X2488Y108D01*
X2525Y119D01*
X2559Y137D01*
X2589Y161D01*
X2613Y191D01*
X2631Y225D01*
X2642Y262D01*
X2646Y300D01*
X2642Y338D01*
X2631Y375D01*
X2613Y409D01*
X2589Y439D01*
X2559Y463D01*
X2525Y481D01*
X2488Y492D01*
X2450Y496D01*
D02*
G37*
G36*
X5514Y157D02*
X5453D01*
Y96D01*
X5460Y97D01*
X5478Y104D01*
X5494Y116D01*
X5506Y132D01*
X5513Y150D01*
X5514Y157D01*
D02*
G37*
G36*
X5427D02*
X5366D01*
X5367Y150D01*
X5374Y132D01*
X5386Y116D01*
X5402Y104D01*
X5420Y97D01*
X5427Y96D01*
Y157D01*
D02*
G37*
G36*
X5024D02*
X4963D01*
Y96D01*
X4970Y97D01*
X4988Y104D01*
X5004Y116D01*
X5016Y132D01*
X5023Y150D01*
X5024Y157D01*
D02*
G37*
G36*
X4937D02*
X4876D01*
X4877Y150D01*
X4884Y132D01*
X4896Y116D01*
X4912Y104D01*
X4930Y97D01*
X4937Y96D01*
Y157D01*
D02*
G37*
G36*
X4594D02*
X4533D01*
Y96D01*
X4540Y97D01*
X4558Y104D01*
X4574Y116D01*
X4586Y132D01*
X4593Y150D01*
X4594Y157D01*
D02*
G37*
G36*
X4507D02*
X4446D01*
X4447Y150D01*
X4454Y132D01*
X4466Y116D01*
X4482Y104D01*
X4500Y97D01*
X4507Y96D01*
Y157D01*
D02*
G37*
G36*
X4084D02*
X4023D01*
Y96D01*
X4030Y97D01*
X4048Y104D01*
X4064Y116D01*
X4076Y132D01*
X4083Y150D01*
X4084Y157D01*
D02*
G37*
G36*
X3997D02*
X3936D01*
X3937Y150D01*
X3944Y132D01*
X3956Y116D01*
X3972Y104D01*
X3990Y97D01*
X3997Y96D01*
Y157D01*
D02*
G37*
G36*
X3604D02*
X3543D01*
Y96D01*
X3550Y97D01*
X3568Y104D01*
X3584Y116D01*
X3596Y132D01*
X3603Y150D01*
X3604Y157D01*
D02*
G37*
G36*
X3517D02*
X3456D01*
X3457Y150D01*
X3464Y132D01*
X3476Y116D01*
X3492Y104D01*
X3510Y97D01*
X3517Y96D01*
Y157D01*
D02*
G37*
G36*
X3134D02*
X3073D01*
Y96D01*
X3080Y97D01*
X3098Y104D01*
X3114Y116D01*
X3126Y132D01*
X3133Y150D01*
X3134Y157D01*
D02*
G37*
G36*
X3047D02*
X2986D01*
X2987Y150D01*
X2994Y132D01*
X3006Y116D01*
X3022Y104D01*
X3040Y97D01*
X3047Y96D01*
Y157D01*
D02*
G37*
G36*
X7291Y157D02*
X7233D01*
Y94D01*
X7254D01*
X7268Y97D01*
X7280Y105D01*
X7288Y117D01*
X7291Y131D01*
Y157D01*
D02*
G37*
%LPD*%
G36*
X1847Y1220D02*
X1720D01*
Y1347D01*
X1847Y1220D01*
D02*
G37*
G36*
X780D02*
X653D01*
X780Y1347D01*
Y1220D01*
D02*
G37*
G36*
X1720Y793D02*
Y920D01*
X1847D01*
X1720Y793D01*
D02*
G37*
G36*
X780D02*
X653Y920D01*
X780D01*
Y793D01*
D02*
G37*
%LPC*%
G36*
X9453Y2481D02*
Y2393D01*
X9541D01*
X9539Y2407D01*
X9529Y2431D01*
X9512Y2452D01*
X9491Y2469D01*
X9467Y2479D01*
X9453Y2481D01*
D02*
G37*
G36*
X9427D02*
X9413Y2479D01*
X9389Y2469D01*
X9368Y2452D01*
X9351Y2431D01*
X9341Y2407D01*
X9339Y2393D01*
X9427D01*
Y2481D01*
D02*
G37*
G36*
X9541Y2367D02*
X9453D01*
Y2279D01*
X9467Y2281D01*
X9491Y2291D01*
X9512Y2308D01*
X9529Y2329D01*
X9539Y2353D01*
X9541Y2367D01*
D02*
G37*
G36*
X9427D02*
X9339D01*
X9341Y2353D01*
X9351Y2329D01*
X9368Y2308D01*
X9389Y2291D01*
X9413Y2281D01*
X9427Y2279D01*
Y2367D01*
D02*
G37*
G36*
X8793Y1501D02*
Y1413D01*
X8881D01*
X8879Y1427D01*
X8869Y1451D01*
X8852Y1472D01*
X8831Y1489D01*
X8807Y1499D01*
X8793Y1501D01*
D02*
G37*
G36*
X8767D02*
X8753Y1499D01*
X8729Y1489D01*
X8708Y1472D01*
X8691Y1451D01*
X8681Y1427D01*
X8679Y1413D01*
X8767D01*
Y1501D01*
D02*
G37*
G36*
X8881Y1387D02*
X8793D01*
Y1299D01*
X8807Y1301D01*
X8831Y1311D01*
X8852Y1328D01*
X8869Y1349D01*
X8879Y1373D01*
X8881Y1387D01*
D02*
G37*
G36*
X8767D02*
X8679D01*
X8681Y1373D01*
X8691Y1349D01*
X8708Y1328D01*
X8729Y1311D01*
X8753Y1301D01*
X8767Y1299D01*
Y1387D01*
D02*
G37*
G36*
X9690Y1421D02*
X9669Y1418D01*
X9650Y1410D01*
X9633Y1397D01*
X9620Y1380D01*
X9612Y1361D01*
X9609Y1340D01*
X9612Y1319D01*
X9620Y1300D01*
X9633Y1283D01*
X9650Y1270D01*
X9669Y1262D01*
X9690Y1259D01*
X9711Y1262D01*
X9730Y1270D01*
X9747Y1283D01*
X9760Y1300D01*
X9768Y1319D01*
X9771Y1340D01*
X9768Y1361D01*
X9760Y1380D01*
X9747Y1397D01*
X9730Y1410D01*
X9711Y1418D01*
X9690Y1421D01*
D02*
G37*
G36*
X8793Y1251D02*
Y1163D01*
X8881D01*
X8879Y1177D01*
X8869Y1201D01*
X8852Y1222D01*
X8831Y1239D01*
X8807Y1249D01*
X8793Y1251D01*
D02*
G37*
G36*
X8767D02*
X8753Y1249D01*
X8729Y1239D01*
X8708Y1222D01*
X8691Y1201D01*
X8681Y1177D01*
X8679Y1163D01*
X8767D01*
Y1251D01*
D02*
G37*
G36*
X8881Y1137D02*
X8793D01*
Y1049D01*
X8807Y1051D01*
X8831Y1061D01*
X8852Y1078D01*
X8869Y1099D01*
X8879Y1123D01*
X8881Y1137D01*
D02*
G37*
G36*
X8767D02*
X8679D01*
X8681Y1123D01*
X8691Y1099D01*
X8708Y1078D01*
X8729Y1061D01*
X8753Y1051D01*
X8767Y1049D01*
Y1137D01*
D02*
G37*
G36*
X9703Y1074D02*
Y1003D01*
X9774D01*
X9773Y1012D01*
X9765Y1033D01*
X9751Y1051D01*
X9733Y1065D01*
X9712Y1073D01*
X9703Y1074D01*
D02*
G37*
G36*
X9677Y1074D02*
X9668Y1073D01*
X9647Y1065D01*
X9629Y1051D01*
X9615Y1033D01*
X9607Y1012D01*
X9606Y1003D01*
X9677D01*
Y1074D01*
D02*
G37*
G36*
X9774Y977D02*
X9703D01*
Y906D01*
X9712Y907D01*
X9733Y915D01*
X9751Y929D01*
X9765Y947D01*
X9773Y968D01*
X9774Y977D01*
D02*
G37*
G36*
X9677D02*
X9606D01*
X9607Y968D01*
X9615Y947D01*
X9629Y929D01*
X9647Y915D01*
X9668Y907D01*
X9677Y906D01*
Y977D01*
D02*
G37*
G36*
X8810Y978D02*
X8650D01*
Y818D01*
X8810D01*
Y978D01*
D02*
G37*
G36*
X8730Y725D02*
X8709Y722D01*
X8690Y714D01*
X8673Y701D01*
X8660Y684D01*
X8652Y665D01*
X8649Y644D01*
X8652Y623D01*
X8660Y604D01*
X8673Y587D01*
X8690Y574D01*
X8709Y566D01*
X8730Y563D01*
X8751Y566D01*
X8770Y574D01*
X8787Y587D01*
X8800Y604D01*
X8808Y623D01*
X8811Y644D01*
X8808Y665D01*
X8800Y684D01*
X8787Y701D01*
X8770Y714D01*
X8751Y722D01*
X8730Y725D01*
D02*
G37*
G36*
X9680Y628D02*
Y540D01*
X9768D01*
X9766Y554D01*
X9756Y579D01*
X9740Y600D01*
X9719Y616D01*
X9694Y626D01*
X9680Y628D01*
D02*
G37*
G36*
X9655D02*
X9641Y626D01*
X9616Y616D01*
X9595Y600D01*
X9579Y579D01*
X9568Y554D01*
X9566Y540D01*
X9655D01*
Y628D01*
D02*
G37*
G36*
X9768Y515D02*
X9680D01*
Y426D01*
X9694Y428D01*
X9719Y439D01*
X9740Y455D01*
X9756Y476D01*
X9766Y501D01*
X9768Y515D01*
D02*
G37*
G36*
X9655D02*
X9566D01*
X9568Y501D01*
X9579Y476D01*
X9595Y455D01*
X9616Y439D01*
X9641Y428D01*
X9655Y426D01*
Y515D01*
D02*
G37*
G36*
X8730Y471D02*
X8709Y468D01*
X8690Y460D01*
X8673Y447D01*
X8660Y430D01*
X8652Y411D01*
X8649Y390D01*
X8652Y369D01*
X8660Y350D01*
X8673Y333D01*
X8690Y320D01*
X8709Y312D01*
X8730Y309D01*
X8751Y312D01*
X8770Y320D01*
X8787Y333D01*
X8800Y350D01*
X8808Y369D01*
X8811Y390D01*
X8808Y411D01*
X8800Y430D01*
X8787Y447D01*
X8770Y460D01*
X8751Y468D01*
X8730Y471D01*
D02*
G37*
G36*
X9413Y1870D02*
X9395Y1868D01*
X9378Y1861D01*
X9363Y1850D01*
X9352Y1835D01*
X9345Y1818D01*
X9342Y1800D01*
X9345Y1781D01*
X9352Y1764D01*
X9363Y1750D01*
X9377Y1739D01*
Y508D01*
X9380Y494D01*
X9388Y483D01*
X9616Y254D01*
X9615Y241D01*
X9611Y239D01*
X9596Y219D01*
X9586Y195D01*
X9583Y170D01*
X9586Y145D01*
X9596Y121D01*
X9611Y101D01*
X9631Y86D01*
X9655Y76D01*
X9680Y73D01*
X9705Y76D01*
X9729Y86D01*
X9749Y101D01*
X9764Y121D01*
X9774Y145D01*
X9777Y170D01*
X9774Y195D01*
X9764Y219D01*
X9749Y239D01*
X9729Y254D01*
X9707Y263D01*
X9705Y266D01*
X9448Y523D01*
Y1739D01*
X9463Y1750D01*
X9474Y1764D01*
X9481Y1781D01*
X9483Y1800D01*
X9481Y1818D01*
X9474Y1835D01*
X9463Y1850D01*
X9448Y1861D01*
X9431Y1868D01*
X9413Y1870D01*
D02*
G37*
%LPD*%
D10*
X250Y670D02*
D03*
X5970Y1180D02*
D03*
Y920D02*
D03*
X6710Y630D02*
D03*
Y310D02*
D03*
X250Y1560D02*
D03*
D11*
X855Y2470D02*
D03*
X685D02*
D03*
D12*
X880Y1210D02*
D03*
X1130D02*
D03*
X1380D02*
D03*
X1630D02*
D03*
Y930D02*
D03*
X1380D02*
D03*
X1130D02*
D03*
X880D02*
D03*
D13*
X1175Y2470D02*
D03*
X1345D02*
D03*
X1385Y1410D02*
D03*
X1555D02*
D03*
X6915Y870D02*
D03*
X7085D02*
D03*
X6915Y1250D02*
D03*
X7085D02*
D03*
X7220Y170D02*
D03*
X7050D02*
D03*
D14*
X9680D02*
Y241D01*
X9413Y508D02*
X9680Y241D01*
X9413Y508D02*
Y1800D01*
X1010Y1080D02*
Y1520D01*
X270D02*
X1300D01*
X250Y1500D02*
X270Y1520D01*
X950Y1520D02*
X950Y1520D01*
X1130Y930D02*
Y960D01*
X1010Y1080D02*
X1130Y960D01*
X5600Y1865D02*
X5885Y1580D01*
X5600Y1865D02*
Y2390D01*
X260Y730D02*
X1240D01*
X1380Y870D01*
Y930D01*
X855Y2470D02*
X1175D01*
X1175Y2470D01*
X1330Y2290D02*
Y2455D01*
X1345Y2470D01*
X1240Y940D02*
X1370D01*
X1380Y930D01*
X6540Y1350D02*
X6815D01*
X6915Y1250D01*
Y870D02*
Y1250D01*
X6845Y630D02*
X7085Y870D01*
X6710Y630D02*
X6845D01*
X7085Y1065D02*
Y1250D01*
Y1065D02*
X7190Y960D01*
Y610D02*
Y960D01*
X6890Y310D02*
X7190Y610D01*
X6710Y310D02*
X6890D01*
X5520Y940D02*
X5910Y550D01*
X6270D01*
X6510Y310D01*
X6710D01*
X6890D02*
X7030Y170D01*
X7050D01*
D15*
X1630Y810D02*
X1740Y700D01*
X1630Y810D02*
Y930D01*
X1360Y635D02*
X1675D01*
X1740Y700D01*
X1500Y1060D02*
X1630Y930D01*
X1740Y700D02*
X3860D01*
X4510Y1350D01*
X6540D01*
X1130Y1210D02*
Y1365D01*
X1180Y1415D01*
X1615Y1465D02*
Y2055D01*
X1500Y1350D02*
X1615Y1465D01*
X1500Y1060D02*
Y1350D01*
X1380Y1210D02*
Y1415D01*
X1180D02*
X1380D01*
X1385Y1410D02*
Y1765D01*
X1150Y2000D02*
X1385Y1765D01*
X1120Y2000D02*
X1150D01*
D16*
X355Y1095D02*
D03*
X2155D02*
D03*
D17*
X9680Y170D02*
D03*
X8780Y1150D02*
D03*
Y1400D02*
D03*
X9440Y2380D02*
D03*
X9667Y527D02*
D03*
D18*
X9690Y1340D02*
D03*
Y990D02*
D03*
X8730Y644D02*
D03*
Y390D02*
D03*
X5960Y670D02*
D03*
X6370Y670D02*
D03*
X1740Y700D02*
D03*
X6540Y1350D02*
D03*
D19*
X8730Y898D02*
D03*
D20*
X8800Y2350D02*
D03*
X6050Y300D02*
D03*
X2450D02*
D03*
X7000Y2270D02*
D03*
X8200D02*
D03*
X300Y2300D02*
D03*
D21*
X5600Y2390D02*
D03*
D22*
X5346D02*
D03*
X5092D02*
D03*
D23*
X6375Y2070D02*
D03*
X5885Y2250D02*
D03*
Y1580D02*
D03*
D24*
X4200Y500D02*
D03*
Y1500D02*
D03*
D25*
X9413Y1800D02*
D03*
X667Y1683D02*
D03*
Y513D02*
D03*
X2240Y1610D02*
D03*
X2050D02*
D03*
X5510Y1160D02*
D03*
Y1580D02*
D03*
X860Y820D02*
D03*
X5880Y1180D02*
D03*
X6000Y1130D02*
D03*
X1330Y2290D02*
D03*
X5520Y940D02*
D03*
X2510Y920D02*
D03*
X8274Y1787D02*
D03*
Y1427D02*
D03*
Y1087D02*
D03*
Y697D02*
D03*
X5440Y170D02*
D03*
X4950D02*
D03*
X4520D02*
D03*
X4010D02*
D03*
X3530D02*
D03*
X3060D02*
D03*
X3443Y2453D02*
D03*
X3800Y2450D02*
D03*
X4190D02*
D03*
X3050D02*
D03*
X2660D02*
D03*
X2280D02*
D03*
X1920D02*
D03*
X1560D02*
D03*
X1615Y2055D02*
D03*
X1120Y2000D02*
D03*
X6670Y620D02*
D03*
D26*
X1360Y635D02*
D03*
X1240Y940D02*
D03*
X1300Y1520D02*
D03*
D27*
X8274Y337D02*
D03*
M02*
