G04 Layer_Color=8388736*
%FSLAX42Y42*%
%MOMM*%
G71*
G01*
G75*
%ADD31R,3.20X2.20*%
G04:AMPARAMS|DCode=32|XSize=1mm|YSize=1mm|CornerRadius=0.2mm|HoleSize=0mm|Usage=FLASHONLY|Rotation=180.000|XOffset=0mm|YOffset=0mm|HoleType=Round|Shape=RoundedRectangle|*
%AMROUNDEDRECTD32*
21,1,1.00,0.60,0,0,180.0*
21,1,0.60,1.00,0,0,180.0*
1,1,0.40,-0.30,0.30*
1,1,0.40,0.30,0.30*
1,1,0.40,0.30,-0.30*
1,1,0.40,-0.30,-0.30*
%
%ADD32ROUNDEDRECTD32*%
%ADD33R,1.00X2.20*%
G04:AMPARAMS|DCode=34|XSize=1.2mm|YSize=1.1mm|CornerRadius=0.21mm|HoleSize=0mm|Usage=FLASHONLY|Rotation=90.000|XOffset=0mm|YOffset=0mm|HoleType=Round|Shape=RoundedRectangle|*
%AMROUNDEDRECTD34*
21,1,1.20,0.68,0,0,90.0*
21,1,0.78,1.10,0,0,90.0*
1,1,0.43,0.34,0.39*
1,1,0.43,0.34,-0.39*
1,1,0.43,-0.34,-0.39*
1,1,0.43,-0.34,0.39*
%
%ADD34ROUNDEDRECTD34*%
%ADD35C,3.70*%
%ADD36C,1.80*%
%ADD37C,4.20*%
%ADD38C,1.40*%
%ADD39C,1.20*%
%ADD40C,1.00*%
%ADD41C,1.47*%
D31*
X260Y570D02*
D03*
X5970Y1180D02*
D03*
Y920D02*
D03*
X6710Y630D02*
D03*
Y310D02*
D03*
D32*
X855Y2470D02*
D03*
X685D02*
D03*
D33*
X880Y1210D02*
D03*
X1130D02*
D03*
X1380D02*
D03*
X1630D02*
D03*
Y930D02*
D03*
X1380D02*
D03*
X1130D02*
D03*
X880D02*
D03*
D34*
X1175Y2470D02*
D03*
X1345D02*
D03*
X1385Y1410D02*
D03*
X1555D02*
D03*
X6915Y870D02*
D03*
X7085D02*
D03*
X6915Y1250D02*
D03*
X7085D02*
D03*
D35*
X6050Y300D02*
D03*
X2450D02*
D03*
X7000Y2270D02*
D03*
X8200D02*
D03*
X300Y2300D02*
D03*
D36*
X6375Y2070D02*
D03*
X5885Y2250D02*
D03*
Y1580D02*
D03*
D37*
X355Y1095D02*
D03*
X2155D02*
D03*
X4200Y500D02*
D03*
Y1500D02*
D03*
D38*
X5960Y670D02*
D03*
X6370Y670D02*
D03*
X1740Y700D02*
D03*
X6540Y1350D02*
D03*
D39*
X860Y820D02*
D03*
X5880Y1180D02*
D03*
X6000Y1130D02*
D03*
X1330Y2290D02*
D03*
X5520Y940D02*
D03*
X2510Y920D02*
D03*
X8360Y1780D02*
D03*
Y1420D02*
D03*
Y1080D02*
D03*
Y690D02*
D03*
X5440Y170D02*
D03*
X4950D02*
D03*
X4520D02*
D03*
X4010D02*
D03*
X3530D02*
D03*
X3060D02*
D03*
X3443Y2453D02*
D03*
X3800Y2450D02*
D03*
X4190D02*
D03*
X4620D02*
D03*
X5040D02*
D03*
X3050D02*
D03*
X2660D02*
D03*
X2280D02*
D03*
X1920D02*
D03*
X1560D02*
D03*
X1615Y2055D02*
D03*
X1120Y2000D02*
D03*
X6670Y620D02*
D03*
D40*
X1360Y635D02*
D03*
X1240Y940D02*
D03*
X1300Y1520D02*
D03*
D41*
X8360Y330D02*
D03*
M02*
