G04 Layer_Color=32896*
%FSLAX42Y42*%
%MOMM*%
G71*
G01*
G75*
%ADD15C,0.50*%
%ADD29C,0.25*%
%ADD30C,0.13*%
%ADD47C,0.60*%
G36*
X6235Y1185D02*
X6179D01*
Y1241D01*
X6235Y1185D01*
D02*
G37*
G36*
X1620Y1225D02*
X1520D01*
X1620Y1325D01*
Y1225D01*
D02*
G37*
D15*
X6003Y1224D02*
X6003Y1225D01*
X6003Y1225D01*
X6003Y1225D01*
X6003Y1224D01*
D29*
X1430Y505D02*
X1530D01*
X1430Y180D02*
X1530D01*
X2750Y200D02*
Y2390D01*
X5750Y200D02*
Y2400D01*
X2053Y358D02*
X2028Y384D01*
Y435D01*
X2053Y460D01*
X2155D01*
X2180Y435D01*
Y384D01*
X2155Y358D01*
X2180Y206D02*
Y308D01*
X2078Y206D01*
X2053D01*
X2028Y231D01*
Y282D01*
X2053Y308D01*
X783Y348D02*
X758Y374D01*
Y425D01*
X783Y450D01*
X885D01*
X910Y425D01*
Y374D01*
X885Y348D01*
X783Y298D02*
X758Y272D01*
Y221D01*
X783Y196D01*
X808D01*
X834Y221D01*
Y247D01*
Y221D01*
X859Y196D01*
X885D01*
X910Y221D01*
Y272D01*
X885Y298D01*
X918Y2067D02*
X944Y2092D01*
X995D01*
X1020Y2067D01*
Y1965D01*
X995Y1940D01*
X944D01*
X918Y1965D01*
X791Y1940D02*
Y2092D01*
X868Y2016D01*
X766D01*
X773Y728D02*
X748Y754D01*
Y805D01*
X773Y830D01*
X875D01*
X900Y805D01*
Y754D01*
X875Y728D01*
X748Y576D02*
Y678D01*
X824D01*
X798Y627D01*
Y601D01*
X824Y576D01*
X875D01*
X900Y601D01*
Y652D01*
X875Y678D01*
X6558Y2367D02*
X6584Y2392D01*
X6635D01*
X6660Y2367D01*
Y2265D01*
X6635Y2240D01*
X6584D01*
X6558Y2265D01*
X6508Y2392D02*
X6406D01*
Y2367D01*
X6508Y2265D01*
Y2240D01*
X6080Y932D02*
Y780D01*
X5978D01*
X5928Y856D02*
X5826D01*
X5877Y907D02*
Y805D01*
X6420Y932D02*
Y780D01*
X6318D01*
X6268Y856D02*
X6166D01*
X1630Y850D02*
X1478D01*
Y774D01*
X1503Y748D01*
X1554D01*
X1579Y774D01*
Y850D01*
Y799D02*
X1630Y748D01*
Y596D02*
Y698D01*
X1528Y596D01*
X1503D01*
X1478Y621D01*
Y672D01*
X1503Y698D01*
X6558Y1667D02*
X6584Y1692D01*
X6635D01*
X6660Y1667D01*
Y1565D01*
X6635Y1540D01*
X6584D01*
X6558Y1565D01*
X6508Y1540D02*
X6457D01*
X6482D01*
Y1692D01*
X6508Y1667D01*
X6668Y1067D02*
X6694Y1092D01*
X6745D01*
X6770Y1067D01*
Y965D01*
X6745Y940D01*
X6694D01*
X6668Y965D01*
X6516Y1092D02*
X6567Y1067D01*
X6618Y1016D01*
Y965D01*
X6592Y940D01*
X6541D01*
X6516Y965D01*
Y991D01*
X6541Y1016D01*
X6618D01*
X2378Y667D02*
X2404Y692D01*
X2455D01*
X2480Y667D01*
Y565D01*
X2455Y540D01*
X2404D01*
X2378Y565D01*
X2328D02*
X2302Y540D01*
X2251D01*
X2226Y565D01*
Y667D01*
X2251Y692D01*
X2302D01*
X2328Y667D01*
Y642D01*
X2302Y616D01*
X2226D01*
D30*
X6179Y1455D02*
X6281D01*
Y1185D02*
Y1455D01*
X6179D02*
X6179Y1185D01*
X6281D01*
X1620Y1225D02*
Y1535D01*
X960Y1225D02*
X1620D01*
X960Y1535D02*
X1620D01*
X960Y1225D02*
Y1535D01*
X6152Y2222D02*
Y2318D01*
X6188Y2222D02*
Y2318D01*
X6285Y955D02*
Y1085D01*
X6315Y955D02*
Y1085D01*
X6255Y1555D02*
Y1685D01*
X6225Y1555D02*
Y1685D01*
X982Y302D02*
X1078D01*
X982Y338D02*
X1078D01*
X1882Y348D02*
X1978D01*
X1882Y312D02*
X1978D01*
X1319Y705D02*
Y735D01*
X1401Y705D02*
Y735D01*
X962Y702D02*
X1058D01*
X962Y738D02*
X1058D01*
X1129Y705D02*
Y735D01*
X1211Y705D02*
Y735D01*
X1222Y1952D02*
X1318D01*
X1222Y1988D02*
X1318D01*
X2012Y542D02*
Y638D01*
X2048Y542D02*
Y638D01*
D47*
X1661Y1095D02*
X1660Y1095D01*
X1660Y1095D01*
X1660Y1096D01*
X1661Y1095D01*
M02*
