G04 Layer_Color=65535*
%FSLAX42Y42*%
%MOMM*%
G71*
G01*
G75*
%ADD28C,0.20*%
%ADD29C,0.25*%
%ADD30C,0.13*%
G36*
X3896Y2005D02*
X3901Y2005D01*
X3907Y2005D01*
X3913Y2004D01*
X3919Y2003D01*
X3924Y2002D01*
X3925D01*
X3925Y2002D01*
X3926Y2001D01*
X3927Y2001D01*
X3930Y2000D01*
X3934Y1998D01*
X3939Y1995D01*
X3944Y1992D01*
X3948Y1989D01*
X3953Y1984D01*
X3953D01*
X3954Y1984D01*
X3955Y1982D01*
X3957Y1979D01*
X3960Y1975D01*
X3963Y1971D01*
X3966Y1966D01*
X3969Y1960D01*
X3971Y1953D01*
Y1953D01*
X3972Y1952D01*
X3972Y1951D01*
X3973Y1950D01*
X3973Y1948D01*
X3973Y1946D01*
X3974Y1943D01*
X3975Y1940D01*
X3975Y1937D01*
X3976Y1934D01*
X3976Y1930D01*
X3977Y1926D01*
X3978Y1917D01*
X3978Y1908D01*
Y1907D01*
Y1907D01*
Y1906D01*
Y1904D01*
X3978Y1902D01*
Y1899D01*
X3977Y1897D01*
X3977Y1894D01*
X3976Y1887D01*
X3975Y1881D01*
X3974Y1874D01*
X3972Y1867D01*
Y1867D01*
X3971Y1866D01*
X3971Y1865D01*
X3970Y1863D01*
X3970Y1862D01*
X3969Y1860D01*
X3966Y1855D01*
X3964Y1849D01*
X3960Y1844D01*
X3956Y1838D01*
X3951Y1833D01*
X3951Y1832D01*
X3949Y1831D01*
X3947Y1829D01*
X3944Y1827D01*
X3940Y1825D01*
X3936Y1822D01*
X3930Y1820D01*
X3924Y1817D01*
X3924D01*
X3923Y1817D01*
X3923D01*
X3922Y1817D01*
X3919Y1816D01*
X3915Y1816D01*
X3910Y1815D01*
X3904Y1814D01*
X3897Y1814D01*
X3890Y1814D01*
X3817D01*
Y2006D01*
X3894D01*
X3896Y2005D01*
D02*
G37*
G36*
X4184Y1814D02*
X4142D01*
X4125Y1857D01*
X4048D01*
X4032Y1814D01*
X3991D01*
X4066Y2006D01*
X4107D01*
X4184Y1814D01*
D02*
G37*
G36*
X3618Y1846D02*
X3715D01*
Y1814D01*
X3579D01*
Y2004D01*
X3618D01*
Y1846D01*
D02*
G37*
G36*
X3780Y1814D02*
X3741D01*
Y2006D01*
X3780D01*
Y1814D01*
D02*
G37*
G36*
X4808D02*
X4771D01*
Y1851D01*
X4808D01*
Y1814D01*
D02*
G37*
G36*
X4544D02*
X4511D01*
X4454Y1953D01*
X4493D01*
X4519Y1882D01*
X4527Y1858D01*
X4527Y1858D01*
X4528Y1859D01*
X4528Y1861D01*
X4529Y1863D01*
X4530Y1867D01*
X4531Y1869D01*
X4531Y1870D01*
Y1870D01*
X4531Y1871D01*
X4531Y1872D01*
X4532Y1874D01*
X4533Y1877D01*
X4535Y1882D01*
X4561Y1953D01*
X4599D01*
X4544Y1814D01*
D02*
G37*
G36*
X4294Y2005D02*
X4297D01*
X4300Y2005D01*
X4303D01*
X4311Y2004D01*
X4318Y2004D01*
X4325Y2002D01*
X4328Y2001D01*
X4331Y2000D01*
X4331D01*
X4331Y2000D01*
X4333Y1999D01*
X4336Y1998D01*
X4339Y1996D01*
X4343Y1994D01*
X4346Y1990D01*
X4350Y1987D01*
X4353Y1982D01*
Y1982D01*
X4353Y1981D01*
X4354Y1980D01*
X4355Y1980D01*
X4356Y1977D01*
X4358Y1973D01*
X4359Y1969D01*
X4360Y1964D01*
X4361Y1958D01*
X4362Y1952D01*
Y1952D01*
Y1951D01*
Y1950D01*
X4361Y1948D01*
Y1946D01*
X4361Y1944D01*
X4360Y1939D01*
X4359Y1934D01*
X4356Y1928D01*
X4353Y1922D01*
X4351Y1919D01*
X4349Y1916D01*
X4349Y1916D01*
X4348Y1915D01*
X4348Y1915D01*
X4346Y1914D01*
X4345Y1913D01*
X4344Y1911D01*
X4342Y1910D01*
X4340Y1909D01*
X4337Y1907D01*
X4334Y1906D01*
X4331Y1904D01*
X4328Y1903D01*
X4324Y1901D01*
X4320Y1900D01*
X4316Y1899D01*
X4311Y1898D01*
X4311D01*
X4312Y1898D01*
X4313Y1897D01*
X4315Y1896D01*
X4318Y1894D01*
X4322Y1891D01*
X4325Y1889D01*
X4328Y1886D01*
X4331Y1882D01*
X4332Y1882D01*
X4333Y1881D01*
X4335Y1878D01*
X4337Y1875D01*
X4341Y1871D01*
X4342Y1868D01*
X4344Y1865D01*
X4346Y1862D01*
X4349Y1859D01*
X4351Y1855D01*
X4354Y1851D01*
X4377Y1814D01*
X4331D01*
X4303Y1855D01*
X4303Y1856D01*
X4302Y1856D01*
X4302Y1857D01*
X4300Y1859D01*
X4299Y1861D01*
X4298Y1863D01*
X4295Y1867D01*
X4291Y1872D01*
X4288Y1877D01*
X4285Y1881D01*
X4283Y1882D01*
X4282Y1884D01*
X4282Y1884D01*
X4282Y1884D01*
X4280Y1886D01*
X4279Y1887D01*
X4277Y1888D01*
X4275Y1889D01*
X4273Y1891D01*
X4271Y1892D01*
X4270D01*
X4270Y1892D01*
X4268Y1892D01*
X4266Y1893D01*
X4263Y1893D01*
X4260Y1894D01*
X4256Y1894D01*
X4243D01*
Y1814D01*
X4205D01*
Y2006D01*
X4291D01*
X4294Y2005D01*
D02*
G37*
G36*
X4708Y1814D02*
X4671D01*
Y1953D01*
X4671Y1952D01*
X4670Y1952D01*
X4669Y1951D01*
X4668Y1950D01*
X4666Y1948D01*
X4664Y1946D01*
X4661Y1944D01*
X4658Y1942D01*
X4654Y1940D01*
X4651Y1938D01*
X4647Y1935D01*
X4643Y1933D01*
X4634Y1929D01*
X4624Y1925D01*
Y1958D01*
X4624D01*
X4624Y1959D01*
X4625Y1959D01*
X4626Y1959D01*
X4629Y1960D01*
X4633Y1962D01*
X4638Y1964D01*
X4643Y1967D01*
X4649Y1971D01*
X4655Y1976D01*
X4655Y1976D01*
X4656Y1976D01*
X4657Y1977D01*
X4658Y1978D01*
X4661Y1981D01*
X4664Y1985D01*
X4668Y1989D01*
X4672Y1995D01*
X4675Y2000D01*
X4678Y2007D01*
X4708D01*
Y1814D01*
D02*
G37*
G36*
X7415Y1677D02*
X7378D01*
Y1714D01*
X7415D01*
Y1677D01*
D02*
G37*
G36*
X7513Y1870D02*
X7515Y1870D01*
X7518Y1870D01*
X7521Y1869D01*
X7524Y1869D01*
X7532Y1867D01*
X7539Y1864D01*
X7543Y1862D01*
X7546Y1860D01*
X7550Y1858D01*
X7553Y1855D01*
X7553Y1855D01*
X7553Y1854D01*
X7554Y1853D01*
X7555Y1852D01*
X7557Y1851D01*
X7558Y1849D01*
X7559Y1847D01*
X7561Y1844D01*
X7564Y1839D01*
X7567Y1833D01*
X7568Y1829D01*
X7568Y1825D01*
X7569Y1821D01*
X7569Y1817D01*
Y1816D01*
Y1814D01*
X7569Y1812D01*
X7568Y1809D01*
X7568Y1805D01*
X7567Y1801D01*
X7566Y1796D01*
X7564Y1792D01*
X7564Y1791D01*
X7563Y1790D01*
X7562Y1788D01*
X7561Y1784D01*
X7559Y1781D01*
X7556Y1777D01*
X7553Y1772D01*
X7550Y1768D01*
X7549Y1767D01*
X7548Y1766D01*
X7547Y1764D01*
X7544Y1761D01*
X7541Y1758D01*
X7537Y1753D01*
X7532Y1749D01*
X7525Y1743D01*
X7525Y1743D01*
X7525Y1742D01*
X7524Y1741D01*
X7523Y1740D01*
X7520Y1738D01*
X7516Y1734D01*
X7512Y1731D01*
X7509Y1727D01*
X7505Y1724D01*
X7504Y1723D01*
X7503Y1721D01*
X7503Y1721D01*
X7502Y1721D01*
X7502Y1720D01*
X7500Y1718D01*
X7498Y1715D01*
X7496Y1711D01*
X7569D01*
Y1677D01*
X7440D01*
Y1678D01*
Y1678D01*
X7440Y1679D01*
X7440Y1681D01*
X7441Y1682D01*
X7441Y1684D01*
X7442Y1689D01*
X7444Y1695D01*
X7446Y1701D01*
X7449Y1708D01*
X7452Y1714D01*
Y1714D01*
X7453Y1715D01*
X7454Y1716D01*
X7455Y1717D01*
X7456Y1719D01*
X7457Y1721D01*
X7459Y1723D01*
X7462Y1726D01*
X7464Y1730D01*
X7467Y1733D01*
X7470Y1737D01*
X7474Y1741D01*
X7479Y1745D01*
X7483Y1750D01*
X7488Y1755D01*
X7494Y1760D01*
X7494Y1760D01*
X7495Y1761D01*
X7496Y1762D01*
X7498Y1764D01*
X7500Y1766D01*
X7502Y1768D01*
X7507Y1773D01*
X7512Y1778D01*
X7517Y1783D01*
X7519Y1786D01*
X7522Y1788D01*
X7523Y1790D01*
X7524Y1792D01*
X7525Y1792D01*
X7525Y1794D01*
X7527Y1796D01*
X7528Y1799D01*
X7530Y1802D01*
X7531Y1806D01*
X7532Y1810D01*
X7532Y1814D01*
Y1814D01*
Y1815D01*
Y1816D01*
X7532Y1819D01*
X7531Y1821D01*
X7530Y1824D01*
X7529Y1828D01*
X7528Y1831D01*
X7525Y1833D01*
X7525Y1834D01*
X7524Y1834D01*
X7523Y1836D01*
X7521Y1837D01*
X7518Y1838D01*
X7515Y1839D01*
X7511Y1840D01*
X7507Y1840D01*
X7505D01*
X7503Y1840D01*
X7500Y1839D01*
X7497Y1838D01*
X7494Y1837D01*
X7491Y1835D01*
X7489Y1833D01*
X7488Y1833D01*
X7487Y1832D01*
X7486Y1830D01*
X7485Y1828D01*
X7484Y1824D01*
X7483Y1820D01*
X7482Y1816D01*
X7481Y1810D01*
X7444Y1814D01*
Y1814D01*
X7445Y1815D01*
Y1816D01*
X7445Y1819D01*
X7445Y1821D01*
X7446Y1824D01*
X7447Y1827D01*
X7448Y1831D01*
X7451Y1838D01*
X7454Y1845D01*
X7456Y1848D01*
X7459Y1852D01*
X7462Y1854D01*
X7465Y1857D01*
X7465Y1858D01*
X7465Y1858D01*
X7466Y1858D01*
X7468Y1859D01*
X7469Y1860D01*
X7472Y1861D01*
X7474Y1863D01*
X7477Y1864D01*
X7480Y1865D01*
X7483Y1866D01*
X7490Y1869D01*
X7499Y1870D01*
X7503Y1870D01*
X7508Y1871D01*
X7511D01*
X7513Y1870D01*
D02*
G37*
G36*
X7138D02*
X7140Y1870D01*
X7143Y1869D01*
X7146Y1869D01*
X7149Y1868D01*
X7153Y1867D01*
X7156Y1866D01*
X7160Y1864D01*
X7163Y1862D01*
X7167Y1860D01*
X7171Y1857D01*
X7174Y1854D01*
X7177Y1851D01*
X7177Y1850D01*
X7178Y1849D01*
X7179Y1848D01*
X7180Y1846D01*
X7181Y1843D01*
X7183Y1840D01*
X7185Y1836D01*
X7186Y1832D01*
X7188Y1827D01*
X7190Y1821D01*
X7191Y1814D01*
X7193Y1807D01*
X7194Y1799D01*
X7195Y1791D01*
X7196Y1782D01*
X7196Y1772D01*
Y1772D01*
Y1771D01*
Y1771D01*
Y1770D01*
Y1767D01*
X7196Y1763D01*
X7195Y1759D01*
X7195Y1753D01*
X7194Y1748D01*
X7194Y1742D01*
X7193Y1735D01*
X7191Y1729D01*
X7190Y1722D01*
X7188Y1716D01*
X7186Y1710D01*
X7183Y1704D01*
X7180Y1698D01*
X7177Y1693D01*
X7177Y1693D01*
X7176Y1693D01*
X7175Y1691D01*
X7174Y1690D01*
X7173Y1689D01*
X7171Y1687D01*
X7168Y1685D01*
X7166Y1684D01*
X7163Y1682D01*
X7160Y1680D01*
X7156Y1678D01*
X7152Y1677D01*
X7148Y1676D01*
X7143Y1675D01*
X7138Y1674D01*
X7133Y1674D01*
X7132D01*
X7131Y1674D01*
X7129D01*
X7126Y1674D01*
X7124Y1675D01*
X7121Y1675D01*
X7117Y1677D01*
X7114Y1678D01*
X7110Y1679D01*
X7106Y1681D01*
X7103Y1683D01*
X7099Y1685D01*
X7095Y1688D01*
X7092Y1691D01*
X7088Y1695D01*
X7088Y1695D01*
X7087Y1696D01*
X7087Y1698D01*
X7086Y1699D01*
X7084Y1702D01*
X7083Y1705D01*
X7081Y1709D01*
X7080Y1713D01*
X7078Y1718D01*
X7077Y1723D01*
X7075Y1730D01*
X7074Y1737D01*
X7073Y1745D01*
X7072Y1753D01*
X7072Y1762D01*
X7071Y1772D01*
Y1773D01*
Y1773D01*
Y1774D01*
Y1775D01*
Y1778D01*
X7072Y1781D01*
X7072Y1786D01*
X7072Y1791D01*
X7073Y1796D01*
X7073Y1803D01*
X7075Y1809D01*
X7076Y1815D01*
X7077Y1822D01*
X7079Y1828D01*
X7081Y1834D01*
X7084Y1840D01*
X7087Y1846D01*
X7090Y1851D01*
X7090Y1851D01*
X7091Y1851D01*
X7092Y1853D01*
X7093Y1854D01*
X7094Y1855D01*
X7096Y1857D01*
X7099Y1859D01*
X7101Y1861D01*
X7104Y1863D01*
X7107Y1864D01*
X7111Y1866D01*
X7115Y1868D01*
X7119Y1869D01*
X7124Y1870D01*
X7128Y1870D01*
X7133Y1871D01*
X7136D01*
X7138Y1870D01*
D02*
G37*
G36*
X7661D02*
X7663Y1870D01*
X7666Y1869D01*
X7669Y1869D01*
X7672Y1868D01*
X7676Y1867D01*
X7679Y1866D01*
X7683Y1864D01*
X7686Y1862D01*
X7690Y1860D01*
X7693Y1857D01*
X7697Y1854D01*
X7700Y1851D01*
X7700Y1850D01*
X7701Y1849D01*
X7701Y1848D01*
X7703Y1846D01*
X7704Y1843D01*
X7706Y1840D01*
X7708Y1836D01*
X7709Y1832D01*
X7711Y1827D01*
X7713Y1821D01*
X7714Y1814D01*
X7716Y1807D01*
X7717Y1799D01*
X7718Y1791D01*
X7718Y1782D01*
X7719Y1772D01*
Y1772D01*
Y1771D01*
Y1771D01*
Y1770D01*
Y1767D01*
X7718Y1763D01*
X7718Y1759D01*
X7718Y1753D01*
X7717Y1748D01*
X7716Y1742D01*
X7715Y1735D01*
X7714Y1729D01*
X7713Y1722D01*
X7711Y1716D01*
X7709Y1710D01*
X7706Y1704D01*
X7703Y1698D01*
X7700Y1693D01*
X7699Y1693D01*
X7699Y1693D01*
X7698Y1691D01*
X7697Y1690D01*
X7695Y1689D01*
X7693Y1687D01*
X7691Y1685D01*
X7688Y1684D01*
X7685Y1682D01*
X7682Y1680D01*
X7679Y1678D01*
X7675Y1677D01*
X7671Y1676D01*
X7666Y1675D01*
X7661Y1674D01*
X7656Y1674D01*
X7655D01*
X7653Y1674D01*
X7651D01*
X7649Y1674D01*
X7646Y1675D01*
X7643Y1675D01*
X7640Y1677D01*
X7636Y1678D01*
X7633Y1679D01*
X7629Y1681D01*
X7625Y1683D01*
X7621Y1685D01*
X7618Y1688D01*
X7614Y1691D01*
X7611Y1695D01*
X7611Y1695D01*
X7610Y1696D01*
X7609Y1698D01*
X7608Y1699D01*
X7607Y1702D01*
X7606Y1705D01*
X7604Y1709D01*
X7603Y1713D01*
X7601Y1718D01*
X7599Y1723D01*
X7598Y1730D01*
X7597Y1737D01*
X7596Y1745D01*
X7595Y1753D01*
X7594Y1762D01*
X7594Y1772D01*
Y1773D01*
Y1773D01*
Y1774D01*
Y1775D01*
Y1778D01*
X7594Y1781D01*
X7595Y1786D01*
X7595Y1791D01*
X7596Y1796D01*
X7596Y1803D01*
X7597Y1809D01*
X7598Y1815D01*
X7600Y1822D01*
X7602Y1828D01*
X7604Y1834D01*
X7606Y1840D01*
X7609Y1846D01*
X7613Y1851D01*
X7613Y1851D01*
X7613Y1851D01*
X7614Y1853D01*
X7616Y1854D01*
X7617Y1855D01*
X7619Y1857D01*
X7621Y1859D01*
X7624Y1861D01*
X7627Y1863D01*
X7630Y1864D01*
X7634Y1866D01*
X7638Y1868D01*
X7642Y1869D01*
X7646Y1870D01*
X7651Y1870D01*
X7656Y1871D01*
X7659D01*
X7661Y1870D01*
D02*
G37*
G36*
X7342Y1833D02*
X7272D01*
X7266Y1800D01*
X7267D01*
X7267Y1800D01*
X7269Y1801D01*
X7271Y1802D01*
X7274Y1803D01*
X7278Y1804D01*
X7282Y1805D01*
X7287Y1806D01*
X7292Y1806D01*
X7294D01*
X7296Y1806D01*
X7298Y1806D01*
X7300Y1805D01*
X7303Y1805D01*
X7306Y1804D01*
X7312Y1802D01*
X7316Y1800D01*
X7319Y1799D01*
X7323Y1796D01*
X7327Y1794D01*
X7330Y1791D01*
X7333Y1788D01*
X7334Y1788D01*
X7334Y1787D01*
X7335Y1786D01*
X7336Y1785D01*
X7337Y1783D01*
X7339Y1781D01*
X7340Y1778D01*
X7342Y1776D01*
X7344Y1773D01*
X7345Y1769D01*
X7347Y1765D01*
X7348Y1761D01*
X7349Y1757D01*
X7350Y1752D01*
X7350Y1747D01*
X7351Y1742D01*
Y1741D01*
Y1741D01*
Y1740D01*
X7350Y1738D01*
Y1736D01*
X7350Y1733D01*
X7349Y1730D01*
X7349Y1728D01*
X7347Y1721D01*
X7345Y1714D01*
X7343Y1710D01*
X7341Y1706D01*
X7339Y1703D01*
X7337Y1699D01*
X7336Y1699D01*
X7336Y1698D01*
X7335Y1697D01*
X7333Y1695D01*
X7331Y1693D01*
X7329Y1691D01*
X7326Y1689D01*
X7323Y1686D01*
X7319Y1684D01*
X7316Y1682D01*
X7311Y1680D01*
X7307Y1678D01*
X7302Y1676D01*
X7296Y1675D01*
X7291Y1674D01*
X7284Y1674D01*
X7282D01*
X7280Y1674D01*
X7278Y1674D01*
X7275Y1675D01*
X7272Y1675D01*
X7269Y1675D01*
X7262Y1677D01*
X7255Y1680D01*
X7251Y1681D01*
X7248Y1683D01*
X7244Y1685D01*
X7241Y1688D01*
X7241Y1688D01*
X7240Y1688D01*
X7239Y1689D01*
X7238Y1690D01*
X7237Y1692D01*
X7235Y1694D01*
X7234Y1696D01*
X7232Y1698D01*
X7230Y1701D01*
X7229Y1703D01*
X7226Y1710D01*
X7223Y1718D01*
X7222Y1722D01*
X7221Y1726D01*
X7258Y1730D01*
Y1730D01*
X7258Y1728D01*
X7259Y1726D01*
X7259Y1723D01*
X7261Y1720D01*
X7262Y1716D01*
X7264Y1713D01*
X7267Y1710D01*
X7267Y1710D01*
X7268Y1709D01*
X7270Y1708D01*
X7272Y1707D01*
X7275Y1705D01*
X7278Y1704D01*
X7281Y1703D01*
X7285Y1703D01*
X7286D01*
X7287Y1703D01*
X7289Y1704D01*
X7292Y1704D01*
X7295Y1705D01*
X7298Y1707D01*
X7302Y1710D01*
X7305Y1713D01*
X7305Y1713D01*
X7306Y1714D01*
X7307Y1716D01*
X7309Y1720D01*
X7310Y1724D01*
X7312Y1728D01*
X7312Y1734D01*
X7313Y1741D01*
Y1741D01*
Y1742D01*
Y1743D01*
Y1744D01*
X7312Y1747D01*
X7312Y1751D01*
X7311Y1755D01*
X7309Y1760D01*
X7307Y1764D01*
X7305Y1768D01*
X7304Y1768D01*
X7303Y1769D01*
X7301Y1770D01*
X7299Y1772D01*
X7296Y1774D01*
X7293Y1775D01*
X7288Y1776D01*
X7284Y1777D01*
X7282D01*
X7281Y1776D01*
X7278Y1776D01*
X7274Y1775D01*
X7270Y1773D01*
X7265Y1771D01*
X7263Y1769D01*
X7260Y1767D01*
X7258Y1765D01*
X7255Y1763D01*
X7226Y1767D01*
X7244Y1867D01*
X7342D01*
Y1833D01*
D02*
G37*
G36*
X4905Y2007D02*
X4907Y2006D01*
X4910Y2006D01*
X4913Y2005D01*
X4916Y2004D01*
X4920Y2003D01*
X4923Y2002D01*
X4927Y2000D01*
X4930Y1999D01*
X4934Y1996D01*
X4938Y1994D01*
X4941Y1990D01*
X4944Y1987D01*
X4944Y1987D01*
X4945Y1986D01*
X4946Y1984D01*
X4947Y1982D01*
X4948Y1980D01*
X4950Y1976D01*
X4952Y1973D01*
X4953Y1968D01*
X4955Y1963D01*
X4957Y1957D01*
X4958Y1951D01*
X4960Y1944D01*
X4961Y1936D01*
X4962Y1927D01*
X4963Y1918D01*
X4963Y1908D01*
Y1908D01*
Y1908D01*
Y1907D01*
Y1906D01*
Y1903D01*
X4963Y1899D01*
X4962Y1895D01*
X4962Y1890D01*
X4961Y1884D01*
X4961Y1878D01*
X4959Y1872D01*
X4958Y1865D01*
X4957Y1859D01*
X4955Y1852D01*
X4953Y1846D01*
X4950Y1840D01*
X4947Y1834D01*
X4944Y1830D01*
X4944Y1829D01*
X4943Y1829D01*
X4942Y1828D01*
X4941Y1827D01*
X4939Y1825D01*
X4938Y1824D01*
X4935Y1822D01*
X4933Y1820D01*
X4929Y1818D01*
X4926Y1816D01*
X4923Y1814D01*
X4919Y1813D01*
X4915Y1812D01*
X4910Y1811D01*
X4905Y1810D01*
X4900Y1810D01*
X4899D01*
X4898Y1810D01*
X4896D01*
X4893Y1811D01*
X4891Y1811D01*
X4888Y1812D01*
X4884Y1813D01*
X4881Y1814D01*
X4877Y1815D01*
X4873Y1817D01*
X4870Y1819D01*
X4866Y1821D01*
X4862Y1824D01*
X4858Y1827D01*
X4855Y1831D01*
X4855Y1832D01*
X4854Y1832D01*
X4853Y1834D01*
X4853Y1836D01*
X4851Y1838D01*
X4850Y1841D01*
X4848Y1845D01*
X4847Y1849D01*
X4845Y1854D01*
X4843Y1860D01*
X4842Y1866D01*
X4841Y1873D01*
X4840Y1881D01*
X4839Y1889D01*
X4838Y1899D01*
X4838Y1909D01*
Y1909D01*
Y1909D01*
Y1910D01*
Y1911D01*
Y1914D01*
X4838Y1917D01*
X4839Y1922D01*
X4839Y1927D01*
X4840Y1933D01*
X4840Y1939D01*
X4841Y1945D01*
X4843Y1952D01*
X4844Y1958D01*
X4846Y1965D01*
X4848Y1971D01*
X4851Y1977D01*
X4853Y1982D01*
X4857Y1987D01*
X4857Y1987D01*
X4858Y1988D01*
X4858Y1989D01*
X4860Y1990D01*
X4861Y1992D01*
X4863Y1993D01*
X4866Y1995D01*
X4868Y1997D01*
X4871Y1999D01*
X4874Y2000D01*
X4878Y2002D01*
X4882Y2004D01*
X4886Y2005D01*
X4891Y2006D01*
X4895Y2007D01*
X4900Y2007D01*
X4903D01*
X4905Y2007D01*
D02*
G37*
G36*
X7837Y1677D02*
X7801D01*
Y1816D01*
X7800Y1816D01*
X7800Y1816D01*
X7799Y1815D01*
X7797Y1813D01*
X7795Y1812D01*
X7793Y1810D01*
X7790Y1808D01*
X7787Y1806D01*
X7784Y1804D01*
X7780Y1801D01*
X7776Y1799D01*
X7772Y1797D01*
X7763Y1793D01*
X7753Y1789D01*
Y1822D01*
X7753D01*
X7754Y1822D01*
X7754Y1823D01*
X7756Y1823D01*
X7758Y1824D01*
X7762Y1826D01*
X7767Y1828D01*
X7772Y1831D01*
X7778Y1835D01*
X7784Y1839D01*
X7784Y1840D01*
X7785Y1840D01*
X7786Y1841D01*
X7787Y1842D01*
X7790Y1845D01*
X7793Y1848D01*
X7797Y1853D01*
X7801Y1858D01*
X7805Y1864D01*
X7807Y1871D01*
X7837D01*
Y1677D01*
D02*
G37*
G36*
X8019Y1840D02*
X8018Y1840D01*
X8018Y1839D01*
X8017Y1839D01*
X8016Y1838D01*
X8015Y1836D01*
X8013Y1834D01*
X8011Y1832D01*
X8009Y1829D01*
X8007Y1826D01*
X8004Y1823D01*
X8001Y1819D01*
X7998Y1815D01*
X7996Y1811D01*
X7993Y1806D01*
X7990Y1801D01*
X7987Y1796D01*
X7987Y1796D01*
X7986Y1794D01*
X7985Y1793D01*
X7984Y1791D01*
X7983Y1788D01*
X7981Y1785D01*
X7980Y1781D01*
X7978Y1778D01*
X7976Y1773D01*
X7974Y1768D01*
X7972Y1763D01*
X7970Y1758D01*
X7966Y1747D01*
X7962Y1735D01*
Y1735D01*
X7962Y1733D01*
X7961Y1732D01*
X7961Y1729D01*
X7960Y1726D01*
X7960Y1723D01*
X7959Y1720D01*
X7958Y1716D01*
X7957Y1711D01*
X7957Y1707D01*
X7955Y1697D01*
X7954Y1687D01*
X7954Y1677D01*
X7919D01*
Y1678D01*
Y1679D01*
X7919Y1681D01*
Y1684D01*
X7919Y1688D01*
X7920Y1692D01*
X7920Y1697D01*
X7921Y1702D01*
X7922Y1708D01*
X7923Y1715D01*
X7924Y1721D01*
X7926Y1728D01*
X7928Y1736D01*
X7930Y1743D01*
X7932Y1751D01*
X7935Y1758D01*
X7935Y1759D01*
X7936Y1760D01*
X7937Y1763D01*
X7938Y1765D01*
X7939Y1769D01*
X7941Y1773D01*
X7944Y1778D01*
X7946Y1783D01*
X7949Y1789D01*
X7952Y1795D01*
X7955Y1801D01*
X7959Y1807D01*
X7967Y1820D01*
X7976Y1833D01*
X7893D01*
Y1867D01*
X8019D01*
Y1840D01*
D02*
G37*
G36*
X4446Y2099D02*
X4409D01*
Y2238D01*
X4446D01*
Y2099D01*
D02*
G37*
G36*
X5019Y2241D02*
X5022Y2240D01*
X5025Y2240D01*
X5028Y2239D01*
X5032Y2238D01*
X5036Y2237D01*
X5040Y2236D01*
X5044Y2234D01*
X5048Y2232D01*
X5052Y2230D01*
X5056Y2227D01*
X5060Y2224D01*
X5063Y2220D01*
X5063Y2220D01*
X5064Y2219D01*
X5065Y2218D01*
X5066Y2216D01*
X5067Y2214D01*
X5069Y2212D01*
X5070Y2208D01*
X5072Y2205D01*
X5074Y2200D01*
X5075Y2196D01*
X5077Y2191D01*
X5078Y2185D01*
X5079Y2179D01*
X5080Y2172D01*
X5081Y2165D01*
Y2157D01*
X4988D01*
Y2157D01*
Y2157D01*
Y2156D01*
X4989Y2155D01*
X4989Y2152D01*
X4989Y2148D01*
X4991Y2144D01*
X4992Y2140D01*
X4994Y2135D01*
X4997Y2132D01*
X4997Y2132D01*
X4999Y2130D01*
X5000Y2129D01*
X5003Y2127D01*
X5006Y2126D01*
X5010Y2124D01*
X5014Y2123D01*
X5018Y2123D01*
X5020D01*
X5021Y2123D01*
X5023Y2124D01*
X5026Y2124D01*
X5028Y2125D01*
X5031Y2126D01*
X5033Y2128D01*
X5033Y2128D01*
X5034Y2129D01*
X5035Y2130D01*
X5036Y2131D01*
X5038Y2134D01*
X5039Y2136D01*
X5041Y2139D01*
X5042Y2143D01*
X5079Y2137D01*
Y2137D01*
X5078Y2136D01*
X5078Y2135D01*
X5077Y2134D01*
X5076Y2132D01*
X5076Y2130D01*
X5073Y2125D01*
X5070Y2120D01*
X5066Y2115D01*
X5061Y2110D01*
X5056Y2106D01*
X5056D01*
X5056Y2106D01*
X5054Y2105D01*
X5053Y2104D01*
X5052Y2104D01*
X5050Y2103D01*
X5048Y2102D01*
X5046Y2101D01*
X5040Y2099D01*
X5034Y2097D01*
X5026Y2096D01*
X5018Y2096D01*
X5016D01*
X5015Y2096D01*
X5012D01*
X5009Y2096D01*
X5006Y2097D01*
X5002Y2097D01*
X4998Y2099D01*
X4993Y2100D01*
X4989Y2101D01*
X4984Y2103D01*
X4980Y2106D01*
X4976Y2108D01*
X4971Y2111D01*
X4968Y2115D01*
X4964Y2119D01*
X4964Y2119D01*
X4964Y2120D01*
X4963Y2121D01*
X4962Y2122D01*
X4961Y2124D01*
X4960Y2127D01*
X4959Y2129D01*
X4958Y2132D01*
X4956Y2135D01*
X4955Y2139D01*
X4954Y2143D01*
X4953Y2147D01*
X4952Y2152D01*
X4951Y2157D01*
X4951Y2162D01*
X4951Y2167D01*
Y2167D01*
Y2169D01*
Y2170D01*
X4951Y2173D01*
X4951Y2176D01*
X4951Y2179D01*
X4952Y2183D01*
X4953Y2187D01*
X4955Y2195D01*
X4956Y2200D01*
X4958Y2205D01*
X4960Y2209D01*
X4963Y2213D01*
X4966Y2217D01*
X4969Y2221D01*
X4969Y2222D01*
X4969Y2222D01*
X4971Y2223D01*
X4972Y2224D01*
X4974Y2226D01*
X4976Y2227D01*
X4978Y2229D01*
X4981Y2231D01*
X4984Y2233D01*
X4988Y2235D01*
X4991Y2237D01*
X4996Y2238D01*
X5000Y2239D01*
X5004Y2240D01*
X5009Y2241D01*
X5014Y2241D01*
X5017D01*
X5019Y2241D01*
D02*
G37*
G36*
X4923Y2099D02*
X4886D01*
Y2291D01*
X4923D01*
Y2099D01*
D02*
G37*
G36*
X3759Y2241D02*
X3761Y2240D01*
X3763Y2240D01*
X3766Y2239D01*
X3769Y2238D01*
X3772Y2238D01*
X3775Y2236D01*
X3779Y2235D01*
X3782Y2233D01*
X3786Y2231D01*
X3789Y2228D01*
X3792Y2225D01*
X3796Y2222D01*
X3796Y2222D01*
X3797Y2221D01*
X3797Y2220D01*
X3798Y2218D01*
X3800Y2217D01*
X3801Y2214D01*
X3803Y2211D01*
X3804Y2208D01*
X3806Y2205D01*
X3807Y2201D01*
X3809Y2196D01*
X3810Y2192D01*
X3811Y2186D01*
X3812Y2181D01*
X3812Y2175D01*
X3813Y2169D01*
Y2169D01*
Y2167D01*
Y2165D01*
X3812Y2163D01*
X3812Y2160D01*
X3812Y2157D01*
X3811Y2153D01*
X3810Y2149D01*
X3808Y2140D01*
X3807Y2136D01*
X3805Y2131D01*
X3803Y2127D01*
X3801Y2123D01*
X3798Y2119D01*
X3795Y2115D01*
X3795Y2114D01*
X3795Y2114D01*
X3794Y2113D01*
X3792Y2112D01*
X3791Y2110D01*
X3789Y2109D01*
X3787Y2107D01*
X3784Y2105D01*
X3781Y2103D01*
X3778Y2102D01*
X3771Y2099D01*
X3767Y2097D01*
X3763Y2096D01*
X3759Y2096D01*
X3754Y2096D01*
X3752D01*
X3750Y2096D01*
X3747Y2096D01*
X3744Y2097D01*
X3740Y2097D01*
X3737Y2099D01*
X3733Y2100D01*
X3733Y2100D01*
X3732Y2101D01*
X3730Y2102D01*
X3727Y2104D01*
X3724Y2106D01*
X3721Y2109D01*
X3718Y2112D01*
X3714Y2116D01*
Y2045D01*
X3677D01*
Y2238D01*
X3711D01*
Y2217D01*
X3712Y2218D01*
X3712Y2219D01*
X3714Y2221D01*
X3716Y2223D01*
X3719Y2226D01*
X3722Y2229D01*
X3725Y2232D01*
X3729Y2234D01*
X3730Y2235D01*
X3731Y2235D01*
X3734Y2237D01*
X3737Y2238D01*
X3740Y2239D01*
X3745Y2240D01*
X3750Y2241D01*
X3755Y2241D01*
X3757D01*
X3759Y2241D01*
D02*
G37*
G36*
X4075D02*
X4078Y2240D01*
X4082Y2240D01*
X4085Y2239D01*
X4089Y2238D01*
X4093Y2237D01*
X4094Y2236D01*
X4095Y2236D01*
X4097Y2235D01*
X4099Y2233D01*
X4101Y2232D01*
X4104Y2230D01*
X4106Y2228D01*
X4109Y2225D01*
X4109Y2225D01*
X4109Y2224D01*
X4110Y2223D01*
X4111Y2221D01*
X4113Y2218D01*
X4114Y2216D01*
X4115Y2213D01*
X4116Y2210D01*
Y2209D01*
X4116Y2208D01*
X4117Y2206D01*
X4117Y2203D01*
X4117Y2200D01*
X4118Y2195D01*
X4118Y2191D01*
Y2185D01*
Y2099D01*
X4081D01*
Y2169D01*
Y2170D01*
Y2170D01*
Y2172D01*
Y2173D01*
Y2175D01*
Y2177D01*
X4081Y2182D01*
X4081Y2186D01*
X4080Y2191D01*
X4079Y2195D01*
X4079Y2197D01*
X4079Y2199D01*
Y2199D01*
X4078Y2200D01*
X4077Y2201D01*
X4077Y2202D01*
X4074Y2206D01*
X4073Y2207D01*
X4071Y2209D01*
X4071Y2209D01*
X4070Y2209D01*
X4069Y2210D01*
X4067Y2211D01*
X4065Y2212D01*
X4063Y2212D01*
X4061Y2212D01*
X4058Y2213D01*
X4056D01*
X4055Y2212D01*
X4052Y2212D01*
X4050Y2211D01*
X4047Y2210D01*
X4044Y2209D01*
X4041Y2207D01*
X4041Y2207D01*
X4040Y2207D01*
X4038Y2205D01*
X4037Y2204D01*
X4035Y2202D01*
X4033Y2199D01*
X4032Y2196D01*
X4031Y2193D01*
Y2193D01*
X4030Y2192D01*
X4030Y2189D01*
X4029Y2186D01*
X4029Y2184D01*
X4029Y2182D01*
X4028Y2179D01*
Y2176D01*
X4028Y2173D01*
X4028Y2169D01*
Y2165D01*
Y2161D01*
Y2099D01*
X3991D01*
Y2238D01*
X4025D01*
Y2217D01*
X4025Y2218D01*
X4026Y2218D01*
X4027Y2220D01*
X4028Y2221D01*
X4030Y2223D01*
X4032Y2225D01*
X4035Y2227D01*
X4037Y2229D01*
X4041Y2231D01*
X4044Y2233D01*
X4048Y2235D01*
X4052Y2237D01*
X4056Y2239D01*
X4061Y2240D01*
X4066Y2241D01*
X4071Y2241D01*
X4073D01*
X4075Y2241D01*
D02*
G37*
G36*
X3900D02*
X3903Y2240D01*
X3906Y2240D01*
X3909Y2239D01*
X3913Y2238D01*
X3916Y2237D01*
X3920Y2236D01*
X3925Y2234D01*
X3929Y2232D01*
X3933Y2230D01*
X3936Y2227D01*
X3940Y2224D01*
X3944Y2220D01*
X3944Y2220D01*
X3944Y2219D01*
X3945Y2218D01*
X3946Y2216D01*
X3948Y2214D01*
X3949Y2212D01*
X3951Y2208D01*
X3953Y2205D01*
X3954Y2200D01*
X3956Y2196D01*
X3957Y2191D01*
X3959Y2185D01*
X3960Y2179D01*
X3961Y2172D01*
X3961Y2165D01*
Y2157D01*
X3869D01*
Y2157D01*
Y2157D01*
Y2156D01*
X3869Y2155D01*
X3870Y2152D01*
X3870Y2148D01*
X3871Y2144D01*
X3873Y2140D01*
X3875Y2135D01*
X3878Y2132D01*
X3878Y2132D01*
X3879Y2130D01*
X3881Y2129D01*
X3883Y2127D01*
X3886Y2126D01*
X3890Y2124D01*
X3895Y2123D01*
X3899Y2123D01*
X3900D01*
X3902Y2123D01*
X3904Y2124D01*
X3906Y2124D01*
X3909Y2125D01*
X3911Y2126D01*
X3913Y2128D01*
X3914Y2128D01*
X3915Y2129D01*
X3916Y2130D01*
X3917Y2131D01*
X3918Y2134D01*
X3920Y2136D01*
X3921Y2139D01*
X3923Y2143D01*
X3959Y2137D01*
Y2137D01*
X3959Y2136D01*
X3958Y2135D01*
X3958Y2134D01*
X3957Y2132D01*
X3956Y2130D01*
X3954Y2125D01*
X3951Y2120D01*
X3947Y2115D01*
X3942Y2110D01*
X3937Y2106D01*
X3936D01*
X3936Y2106D01*
X3935Y2105D01*
X3934Y2104D01*
X3933Y2104D01*
X3931Y2103D01*
X3929Y2102D01*
X3926Y2101D01*
X3921Y2099D01*
X3914Y2097D01*
X3907Y2096D01*
X3899Y2096D01*
X3897D01*
X3895Y2096D01*
X3893D01*
X3890Y2096D01*
X3886Y2097D01*
X3882Y2097D01*
X3878Y2099D01*
X3874Y2100D01*
X3870Y2101D01*
X3865Y2103D01*
X3861Y2106D01*
X3856Y2108D01*
X3852Y2111D01*
X3848Y2115D01*
X3845Y2119D01*
X3845Y2119D01*
X3844Y2120D01*
X3844Y2121D01*
X3843Y2122D01*
X3842Y2124D01*
X3841Y2127D01*
X3839Y2129D01*
X3838Y2132D01*
X3837Y2135D01*
X3836Y2139D01*
X3834Y2143D01*
X3833Y2147D01*
X3833Y2152D01*
X3832Y2157D01*
X3832Y2162D01*
X3831Y2167D01*
Y2167D01*
Y2169D01*
Y2170D01*
X3832Y2173D01*
X3832Y2176D01*
X3832Y2179D01*
X3833Y2183D01*
X3833Y2187D01*
X3836Y2195D01*
X3837Y2200D01*
X3839Y2205D01*
X3841Y2209D01*
X3843Y2213D01*
X3846Y2217D01*
X3849Y2221D01*
X3850Y2222D01*
X3850Y2222D01*
X3851Y2223D01*
X3853Y2224D01*
X3854Y2226D01*
X3856Y2227D01*
X3859Y2229D01*
X3862Y2231D01*
X3865Y2233D01*
X3868Y2235D01*
X3872Y2237D01*
X3876Y2238D01*
X3880Y2239D01*
X3885Y2240D01*
X3890Y2241D01*
X3895Y2241D01*
X3898D01*
X3900Y2241D01*
D02*
G37*
G36*
X4303Y2294D02*
X4306Y2294D01*
X4310Y2293D01*
X4313Y2293D01*
X4318Y2292D01*
X4327Y2290D01*
X4331Y2289D01*
X4335Y2288D01*
X4340Y2286D01*
X4344Y2283D01*
X4348Y2281D01*
X4351Y2278D01*
X4352Y2278D01*
X4352Y2277D01*
X4353Y2277D01*
X4354Y2275D01*
X4356Y2274D01*
X4357Y2272D01*
X4359Y2270D01*
X4361Y2267D01*
X4363Y2264D01*
X4364Y2261D01*
X4366Y2257D01*
X4367Y2253D01*
X4369Y2250D01*
X4370Y2245D01*
X4371Y2241D01*
X4371Y2236D01*
X4332Y2234D01*
Y2235D01*
Y2235D01*
X4331Y2237D01*
X4331Y2239D01*
X4330Y2242D01*
X4328Y2246D01*
X4327Y2249D01*
X4324Y2253D01*
X4321Y2255D01*
X4321Y2256D01*
X4320Y2257D01*
X4318Y2258D01*
X4315Y2259D01*
X4312Y2260D01*
X4308Y2261D01*
X4303Y2262D01*
X4297Y2262D01*
X4294D01*
X4291Y2262D01*
X4287Y2261D01*
X4283Y2260D01*
X4279Y2259D01*
X4275Y2257D01*
X4271Y2255D01*
X4270Y2255D01*
X4270Y2254D01*
X4269Y2253D01*
X4268Y2252D01*
X4267Y2250D01*
X4265Y2248D01*
X4265Y2246D01*
X4265Y2243D01*
Y2243D01*
Y2242D01*
X4265Y2240D01*
X4265Y2239D01*
X4266Y2237D01*
X4267Y2235D01*
X4268Y2233D01*
X4270Y2231D01*
X4270Y2231D01*
X4272Y2230D01*
X4273Y2230D01*
X4274Y2229D01*
X4275Y2228D01*
X4277Y2227D01*
X4280Y2227D01*
X4282Y2225D01*
X4285Y2224D01*
X4288Y2223D01*
X4292Y2222D01*
X4296Y2221D01*
X4301Y2220D01*
X4306Y2218D01*
X4306D01*
X4307Y2218D01*
X4308Y2218D01*
X4310Y2217D01*
X4313Y2217D01*
X4315Y2216D01*
X4318Y2215D01*
X4322Y2214D01*
X4328Y2212D01*
X4335Y2210D01*
X4342Y2207D01*
X4345Y2206D01*
X4347Y2205D01*
X4348D01*
X4348Y2204D01*
X4350Y2203D01*
X4352Y2202D01*
X4355Y2199D01*
X4358Y2197D01*
X4362Y2193D01*
X4366Y2189D01*
X4369Y2185D01*
X4369Y2184D01*
X4370Y2183D01*
X4371Y2180D01*
X4373Y2177D01*
X4374Y2172D01*
X4375Y2167D01*
X4376Y2161D01*
X4376Y2154D01*
Y2154D01*
Y2154D01*
Y2153D01*
Y2152D01*
X4376Y2150D01*
X4376Y2148D01*
X4375Y2144D01*
X4374Y2139D01*
X4373Y2134D01*
X4370Y2129D01*
X4367Y2123D01*
Y2123D01*
X4366Y2123D01*
X4365Y2121D01*
X4363Y2118D01*
X4360Y2115D01*
X4357Y2112D01*
X4352Y2108D01*
X4347Y2105D01*
X4341Y2102D01*
X4341D01*
X4340Y2102D01*
X4339Y2101D01*
X4338Y2101D01*
X4336Y2100D01*
X4334Y2100D01*
X4332Y2099D01*
X4330Y2099D01*
X4327Y2098D01*
X4323Y2097D01*
X4316Y2096D01*
X4308Y2095D01*
X4299Y2095D01*
X4296D01*
X4293Y2095D01*
X4290Y2096D01*
X4287Y2096D01*
X4283Y2096D01*
X4279Y2097D01*
X4270Y2099D01*
X4265Y2101D01*
X4260Y2102D01*
X4256Y2104D01*
X4251Y2106D01*
X4247Y2109D01*
X4243Y2112D01*
X4243Y2112D01*
X4242Y2112D01*
X4241Y2113D01*
X4240Y2115D01*
X4238Y2117D01*
X4237Y2119D01*
X4235Y2121D01*
X4233Y2124D01*
X4231Y2127D01*
X4229Y2131D01*
X4227Y2135D01*
X4225Y2140D01*
X4224Y2144D01*
X4222Y2150D01*
X4221Y2155D01*
X4220Y2161D01*
X4258Y2165D01*
Y2164D01*
X4258Y2164D01*
Y2163D01*
X4258Y2162D01*
X4260Y2158D01*
X4261Y2154D01*
X4263Y2149D01*
X4265Y2145D01*
X4268Y2140D01*
X4272Y2137D01*
X4272Y2136D01*
X4273Y2135D01*
X4276Y2134D01*
X4279Y2132D01*
X4283Y2130D01*
X4288Y2129D01*
X4293Y2128D01*
X4300Y2128D01*
X4303D01*
X4306Y2128D01*
X4310Y2129D01*
X4315Y2130D01*
X4320Y2131D01*
X4324Y2133D01*
X4328Y2135D01*
X4328Y2136D01*
X4330Y2137D01*
X4331Y2139D01*
X4333Y2141D01*
X4335Y2144D01*
X4336Y2147D01*
X4337Y2150D01*
X4338Y2154D01*
Y2154D01*
Y2155D01*
X4337Y2157D01*
X4337Y2158D01*
X4336Y2160D01*
X4336Y2162D01*
X4335Y2164D01*
X4333Y2166D01*
X4333Y2166D01*
X4333Y2167D01*
X4332Y2167D01*
X4330Y2169D01*
X4328Y2170D01*
X4326Y2171D01*
X4323Y2173D01*
X4320Y2174D01*
X4319D01*
X4318Y2175D01*
X4316Y2175D01*
X4315Y2176D01*
X4313Y2176D01*
X4311Y2177D01*
X4309Y2177D01*
X4307Y2178D01*
X4304Y2179D01*
X4300Y2180D01*
X4297Y2180D01*
X4293Y2182D01*
X4288Y2183D01*
X4288D01*
X4287Y2183D01*
X4285Y2184D01*
X4283Y2184D01*
X4281Y2185D01*
X4278Y2186D01*
X4275Y2187D01*
X4271Y2188D01*
X4264Y2191D01*
X4257Y2194D01*
X4253Y2196D01*
X4250Y2198D01*
X4247Y2200D01*
X4245Y2202D01*
X4245Y2202D01*
X4244Y2202D01*
X4243Y2203D01*
X4242Y2204D01*
X4241Y2206D01*
X4239Y2208D01*
X4238Y2210D01*
X4236Y2212D01*
X4233Y2218D01*
X4230Y2225D01*
X4229Y2228D01*
X4228Y2232D01*
X4228Y2236D01*
X4227Y2240D01*
Y2241D01*
Y2241D01*
Y2242D01*
Y2243D01*
X4228Y2246D01*
X4229Y2249D01*
X4229Y2253D01*
X4231Y2258D01*
X4233Y2263D01*
X4235Y2268D01*
Y2268D01*
X4236Y2268D01*
X4237Y2270D01*
X4239Y2272D01*
X4242Y2275D01*
X4245Y2278D01*
X4249Y2282D01*
X4254Y2285D01*
X4259Y2287D01*
X4260D01*
X4260Y2288D01*
X4261Y2288D01*
X4262Y2288D01*
X4264Y2289D01*
X4265Y2290D01*
X4268Y2290D01*
X4270Y2291D01*
X4276Y2292D01*
X4282Y2293D01*
X4289Y2294D01*
X4297Y2294D01*
X4301D01*
X4303Y2294D01*
D02*
G37*
G36*
X4446Y2257D02*
X4409D01*
Y2291D01*
X4446D01*
Y2257D01*
D02*
G37*
G36*
X3558Y2294D02*
X3561D01*
X3565Y2293D01*
X3569Y2293D01*
X3574Y2292D01*
X3579Y2291D01*
X3584Y2290D01*
X3589Y2288D01*
X3595Y2286D01*
X3601Y2283D01*
X3606Y2280D01*
X3612Y2277D01*
X3617Y2272D01*
X3622Y2268D01*
X3622Y2267D01*
X3623Y2267D01*
X3625Y2265D01*
X3626Y2263D01*
X3628Y2260D01*
X3630Y2257D01*
X3632Y2253D01*
X3635Y2248D01*
X3637Y2244D01*
X3640Y2238D01*
X3642Y2232D01*
X3644Y2226D01*
X3645Y2218D01*
X3647Y2211D01*
X3647Y2203D01*
X3648Y2194D01*
Y2194D01*
Y2192D01*
X3647Y2190D01*
Y2187D01*
X3647Y2183D01*
X3646Y2178D01*
X3645Y2173D01*
X3645Y2168D01*
X3643Y2162D01*
X3642Y2156D01*
X3639Y2150D01*
X3637Y2144D01*
X3634Y2138D01*
X3631Y2132D01*
X3627Y2126D01*
X3622Y2121D01*
X3622Y2121D01*
X3621Y2120D01*
X3620Y2119D01*
X3617Y2117D01*
X3615Y2115D01*
X3612Y2113D01*
X3608Y2110D01*
X3604Y2108D01*
X3600Y2106D01*
X3595Y2103D01*
X3589Y2101D01*
X3583Y2099D01*
X3577Y2097D01*
X3570Y2096D01*
X3562Y2095D01*
X3555Y2095D01*
X3553D01*
X3551Y2095D01*
X3548Y2096D01*
X3544Y2096D01*
X3540Y2096D01*
X3535Y2097D01*
X3530Y2098D01*
X3525Y2100D01*
X3519Y2101D01*
X3514Y2104D01*
X3508Y2106D01*
X3502Y2109D01*
X3497Y2112D01*
X3492Y2116D01*
X3487Y2121D01*
X3486Y2121D01*
X3486Y2122D01*
X3484Y2124D01*
X3483Y2126D01*
X3481Y2129D01*
X3479Y2132D01*
X3476Y2135D01*
X3474Y2140D01*
X3472Y2145D01*
X3469Y2150D01*
X3467Y2156D01*
X3465Y2162D01*
X3464Y2169D01*
X3463Y2177D01*
X3462Y2185D01*
X3461Y2193D01*
Y2194D01*
Y2195D01*
Y2196D01*
X3462Y2198D01*
Y2201D01*
X3462Y2204D01*
X3462Y2207D01*
X3463Y2210D01*
X3464Y2218D01*
X3465Y2227D01*
X3467Y2235D01*
X3470Y2243D01*
Y2243D01*
X3470Y2243D01*
X3471Y2244D01*
X3471Y2245D01*
X3473Y2248D01*
X3475Y2252D01*
X3477Y2256D01*
X3480Y2260D01*
X3484Y2265D01*
X3488Y2269D01*
X3488Y2269D01*
X3488Y2270D01*
X3490Y2271D01*
X3492Y2273D01*
X3495Y2276D01*
X3499Y2278D01*
X3503Y2282D01*
X3508Y2284D01*
X3513Y2287D01*
X3513D01*
X3514Y2287D01*
X3515Y2287D01*
X3516Y2288D01*
X3518Y2288D01*
X3520Y2289D01*
X3522Y2290D01*
X3525Y2290D01*
X3531Y2292D01*
X3538Y2293D01*
X3546Y2294D01*
X3554Y2294D01*
X3556D01*
X3558Y2294D01*
D02*
G37*
G36*
X4803Y2241D02*
X4805Y2240D01*
X4808Y2240D01*
X4811Y2239D01*
X4813Y2238D01*
X4817Y2238D01*
X4820Y2236D01*
X4823Y2235D01*
X4827Y2233D01*
X4830Y2231D01*
X4834Y2228D01*
X4837Y2225D01*
X4840Y2222D01*
X4841Y2222D01*
X4841Y2221D01*
X4842Y2220D01*
X4843Y2218D01*
X4844Y2217D01*
X4846Y2214D01*
X4847Y2211D01*
X4849Y2208D01*
X4850Y2205D01*
X4852Y2201D01*
X4853Y2196D01*
X4855Y2192D01*
X4856Y2186D01*
X4856Y2181D01*
X4857Y2175D01*
X4857Y2169D01*
Y2169D01*
Y2167D01*
Y2165D01*
X4857Y2163D01*
X4857Y2160D01*
X4856Y2157D01*
X4856Y2153D01*
X4855Y2149D01*
X4853Y2140D01*
X4852Y2136D01*
X4850Y2131D01*
X4848Y2127D01*
X4846Y2123D01*
X4843Y2119D01*
X4840Y2115D01*
X4840Y2114D01*
X4839Y2114D01*
X4838Y2113D01*
X4837Y2112D01*
X4835Y2110D01*
X4833Y2109D01*
X4831Y2107D01*
X4829Y2105D01*
X4826Y2103D01*
X4823Y2102D01*
X4816Y2099D01*
X4812Y2097D01*
X4808Y2096D01*
X4803Y2096D01*
X4799Y2096D01*
X4797D01*
X4795Y2096D01*
X4792Y2096D01*
X4789Y2097D01*
X4785Y2097D01*
X4782Y2099D01*
X4778Y2100D01*
X4778Y2100D01*
X4776Y2101D01*
X4775Y2102D01*
X4772Y2104D01*
X4769Y2106D01*
X4766Y2109D01*
X4762Y2112D01*
X4758Y2116D01*
Y2045D01*
X4722D01*
Y2238D01*
X4756D01*
Y2217D01*
X4756Y2218D01*
X4757Y2219D01*
X4759Y2221D01*
X4761Y2223D01*
X4763Y2226D01*
X4767Y2229D01*
X4770Y2232D01*
X4774Y2234D01*
X4775Y2235D01*
X4776Y2235D01*
X4778Y2237D01*
X4782Y2238D01*
X4785Y2239D01*
X4790Y2240D01*
X4794Y2241D01*
X4799Y2241D01*
X4802D01*
X4803Y2241D01*
D02*
G37*
G36*
X4645D02*
X4649Y2240D01*
X4653Y2239D01*
X4657Y2238D01*
X4662Y2237D01*
X4666Y2235D01*
X4667Y2234D01*
X4668Y2233D01*
X4670Y2232D01*
X4672Y2230D01*
X4675Y2227D01*
X4677Y2224D01*
X4680Y2221D01*
X4682Y2216D01*
X4682Y2216D01*
X4683Y2215D01*
X4683Y2212D01*
X4684Y2209D01*
X4685Y2205D01*
X4685Y2200D01*
X4686Y2194D01*
X4686Y2187D01*
Y2099D01*
X4649D01*
Y2178D01*
Y2178D01*
Y2179D01*
Y2180D01*
Y2181D01*
X4649Y2185D01*
X4649Y2189D01*
X4648Y2194D01*
X4647Y2198D01*
X4647Y2202D01*
X4646Y2203D01*
X4645Y2205D01*
X4645Y2205D01*
X4644Y2206D01*
X4643Y2207D01*
X4641Y2209D01*
X4639Y2210D01*
X4636Y2212D01*
X4633Y2212D01*
X4629Y2213D01*
X4628D01*
X4627Y2212D01*
X4625Y2212D01*
X4622Y2212D01*
X4620Y2211D01*
X4617Y2210D01*
X4615Y2208D01*
X4614Y2208D01*
X4614Y2207D01*
X4612Y2206D01*
X4611Y2204D01*
X4609Y2202D01*
X4608Y2200D01*
X4606Y2197D01*
X4605Y2194D01*
Y2194D01*
X4604Y2192D01*
X4604Y2190D01*
X4604Y2187D01*
X4603Y2183D01*
X4603Y2178D01*
X4602Y2172D01*
Y2165D01*
Y2099D01*
X4565D01*
Y2175D01*
Y2175D01*
Y2175D01*
Y2177D01*
Y2178D01*
Y2181D01*
X4565Y2185D01*
X4565Y2190D01*
X4564Y2194D01*
X4564Y2198D01*
X4563Y2200D01*
X4563Y2201D01*
Y2201D01*
X4563Y2202D01*
X4562Y2203D01*
X4562Y2204D01*
X4560Y2207D01*
X4558Y2208D01*
X4557Y2210D01*
X4557Y2210D01*
X4556Y2210D01*
X4555Y2211D01*
X4554Y2211D01*
X4552Y2212D01*
X4551Y2212D01*
X4548Y2213D01*
X4544D01*
X4543Y2212D01*
X4541Y2212D01*
X4538Y2212D01*
X4536Y2211D01*
X4533Y2210D01*
X4531Y2208D01*
X4530Y2208D01*
X4529Y2207D01*
X4528Y2206D01*
X4527Y2205D01*
X4525Y2203D01*
X4524Y2200D01*
X4522Y2198D01*
X4521Y2195D01*
Y2194D01*
X4520Y2193D01*
X4520Y2191D01*
X4519Y2188D01*
X4519Y2184D01*
X4519Y2179D01*
X4518Y2173D01*
Y2166D01*
Y2099D01*
X4481D01*
Y2238D01*
X4515D01*
Y2219D01*
X4515Y2219D01*
X4516Y2220D01*
X4517Y2221D01*
X4518Y2222D01*
X4520Y2224D01*
X4522Y2226D01*
X4524Y2228D01*
X4527Y2230D01*
X4530Y2232D01*
X4534Y2234D01*
X4541Y2238D01*
X4545Y2239D01*
X4549Y2240D01*
X4554Y2241D01*
X4558Y2241D01*
X4561D01*
X4563Y2241D01*
X4566Y2240D01*
X4570Y2240D01*
X4574Y2239D01*
X4577Y2237D01*
X4581Y2235D01*
X4582Y2235D01*
X4583Y2234D01*
X4585Y2233D01*
X4587Y2231D01*
X4590Y2229D01*
X4592Y2226D01*
X4595Y2222D01*
X4598Y2218D01*
X4598Y2219D01*
X4599Y2220D01*
X4601Y2222D01*
X4604Y2225D01*
X4607Y2228D01*
X4610Y2230D01*
X4614Y2233D01*
X4617Y2235D01*
X4618Y2236D01*
X4619Y2236D01*
X4622Y2237D01*
X4624Y2238D01*
X4628Y2239D01*
X4632Y2240D01*
X4636Y2241D01*
X4640Y2241D01*
X4643D01*
X4645Y2241D01*
D02*
G37*
%LPC*%
G36*
X3881Y1973D02*
X3856D01*
Y1846D01*
X3890D01*
X3894Y1846D01*
X3898D01*
X3901Y1847D01*
X3905Y1847D01*
X3908Y1848D01*
X3909D01*
X3910Y1848D01*
X3911Y1849D01*
X3914Y1850D01*
X3916Y1851D01*
X3919Y1852D01*
X3921Y1854D01*
X3924Y1856D01*
X3924Y1856D01*
X3925Y1857D01*
X3926Y1858D01*
X3927Y1860D01*
X3929Y1863D01*
X3931Y1866D01*
X3932Y1870D01*
X3934Y1874D01*
Y1874D01*
X3934Y1875D01*
Y1876D01*
X3934Y1877D01*
X3935Y1878D01*
X3935Y1879D01*
X3936Y1884D01*
X3936Y1889D01*
X3937Y1894D01*
X3938Y1902D01*
X3938Y1909D01*
Y1910D01*
Y1910D01*
Y1912D01*
Y1913D01*
Y1915D01*
X3938Y1917D01*
X3937Y1922D01*
X3937Y1927D01*
X3936Y1933D01*
X3935Y1939D01*
X3934Y1944D01*
Y1944D01*
X3933Y1944D01*
X3933Y1945D01*
X3932Y1948D01*
X3931Y1950D01*
X3929Y1953D01*
X3927Y1956D01*
X3925Y1959D01*
X3923Y1962D01*
X3922Y1962D01*
X3921Y1963D01*
X3920Y1964D01*
X3918Y1966D01*
X3915Y1967D01*
X3912Y1969D01*
X3909Y1970D01*
X3905Y1971D01*
X3905D01*
X3903Y1972D01*
X3901Y1972D01*
X3898Y1972D01*
X3896D01*
X3893Y1973D01*
X3891D01*
X3888Y1973D01*
X3885D01*
X3881Y1973D01*
D02*
G37*
G36*
X4086Y1961D02*
X4060Y1890D01*
X4113D01*
X4086Y1961D01*
D02*
G37*
G36*
X4288Y1973D02*
X4243D01*
Y1924D01*
X4281D01*
X4287Y1925D01*
X4293Y1925D01*
X4298Y1925D01*
X4301Y1925D01*
X4303Y1926D01*
X4305Y1926D01*
X4307Y1927D01*
X4307D01*
X4308Y1927D01*
X4309Y1928D01*
X4311Y1929D01*
X4314Y1931D01*
X4316Y1933D01*
X4318Y1935D01*
X4318Y1935D01*
X4318Y1936D01*
X4319Y1937D01*
X4320Y1939D01*
X4320Y1941D01*
X4321Y1943D01*
X4322Y1946D01*
X4322Y1949D01*
Y1950D01*
Y1951D01*
X4322Y1952D01*
X4321Y1955D01*
X4320Y1957D01*
X4320Y1960D01*
X4318Y1962D01*
X4317Y1965D01*
X4316Y1965D01*
X4316Y1966D01*
X4314Y1967D01*
X4313Y1968D01*
X4311Y1969D01*
X4308Y1970D01*
X4305Y1972D01*
X4302Y1972D01*
X4302D01*
X4301Y1973D01*
X4299D01*
X4297Y1973D01*
X4290D01*
X4288Y1973D01*
D02*
G37*
G36*
X7133Y1840D02*
X7132D01*
X7131Y1840D01*
X7130Y1839D01*
X7128Y1839D01*
X7126Y1838D01*
X7123Y1837D01*
X7121Y1836D01*
X7121Y1835D01*
X7121Y1835D01*
X7120Y1834D01*
X7119Y1832D01*
X7117Y1830D01*
X7116Y1828D01*
X7115Y1824D01*
X7114Y1820D01*
Y1820D01*
X7113Y1820D01*
Y1819D01*
X7113Y1818D01*
X7113Y1816D01*
X7113Y1814D01*
X7112Y1812D01*
X7112Y1809D01*
X7111Y1806D01*
X7111Y1802D01*
X7111Y1798D01*
X7111Y1794D01*
X7110Y1789D01*
Y1784D01*
X7110Y1778D01*
Y1772D01*
Y1772D01*
Y1771D01*
Y1769D01*
Y1766D01*
Y1764D01*
X7110Y1761D01*
Y1757D01*
X7111Y1753D01*
X7111Y1746D01*
X7111Y1738D01*
X7112Y1734D01*
X7112Y1731D01*
X7113Y1728D01*
X7113Y1725D01*
X7114Y1725D01*
X7114Y1723D01*
X7115Y1721D01*
X7116Y1718D01*
X7117Y1716D01*
X7118Y1713D01*
X7120Y1710D01*
X7122Y1708D01*
X7122Y1708D01*
X7123Y1708D01*
X7124Y1707D01*
X7125Y1706D01*
X7127Y1706D01*
X7129Y1705D01*
X7131Y1705D01*
X7133Y1704D01*
X7135D01*
X7136Y1705D01*
X7137Y1705D01*
X7139Y1705D01*
X7141Y1706D01*
X7143Y1707D01*
X7145Y1708D01*
X7145Y1709D01*
X7146Y1709D01*
X7147Y1710D01*
X7148Y1712D01*
X7149Y1714D01*
X7151Y1717D01*
X7152Y1720D01*
X7153Y1724D01*
Y1724D01*
X7153Y1724D01*
Y1725D01*
X7154Y1726D01*
X7154Y1728D01*
X7154Y1730D01*
X7155Y1732D01*
X7155Y1735D01*
X7155Y1738D01*
X7156Y1742D01*
X7156Y1746D01*
X7156Y1750D01*
X7157Y1755D01*
Y1760D01*
X7157Y1766D01*
Y1772D01*
Y1772D01*
Y1773D01*
Y1775D01*
Y1778D01*
Y1780D01*
X7157Y1783D01*
Y1787D01*
X7156Y1791D01*
X7156Y1798D01*
X7156Y1806D01*
X7155Y1809D01*
X7155Y1813D01*
X7154Y1816D01*
X7153Y1819D01*
Y1819D01*
X7153Y1819D01*
X7153Y1821D01*
X7152Y1823D01*
X7151Y1826D01*
X7150Y1828D01*
X7148Y1831D01*
X7147Y1834D01*
X7145Y1836D01*
X7145Y1836D01*
X7144Y1836D01*
X7143Y1837D01*
X7142Y1838D01*
X7140Y1839D01*
X7138Y1839D01*
X7136Y1840D01*
X7133Y1840D01*
D02*
G37*
G36*
X7656D02*
X7655D01*
X7654Y1840D01*
X7652Y1839D01*
X7650Y1839D01*
X7648Y1838D01*
X7646Y1837D01*
X7644Y1836D01*
X7644Y1835D01*
X7643Y1835D01*
X7643Y1834D01*
X7641Y1832D01*
X7640Y1830D01*
X7639Y1828D01*
X7638Y1824D01*
X7636Y1820D01*
Y1820D01*
X7636Y1820D01*
Y1819D01*
X7636Y1818D01*
X7636Y1816D01*
X7635Y1814D01*
X7635Y1812D01*
X7635Y1809D01*
X7634Y1806D01*
X7634Y1802D01*
X7634Y1798D01*
X7633Y1794D01*
X7633Y1789D01*
Y1784D01*
X7633Y1778D01*
Y1772D01*
Y1772D01*
Y1771D01*
Y1769D01*
Y1766D01*
Y1764D01*
X7633Y1761D01*
Y1757D01*
X7633Y1753D01*
X7634Y1746D01*
X7634Y1738D01*
X7635Y1734D01*
X7635Y1731D01*
X7636Y1728D01*
X7636Y1725D01*
X7636Y1725D01*
X7637Y1723D01*
X7638Y1721D01*
X7638Y1718D01*
X7640Y1716D01*
X7641Y1713D01*
X7643Y1710D01*
X7645Y1708D01*
X7645Y1708D01*
X7645Y1708D01*
X7646Y1707D01*
X7648Y1706D01*
X7650Y1706D01*
X7651Y1705D01*
X7654Y1705D01*
X7656Y1704D01*
X7657D01*
X7659Y1705D01*
X7660Y1705D01*
X7662Y1705D01*
X7664Y1706D01*
X7666Y1707D01*
X7668Y1708D01*
X7668Y1709D01*
X7669Y1709D01*
X7670Y1710D01*
X7671Y1712D01*
X7672Y1714D01*
X7673Y1717D01*
X7675Y1720D01*
X7676Y1724D01*
Y1724D01*
X7676Y1724D01*
Y1725D01*
X7676Y1726D01*
X7677Y1728D01*
X7677Y1730D01*
X7678Y1732D01*
X7678Y1735D01*
X7678Y1738D01*
X7679Y1742D01*
X7679Y1746D01*
X7679Y1750D01*
X7680Y1755D01*
Y1760D01*
X7680Y1766D01*
Y1772D01*
Y1772D01*
Y1773D01*
Y1775D01*
Y1778D01*
Y1780D01*
X7680Y1783D01*
Y1787D01*
X7679Y1791D01*
X7679Y1798D01*
X7678Y1806D01*
X7678Y1809D01*
X7677Y1813D01*
X7677Y1816D01*
X7676Y1819D01*
Y1819D01*
X7676Y1819D01*
X7676Y1821D01*
X7675Y1823D01*
X7674Y1826D01*
X7673Y1828D01*
X7671Y1831D01*
X7670Y1834D01*
X7668Y1836D01*
X7668Y1836D01*
X7667Y1836D01*
X7666Y1837D01*
X7665Y1838D01*
X7663Y1839D01*
X7661Y1839D01*
X7659Y1840D01*
X7656Y1840D01*
D02*
G37*
G36*
X4900Y1976D02*
X4899D01*
X4898Y1976D01*
X4896Y1976D01*
X4895Y1975D01*
X4893Y1974D01*
X4890Y1973D01*
X4888Y1972D01*
X4888Y1972D01*
X4888Y1971D01*
X4887Y1970D01*
X4886Y1969D01*
X4884Y1966D01*
X4883Y1964D01*
X4882Y1960D01*
X4881Y1957D01*
Y1956D01*
X4880Y1956D01*
Y1955D01*
X4880Y1954D01*
X4880Y1952D01*
X4880Y1950D01*
X4879Y1948D01*
X4879Y1945D01*
X4878Y1942D01*
X4878Y1939D01*
X4878Y1934D01*
X4878Y1930D01*
X4877Y1925D01*
Y1920D01*
X4877Y1914D01*
Y1908D01*
Y1908D01*
Y1907D01*
Y1905D01*
Y1903D01*
Y1900D01*
X4877Y1897D01*
Y1893D01*
X4878Y1890D01*
X4878Y1882D01*
X4878Y1874D01*
X4879Y1871D01*
X4879Y1867D01*
X4880Y1864D01*
X4880Y1861D01*
X4881Y1861D01*
X4881Y1859D01*
X4882Y1857D01*
X4883Y1855D01*
X4884Y1852D01*
X4885Y1849D01*
X4887Y1847D01*
X4889Y1845D01*
X4889Y1844D01*
X4890Y1844D01*
X4891Y1843D01*
X4892Y1843D01*
X4894Y1842D01*
X4896Y1841D01*
X4898Y1841D01*
X4900Y1841D01*
X4901D01*
X4903Y1841D01*
X4904Y1841D01*
X4906Y1842D01*
X4908Y1842D01*
X4910Y1843D01*
X4912Y1845D01*
X4912Y1845D01*
X4913Y1846D01*
X4914Y1847D01*
X4915Y1848D01*
X4916Y1850D01*
X4918Y1853D01*
X4919Y1856D01*
X4920Y1860D01*
Y1860D01*
X4920Y1861D01*
Y1862D01*
X4921Y1863D01*
X4921Y1864D01*
X4921Y1866D01*
X4922Y1869D01*
X4922Y1871D01*
X4922Y1874D01*
X4923Y1878D01*
X4923Y1882D01*
X4923Y1886D01*
X4924Y1891D01*
Y1896D01*
X4924Y1902D01*
Y1908D01*
Y1909D01*
Y1910D01*
Y1912D01*
Y1914D01*
Y1917D01*
X4924Y1920D01*
Y1923D01*
X4923Y1927D01*
X4923Y1935D01*
X4923Y1942D01*
X4922Y1946D01*
X4921Y1949D01*
X4921Y1952D01*
X4920Y1955D01*
Y1955D01*
X4920Y1955D01*
X4920Y1957D01*
X4919Y1959D01*
X4918Y1962D01*
X4917Y1965D01*
X4915Y1967D01*
X4914Y1970D01*
X4912Y1972D01*
X4912Y1972D01*
X4911Y1973D01*
X4910Y1973D01*
X4909Y1974D01*
X4907Y1975D01*
X4905Y1976D01*
X4903Y1976D01*
X4900Y1976D01*
D02*
G37*
G36*
X5016Y2213D02*
X5014D01*
X5012Y2212D01*
X5009Y2212D01*
X5006Y2210D01*
X5003Y2209D01*
X5000Y2207D01*
X4997Y2204D01*
X4996Y2204D01*
X4996Y2202D01*
X4994Y2200D01*
X4993Y2197D01*
X4991Y2194D01*
X4990Y2190D01*
X4989Y2185D01*
X4989Y2180D01*
X5044D01*
Y2180D01*
Y2181D01*
Y2181D01*
X5044Y2182D01*
X5043Y2185D01*
X5043Y2189D01*
X5042Y2193D01*
X5040Y2197D01*
X5038Y2201D01*
X5036Y2204D01*
X5035Y2204D01*
X5034Y2205D01*
X5032Y2207D01*
X5030Y2208D01*
X5027Y2210D01*
X5024Y2211D01*
X5021Y2212D01*
X5016Y2213D01*
D02*
G37*
G36*
X3744Y2212D02*
X3744D01*
X3742Y2212D01*
X3740Y2211D01*
X3737Y2210D01*
X3733Y2209D01*
X3729Y2207D01*
X3725Y2205D01*
X3722Y2201D01*
X3722Y2201D01*
X3720Y2199D01*
X3719Y2197D01*
X3718Y2194D01*
X3716Y2189D01*
X3715Y2184D01*
X3714Y2178D01*
X3713Y2170D01*
Y2170D01*
Y2169D01*
Y2168D01*
X3714Y2167D01*
Y2165D01*
X3714Y2162D01*
X3714Y2157D01*
X3715Y2152D01*
X3717Y2146D01*
X3719Y2140D01*
X3721Y2138D01*
X3722Y2136D01*
X3723Y2135D01*
X3724Y2134D01*
X3726Y2132D01*
X3729Y2130D01*
X3732Y2128D01*
X3736Y2126D01*
X3740Y2125D01*
X3745Y2125D01*
X3745D01*
X3747Y2125D01*
X3749Y2125D01*
X3752Y2126D01*
X3756Y2127D01*
X3759Y2129D01*
X3763Y2132D01*
X3766Y2135D01*
X3767Y2135D01*
X3768Y2137D01*
X3769Y2139D01*
X3771Y2143D01*
X3771Y2145D01*
X3772Y2148D01*
X3773Y2150D01*
X3773Y2154D01*
X3774Y2157D01*
X3775Y2160D01*
X3775Y2164D01*
Y2169D01*
Y2169D01*
Y2170D01*
Y2171D01*
Y2172D01*
X3775Y2174D01*
X3774Y2176D01*
X3774Y2181D01*
X3773Y2186D01*
X3771Y2192D01*
X3769Y2197D01*
X3766Y2201D01*
X3766Y2202D01*
X3764Y2203D01*
X3762Y2204D01*
X3760Y2207D01*
X3757Y2208D01*
X3753Y2210D01*
X3749Y2211D01*
X3744Y2212D01*
D02*
G37*
G36*
X3897Y2213D02*
X3895D01*
X3893Y2212D01*
X3890Y2212D01*
X3887Y2210D01*
X3884Y2209D01*
X3880Y2207D01*
X3877Y2204D01*
X3877Y2204D01*
X3876Y2202D01*
X3875Y2200D01*
X3873Y2197D01*
X3872Y2194D01*
X3871Y2190D01*
X3870Y2185D01*
X3870Y2180D01*
X3925D01*
Y2180D01*
Y2181D01*
Y2181D01*
X3924Y2182D01*
X3924Y2185D01*
X3923Y2189D01*
X3922Y2193D01*
X3921Y2197D01*
X3919Y2201D01*
X3916Y2204D01*
X3916Y2204D01*
X3915Y2205D01*
X3913Y2207D01*
X3911Y2208D01*
X3908Y2210D01*
X3905Y2211D01*
X3901Y2212D01*
X3897Y2213D01*
D02*
G37*
G36*
X3555Y2261D02*
X3552D01*
X3551Y2261D01*
X3549Y2261D01*
X3546Y2260D01*
X3541Y2259D01*
X3535Y2257D01*
X3531Y2256D01*
X3528Y2254D01*
X3525Y2252D01*
X3522Y2250D01*
X3519Y2248D01*
X3516Y2245D01*
X3516Y2244D01*
X3515Y2244D01*
X3514Y2243D01*
X3514Y2242D01*
X3513Y2240D01*
X3511Y2238D01*
X3510Y2235D01*
X3509Y2232D01*
X3507Y2229D01*
X3506Y2225D01*
X3505Y2221D01*
X3504Y2217D01*
X3503Y2212D01*
X3502Y2206D01*
X3502Y2201D01*
X3501Y2195D01*
Y2194D01*
Y2193D01*
Y2192D01*
X3502Y2189D01*
X3502Y2187D01*
X3502Y2183D01*
X3503Y2180D01*
X3503Y2176D01*
X3505Y2168D01*
X3508Y2160D01*
X3509Y2156D01*
X3511Y2152D01*
X3514Y2148D01*
X3516Y2145D01*
X3517Y2145D01*
X3517Y2144D01*
X3518Y2143D01*
X3519Y2142D01*
X3521Y2141D01*
X3523Y2140D01*
X3524Y2138D01*
X3527Y2137D01*
X3532Y2133D01*
X3539Y2131D01*
X3542Y2130D01*
X3546Y2129D01*
X3551Y2128D01*
X3555Y2128D01*
X3557D01*
X3559Y2128D01*
X3561Y2129D01*
X3563Y2129D01*
X3568Y2130D01*
X3574Y2132D01*
X3577Y2134D01*
X3581Y2135D01*
X3584Y2137D01*
X3587Y2139D01*
X3590Y2142D01*
X3593Y2145D01*
X3593Y2145D01*
X3593Y2145D01*
X3594Y2146D01*
X3595Y2148D01*
X3596Y2150D01*
X3597Y2152D01*
X3599Y2154D01*
X3600Y2157D01*
X3602Y2161D01*
X3603Y2164D01*
X3604Y2169D01*
X3606Y2173D01*
X3606Y2178D01*
X3607Y2183D01*
X3607Y2189D01*
X3608Y2195D01*
Y2195D01*
Y2197D01*
Y2198D01*
X3607Y2201D01*
X3607Y2204D01*
X3607Y2207D01*
X3607Y2210D01*
X3606Y2214D01*
X3604Y2222D01*
X3602Y2230D01*
X3600Y2234D01*
X3598Y2238D01*
X3596Y2242D01*
X3593Y2245D01*
X3593Y2245D01*
X3592Y2246D01*
X3592Y2246D01*
X3591Y2247D01*
X3589Y2249D01*
X3587Y2250D01*
X3585Y2252D01*
X3583Y2253D01*
X3580Y2255D01*
X3577Y2256D01*
X3571Y2259D01*
X3567Y2260D01*
X3563Y2260D01*
X3559Y2261D01*
X3555Y2261D01*
D02*
G37*
G36*
X4789Y2212D02*
X4788D01*
X4787Y2212D01*
X4784Y2211D01*
X4781Y2210D01*
X4778Y2209D01*
X4774Y2207D01*
X4770Y2205D01*
X4767Y2201D01*
X4766Y2201D01*
X4765Y2199D01*
X4764Y2197D01*
X4762Y2194D01*
X4761Y2189D01*
X4759Y2184D01*
X4758Y2178D01*
X4758Y2170D01*
Y2170D01*
Y2169D01*
Y2168D01*
X4758Y2167D01*
Y2165D01*
X4758Y2162D01*
X4759Y2157D01*
X4760Y2152D01*
X4762Y2146D01*
X4764Y2140D01*
X4765Y2138D01*
X4767Y2136D01*
X4768Y2135D01*
X4769Y2134D01*
X4771Y2132D01*
X4773Y2130D01*
X4777Y2128D01*
X4780Y2126D01*
X4785Y2125D01*
X4790Y2125D01*
X4790D01*
X4792Y2125D01*
X4794Y2125D01*
X4797Y2126D01*
X4800Y2127D01*
X4804Y2129D01*
X4808Y2132D01*
X4811Y2135D01*
X4811Y2135D01*
X4812Y2137D01*
X4814Y2139D01*
X4815Y2143D01*
X4816Y2145D01*
X4817Y2148D01*
X4818Y2150D01*
X4818Y2154D01*
X4819Y2157D01*
X4819Y2160D01*
X4820Y2164D01*
Y2169D01*
Y2169D01*
Y2170D01*
Y2171D01*
Y2172D01*
X4819Y2174D01*
X4819Y2176D01*
X4818Y2181D01*
X4817Y2186D01*
X4816Y2192D01*
X4814Y2197D01*
X4811Y2201D01*
X4810Y2202D01*
X4809Y2203D01*
X4807Y2204D01*
X4805Y2207D01*
X4802Y2208D01*
X4798Y2210D01*
X4794Y2211D01*
X4789Y2212D01*
D02*
G37*
%LPD*%
D28*
X355Y1345D02*
G03*
X355Y845I0J-250D01*
G01*
X2155D02*
G03*
X2155Y1345I0J250D01*
G01*
X355Y845D02*
X480D01*
Y320D02*
Y845D01*
Y320D02*
X2030D01*
X480Y1345D02*
Y1870D01*
X355Y1345D02*
X480D01*
Y1870D02*
X2030D01*
X1930Y420D02*
Y1770D01*
X580Y420D02*
Y1770D01*
Y420D02*
X1930D01*
X2030Y845D02*
X2155D01*
X2030Y320D02*
Y845D01*
X580Y1770D02*
X1930D01*
X2030Y1345D02*
Y1870D01*
Y1345D02*
X2155D01*
X850Y1100D02*
X1650D01*
D29*
X750Y950D02*
G03*
X750Y950I-10J0D01*
G01*
X5750Y200D02*
Y2400D01*
X2750Y200D02*
Y2390D01*
X612Y2437D02*
Y2500D01*
X5830Y2380D02*
Y2450D01*
Y1720D02*
Y2120D01*
Y1350D02*
Y1450D01*
Y1350D02*
X6430D01*
X5830Y2450D02*
X6430D01*
Y2210D02*
Y2450D01*
Y1350D02*
Y1930D01*
X780Y920D02*
Y1220D01*
X1720Y920D02*
Y1220D01*
Y1070D02*
X1780D01*
X720D02*
X780D01*
X1592Y1667D02*
X1566Y1692D01*
X1515D01*
X1490Y1667D01*
Y1565D01*
X1515Y1540D01*
X1566D01*
X1592Y1565D01*
X1642Y1667D02*
X1668Y1692D01*
X1719D01*
X1744Y1667D01*
Y1642D01*
X1719Y1616D01*
X1744Y1591D01*
Y1565D01*
X1719Y1540D01*
X1668D01*
X1642Y1565D01*
Y1591D01*
X1668Y1616D01*
X1642Y1642D01*
Y1667D01*
X1668Y1616D02*
X1719D01*
X6950Y702D02*
X7052D01*
X7001D01*
Y550D01*
X7102Y702D02*
X7204Y550D01*
Y702D02*
X7102Y550D01*
X7062Y402D02*
X6960D01*
Y250D01*
X7062D01*
X6960Y326D02*
X7011D01*
X7112Y250D02*
Y402D01*
X7214Y250D01*
Y402D01*
X7366Y377D02*
X7341Y402D01*
X7290D01*
X7265Y377D01*
Y275D01*
X7290Y250D01*
X7341D01*
X7366Y275D01*
X7493Y402D02*
X7442D01*
X7417Y377D01*
Y275D01*
X7442Y250D01*
X7493D01*
X7519Y275D01*
Y377D01*
X7493Y402D01*
X7569D02*
Y250D01*
X7646D01*
X7671Y275D01*
Y377D01*
X7646Y402D01*
X7569D01*
X7823D02*
X7722D01*
Y250D01*
X7823D01*
X7722Y326D02*
X7773D01*
X7874Y250D02*
Y402D01*
X7950D01*
X7976Y377D01*
Y326D01*
X7950Y301D01*
X7874D01*
X7925D02*
X7976Y250D01*
X6230Y1110D02*
Y1262D01*
X6306D01*
X6332Y1237D01*
Y1186D01*
X6306Y1161D01*
X6230D01*
X6382Y1262D02*
Y1110D01*
X6433Y1161D01*
X6484Y1110D01*
Y1262D01*
X6535Y1110D02*
Y1262D01*
X6611D01*
X6636Y1237D01*
Y1186D01*
X6611Y1161D01*
X6535D01*
X6585D02*
X6636Y1110D01*
X6687Y1186D02*
X6789D01*
X6738Y1237D02*
Y1135D01*
X6332Y997D02*
X6306Y1022D01*
X6255D01*
X6230Y997D01*
Y895D01*
X6255Y870D01*
X6306D01*
X6332Y895D01*
Y946D01*
X6281D01*
X6382Y870D02*
Y1022D01*
X6484Y870D01*
Y1022D01*
X6535D02*
Y870D01*
X6611D01*
X6636Y895D01*
Y997D01*
X6611Y1022D01*
X6535D01*
X1190Y2210D02*
Y2362D01*
X1266D01*
X1292Y2337D01*
Y2286D01*
X1266Y2261D01*
X1190D01*
X1241D02*
X1292Y2210D01*
X1342Y2337D02*
X1368Y2362D01*
X1419D01*
X1444Y2337D01*
Y2312D01*
X1419Y2286D01*
X1393D01*
X1419D01*
X1444Y2261D01*
Y2235D01*
X1419Y2210D01*
X1368D01*
X1342Y2235D01*
X6890Y1350D02*
Y1502D01*
X6966D01*
X6992Y1477D01*
Y1426D01*
X6966Y1401D01*
X6890D01*
X6941D02*
X6992Y1350D01*
X7119D02*
Y1502D01*
X7042Y1426D01*
X7144D01*
X6880Y970D02*
Y1122D01*
X6956D01*
X6982Y1097D01*
Y1046D01*
X6956Y1021D01*
X6880D01*
X6931D02*
X6982Y970D01*
X7134Y1122D02*
X7032D01*
Y1046D01*
X7083Y1072D01*
X7109D01*
X7134Y1046D01*
Y995D01*
X7109Y970D01*
X7058D01*
X7032Y995D01*
X540Y2362D02*
Y2210D01*
X642D01*
X794Y2362D02*
X692D01*
Y2210D01*
X794D01*
X692Y2286D02*
X743D01*
X845Y2362D02*
Y2210D01*
X921D01*
X946Y2235D01*
Y2337D01*
X921Y2362D01*
X845D01*
X997Y2210D02*
X1048D01*
X1022D01*
Y2362D01*
X997Y2337D01*
D30*
X1245Y2429D02*
X1275D01*
X1245Y2511D02*
X1275D01*
X1452Y1362D02*
Y1458D01*
X1488Y1362D02*
Y1458D01*
X6985Y829D02*
X7015D01*
X6985Y911D02*
X7015D01*
X6985Y1209D02*
X7015D01*
X6985Y1291D02*
X7015D01*
M02*
