G04 Layer_Color=16711935*
%FSLAX42Y42*%
%MOMM*%
G71*
G01*
G75*
G04:AMPARAMS|DCode=39|XSize=1.2mm|YSize=1.1mm|CornerRadius=0.21mm|HoleSize=0mm|Usage=FLASHONLY|Rotation=90.000|XOffset=0mm|YOffset=0mm|HoleType=Round|Shape=RoundedRectangle|*
%AMROUNDEDRECTD39*
21,1,1.20,0.68,0,0,90.0*
21,1,0.78,1.10,0,0,90.0*
1,1,0.43,0.34,0.39*
1,1,0.43,0.34,-0.39*
1,1,0.43,-0.34,-0.39*
1,1,0.43,-0.34,0.39*
%
%ADD39ROUNDEDRECTD39*%
%ADD40R,3.20X2.20*%
%ADD43C,1.40*%
%ADD44C,4.70*%
%ADD45C,3.70*%
%ADD46C,1.80*%
%ADD47C,1.70*%
%ADD48R,1.70X1.70*%
%ADD49R,1.40X1.40*%
%ADD50C,1.73*%
%ADD51C,1.20*%
%ADD52C,1.47*%
%ADD53C,1.00*%
G04:AMPARAMS|DCode=54|XSize=1.2mm|YSize=1.1mm|CornerRadius=0.21mm|HoleSize=0mm|Usage=FLASHONLY|Rotation=0.000|XOffset=0mm|YOffset=0mm|HoleType=Round|Shape=RoundedRectangle|*
%AMROUNDEDRECTD54*
21,1,1.20,0.68,0,0,0.0*
21,1,0.78,1.10,0,0,0.0*
1,1,0.43,0.39,-0.34*
1,1,0.43,-0.39,-0.34*
1,1,0.43,-0.39,0.34*
1,1,0.43,0.39,0.34*
%
%ADD54ROUNDEDRECTD54*%
%ADD55R,2.60X1.50*%
G04:AMPARAMS|DCode=56|XSize=1.6mm|YSize=1.2mm|CornerRadius=0.23mm|HoleSize=0mm|Usage=FLASHONLY|Rotation=90.000|XOffset=0mm|YOffset=0mm|HoleType=Round|Shape=RoundedRectangle|*
%AMROUNDEDRECTD56*
21,1,1.60,0.75,0,0,90.0*
21,1,1.15,1.20,0,0,90.0*
1,1,0.45,0.38,0.57*
1,1,0.45,0.38,-0.57*
1,1,0.45,-0.38,-0.57*
1,1,0.45,-0.38,0.57*
%
%ADD56ROUNDEDRECTD56*%
%ADD57O,0.65X1.75*%
G04:AMPARAMS|DCode=58|XSize=0.8mm|YSize=1.2mm|CornerRadius=0.18mm|HoleSize=0mm|Usage=FLASHONLY|Rotation=90.000|XOffset=0mm|YOffset=0mm|HoleType=Round|Shape=RoundedRectangle|*
%AMROUNDEDRECTD58*
21,1,0.80,0.85,0,0,90.0*
21,1,0.45,1.20,0,0,90.0*
1,1,0.35,0.42,0.23*
1,1,0.35,0.42,-0.23*
1,1,0.35,-0.42,-0.23*
1,1,0.35,-0.42,0.23*
%
%ADD58ROUNDEDRECTD58*%
%ADD59R,2.20X3.20*%
G04:AMPARAMS|DCode=60|XSize=2mm|YSize=1.35mm|CornerRadius=0.25mm|HoleSize=0mm|Usage=FLASHONLY|Rotation=0.000|XOffset=0mm|YOffset=0mm|HoleType=Round|Shape=RoundedRectangle|*
%AMROUNDEDRECTD60*
21,1,2.00,0.86,0,0,0.0*
21,1,1.51,1.35,0,0,0.0*
1,1,0.49,0.76,-0.43*
1,1,0.49,-0.76,-0.43*
1,1,0.49,-0.76,0.43*
1,1,0.49,0.76,0.43*
%
%ADD60ROUNDEDRECTD60*%
%ADD61R,2.00X1.30*%
G04:AMPARAMS|DCode=62|XSize=1.6mm|YSize=1.2mm|CornerRadius=0.23mm|HoleSize=0mm|Usage=FLASHONLY|Rotation=180.000|XOffset=0mm|YOffset=0mm|HoleType=Round|Shape=RoundedRectangle|*
%AMROUNDEDRECTD62*
21,1,1.60,0.75,0,0,180.0*
21,1,1.15,1.20,0,0,180.0*
1,1,0.45,-0.57,0.38*
1,1,0.45,0.57,0.38*
1,1,0.45,0.57,-0.38*
1,1,0.45,-0.57,-0.38*
%
%ADD62ROUNDEDRECTD62*%
D39*
X2405Y1450D02*
D03*
X2575D02*
D03*
X1945Y590D02*
D03*
X2115D02*
D03*
D40*
X8780Y1740D02*
D03*
X9130Y1620D02*
D03*
X9700D02*
D03*
X8780Y2000D02*
D03*
X8780Y170D02*
D03*
X9680D02*
D03*
X8780Y1150D02*
D03*
Y1400D02*
D03*
X9680Y540D02*
D03*
D43*
X5960Y1030D02*
D03*
X2580Y430D02*
D03*
X5960Y480D02*
D03*
X2590Y900D02*
D03*
X5960Y240D02*
D03*
X2600Y1268D02*
D03*
X6350Y750D02*
D03*
X6000D02*
D03*
X8730Y390D02*
D03*
Y644D02*
D03*
X9690Y990D02*
D03*
Y1340D02*
D03*
X6540Y1350D02*
D03*
X1740Y700D02*
D03*
D44*
X4200Y1500D02*
D03*
Y500D02*
D03*
D45*
X300Y2300D02*
D03*
X8200Y2270D02*
D03*
X7000D02*
D03*
X8800Y2350D02*
D03*
X2158Y1095D02*
D03*
X358D02*
D03*
D46*
X5885Y1580D02*
D03*
Y2250D02*
D03*
X6375Y2070D02*
D03*
D47*
X5092Y2390D02*
D03*
X5346D02*
D03*
D48*
X5600D02*
D03*
D49*
X8730Y898D02*
D03*
D50*
X9667Y527D02*
D03*
X9440Y2380D02*
D03*
X8780Y1400D02*
D03*
Y1150D02*
D03*
X9680Y170D02*
D03*
D51*
X2350D02*
D03*
X2420Y2130D02*
D03*
X2085Y1465D02*
D03*
X1120Y2000D02*
D03*
X1615Y2055D02*
D03*
X1560Y2450D02*
D03*
X1920D02*
D03*
X2280D02*
D03*
X2660D02*
D03*
X3050D02*
D03*
X4190D02*
D03*
X3800D02*
D03*
X3443Y2453D02*
D03*
X3060Y170D02*
D03*
X3530D02*
D03*
X4010D02*
D03*
X4520D02*
D03*
X4950D02*
D03*
X5440D02*
D03*
X8274Y697D02*
D03*
Y1087D02*
D03*
Y1427D02*
D03*
Y1787D02*
D03*
X1330Y2290D02*
D03*
X860Y820D02*
D03*
X5510Y1580D02*
D03*
X5500Y1250D02*
D03*
X1920Y1590D02*
D03*
X2270D02*
D03*
X667Y513D02*
D03*
Y1683D02*
D03*
X9413Y1800D02*
D03*
D52*
X8274Y337D02*
D03*
D53*
X1300Y1520D02*
D03*
X1240Y940D02*
D03*
X1360Y635D02*
D03*
D54*
X1270Y2055D02*
D03*
Y1885D02*
D03*
X1170Y805D02*
D03*
Y635D02*
D03*
X1010Y805D02*
D03*
Y635D02*
D03*
X1360Y805D02*
D03*
Y635D02*
D03*
X1930Y245D02*
D03*
Y415D02*
D03*
X1030Y405D02*
D03*
Y235D02*
D03*
X9280Y1900D02*
D03*
Y2070D02*
D03*
X9040Y195D02*
D03*
Y365D02*
D03*
X9190Y365D02*
D03*
Y195D02*
D03*
D55*
X1260Y210D02*
D03*
X1700D02*
D03*
Y450D02*
D03*
X1260D02*
D03*
D56*
X6150Y1620D02*
D03*
X6330D02*
D03*
X6390Y1020D02*
D03*
X6210D02*
D03*
D57*
X1062Y1670D02*
D03*
X998D02*
D03*
X1193D02*
D03*
X1127D02*
D03*
X1258D02*
D03*
X1322D02*
D03*
X998Y1090D02*
D03*
X1127D02*
D03*
X1062D02*
D03*
X1258D02*
D03*
X1193D02*
D03*
X1322D02*
D03*
X1387Y1670D02*
D03*
X1453D02*
D03*
X1518D02*
D03*
X1582D02*
D03*
X1453Y1090D02*
D03*
X1387D02*
D03*
X1582D02*
D03*
X1518D02*
D03*
D58*
X6360Y1225D02*
D03*
Y1415D02*
D03*
X6100Y1225D02*
D03*
Y1320D02*
D03*
Y1415D02*
D03*
X8990Y535D02*
D03*
X9250Y725D02*
D03*
Y630D02*
D03*
Y535D02*
D03*
X8990Y725D02*
D03*
D59*
X9150Y2380D02*
D03*
X9440D02*
D03*
X9720D02*
D03*
D60*
X9420Y1340D02*
D03*
Y1040D02*
D03*
D61*
X9160Y1150D02*
D03*
Y880D02*
D03*
D62*
X9390Y140D02*
D03*
Y320D02*
D03*
M02*
