M48
;Layer_Color=9474304
;FILE_FORMAT=4:2
METRIC,LZ
;TYPE=PLATED
T1F00S00C0.40
T2F00S00C0.50
T3F00S00C0.60
T4F00S00C0.70
T5F00S00C0.80
T6F00S00C0.90
T7F00S00C1.00
T8F00S00C2.20
T9F00S00C2.50
T10F00S00C3.50
%
T01
X00136Y000635
X00124Y00094
X0013Y00152
T02
X000667Y000513
Y001683
X00112Y002
X00133Y00229
X00156Y00245
X00192
X00228
X00266
X00305
X003443Y002453
X0038Y00245
X00419
X00242Y00213
X00227Y00159
X002085Y001465
X00192Y00159
X001615Y002055
X00086Y00082
X00235Y00017
X00306
X00353
X00401
X00452
X00495
X00544
X0055Y00125
X00551Y00158
X008274Y001427
Y001087
Y000697
Y001787
X009413Y0018
T03
X00174Y0007
X00259Y0009
X0026Y001268
X00258Y00043
X00596Y00048
Y00024
X006Y00075
X00596Y00103
X00635Y00075
X00654Y00135
X00969Y00134
Y00099
T04
X008274Y000337
X00873Y00039
Y000644
Y000898
T05
X00968Y00017
X009667Y000527
X00878Y00115
Y0014
X00944Y00238
T06
X005092Y00239
X005346
X0056
T07
X005885Y00158
Y00225
X006375Y00207
T08
X000358Y001095
X002158
T09
X0003Y0023
X007Y00227
X0082
X0088Y00235
T10
X0042Y0005
Y0015
M30
