G04 Layer_Color=32896*
%FSLAX42Y42*%
%MOMM*%
G71*
G01*
G75*
%ADD15C,0.50*%
%ADD36C,0.25*%
%ADD37C,0.20*%
%ADD38C,0.13*%
%ADD63C,0.60*%
G36*
X9500Y2058D02*
X9423D01*
X9500Y2007D01*
Y1994D01*
X9402D01*
Y2006D01*
X9479D01*
X9402Y2057D01*
Y2071D01*
X9500D01*
Y2058D01*
D02*
G37*
G36*
X9457Y2180D02*
X9462Y2179D01*
X9464Y2179D01*
X9466Y2178D01*
X9468Y2178D01*
X9470Y2177D01*
X9472Y2176D01*
X9473Y2176D01*
X9475Y2175D01*
X9476Y2175D01*
X9477Y2175D01*
X9477Y2174D01*
X9478Y2174D01*
X9478D01*
X9482Y2172D01*
X9485Y2169D01*
X9489Y2166D01*
X9491Y2163D01*
X9493Y2160D01*
X9494Y2159D01*
X9495Y2158D01*
X9495Y2157D01*
X9495Y2157D01*
X9495Y2156D01*
X9496Y2156D01*
X9497Y2154D01*
X9498Y2152D01*
X9499Y2147D01*
X9500Y2143D01*
X9501Y2139D01*
X9501Y2137D01*
X9501Y2135D01*
X9502Y2134D01*
Y2132D01*
X9502Y2132D01*
Y2131D01*
Y2130D01*
Y2130D01*
X9502Y2126D01*
X9501Y2122D01*
X9500Y2119D01*
X9500Y2116D01*
X9499Y2114D01*
X9499Y2113D01*
X9499Y2112D01*
X9498Y2111D01*
X9498Y2110D01*
X9498Y2110D01*
X9498Y2110D01*
Y2109D01*
X9496Y2106D01*
X9495Y2102D01*
X9493Y2099D01*
X9491Y2096D01*
X9490Y2094D01*
X9489Y2093D01*
X9488Y2092D01*
X9488Y2091D01*
X9487Y2091D01*
X9487Y2090D01*
X9487Y2090D01*
X9486Y2090D01*
X9450D01*
Y2131D01*
X9462D01*
Y2102D01*
X9480D01*
X9482Y2104D01*
X9483Y2106D01*
X9484Y2108D01*
X9485Y2110D01*
X9486Y2112D01*
X9486Y2113D01*
X9487Y2114D01*
X9487Y2114D01*
X9487Y2114D01*
Y2115D01*
X9488Y2118D01*
X9489Y2121D01*
X9489Y2123D01*
X9490Y2126D01*
X9490Y2128D01*
Y2129D01*
X9490Y2130D01*
Y2130D01*
Y2131D01*
Y2131D01*
Y2131D01*
X9490Y2134D01*
X9489Y2138D01*
X9489Y2141D01*
X9488Y2144D01*
X9487Y2146D01*
X9487Y2147D01*
X9487Y2148D01*
X9486Y2148D01*
X9486Y2149D01*
X9486Y2149D01*
Y2149D01*
X9484Y2152D01*
X9482Y2155D01*
X9480Y2157D01*
X9478Y2159D01*
X9476Y2161D01*
X9474Y2162D01*
X9474Y2162D01*
X9473Y2162D01*
X9473Y2162D01*
X9473D01*
X9469Y2164D01*
X9466Y2165D01*
X9462Y2166D01*
X9459Y2166D01*
X9457Y2166D01*
X9456Y2166D01*
X9454Y2167D01*
X9453D01*
X9452Y2167D01*
X9451D01*
X9447Y2167D01*
X9443Y2166D01*
X9440Y2166D01*
X9437Y2165D01*
X9436Y2165D01*
X9435Y2164D01*
X9434Y2164D01*
X9433Y2164D01*
X9432Y2163D01*
X9432Y2163D01*
X9431Y2163D01*
X9431D01*
X9429Y2162D01*
X9428Y2161D01*
X9426Y2160D01*
X9424Y2159D01*
X9423Y2158D01*
X9422Y2158D01*
X9422Y2157D01*
X9422Y2157D01*
X9420Y2155D01*
X9419Y2154D01*
X9418Y2152D01*
X9416Y2150D01*
X9416Y2149D01*
X9415Y2148D01*
X9415Y2147D01*
X9415Y2146D01*
X9414Y2144D01*
X9413Y2141D01*
X9412Y2139D01*
X9412Y2136D01*
X9412Y2134D01*
Y2133D01*
X9412Y2133D01*
Y2132D01*
Y2132D01*
Y2131D01*
Y2131D01*
X9412Y2128D01*
X9412Y2126D01*
X9413Y2124D01*
X9413Y2122D01*
X9414Y2120D01*
X9414Y2119D01*
X9414Y2118D01*
X9414Y2118D01*
X9415Y2116D01*
X9417Y2114D01*
X9418Y2112D01*
X9419Y2111D01*
X9420Y2110D01*
X9420Y2109D01*
X9421Y2109D01*
X9421Y2108D01*
X9423Y2107D01*
X9425Y2106D01*
X9427Y2105D01*
X9429Y2104D01*
X9430Y2104D01*
X9432Y2103D01*
X9432Y2103D01*
X9433Y2103D01*
X9433Y2103D01*
X9433D01*
X9430Y2091D01*
X9426Y2092D01*
X9423Y2093D01*
X9420Y2095D01*
X9418Y2096D01*
X9416Y2097D01*
X9415Y2098D01*
X9414Y2098D01*
X9414Y2099D01*
X9412Y2101D01*
X9410Y2103D01*
X9408Y2105D01*
X9407Y2107D01*
X9406Y2109D01*
X9405Y2111D01*
X9405Y2111D01*
X9404Y2112D01*
X9404Y2112D01*
Y2112D01*
X9403Y2115D01*
X9402Y2119D01*
X9402Y2122D01*
X9401Y2125D01*
X9401Y2127D01*
Y2129D01*
X9401Y2129D01*
Y2130D01*
Y2131D01*
Y2131D01*
Y2131D01*
Y2134D01*
X9401Y2136D01*
X9402Y2141D01*
X9402Y2144D01*
X9403Y2146D01*
X9403Y2148D01*
X9404Y2150D01*
X9404Y2151D01*
X9405Y2153D01*
X9405Y2154D01*
X9406Y2155D01*
X9406Y2156D01*
X9407Y2156D01*
X9407Y2157D01*
X9407Y2157D01*
X9408Y2159D01*
X9409Y2161D01*
X9412Y2164D01*
X9415Y2167D01*
X9418Y2170D01*
X9421Y2172D01*
X9422Y2172D01*
X9423Y2173D01*
X9424Y2174D01*
X9425Y2174D01*
X9425Y2174D01*
X9425Y2174D01*
X9430Y2176D01*
X9435Y2177D01*
X9439Y2179D01*
X9441Y2179D01*
X9443Y2179D01*
X9445Y2179D01*
X9447Y2180D01*
X9448Y2180D01*
X9449D01*
X9450Y2180D01*
X9452D01*
X9457Y2180D01*
D02*
G37*
G36*
X9500Y1937D02*
X9500Y1934D01*
X9500Y1931D01*
X9499Y1928D01*
X9499Y1926D01*
X9499Y1924D01*
X9499Y1923D01*
X9499Y1922D01*
X9498Y1922D01*
Y1922D01*
Y1921D01*
X9498Y1919D01*
X9497Y1917D01*
X9496Y1915D01*
X9495Y1913D01*
X9495Y1912D01*
X9494Y1911D01*
X9494Y1910D01*
X9494Y1910D01*
X9492Y1908D01*
X9491Y1906D01*
X9489Y1905D01*
X9488Y1904D01*
X9487Y1902D01*
X9486Y1902D01*
X9485Y1901D01*
X9485Y1901D01*
X9482Y1899D01*
X9480Y1898D01*
X9478Y1897D01*
X9475Y1896D01*
X9473Y1895D01*
X9472Y1895D01*
X9471Y1895D01*
X9471Y1894D01*
X9471Y1894D01*
X9471D01*
X9467Y1893D01*
X9464Y1893D01*
X9461Y1892D01*
X9457Y1892D01*
X9455Y1892D01*
X9454D01*
X9453Y1892D01*
X9451D01*
X9446Y1892D01*
X9442Y1892D01*
X9438Y1893D01*
X9436Y1893D01*
X9434Y1894D01*
X9433Y1894D01*
X9431Y1894D01*
X9430Y1895D01*
X9429Y1895D01*
X9429Y1895D01*
X9428Y1895D01*
X9428Y1896D01*
X9428D01*
X9424Y1897D01*
X9421Y1899D01*
X9418Y1901D01*
X9415Y1903D01*
X9413Y1904D01*
X9412Y1906D01*
X9412Y1906D01*
X9411Y1907D01*
X9411Y1907D01*
X9411Y1907D01*
X9409Y1909D01*
X9408Y1912D01*
X9406Y1914D01*
X9405Y1916D01*
X9405Y1918D01*
X9404Y1920D01*
X9404Y1920D01*
Y1921D01*
X9404Y1921D01*
Y1921D01*
X9403Y1924D01*
X9403Y1927D01*
X9403Y1929D01*
X9403Y1932D01*
X9402Y1935D01*
Y1936D01*
Y1937D01*
Y1938D01*
Y1938D01*
Y1939D01*
Y1939D01*
Y1972D01*
X9500D01*
Y1937D01*
D02*
G37*
G36*
X9752Y1760D02*
X9739D01*
X9728Y1790D01*
X9687D01*
X9676Y1760D01*
X9661D01*
X9701Y1858D01*
X9715D01*
X9752Y1760D01*
D02*
G37*
G36*
X9840D02*
X9805D01*
X9802Y1760D01*
X9799Y1760D01*
X9796Y1761D01*
X9794Y1761D01*
X9792Y1761D01*
X9790Y1761D01*
X9790Y1761D01*
X9790Y1762D01*
X9789D01*
X9787Y1762D01*
X9784Y1763D01*
X9782Y1764D01*
X9781Y1765D01*
X9779Y1765D01*
X9778Y1766D01*
X9778Y1766D01*
X9778Y1766D01*
X9776Y1768D01*
X9774Y1769D01*
X9773Y1771D01*
X9771Y1772D01*
X9770Y1773D01*
X9769Y1774D01*
X9769Y1775D01*
X9769Y1775D01*
X9767Y1778D01*
X9766Y1780D01*
X9765Y1782D01*
X9764Y1785D01*
X9763Y1787D01*
X9762Y1788D01*
X9762Y1789D01*
X9762Y1789D01*
X9762Y1789D01*
Y1789D01*
X9761Y1793D01*
X9760Y1796D01*
X9760Y1799D01*
X9760Y1803D01*
X9760Y1805D01*
Y1806D01*
X9759Y1807D01*
Y1808D01*
Y1809D01*
Y1809D01*
Y1809D01*
X9760Y1814D01*
X9760Y1818D01*
X9761Y1822D01*
X9761Y1824D01*
X9761Y1826D01*
X9762Y1827D01*
X9762Y1829D01*
X9762Y1830D01*
X9763Y1831D01*
X9763Y1831D01*
X9763Y1832D01*
X9763Y1832D01*
Y1832D01*
X9765Y1836D01*
X9767Y1839D01*
X9769Y1842D01*
X9771Y1845D01*
X9772Y1847D01*
X9774Y1848D01*
X9774Y1848D01*
X9775Y1849D01*
X9775Y1849D01*
X9775Y1849D01*
X9777Y1851D01*
X9780Y1852D01*
X9782Y1854D01*
X9784Y1855D01*
X9786Y1855D01*
X9788Y1856D01*
X9788Y1856D01*
X9789D01*
X9789Y1856D01*
X9789D01*
X9792Y1857D01*
X9794Y1857D01*
X9797Y1857D01*
X9800Y1857D01*
X9803Y1858D01*
X9840D01*
Y1760D01*
D02*
G37*
G36*
X9190Y2117D02*
X9178D01*
Y2177D01*
X9145D01*
Y2123D01*
X9134D01*
Y2177D01*
X9104D01*
Y2119D01*
X9092D01*
Y2190D01*
X9190D01*
Y2117D01*
D02*
G37*
G36*
X5130Y1977D02*
X5130Y1974D01*
X5130Y1971D01*
X5129Y1968D01*
X5129Y1966D01*
X5129Y1964D01*
X5129Y1963D01*
X5129Y1962D01*
X5128Y1962D01*
Y1962D01*
Y1961D01*
X5128Y1959D01*
X5127Y1957D01*
X5126Y1955D01*
X5125Y1953D01*
X5125Y1952D01*
X5124Y1951D01*
X5124Y1950D01*
X5124Y1950D01*
X5122Y1948D01*
X5121Y1946D01*
X5119Y1945D01*
X5118Y1944D01*
X5117Y1942D01*
X5116Y1942D01*
X5115Y1941D01*
X5115Y1941D01*
X5112Y1939D01*
X5110Y1938D01*
X5108Y1937D01*
X5105Y1936D01*
X5103Y1935D01*
X5102Y1935D01*
X5101Y1935D01*
X5101Y1934D01*
X5101Y1934D01*
X5101D01*
X5097Y1933D01*
X5094Y1933D01*
X5091Y1932D01*
X5087Y1932D01*
X5085Y1932D01*
X5084D01*
X5083Y1932D01*
X5081D01*
X5076Y1932D01*
X5072Y1932D01*
X5068Y1933D01*
X5066Y1933D01*
X5064Y1934D01*
X5063Y1934D01*
X5061Y1934D01*
X5060Y1935D01*
X5059Y1935D01*
X5059Y1935D01*
X5058Y1935D01*
X5058Y1936D01*
X5058D01*
X5054Y1937D01*
X5051Y1939D01*
X5048Y1941D01*
X5045Y1943D01*
X5043Y1944D01*
X5042Y1946D01*
X5042Y1946D01*
X5041Y1947D01*
X5041Y1947D01*
X5041Y1947D01*
X5039Y1949D01*
X5038Y1952D01*
X5036Y1954D01*
X5035Y1956D01*
X5035Y1958D01*
X5034Y1960D01*
X5034Y1960D01*
Y1961D01*
X5034Y1961D01*
Y1961D01*
X5033Y1964D01*
X5033Y1967D01*
X5033Y1969D01*
X5033Y1972D01*
X5032Y1975D01*
Y1976D01*
Y1977D01*
Y1978D01*
Y1978D01*
Y1979D01*
Y1979D01*
Y2012D01*
X5130D01*
Y1977D01*
D02*
G37*
G36*
X9190Y2087D02*
X9113D01*
X9190Y2036D01*
Y2023D01*
X9092D01*
Y2035D01*
X9169D01*
X9092Y2086D01*
Y2099D01*
X9190D01*
Y2087D01*
D02*
G37*
G36*
X9146Y1868D02*
X9151Y1867D01*
X9155Y1867D01*
X9157Y1866D01*
X9159Y1866D01*
X9161Y1865D01*
X9162Y1865D01*
X9163Y1864D01*
X9165Y1864D01*
X9165Y1864D01*
X9166Y1864D01*
X9167Y1863D01*
X9167D01*
X9171Y1861D01*
X9175Y1859D01*
X9178Y1856D01*
X9179Y1855D01*
X9181Y1854D01*
X9182Y1853D01*
X9183Y1852D01*
X9184Y1851D01*
X9184Y1850D01*
X9185Y1849D01*
X9185Y1849D01*
X9185Y1848D01*
X9185Y1848D01*
X9186Y1846D01*
X9187Y1844D01*
X9189Y1840D01*
X9190Y1836D01*
X9191Y1832D01*
X9191Y1830D01*
X9191Y1828D01*
X9192Y1826D01*
Y1825D01*
X9192Y1824D01*
Y1823D01*
Y1823D01*
Y1822D01*
X9192Y1820D01*
X9191Y1817D01*
X9191Y1814D01*
X9190Y1812D01*
X9190Y1810D01*
X9189Y1808D01*
X9188Y1806D01*
X9187Y1804D01*
X9187Y1802D01*
X9186Y1801D01*
X9185Y1800D01*
X9185Y1799D01*
X9184Y1798D01*
X9184Y1797D01*
X9184Y1797D01*
X9183Y1797D01*
X9182Y1795D01*
X9180Y1793D01*
X9178Y1791D01*
X9176Y1790D01*
X9172Y1787D01*
X9168Y1785D01*
X9166Y1785D01*
X9165Y1784D01*
X9163Y1783D01*
X9162Y1783D01*
X9161Y1782D01*
X9160Y1782D01*
X9159Y1782D01*
X9159D01*
X9156Y1795D01*
X9158Y1796D01*
X9160Y1796D01*
X9162Y1797D01*
X9164Y1798D01*
X9166Y1799D01*
X9167Y1799D01*
X9169Y1800D01*
X9170Y1801D01*
X9171Y1802D01*
X9172Y1803D01*
X9173Y1803D01*
X9173Y1804D01*
X9174Y1805D01*
X9174Y1805D01*
X9174Y1805D01*
X9174Y1805D01*
X9176Y1807D01*
X9176Y1808D01*
X9178Y1811D01*
X9179Y1814D01*
X9180Y1817D01*
X9180Y1820D01*
X9181Y1821D01*
Y1822D01*
X9181Y1823D01*
Y1823D01*
Y1823D01*
Y1824D01*
X9181Y1827D01*
X9180Y1830D01*
X9179Y1833D01*
X9178Y1835D01*
X9178Y1837D01*
X9177Y1838D01*
X9177Y1839D01*
X9177Y1839D01*
X9176Y1840D01*
X9176Y1840D01*
Y1840D01*
X9174Y1843D01*
X9172Y1845D01*
X9170Y1847D01*
X9167Y1849D01*
X9165Y1850D01*
X9164Y1851D01*
X9163Y1851D01*
X9163Y1851D01*
X9162Y1852D01*
X9162D01*
X9159Y1853D01*
X9155Y1854D01*
X9151Y1854D01*
X9148Y1855D01*
X9146Y1855D01*
X9145Y1855D01*
X9144D01*
X9143Y1855D01*
X9141D01*
X9137Y1855D01*
X9133Y1855D01*
X9130Y1854D01*
X9128Y1854D01*
X9125Y1853D01*
X9124Y1853D01*
X9123Y1853D01*
X9123Y1852D01*
X9122Y1852D01*
X9122Y1852D01*
X9122D01*
X9119Y1851D01*
X9116Y1849D01*
X9113Y1847D01*
X9111Y1846D01*
X9109Y1844D01*
X9108Y1843D01*
X9108Y1842D01*
X9107Y1842D01*
Y1842D01*
X9105Y1839D01*
X9104Y1835D01*
X9103Y1832D01*
X9102Y1829D01*
X9102Y1827D01*
X9102Y1825D01*
Y1824D01*
X9102Y1824D01*
Y1823D01*
Y1823D01*
Y1823D01*
X9102Y1819D01*
X9102Y1816D01*
X9103Y1813D01*
X9104Y1811D01*
X9105Y1809D01*
X9106Y1808D01*
X9106Y1807D01*
X9107Y1806D01*
X9109Y1804D01*
X9111Y1802D01*
X9114Y1800D01*
X9116Y1799D01*
X9119Y1798D01*
X9120Y1797D01*
X9121Y1797D01*
X9121Y1797D01*
X9122Y1797D01*
X9122Y1796D01*
X9122D01*
X9119Y1784D01*
X9117Y1785D01*
X9114Y1785D01*
X9112Y1787D01*
X9110Y1788D01*
X9108Y1789D01*
X9107Y1790D01*
X9105Y1791D01*
X9104Y1792D01*
X9102Y1793D01*
X9101Y1794D01*
X9100Y1795D01*
X9100Y1796D01*
X9099Y1797D01*
X9099Y1797D01*
X9098Y1798D01*
X9098Y1798D01*
X9097Y1800D01*
X9096Y1802D01*
X9095Y1804D01*
X9094Y1806D01*
X9093Y1810D01*
X9092Y1814D01*
X9091Y1816D01*
X9091Y1817D01*
X9091Y1819D01*
X9091Y1820D01*
X9091Y1821D01*
Y1822D01*
Y1822D01*
Y1822D01*
X9091Y1827D01*
X9092Y1832D01*
X9093Y1835D01*
X9093Y1837D01*
X9094Y1839D01*
X9094Y1841D01*
X9095Y1842D01*
X9095Y1843D01*
X9096Y1844D01*
X9096Y1845D01*
X9096Y1845D01*
X9097Y1846D01*
X9097Y1846D01*
X9099Y1850D01*
X9102Y1853D01*
X9105Y1856D01*
X9108Y1858D01*
X9110Y1860D01*
X9111Y1861D01*
X9112Y1861D01*
X9113Y1862D01*
X9113Y1862D01*
X9114Y1862D01*
X9114Y1863D01*
X9118Y1865D01*
X9123Y1866D01*
X9127Y1867D01*
X9131Y1868D01*
X9133Y1868D01*
X9135Y1868D01*
X9137Y1868D01*
X9138D01*
X9139Y1868D01*
X9141D01*
X9146Y1868D01*
D02*
G37*
G36*
Y2004D02*
X9151Y2004D01*
X9155Y2003D01*
X9157Y2003D01*
X9159Y2002D01*
X9161Y2002D01*
X9162Y2001D01*
X9163Y2001D01*
X9165Y2000D01*
X9165Y2000D01*
X9166Y2000D01*
X9167Y2000D01*
X9167D01*
X9171Y1997D01*
X9175Y1995D01*
X9178Y1993D01*
X9179Y1991D01*
X9181Y1990D01*
X9182Y1989D01*
X9183Y1988D01*
X9184Y1987D01*
X9184Y1986D01*
X9185Y1985D01*
X9185Y1985D01*
X9185Y1985D01*
X9185Y1984D01*
X9186Y1982D01*
X9187Y1981D01*
X9189Y1976D01*
X9190Y1972D01*
X9191Y1968D01*
X9191Y1966D01*
X9191Y1964D01*
X9192Y1963D01*
Y1961D01*
X9192Y1960D01*
Y1960D01*
Y1959D01*
Y1959D01*
X9192Y1956D01*
X9191Y1953D01*
X9191Y1951D01*
X9190Y1948D01*
X9190Y1946D01*
X9189Y1944D01*
X9188Y1942D01*
X9187Y1940D01*
X9187Y1939D01*
X9186Y1937D01*
X9185Y1936D01*
X9185Y1935D01*
X9184Y1934D01*
X9184Y1933D01*
X9184Y1933D01*
X9183Y1933D01*
X9182Y1931D01*
X9180Y1929D01*
X9178Y1928D01*
X9176Y1926D01*
X9172Y1924D01*
X9168Y1922D01*
X9166Y1921D01*
X9165Y1920D01*
X9163Y1920D01*
X9162Y1919D01*
X9161Y1919D01*
X9160Y1918D01*
X9159Y1918D01*
X9159D01*
X9156Y1931D01*
X9158Y1932D01*
X9160Y1933D01*
X9162Y1933D01*
X9164Y1934D01*
X9166Y1935D01*
X9167Y1936D01*
X9169Y1937D01*
X9170Y1938D01*
X9171Y1938D01*
X9172Y1939D01*
X9173Y1940D01*
X9173Y1940D01*
X9174Y1941D01*
X9174Y1941D01*
X9174Y1941D01*
X9174Y1942D01*
X9176Y1943D01*
X9176Y1945D01*
X9178Y1948D01*
X9179Y1951D01*
X9180Y1954D01*
X9180Y1956D01*
X9181Y1957D01*
Y1958D01*
X9181Y1959D01*
Y1960D01*
Y1960D01*
Y1960D01*
X9181Y1963D01*
X9180Y1966D01*
X9179Y1969D01*
X9178Y1972D01*
X9178Y1974D01*
X9177Y1974D01*
X9177Y1975D01*
X9177Y1976D01*
X9176Y1976D01*
X9176Y1976D01*
Y1977D01*
X9174Y1979D01*
X9172Y1982D01*
X9170Y1983D01*
X9167Y1985D01*
X9165Y1986D01*
X9164Y1987D01*
X9163Y1987D01*
X9163Y1988D01*
X9162Y1988D01*
X9162D01*
X9159Y1989D01*
X9155Y1990D01*
X9151Y1991D01*
X9148Y1991D01*
X9146Y1991D01*
X9145Y1991D01*
X9144D01*
X9143Y1991D01*
X9141D01*
X9137Y1991D01*
X9133Y1991D01*
X9130Y1990D01*
X9128Y1990D01*
X9125Y1989D01*
X9124Y1989D01*
X9123Y1989D01*
X9123Y1989D01*
X9122Y1989D01*
X9122Y1988D01*
X9122D01*
X9119Y1987D01*
X9116Y1985D01*
X9113Y1984D01*
X9111Y1982D01*
X9109Y1980D01*
X9108Y1979D01*
X9108Y1978D01*
X9107Y1978D01*
Y1978D01*
X9105Y1975D01*
X9104Y1972D01*
X9103Y1969D01*
X9102Y1966D01*
X9102Y1963D01*
X9102Y1962D01*
Y1961D01*
X9102Y1960D01*
Y1960D01*
Y1959D01*
Y1959D01*
X9102Y1955D01*
X9102Y1952D01*
X9103Y1950D01*
X9104Y1947D01*
X9105Y1945D01*
X9106Y1944D01*
X9106Y1943D01*
X9107Y1943D01*
X9109Y1940D01*
X9111Y1938D01*
X9114Y1937D01*
X9116Y1935D01*
X9119Y1934D01*
X9120Y1934D01*
X9121Y1933D01*
X9121Y1933D01*
X9122Y1933D01*
X9122Y1933D01*
X9122D01*
X9119Y1920D01*
X9117Y1921D01*
X9114Y1922D01*
X9112Y1923D01*
X9110Y1924D01*
X9108Y1925D01*
X9107Y1926D01*
X9105Y1927D01*
X9104Y1929D01*
X9102Y1930D01*
X9101Y1931D01*
X9100Y1932D01*
X9100Y1932D01*
X9099Y1933D01*
X9099Y1934D01*
X9098Y1934D01*
X9098Y1934D01*
X9097Y1936D01*
X9096Y1938D01*
X9095Y1940D01*
X9094Y1942D01*
X9093Y1946D01*
X9092Y1950D01*
X9091Y1952D01*
X9091Y1953D01*
X9091Y1955D01*
X9091Y1956D01*
X9091Y1957D01*
Y1958D01*
Y1959D01*
Y1959D01*
X9091Y1963D01*
X9092Y1968D01*
X9093Y1972D01*
X9093Y1974D01*
X9094Y1975D01*
X9094Y1977D01*
X9095Y1978D01*
X9095Y1979D01*
X9096Y1981D01*
X9096Y1981D01*
X9096Y1982D01*
X9097Y1982D01*
X9097Y1982D01*
X9099Y1986D01*
X9102Y1989D01*
X9105Y1992D01*
X9108Y1995D01*
X9110Y1996D01*
X9111Y1997D01*
X9112Y1998D01*
X9113Y1998D01*
X9113Y1999D01*
X9114Y1999D01*
X9114Y1999D01*
X9118Y2001D01*
X9123Y2002D01*
X9127Y2003D01*
X9131Y2004D01*
X9133Y2004D01*
X9135Y2004D01*
X9137Y2004D01*
X9138D01*
X9139Y2005D01*
X9141D01*
X9146Y2004D01*
D02*
G37*
G36*
X9658Y1846D02*
X9626D01*
Y1760D01*
X9613D01*
Y1846D01*
X9581D01*
Y1858D01*
X9658D01*
Y1846D01*
D02*
G37*
G36*
X9050Y1187D02*
X9050Y1184D01*
X9050Y1181D01*
X9049Y1178D01*
X9049Y1176D01*
X9049Y1174D01*
X9049Y1173D01*
X9049Y1172D01*
X9048Y1172D01*
Y1172D01*
Y1171D01*
X9048Y1169D01*
X9047Y1167D01*
X9046Y1165D01*
X9045Y1163D01*
X9045Y1162D01*
X9044Y1161D01*
X9044Y1160D01*
X9044Y1160D01*
X9042Y1158D01*
X9041Y1156D01*
X9039Y1155D01*
X9038Y1154D01*
X9037Y1152D01*
X9036Y1152D01*
X9035Y1151D01*
X9035Y1151D01*
X9032Y1149D01*
X9030Y1148D01*
X9028Y1147D01*
X9025Y1146D01*
X9023Y1145D01*
X9022Y1145D01*
X9021Y1145D01*
X9021Y1144D01*
X9021Y1144D01*
X9021D01*
X9017Y1143D01*
X9014Y1143D01*
X9011Y1142D01*
X9007Y1142D01*
X9005Y1142D01*
X9004D01*
X9003Y1142D01*
X9001D01*
X8996Y1142D01*
X8992Y1142D01*
X8988Y1143D01*
X8986Y1143D01*
X8984Y1144D01*
X8983Y1144D01*
X8981Y1144D01*
X8980Y1145D01*
X8979Y1145D01*
X8979Y1145D01*
X8978Y1145D01*
X8978Y1146D01*
X8978D01*
X8974Y1147D01*
X8971Y1149D01*
X8968Y1151D01*
X8965Y1153D01*
X8963Y1154D01*
X8962Y1156D01*
X8962Y1156D01*
X8961Y1157D01*
X8961Y1157D01*
X8961Y1157D01*
X8959Y1159D01*
X8958Y1162D01*
X8956Y1164D01*
X8955Y1166D01*
X8955Y1168D01*
X8954Y1170D01*
X8954Y1170D01*
Y1171D01*
X8954Y1171D01*
Y1171D01*
X8953Y1174D01*
X8953Y1177D01*
X8953Y1179D01*
X8953Y1182D01*
X8952Y1185D01*
Y1186D01*
Y1187D01*
Y1188D01*
Y1188D01*
Y1189D01*
Y1189D01*
Y1222D01*
X9050D01*
Y1187D01*
D02*
G37*
G36*
Y1308D02*
X8973D01*
X9050Y1257D01*
Y1244D01*
X8952D01*
Y1256D01*
X9029D01*
X8952Y1307D01*
Y1321D01*
X9050D01*
Y1308D01*
D02*
G37*
G36*
X9800Y2129D02*
X9788D01*
Y2177D01*
X9702D01*
Y2190D01*
X9800D01*
Y2129D01*
D02*
G37*
G36*
Y1988D02*
X9800Y1984D01*
X9800Y1981D01*
X9799Y1979D01*
X9799Y1976D01*
X9799Y1974D01*
X9799Y1973D01*
X9799Y1973D01*
X9798Y1972D01*
Y1972D01*
Y1972D01*
X9798Y1969D01*
X9797Y1967D01*
X9796Y1965D01*
X9795Y1963D01*
X9795Y1962D01*
X9794Y1961D01*
X9794Y1961D01*
X9794Y1960D01*
X9792Y1958D01*
X9791Y1957D01*
X9789Y1955D01*
X9788Y1954D01*
X9787Y1953D01*
X9786Y1952D01*
X9785Y1951D01*
X9785Y1951D01*
X9782Y1950D01*
X9780Y1949D01*
X9778Y1947D01*
X9775Y1947D01*
X9773Y1946D01*
X9772Y1945D01*
X9771Y1945D01*
X9771Y1945D01*
X9771Y1945D01*
X9771D01*
X9767Y1944D01*
X9764Y1943D01*
X9761Y1943D01*
X9757Y1942D01*
X9755Y1942D01*
X9754D01*
X9753Y1942D01*
X9751D01*
X9746Y1942D01*
X9742Y1943D01*
X9738Y1943D01*
X9736Y1944D01*
X9734Y1944D01*
X9733Y1944D01*
X9731Y1945D01*
X9730Y1945D01*
X9729Y1945D01*
X9729Y1946D01*
X9728Y1946D01*
X9728Y1946D01*
X9728D01*
X9724Y1948D01*
X9721Y1949D01*
X9718Y1951D01*
X9715Y1953D01*
X9713Y1955D01*
X9712Y1956D01*
X9712Y1957D01*
X9711Y1957D01*
X9711Y1957D01*
X9711Y1958D01*
X9709Y1960D01*
X9708Y1962D01*
X9706Y1965D01*
X9705Y1967D01*
X9705Y1969D01*
X9704Y1970D01*
X9704Y1971D01*
Y1971D01*
X9704Y1972D01*
Y1972D01*
X9703Y1974D01*
X9703Y1977D01*
X9703Y1980D01*
X9703Y1983D01*
X9702Y1985D01*
Y1986D01*
Y1987D01*
Y1988D01*
Y1989D01*
Y1989D01*
Y1989D01*
Y2023D01*
X9800D01*
Y1988D01*
D02*
G37*
G36*
Y2041D02*
X9788D01*
Y2100D01*
X9755D01*
Y2046D01*
X9744D01*
Y2100D01*
X9714D01*
Y2043D01*
X9702D01*
Y2113D01*
X9800D01*
Y2041D01*
D02*
G37*
G36*
X9740Y356D02*
X9729Y355D01*
X9728Y356D01*
X9727Y357D01*
X9725Y359D01*
X9724Y360D01*
X9723Y360D01*
X9722Y361D01*
X9722Y361D01*
X9722Y361D01*
X9720Y362D01*
X9718Y363D01*
X9716Y363D01*
X9715Y364D01*
X9713Y364D01*
X9712Y364D01*
X9709D01*
X9708Y364D01*
X9705Y363D01*
X9702Y362D01*
X9700Y361D01*
X9698Y360D01*
X9697Y359D01*
X9696Y358D01*
X9696Y358D01*
Y358D01*
X9694Y356D01*
X9693Y353D01*
X9692Y350D01*
X9691Y348D01*
X9690Y346D01*
X9690Y345D01*
Y344D01*
X9690Y343D01*
Y342D01*
Y342D01*
Y342D01*
Y340D01*
X9690Y338D01*
X9691Y335D01*
X9692Y332D01*
X9693Y329D01*
X9694Y327D01*
X9695Y326D01*
X9696Y325D01*
X9696Y325D01*
X9696Y325D01*
X9696Y325D01*
X9697Y324D01*
X9698Y323D01*
X9701Y321D01*
X9703Y320D01*
X9706Y319D01*
X9708Y318D01*
X9709Y318D01*
X9710Y318D01*
X9711D01*
X9714Y318D01*
X9716Y319D01*
X9718Y320D01*
X9720Y320D01*
X9721Y321D01*
X9722Y322D01*
X9723Y323D01*
X9723Y323D01*
X9725Y325D01*
X9726Y327D01*
X9728Y329D01*
X9728Y331D01*
X9729Y333D01*
X9729Y335D01*
X9729Y336D01*
X9730Y336D01*
Y336D01*
Y337D01*
X9742Y336D01*
X9742Y333D01*
X9741Y331D01*
X9740Y327D01*
X9739Y324D01*
X9738Y322D01*
X9737Y321D01*
X9736Y320D01*
X9735Y319D01*
X9735Y318D01*
X9734Y317D01*
X9733Y316D01*
X9733Y316D01*
X9733Y316D01*
X9733Y316D01*
X9731Y314D01*
X9729Y313D01*
X9728Y312D01*
X9726Y311D01*
X9722Y310D01*
X9719Y309D01*
X9717Y309D01*
X9716Y309D01*
X9714Y309D01*
X9713Y308D01*
X9712Y308D01*
X9711D01*
X9708Y308D01*
X9705Y309D01*
X9702Y309D01*
X9700Y310D01*
X9698Y311D01*
X9696Y312D01*
X9694Y313D01*
X9692Y314D01*
X9690Y315D01*
X9689Y316D01*
X9688Y317D01*
X9687Y318D01*
X9686Y319D01*
X9686Y320D01*
X9685Y320D01*
X9685Y320D01*
X9684Y322D01*
X9683Y324D01*
X9682Y326D01*
X9681Y328D01*
X9679Y332D01*
X9678Y335D01*
X9678Y337D01*
X9678Y338D01*
X9678Y340D01*
X9678Y341D01*
X9677Y342D01*
Y342D01*
Y343D01*
Y343D01*
X9678Y346D01*
X9678Y348D01*
X9678Y350D01*
X9679Y352D01*
X9680Y354D01*
X9680Y356D01*
X9681Y358D01*
X9682Y360D01*
X9683Y361D01*
X9684Y362D01*
X9684Y363D01*
X9685Y364D01*
X9686Y365D01*
X9686Y365D01*
X9686Y366D01*
X9686Y366D01*
X9688Y367D01*
X9690Y369D01*
X9692Y370D01*
X9693Y371D01*
X9695Y372D01*
X9697Y373D01*
X9700Y374D01*
X9702Y374D01*
X9703Y374D01*
X9705Y374D01*
X9706Y375D01*
X9707Y375D01*
X9710D01*
X9711Y374D01*
X9715Y374D01*
X9718Y373D01*
X9721Y372D01*
X9723Y370D01*
X9724Y370D01*
X9725Y369D01*
X9726Y369D01*
X9726Y369D01*
X9726Y369D01*
X9726Y369D01*
X9721Y395D01*
X9682D01*
Y406D01*
X9731D01*
X9740Y356D01*
D02*
G37*
G36*
X9578Y1760D02*
X9564D01*
X9554Y1790D01*
X9513D01*
X9502Y1760D01*
X9487D01*
X9527Y1858D01*
X9541D01*
X9578Y1760D01*
D02*
G37*
G36*
X9793Y364D02*
X9820D01*
Y353D01*
X9793D01*
Y326D01*
X9782D01*
Y353D01*
X9756D01*
Y364D01*
X9782D01*
Y390D01*
X9793D01*
Y364D01*
D02*
G37*
G36*
X9007Y1430D02*
X9012Y1429D01*
X9014Y1429D01*
X9016Y1428D01*
X9018Y1428D01*
X9020Y1427D01*
X9022Y1426D01*
X9023Y1426D01*
X9025Y1425D01*
X9026Y1425D01*
X9027Y1425D01*
X9027Y1424D01*
X9028Y1424D01*
X9028D01*
X9032Y1422D01*
X9035Y1419D01*
X9039Y1416D01*
X9041Y1413D01*
X9043Y1410D01*
X9044Y1409D01*
X9045Y1408D01*
X9045Y1407D01*
X9045Y1407D01*
X9045Y1406D01*
X9046Y1406D01*
X9047Y1404D01*
X9048Y1402D01*
X9049Y1397D01*
X9050Y1393D01*
X9051Y1389D01*
X9051Y1387D01*
X9051Y1385D01*
X9052Y1384D01*
Y1382D01*
X9052Y1382D01*
Y1381D01*
Y1380D01*
Y1380D01*
X9052Y1376D01*
X9051Y1372D01*
X9050Y1369D01*
X9050Y1366D01*
X9049Y1364D01*
X9049Y1363D01*
X9049Y1362D01*
X9048Y1361D01*
X9048Y1360D01*
X9048Y1360D01*
X9048Y1360D01*
Y1359D01*
X9046Y1356D01*
X9045Y1352D01*
X9043Y1349D01*
X9041Y1346D01*
X9040Y1344D01*
X9039Y1343D01*
X9038Y1342D01*
X9038Y1341D01*
X9037Y1341D01*
X9037Y1340D01*
X9037Y1340D01*
X9036Y1340D01*
X9000D01*
Y1381D01*
X9012D01*
Y1352D01*
X9030D01*
X9032Y1354D01*
X9033Y1356D01*
X9034Y1358D01*
X9035Y1360D01*
X9036Y1362D01*
X9036Y1363D01*
X9037Y1364D01*
X9037Y1364D01*
X9037Y1364D01*
Y1365D01*
X9038Y1368D01*
X9039Y1371D01*
X9039Y1373D01*
X9040Y1376D01*
X9040Y1378D01*
Y1379D01*
X9040Y1380D01*
Y1380D01*
Y1381D01*
Y1381D01*
Y1381D01*
X9040Y1384D01*
X9039Y1388D01*
X9039Y1391D01*
X9038Y1394D01*
X9037Y1396D01*
X9037Y1397D01*
X9037Y1398D01*
X9036Y1398D01*
X9036Y1399D01*
X9036Y1399D01*
Y1399D01*
X9034Y1402D01*
X9032Y1405D01*
X9030Y1407D01*
X9028Y1409D01*
X9026Y1411D01*
X9024Y1412D01*
X9024Y1412D01*
X9023Y1412D01*
X9023Y1412D01*
X9023D01*
X9019Y1414D01*
X9016Y1415D01*
X9012Y1416D01*
X9009Y1416D01*
X9007Y1416D01*
X9006Y1416D01*
X9004Y1417D01*
X9003D01*
X9002Y1417D01*
X9001D01*
X8997Y1417D01*
X8993Y1416D01*
X8990Y1416D01*
X8987Y1415D01*
X8986Y1415D01*
X8985Y1414D01*
X8984Y1414D01*
X8983Y1414D01*
X8982Y1413D01*
X8982Y1413D01*
X8981Y1413D01*
X8981D01*
X8979Y1412D01*
X8978Y1411D01*
X8976Y1410D01*
X8974Y1409D01*
X8973Y1408D01*
X8972Y1408D01*
X8972Y1407D01*
X8972Y1407D01*
X8970Y1405D01*
X8969Y1404D01*
X8968Y1402D01*
X8966Y1400D01*
X8966Y1399D01*
X8965Y1398D01*
X8965Y1397D01*
X8965Y1396D01*
X8964Y1394D01*
X8963Y1391D01*
X8962Y1389D01*
X8962Y1386D01*
X8962Y1384D01*
Y1383D01*
X8962Y1383D01*
Y1382D01*
Y1382D01*
Y1381D01*
Y1381D01*
X8962Y1378D01*
X8962Y1376D01*
X8963Y1374D01*
X8963Y1372D01*
X8964Y1370D01*
X8964Y1369D01*
X8964Y1368D01*
X8964Y1368D01*
X8965Y1366D01*
X8967Y1364D01*
X8968Y1362D01*
X8969Y1361D01*
X8970Y1360D01*
X8970Y1359D01*
X8971Y1359D01*
X8971Y1358D01*
X8973Y1357D01*
X8975Y1356D01*
X8977Y1355D01*
X8979Y1354D01*
X8980Y1354D01*
X8982Y1353D01*
X8982Y1353D01*
X8983Y1353D01*
X8983Y1353D01*
X8983D01*
X8980Y1341D01*
X8976Y1342D01*
X8973Y1343D01*
X8970Y1345D01*
X8968Y1346D01*
X8966Y1347D01*
X8965Y1348D01*
X8964Y1348D01*
X8964Y1349D01*
X8962Y1351D01*
X8960Y1353D01*
X8958Y1355D01*
X8957Y1357D01*
X8956Y1359D01*
X8955Y1361D01*
X8955Y1361D01*
X8954Y1362D01*
X8954Y1362D01*
Y1362D01*
X8953Y1365D01*
X8952Y1369D01*
X8952Y1372D01*
X8951Y1375D01*
X8951Y1377D01*
Y1379D01*
X8951Y1379D01*
Y1380D01*
Y1381D01*
Y1381D01*
Y1381D01*
Y1384D01*
X8951Y1386D01*
X8952Y1391D01*
X8952Y1394D01*
X8953Y1396D01*
X8953Y1398D01*
X8954Y1400D01*
X8954Y1401D01*
X8955Y1403D01*
X8955Y1404D01*
X8956Y1405D01*
X8956Y1406D01*
X8957Y1406D01*
X8957Y1407D01*
X8957Y1407D01*
X8958Y1409D01*
X8959Y1411D01*
X8962Y1414D01*
X8965Y1417D01*
X8968Y1420D01*
X8971Y1422D01*
X8972Y1422D01*
X8973Y1423D01*
X8974Y1424D01*
X8975Y1424D01*
X8975Y1424D01*
X8975Y1424D01*
X8980Y1426D01*
X8985Y1427D01*
X8989Y1429D01*
X8991Y1429D01*
X8993Y1429D01*
X8995Y1429D01*
X8997Y1430D01*
X8998Y1430D01*
X8999D01*
X9000Y1430D01*
X9002D01*
X9007Y1430D01*
D02*
G37*
G36*
X9634Y310D02*
X9620D01*
X9582Y408D01*
X9595D01*
X9622Y337D01*
X9623Y334D01*
X9624Y331D01*
X9625Y328D01*
X9625Y326D01*
X9626Y324D01*
X9627Y322D01*
X9627Y322D01*
X9627Y321D01*
X9627Y321D01*
Y321D01*
X9629Y326D01*
X9630Y329D01*
X9630Y331D01*
X9631Y334D01*
X9631Y334D01*
X9632Y335D01*
X9632Y336D01*
X9632Y336D01*
X9632Y337D01*
Y337D01*
X9657Y408D01*
X9672D01*
X9634Y310D01*
D02*
G37*
G36*
X9612Y682D02*
X9577D01*
X9574Y682D01*
X9571Y682D01*
X9568Y682D01*
X9566Y683D01*
X9564Y683D01*
X9563Y683D01*
X9562Y683D01*
X9562Y683D01*
X9561D01*
X9559Y684D01*
X9557Y685D01*
X9555Y685D01*
X9553Y686D01*
X9552Y687D01*
X9551Y688D01*
X9550Y688D01*
X9550Y688D01*
X9548Y689D01*
X9546Y691D01*
X9545Y692D01*
X9544Y694D01*
X9542Y695D01*
X9542Y696D01*
X9541Y697D01*
X9541Y697D01*
X9539Y699D01*
X9538Y702D01*
X9537Y704D01*
X9536Y706D01*
X9535Y708D01*
X9535Y710D01*
X9535Y710D01*
X9534Y711D01*
X9534Y711D01*
Y711D01*
X9533Y715D01*
X9533Y718D01*
X9532Y721D01*
X9532Y724D01*
X9532Y727D01*
Y728D01*
X9532Y729D01*
Y730D01*
Y730D01*
Y731D01*
Y731D01*
X9532Y736D01*
X9532Y740D01*
X9533Y744D01*
X9533Y746D01*
X9534Y747D01*
X9534Y749D01*
X9534Y750D01*
X9535Y751D01*
X9535Y752D01*
X9535Y753D01*
X9535Y754D01*
X9536Y754D01*
Y754D01*
X9537Y758D01*
X9539Y761D01*
X9541Y764D01*
X9543Y766D01*
X9544Y768D01*
X9546Y770D01*
X9546Y770D01*
X9547Y771D01*
X9547Y771D01*
X9547Y771D01*
X9549Y773D01*
X9552Y774D01*
X9554Y775D01*
X9556Y776D01*
X9558Y777D01*
X9560Y777D01*
X9560Y778D01*
X9561D01*
X9561Y778D01*
X9561D01*
X9564Y778D01*
X9567Y779D01*
X9569Y779D01*
X9572Y779D01*
X9575Y779D01*
X9612D01*
Y682D01*
D02*
G37*
G36*
X9776Y781D02*
X9781Y780D01*
X9784Y780D01*
X9786Y779D01*
X9788Y779D01*
X9790Y778D01*
X9791Y777D01*
X9793Y777D01*
X9794Y776D01*
X9795Y776D01*
X9796Y775D01*
X9796Y775D01*
X9797Y775D01*
X9797Y775D01*
X9799Y774D01*
X9801Y772D01*
X9804Y769D01*
X9807Y766D01*
X9810Y763D01*
X9812Y761D01*
X9812Y760D01*
X9813Y758D01*
X9814Y758D01*
X9814Y757D01*
X9814Y757D01*
X9814Y756D01*
X9816Y752D01*
X9817Y747D01*
X9819Y743D01*
X9819Y740D01*
X9819Y739D01*
X9819Y737D01*
X9820Y735D01*
X9820Y734D01*
Y732D01*
X9820Y731D01*
Y731D01*
Y730D01*
Y730D01*
X9820Y725D01*
X9819Y720D01*
X9819Y717D01*
X9818Y715D01*
X9818Y713D01*
X9817Y711D01*
X9816Y710D01*
X9816Y708D01*
X9815Y707D01*
X9815Y706D01*
X9815Y705D01*
X9814Y704D01*
X9814Y704D01*
Y704D01*
X9812Y700D01*
X9809Y696D01*
X9806Y693D01*
X9803Y691D01*
X9800Y689D01*
X9799Y688D01*
X9798Y687D01*
X9797Y687D01*
X9797Y686D01*
X9796Y686D01*
X9796Y686D01*
X9794Y685D01*
X9792Y684D01*
X9787Y683D01*
X9783Y682D01*
X9779Y681D01*
X9777Y681D01*
X9775Y680D01*
X9774Y680D01*
X9772D01*
X9772Y680D01*
X9770D01*
X9766Y680D01*
X9762Y681D01*
X9759Y681D01*
X9756Y682D01*
X9754Y682D01*
X9753Y683D01*
X9752Y683D01*
X9751Y683D01*
X9750Y684D01*
X9750Y684D01*
X9750Y684D01*
X9749D01*
X9746Y685D01*
X9742Y687D01*
X9739Y689D01*
X9736Y691D01*
X9734Y692D01*
X9733Y693D01*
X9732Y693D01*
X9731Y694D01*
X9731Y695D01*
X9730Y695D01*
X9730Y695D01*
X9730Y695D01*
Y731D01*
X9771D01*
Y720D01*
X9742D01*
Y702D01*
X9744Y700D01*
X9746Y699D01*
X9748Y698D01*
X9750Y697D01*
X9752Y696D01*
X9753Y695D01*
X9754Y695D01*
X9754Y695D01*
X9754Y695D01*
X9755D01*
X9758Y694D01*
X9761Y693D01*
X9763Y692D01*
X9766Y692D01*
X9768Y692D01*
X9769D01*
X9770Y692D01*
X9771D01*
X9774Y692D01*
X9778Y692D01*
X9781Y693D01*
X9784Y694D01*
X9786Y695D01*
X9787Y695D01*
X9788Y695D01*
X9788Y695D01*
X9789Y696D01*
X9789Y696D01*
X9789D01*
X9792Y698D01*
X9795Y700D01*
X9797Y702D01*
X9799Y704D01*
X9801Y706D01*
X9802Y707D01*
X9802Y708D01*
X9802Y708D01*
X9802Y709D01*
Y709D01*
X9804Y712D01*
X9805Y716D01*
X9806Y720D01*
X9806Y723D01*
X9806Y725D01*
X9806Y726D01*
X9807Y728D01*
Y729D01*
X9807Y729D01*
Y730D01*
Y731D01*
Y731D01*
X9807Y735D01*
X9806Y738D01*
X9806Y742D01*
X9805Y745D01*
X9805Y746D01*
X9804Y747D01*
X9804Y748D01*
X9804Y749D01*
X9803Y749D01*
X9803Y750D01*
X9803Y750D01*
Y750D01*
X9802Y752D01*
X9801Y754D01*
X9800Y756D01*
X9799Y757D01*
X9798Y758D01*
X9798Y759D01*
X9797Y760D01*
X9797Y760D01*
X9795Y762D01*
X9794Y763D01*
X9792Y764D01*
X9790Y765D01*
X9789Y766D01*
X9788Y767D01*
X9787Y767D01*
X9786Y767D01*
X9784Y768D01*
X9781Y769D01*
X9779Y769D01*
X9776Y770D01*
X9774Y770D01*
X9773D01*
X9773Y770D01*
X9771D01*
X9768Y770D01*
X9766Y770D01*
X9764Y769D01*
X9762Y769D01*
X9760Y768D01*
X9759Y768D01*
X9758Y767D01*
X9758Y767D01*
X9756Y766D01*
X9754Y765D01*
X9752Y764D01*
X9751Y763D01*
X9750Y762D01*
X9749Y761D01*
X9749Y761D01*
X9748Y760D01*
X9747Y759D01*
X9746Y757D01*
X9745Y755D01*
X9744Y753D01*
X9744Y751D01*
X9743Y750D01*
X9743Y749D01*
X9743Y749D01*
X9743Y749D01*
Y749D01*
X9731Y752D01*
X9732Y755D01*
X9733Y759D01*
X9735Y761D01*
X9736Y764D01*
X9737Y765D01*
X9738Y767D01*
X9738Y768D01*
X9739Y768D01*
X9741Y770D01*
X9743Y772D01*
X9745Y774D01*
X9747Y775D01*
X9749Y776D01*
X9751Y777D01*
X9751Y777D01*
X9752Y777D01*
X9752Y777D01*
X9752D01*
X9755Y779D01*
X9759Y779D01*
X9762Y780D01*
X9765Y781D01*
X9767Y781D01*
X9769D01*
X9769Y781D01*
X9774D01*
X9776Y781D01*
D02*
G37*
G36*
X9711Y682D02*
X9698D01*
Y758D01*
X9647Y682D01*
X9634D01*
Y779D01*
X9646D01*
Y703D01*
X9697Y779D01*
X9711D01*
Y682D01*
D02*
G37*
G36*
X5390Y2020D02*
X5356D01*
X5341Y2004D01*
X5390Y1969D01*
Y1952D01*
X5332Y1995D01*
X5292Y1954D01*
Y1971D01*
X5341Y2020D01*
X5292D01*
Y2033D01*
X5390D01*
Y2020D01*
D02*
G37*
G36*
Y2047D02*
X5378D01*
Y2095D01*
X5292D01*
Y2108D01*
X5390D01*
Y2047D01*
D02*
G37*
G36*
X5346Y2210D02*
X5351Y2209D01*
X5355Y2208D01*
X5357Y2208D01*
X5359Y2207D01*
X5361Y2207D01*
X5362Y2206D01*
X5363Y2206D01*
X5365Y2206D01*
X5365Y2205D01*
X5366Y2205D01*
X5367Y2205D01*
X5367D01*
X5371Y2203D01*
X5375Y2200D01*
X5378Y2198D01*
X5379Y2197D01*
X5381Y2195D01*
X5382Y2194D01*
X5383Y2193D01*
X5384Y2192D01*
X5384Y2191D01*
X5385Y2191D01*
X5385Y2190D01*
X5385Y2190D01*
X5385Y2190D01*
X5386Y2188D01*
X5387Y2186D01*
X5389Y2182D01*
X5390Y2177D01*
X5391Y2173D01*
X5391Y2171D01*
X5391Y2170D01*
X5392Y2168D01*
Y2167D01*
X5392Y2166D01*
Y2165D01*
Y2164D01*
Y2164D01*
X5392Y2161D01*
X5391Y2159D01*
X5391Y2156D01*
X5390Y2154D01*
X5390Y2151D01*
X5389Y2149D01*
X5388Y2147D01*
X5387Y2146D01*
X5387Y2144D01*
X5386Y2142D01*
X5385Y2141D01*
X5385Y2140D01*
X5384Y2140D01*
X5384Y2139D01*
X5384Y2139D01*
X5383Y2138D01*
X5382Y2136D01*
X5380Y2135D01*
X5378Y2133D01*
X5376Y2132D01*
X5372Y2129D01*
X5368Y2127D01*
X5366Y2126D01*
X5365Y2126D01*
X5363Y2125D01*
X5362Y2125D01*
X5361Y2124D01*
X5360Y2124D01*
X5359Y2124D01*
X5359D01*
X5356Y2137D01*
X5358Y2137D01*
X5360Y2138D01*
X5362Y2139D01*
X5364Y2139D01*
X5366Y2140D01*
X5367Y2141D01*
X5369Y2142D01*
X5370Y2143D01*
X5371Y2144D01*
X5372Y2144D01*
X5373Y2145D01*
X5373Y2146D01*
X5374Y2146D01*
X5374Y2147D01*
X5374Y2147D01*
X5374Y2147D01*
X5376Y2148D01*
X5376Y2150D01*
X5378Y2153D01*
X5379Y2156D01*
X5380Y2159D01*
X5380Y2162D01*
X5381Y2162D01*
Y2163D01*
X5381Y2164D01*
Y2165D01*
Y2165D01*
Y2165D01*
X5381Y2169D01*
X5380Y2172D01*
X5379Y2174D01*
X5378Y2177D01*
X5378Y2179D01*
X5377Y2180D01*
X5377Y2181D01*
X5377Y2181D01*
X5376Y2182D01*
X5376Y2182D01*
Y2182D01*
X5374Y2185D01*
X5372Y2187D01*
X5370Y2189D01*
X5367Y2190D01*
X5365Y2192D01*
X5364Y2193D01*
X5363Y2193D01*
X5363Y2193D01*
X5362Y2193D01*
X5362D01*
X5359Y2194D01*
X5355Y2195D01*
X5351Y2196D01*
X5348Y2196D01*
X5346Y2196D01*
X5345Y2197D01*
X5344D01*
X5343Y2197D01*
X5341D01*
X5337Y2197D01*
X5333Y2196D01*
X5330Y2196D01*
X5328Y2195D01*
X5325Y2195D01*
X5324Y2194D01*
X5323Y2194D01*
X5323Y2194D01*
X5322Y2194D01*
X5322Y2194D01*
X5322D01*
X5319Y2192D01*
X5316Y2191D01*
X5313Y2189D01*
X5311Y2187D01*
X5309Y2186D01*
X5308Y2184D01*
X5308Y2183D01*
X5307Y2183D01*
Y2183D01*
X5305Y2180D01*
X5304Y2177D01*
X5303Y2174D01*
X5302Y2171D01*
X5302Y2168D01*
X5302Y2167D01*
Y2166D01*
X5302Y2165D01*
Y2165D01*
Y2164D01*
Y2164D01*
X5302Y2161D01*
X5302Y2158D01*
X5303Y2155D01*
X5304Y2152D01*
X5305Y2151D01*
X5306Y2149D01*
X5306Y2148D01*
X5307Y2148D01*
X5309Y2146D01*
X5311Y2144D01*
X5314Y2142D01*
X5316Y2141D01*
X5319Y2140D01*
X5320Y2139D01*
X5321Y2139D01*
X5321Y2139D01*
X5322Y2138D01*
X5322Y2138D01*
X5322D01*
X5319Y2125D01*
X5317Y2126D01*
X5314Y2127D01*
X5312Y2128D01*
X5310Y2129D01*
X5308Y2130D01*
X5307Y2132D01*
X5305Y2133D01*
X5304Y2134D01*
X5302Y2135D01*
X5301Y2136D01*
X5300Y2137D01*
X5300Y2138D01*
X5299Y2138D01*
X5299Y2139D01*
X5298Y2139D01*
X5298Y2139D01*
X5297Y2141D01*
X5296Y2143D01*
X5295Y2145D01*
X5294Y2147D01*
X5293Y2152D01*
X5292Y2155D01*
X5291Y2157D01*
X5291Y2159D01*
X5291Y2160D01*
X5291Y2162D01*
X5291Y2163D01*
Y2163D01*
Y2164D01*
Y2164D01*
X5291Y2169D01*
X5292Y2173D01*
X5293Y2177D01*
X5293Y2179D01*
X5294Y2181D01*
X5294Y2182D01*
X5295Y2184D01*
X5295Y2185D01*
X5296Y2186D01*
X5296Y2187D01*
X5296Y2187D01*
X5297Y2188D01*
X5297Y2188D01*
X5299Y2192D01*
X5302Y2195D01*
X5305Y2198D01*
X5308Y2200D01*
X5310Y2202D01*
X5311Y2203D01*
X5312Y2203D01*
X5313Y2204D01*
X5313Y2204D01*
X5314Y2204D01*
X5314Y2204D01*
X5318Y2206D01*
X5323Y2208D01*
X5327Y2209D01*
X5331Y2209D01*
X5333Y2210D01*
X5335Y2210D01*
X5337Y2210D01*
X5338D01*
X5339Y2210D01*
X5341D01*
X5346Y2210D01*
D02*
G37*
G36*
X9171Y709D02*
X9115Y765D01*
X9171D01*
Y709D01*
D02*
G37*
G36*
X6235Y1185D02*
X6179D01*
Y1241D01*
X6235Y1185D01*
D02*
G37*
G36*
X1620Y1225D02*
X1520D01*
X1620Y1325D01*
Y1225D01*
D02*
G37*
G36*
X9646Y886D02*
X9613D01*
Y800D01*
X9601D01*
Y886D01*
X9568D01*
Y898D01*
X9646D01*
Y886D01*
D02*
G37*
G36*
X9820Y800D02*
X9747D01*
Y812D01*
X9807D01*
Y845D01*
X9753D01*
Y857D01*
X9807D01*
Y886D01*
X9749D01*
Y898D01*
X9820D01*
Y800D01*
D02*
G37*
G36*
X9702Y851D02*
X9739Y800D01*
X9724D01*
X9699Y834D01*
X9698Y835D01*
X9698Y836D01*
X9696Y838D01*
X9696Y839D01*
X9695Y840D01*
X9695Y841D01*
X9694Y841D01*
X9693Y839D01*
X9692Y837D01*
X9691Y836D01*
X9691Y836D01*
X9691Y835D01*
X9690Y835D01*
X9666Y800D01*
X9650D01*
X9686Y852D01*
X9653Y898D01*
X9667D01*
X9686Y872D01*
X9688Y870D01*
X9689Y868D01*
X9691Y866D01*
X9692Y864D01*
X9693Y863D01*
X9693Y862D01*
X9694Y861D01*
X9694Y861D01*
X9695Y863D01*
X9696Y865D01*
X9697Y867D01*
X9699Y869D01*
X9700Y870D01*
X9701Y872D01*
X9701Y872D01*
X9701Y873D01*
X9702Y873D01*
Y873D01*
X9719Y898D01*
X9735D01*
X9702Y851D01*
D02*
G37*
G36*
X5574Y1986D02*
X5660D01*
Y1973D01*
X5574D01*
Y1941D01*
X5562D01*
Y2018D01*
X5574D01*
Y1986D01*
D02*
G37*
G36*
X5660Y2165D02*
X5660Y2162D01*
X5660Y2159D01*
X5659Y2156D01*
X5659Y2154D01*
X5659Y2152D01*
X5659Y2150D01*
X5659Y2150D01*
X5658Y2150D01*
Y2149D01*
Y2149D01*
X5658Y2147D01*
X5657Y2144D01*
X5656Y2142D01*
X5655Y2141D01*
X5655Y2139D01*
X5654Y2138D01*
X5654Y2138D01*
X5654Y2138D01*
X5652Y2136D01*
X5651Y2134D01*
X5649Y2133D01*
X5648Y2131D01*
X5647Y2130D01*
X5646Y2129D01*
X5645Y2129D01*
X5645Y2129D01*
X5642Y2127D01*
X5640Y2126D01*
X5638Y2125D01*
X5635Y2124D01*
X5633Y2123D01*
X5632Y2122D01*
X5631Y2122D01*
X5631Y2122D01*
X5631Y2122D01*
X5631D01*
X5627Y2121D01*
X5624Y2120D01*
X5621Y2120D01*
X5617Y2120D01*
X5615Y2120D01*
X5614D01*
X5613Y2119D01*
X5611D01*
X5606Y2120D01*
X5602Y2120D01*
X5598Y2121D01*
X5596Y2121D01*
X5594Y2121D01*
X5593Y2122D01*
X5591Y2122D01*
X5590Y2122D01*
X5589Y2123D01*
X5589Y2123D01*
X5588Y2123D01*
X5588Y2123D01*
X5588D01*
X5584Y2125D01*
X5581Y2127D01*
X5578Y2129D01*
X5575Y2131D01*
X5573Y2132D01*
X5572Y2134D01*
X5572Y2134D01*
X5571Y2135D01*
X5571Y2135D01*
X5571Y2135D01*
X5569Y2137D01*
X5568Y2140D01*
X5566Y2142D01*
X5565Y2144D01*
X5565Y2146D01*
X5564Y2148D01*
X5564Y2148D01*
Y2149D01*
X5564Y2149D01*
Y2149D01*
X5563Y2152D01*
X5563Y2154D01*
X5563Y2157D01*
X5563Y2160D01*
X5562Y2163D01*
Y2164D01*
Y2165D01*
Y2165D01*
Y2166D01*
Y2166D01*
Y2166D01*
Y2200D01*
X5660D01*
Y2165D01*
D02*
G37*
G36*
Y2099D02*
X5630Y2088D01*
Y2047D01*
X5660Y2036D01*
Y2021D01*
X5562Y2061D01*
Y2075D01*
X5660Y2112D01*
Y2099D01*
D02*
G37*
G36*
X5087Y2220D02*
X5092Y2219D01*
X5094Y2219D01*
X5096Y2218D01*
X5098Y2218D01*
X5100Y2217D01*
X5102Y2216D01*
X5103Y2216D01*
X5105Y2215D01*
X5106Y2215D01*
X5107Y2215D01*
X5107Y2214D01*
X5108Y2214D01*
X5108D01*
X5112Y2212D01*
X5115Y2209D01*
X5119Y2206D01*
X5121Y2203D01*
X5123Y2200D01*
X5124Y2199D01*
X5125Y2198D01*
X5125Y2197D01*
X5125Y2197D01*
X5125Y2196D01*
X5126Y2196D01*
X5127Y2194D01*
X5128Y2192D01*
X5129Y2187D01*
X5130Y2183D01*
X5131Y2179D01*
X5131Y2177D01*
X5131Y2175D01*
X5132Y2174D01*
Y2172D01*
X5132Y2172D01*
Y2171D01*
Y2170D01*
Y2170D01*
X5132Y2166D01*
X5131Y2162D01*
X5130Y2159D01*
X5130Y2156D01*
X5129Y2154D01*
X5129Y2153D01*
X5129Y2152D01*
X5128Y2151D01*
X5128Y2150D01*
X5128Y2150D01*
X5128Y2150D01*
Y2149D01*
X5126Y2146D01*
X5125Y2142D01*
X5123Y2139D01*
X5121Y2136D01*
X5120Y2134D01*
X5119Y2133D01*
X5118Y2132D01*
X5118Y2131D01*
X5117Y2131D01*
X5117Y2130D01*
X5117Y2130D01*
X5116Y2130D01*
X5080D01*
Y2171D01*
X5092D01*
Y2142D01*
X5110D01*
X5112Y2144D01*
X5113Y2146D01*
X5114Y2148D01*
X5115Y2150D01*
X5116Y2152D01*
X5116Y2153D01*
X5117Y2154D01*
X5117Y2154D01*
X5117Y2154D01*
Y2155D01*
X5118Y2158D01*
X5119Y2161D01*
X5119Y2163D01*
X5120Y2166D01*
X5120Y2168D01*
Y2169D01*
X5120Y2170D01*
Y2170D01*
Y2171D01*
Y2171D01*
Y2171D01*
X5120Y2174D01*
X5119Y2178D01*
X5119Y2181D01*
X5118Y2184D01*
X5117Y2186D01*
X5117Y2187D01*
X5117Y2188D01*
X5116Y2188D01*
X5116Y2189D01*
X5116Y2189D01*
Y2189D01*
X5114Y2192D01*
X5112Y2195D01*
X5110Y2197D01*
X5108Y2199D01*
X5106Y2201D01*
X5104Y2202D01*
X5104Y2202D01*
X5103Y2202D01*
X5103Y2202D01*
X5103D01*
X5099Y2204D01*
X5096Y2205D01*
X5092Y2206D01*
X5089Y2206D01*
X5087Y2206D01*
X5086Y2206D01*
X5084Y2207D01*
X5083D01*
X5082Y2207D01*
X5081D01*
X5077Y2207D01*
X5073Y2206D01*
X5070Y2206D01*
X5067Y2205D01*
X5066Y2205D01*
X5065Y2204D01*
X5064Y2204D01*
X5063Y2204D01*
X5062Y2203D01*
X5062Y2203D01*
X5061Y2203D01*
X5061D01*
X5059Y2202D01*
X5058Y2201D01*
X5056Y2200D01*
X5054Y2199D01*
X5053Y2198D01*
X5052Y2198D01*
X5052Y2197D01*
X5052Y2197D01*
X5050Y2195D01*
X5049Y2194D01*
X5048Y2192D01*
X5046Y2190D01*
X5046Y2189D01*
X5045Y2188D01*
X5045Y2187D01*
X5045Y2186D01*
X5044Y2184D01*
X5043Y2181D01*
X5042Y2179D01*
X5042Y2176D01*
X5042Y2174D01*
Y2173D01*
X5042Y2173D01*
Y2172D01*
Y2172D01*
Y2171D01*
Y2171D01*
X5042Y2168D01*
X5042Y2166D01*
X5043Y2164D01*
X5043Y2162D01*
X5044Y2160D01*
X5044Y2159D01*
X5044Y2158D01*
X5044Y2158D01*
X5045Y2156D01*
X5047Y2154D01*
X5048Y2152D01*
X5049Y2151D01*
X5050Y2150D01*
X5050Y2149D01*
X5051Y2149D01*
X5051Y2148D01*
X5053Y2147D01*
X5055Y2146D01*
X5057Y2145D01*
X5059Y2144D01*
X5060Y2144D01*
X5062Y2143D01*
X5062Y2143D01*
X5063Y2143D01*
X5063Y2143D01*
X5063D01*
X5060Y2131D01*
X5056Y2132D01*
X5053Y2133D01*
X5050Y2135D01*
X5048Y2136D01*
X5046Y2137D01*
X5045Y2138D01*
X5044Y2138D01*
X5044Y2139D01*
X5042Y2141D01*
X5040Y2143D01*
X5038Y2145D01*
X5037Y2147D01*
X5036Y2149D01*
X5035Y2151D01*
X5035Y2151D01*
X5034Y2152D01*
X5034Y2152D01*
Y2152D01*
X5033Y2155D01*
X5032Y2159D01*
X5032Y2162D01*
X5031Y2165D01*
X5031Y2167D01*
Y2169D01*
X5031Y2169D01*
Y2170D01*
Y2171D01*
Y2171D01*
Y2171D01*
Y2174D01*
X5031Y2176D01*
X5032Y2181D01*
X5032Y2184D01*
X5033Y2186D01*
X5033Y2188D01*
X5034Y2190D01*
X5034Y2191D01*
X5035Y2193D01*
X5035Y2194D01*
X5036Y2195D01*
X5036Y2196D01*
X5037Y2196D01*
X5037Y2197D01*
X5037Y2197D01*
X5038Y2199D01*
X5039Y2201D01*
X5042Y2204D01*
X5045Y2207D01*
X5048Y2210D01*
X5051Y2212D01*
X5052Y2212D01*
X5053Y2213D01*
X5054Y2214D01*
X5055Y2214D01*
X5055Y2214D01*
X5055Y2214D01*
X5060Y2216D01*
X5065Y2217D01*
X5069Y2219D01*
X5071Y2219D01*
X5073Y2219D01*
X5075Y2219D01*
X5077Y2220D01*
X5078Y2220D01*
X5079D01*
X5080Y2220D01*
X5082D01*
X5087Y2220D01*
D02*
G37*
G36*
X5130Y2098D02*
X5053D01*
X5130Y2047D01*
Y2034D01*
X5032D01*
Y2046D01*
X5109D01*
X5032Y2097D01*
Y2111D01*
X5130D01*
Y2098D01*
D02*
G37*
%LPC*%
G36*
X9488Y1959D02*
X9414D01*
Y1939D01*
Y1937D01*
X9414Y1935D01*
Y1933D01*
X9414Y1931D01*
X9415Y1929D01*
X9415Y1926D01*
X9415Y1924D01*
X9416Y1923D01*
X9416Y1922D01*
X9416Y1922D01*
X9417Y1920D01*
X9419Y1917D01*
X9421Y1915D01*
X9423Y1913D01*
X9424Y1912D01*
X9426Y1911D01*
X9426Y1910D01*
X9427Y1910D01*
X9427Y1910D01*
X9427D01*
X9429Y1909D01*
X9431Y1908D01*
X9434Y1907D01*
X9438Y1906D01*
X9442Y1905D01*
X9444Y1905D01*
X9445Y1905D01*
X9447Y1905D01*
X9448D01*
X9449Y1905D01*
X9451D01*
X9454Y1905D01*
X9458Y1905D01*
X9461Y1906D01*
X9464Y1906D01*
X9465Y1906D01*
X9466Y1907D01*
X9467Y1907D01*
X9468Y1907D01*
X9469Y1907D01*
X9469Y1907D01*
X9469Y1908D01*
X9469D01*
X9472Y1908D01*
X9474Y1910D01*
X9477Y1911D01*
X9478Y1912D01*
X9480Y1913D01*
X9481Y1914D01*
X9481Y1914D01*
X9482Y1915D01*
X9483Y1916D01*
X9484Y1917D01*
X9485Y1919D01*
X9485Y1920D01*
X9486Y1921D01*
X9486Y1922D01*
X9487Y1923D01*
X9487Y1923D01*
X9487Y1926D01*
X9488Y1928D01*
X9488Y1931D01*
X9488Y1933D01*
X9488Y1935D01*
X9488Y1936D01*
Y1937D01*
Y1938D01*
Y1938D01*
Y1938D01*
Y1939D01*
Y1959D01*
D02*
G37*
G36*
X9708Y1847D02*
X9707Y1844D01*
X9706Y1841D01*
X9705Y1837D01*
X9704Y1834D01*
X9703Y1833D01*
X9703Y1831D01*
X9703Y1830D01*
X9702Y1829D01*
X9702Y1828D01*
X9702Y1828D01*
X9701Y1827D01*
Y1827D01*
X9691Y1800D01*
X9724D01*
X9714Y1829D01*
X9712Y1832D01*
X9711Y1836D01*
X9710Y1839D01*
X9710Y1841D01*
X9709Y1844D01*
X9709Y1845D01*
X9709Y1846D01*
X9708Y1846D01*
Y1847D01*
X9708Y1847D01*
Y1847D01*
D02*
G37*
G36*
X9827Y1846D02*
X9804D01*
X9803Y1846D01*
X9801D01*
X9799Y1846D01*
X9796Y1845D01*
X9794Y1845D01*
X9792Y1845D01*
X9791Y1844D01*
X9790Y1844D01*
X9790Y1844D01*
X9787Y1843D01*
X9785Y1841D01*
X9783Y1839D01*
X9781Y1837D01*
X9780Y1836D01*
X9779Y1834D01*
X9778Y1834D01*
X9778Y1833D01*
X9778Y1833D01*
Y1833D01*
X9777Y1831D01*
X9776Y1829D01*
X9775Y1826D01*
X9774Y1822D01*
X9773Y1818D01*
X9773Y1816D01*
X9773Y1815D01*
X9773Y1813D01*
Y1812D01*
X9773Y1811D01*
Y1810D01*
Y1810D01*
Y1809D01*
X9773Y1806D01*
X9773Y1802D01*
X9773Y1799D01*
X9774Y1796D01*
X9774Y1795D01*
X9774Y1794D01*
X9775Y1793D01*
X9775Y1792D01*
X9775Y1791D01*
X9775Y1791D01*
X9775Y1791D01*
Y1791D01*
X9776Y1788D01*
X9777Y1786D01*
X9779Y1783D01*
X9780Y1782D01*
X9781Y1780D01*
X9782Y1779D01*
X9782Y1779D01*
X9782Y1778D01*
X9784Y1777D01*
X9785Y1776D01*
X9787Y1775D01*
X9788Y1775D01*
X9789Y1774D01*
X9790Y1774D01*
X9791Y1773D01*
X9791Y1773D01*
X9793Y1773D01*
X9796Y1772D01*
X9798Y1772D01*
X9801Y1772D01*
X9803Y1772D01*
X9804Y1772D01*
X9827D01*
Y1846D01*
D02*
G37*
G36*
X5118Y1999D02*
X5044D01*
Y1979D01*
Y1977D01*
X5044Y1975D01*
Y1973D01*
X5044Y1971D01*
X5045Y1969D01*
X5045Y1966D01*
X5045Y1964D01*
X5046Y1963D01*
X5046Y1962D01*
X5046Y1962D01*
X5047Y1960D01*
X5049Y1957D01*
X5051Y1955D01*
X5053Y1953D01*
X5054Y1952D01*
X5056Y1951D01*
X5056Y1950D01*
X5057Y1950D01*
X5057Y1950D01*
X5057D01*
X5059Y1949D01*
X5061Y1948D01*
X5064Y1947D01*
X5068Y1946D01*
X5072Y1945D01*
X5074Y1945D01*
X5075Y1945D01*
X5077Y1945D01*
X5078D01*
X5079Y1945D01*
X5081D01*
X5084Y1945D01*
X5088Y1945D01*
X5091Y1946D01*
X5094Y1946D01*
X5095Y1946D01*
X5096Y1947D01*
X5097Y1947D01*
X5098Y1947D01*
X5099Y1947D01*
X5099Y1947D01*
X5099Y1948D01*
X5099D01*
X5102Y1948D01*
X5104Y1950D01*
X5107Y1951D01*
X5108Y1952D01*
X5110Y1953D01*
X5111Y1954D01*
X5111Y1954D01*
X5112Y1955D01*
X5113Y1956D01*
X5114Y1957D01*
X5115Y1959D01*
X5115Y1960D01*
X5116Y1961D01*
X5116Y1962D01*
X5117Y1963D01*
X5117Y1963D01*
X5117Y1966D01*
X5118Y1968D01*
X5118Y1971D01*
X5118Y1973D01*
X5118Y1975D01*
X5118Y1976D01*
Y1977D01*
Y1978D01*
Y1978D01*
Y1978D01*
Y1979D01*
Y1999D01*
D02*
G37*
G36*
X9038Y1209D02*
X8964D01*
Y1189D01*
Y1187D01*
X8964Y1185D01*
Y1183D01*
X8964Y1181D01*
X8965Y1179D01*
X8965Y1176D01*
X8965Y1174D01*
X8966Y1173D01*
X8966Y1172D01*
X8966Y1172D01*
X8967Y1170D01*
X8969Y1167D01*
X8971Y1165D01*
X8973Y1163D01*
X8974Y1162D01*
X8976Y1161D01*
X8976Y1160D01*
X8977Y1160D01*
X8977Y1160D01*
X8977D01*
X8979Y1159D01*
X8981Y1158D01*
X8984Y1157D01*
X8988Y1156D01*
X8992Y1155D01*
X8994Y1155D01*
X8995Y1155D01*
X8997Y1155D01*
X8998D01*
X8999Y1155D01*
X9001D01*
X9004Y1155D01*
X9008Y1155D01*
X9011Y1156D01*
X9014Y1156D01*
X9015Y1156D01*
X9016Y1157D01*
X9017Y1157D01*
X9018Y1157D01*
X9019Y1157D01*
X9019Y1157D01*
X9019Y1158D01*
X9019D01*
X9022Y1158D01*
X9024Y1160D01*
X9027Y1161D01*
X9028Y1162D01*
X9030Y1163D01*
X9031Y1164D01*
X9031Y1164D01*
X9032Y1165D01*
X9033Y1166D01*
X9034Y1167D01*
X9035Y1169D01*
X9035Y1170D01*
X9036Y1171D01*
X9036Y1172D01*
X9037Y1173D01*
X9037Y1173D01*
X9037Y1176D01*
X9038Y1178D01*
X9038Y1181D01*
X9038Y1183D01*
X9038Y1185D01*
X9038Y1186D01*
Y1187D01*
Y1188D01*
Y1188D01*
Y1188D01*
Y1189D01*
Y1209D01*
D02*
G37*
G36*
X9788Y2010D02*
X9714D01*
Y1989D01*
Y1987D01*
X9714Y1985D01*
Y1983D01*
X9714Y1982D01*
X9715Y1979D01*
X9715Y1977D01*
X9715Y1975D01*
X9716Y1974D01*
X9716Y1973D01*
X9716Y1973D01*
X9717Y1970D01*
X9719Y1968D01*
X9721Y1966D01*
X9723Y1964D01*
X9724Y1962D01*
X9726Y1961D01*
X9726Y1961D01*
X9727Y1961D01*
X9727Y1960D01*
X9727D01*
X9729Y1960D01*
X9731Y1959D01*
X9734Y1957D01*
X9738Y1957D01*
X9742Y1956D01*
X9744Y1956D01*
X9745Y1956D01*
X9747Y1955D01*
X9748D01*
X9749Y1955D01*
X9751D01*
X9754Y1955D01*
X9758Y1956D01*
X9761Y1956D01*
X9764Y1957D01*
X9765Y1957D01*
X9766Y1957D01*
X9767Y1957D01*
X9768Y1958D01*
X9769Y1958D01*
X9769Y1958D01*
X9769Y1958D01*
X9769D01*
X9772Y1959D01*
X9774Y1960D01*
X9777Y1961D01*
X9778Y1962D01*
X9780Y1963D01*
X9781Y1964D01*
X9781Y1965D01*
X9782Y1965D01*
X9783Y1966D01*
X9784Y1968D01*
X9785Y1969D01*
X9785Y1971D01*
X9786Y1972D01*
X9786Y1973D01*
X9787Y1974D01*
X9787Y1974D01*
X9787Y1976D01*
X9788Y1979D01*
X9788Y1981D01*
X9788Y1983D01*
X9788Y1986D01*
X9788Y1987D01*
Y1987D01*
Y1988D01*
Y1989D01*
Y1989D01*
Y1989D01*
Y2010D01*
D02*
G37*
G36*
X9534Y1847D02*
X9533Y1844D01*
X9532Y1841D01*
X9531Y1837D01*
X9530Y1834D01*
X9529Y1833D01*
X9529Y1831D01*
X9528Y1830D01*
X9528Y1829D01*
X9528Y1828D01*
X9527Y1828D01*
X9527Y1827D01*
Y1827D01*
X9517Y1800D01*
X9550D01*
X9539Y1829D01*
X9538Y1832D01*
X9537Y1836D01*
X9536Y1839D01*
X9536Y1841D01*
X9535Y1844D01*
X9535Y1845D01*
X9535Y1846D01*
X9534Y1846D01*
Y1847D01*
X9534Y1847D01*
Y1847D01*
D02*
G37*
G36*
X9599Y768D02*
X9577D01*
X9575Y768D01*
X9573D01*
X9571Y767D01*
X9569Y767D01*
X9566Y767D01*
X9564Y766D01*
X9563Y766D01*
X9562Y766D01*
X9562Y766D01*
X9560Y764D01*
X9557Y763D01*
X9555Y761D01*
X9553Y759D01*
X9552Y757D01*
X9551Y756D01*
X9550Y755D01*
X9550Y755D01*
X9550Y755D01*
Y755D01*
X9549Y753D01*
X9548Y751D01*
X9547Y748D01*
X9546Y744D01*
X9545Y740D01*
X9545Y738D01*
X9545Y736D01*
X9545Y735D01*
Y734D01*
X9545Y733D01*
Y732D01*
Y731D01*
Y731D01*
X9545Y727D01*
X9545Y724D01*
X9546Y720D01*
X9546Y717D01*
X9546Y716D01*
X9547Y715D01*
X9547Y714D01*
X9547Y714D01*
X9547Y713D01*
X9547Y713D01*
X9548Y712D01*
Y712D01*
X9548Y710D01*
X9550Y707D01*
X9551Y705D01*
X9552Y703D01*
X9553Y702D01*
X9554Y701D01*
X9554Y700D01*
X9555Y700D01*
X9556Y699D01*
X9557Y698D01*
X9559Y697D01*
X9560Y696D01*
X9561Y696D01*
X9562Y695D01*
X9563Y695D01*
X9563Y695D01*
X9566Y694D01*
X9568Y694D01*
X9571Y694D01*
X9573Y694D01*
X9575Y693D01*
X9576Y693D01*
X9599D01*
Y768D01*
D02*
G37*
G36*
X5648Y2187D02*
X5574D01*
Y2167D01*
Y2164D01*
X5574Y2163D01*
Y2161D01*
X5574Y2159D01*
X5575Y2156D01*
X5575Y2154D01*
X5575Y2152D01*
X5576Y2151D01*
X5576Y2150D01*
X5576Y2150D01*
X5577Y2147D01*
X5579Y2145D01*
X5581Y2143D01*
X5583Y2141D01*
X5584Y2140D01*
X5586Y2139D01*
X5586Y2138D01*
X5587Y2138D01*
X5587Y2138D01*
X5587D01*
X5589Y2137D01*
X5591Y2136D01*
X5594Y2135D01*
X5598Y2134D01*
X5602Y2133D01*
X5604Y2133D01*
X5605Y2133D01*
X5607Y2133D01*
X5608D01*
X5609Y2133D01*
X5611D01*
X5614Y2133D01*
X5618Y2133D01*
X5621Y2133D01*
X5624Y2134D01*
X5625Y2134D01*
X5626Y2134D01*
X5627Y2135D01*
X5628Y2135D01*
X5629Y2135D01*
X5629Y2135D01*
X5629Y2135D01*
X5629D01*
X5632Y2136D01*
X5634Y2137D01*
X5637Y2139D01*
X5638Y2140D01*
X5640Y2141D01*
X5641Y2142D01*
X5641Y2142D01*
X5642Y2142D01*
X5643Y2144D01*
X5644Y2145D01*
X5645Y2147D01*
X5645Y2148D01*
X5646Y2149D01*
X5646Y2150D01*
X5647Y2151D01*
X5647Y2151D01*
X5647Y2153D01*
X5648Y2156D01*
X5648Y2158D01*
X5648Y2161D01*
X5648Y2163D01*
X5648Y2164D01*
Y2165D01*
Y2165D01*
Y2166D01*
Y2166D01*
Y2166D01*
Y2187D01*
D02*
G37*
G36*
X5620Y2084D02*
X5591Y2074D01*
X5588Y2072D01*
X5584Y2071D01*
X5581Y2070D01*
X5579Y2070D01*
X5576Y2069D01*
X5575Y2069D01*
X5574Y2069D01*
X5574Y2068D01*
X5573D01*
X5573Y2068D01*
X5573D01*
X5576Y2067D01*
X5579Y2066D01*
X5583Y2065D01*
X5586Y2064D01*
X5587Y2063D01*
X5589Y2063D01*
X5590Y2063D01*
X5591Y2062D01*
X5592Y2062D01*
X5592Y2062D01*
X5593Y2061D01*
X5593D01*
X5620Y2051D01*
Y2084D01*
D02*
G37*
%LPD*%
D15*
X9347Y726D02*
X9347Y725D01*
X9347Y725D01*
X9347Y725D01*
X9347Y726D01*
D36*
X5750Y200D02*
Y1930D01*
X2750Y200D02*
X2750Y1940D01*
X1430Y180D02*
X1530D01*
X1430Y505D02*
X1530D01*
X8460Y61D02*
X8460Y2541D01*
X2378Y667D02*
X2404Y692D01*
X2455D01*
X2480Y667D01*
Y565D01*
X2455Y540D01*
X2404D01*
X2378Y565D01*
X2328D02*
X2302Y540D01*
X2251D01*
X2226Y565D01*
Y667D01*
X2251Y692D01*
X2302D01*
X2328Y667D01*
Y642D01*
X2302Y616D01*
X2226D01*
X6668Y1067D02*
X6694Y1092D01*
X6745D01*
X6770Y1067D01*
Y965D01*
X6745Y940D01*
X6694D01*
X6668Y965D01*
X6516Y1092D02*
X6567Y1067D01*
X6618Y1016D01*
Y965D01*
X6592Y940D01*
X6541D01*
X6516Y965D01*
Y991D01*
X6541Y1016D01*
X6618D01*
X6558Y1667D02*
X6584Y1692D01*
X6635D01*
X6660Y1667D01*
Y1565D01*
X6635Y1540D01*
X6584D01*
X6558Y1565D01*
X6508Y1540D02*
X6457D01*
X6482D01*
Y1692D01*
X6508Y1667D01*
X1630Y850D02*
X1478D01*
Y774D01*
X1503Y748D01*
X1554D01*
X1579Y774D01*
Y850D01*
Y799D02*
X1630Y748D01*
Y596D02*
Y698D01*
X1528Y596D01*
X1503D01*
X1478Y621D01*
Y672D01*
X1503Y698D01*
X6440Y700D02*
Y570D01*
X6353D01*
X6310Y635D02*
X6223D01*
X6080Y700D02*
Y570D01*
X5993D01*
X5950Y635D02*
X5863D01*
X5907Y678D02*
Y592D01*
X773Y728D02*
X748Y754D01*
Y805D01*
X773Y830D01*
X875D01*
X900Y805D01*
Y754D01*
X875Y728D01*
X748Y576D02*
Y678D01*
X824D01*
X798Y627D01*
Y601D01*
X824Y576D01*
X875D01*
X900Y601D01*
Y652D01*
X875Y678D01*
X918Y2067D02*
X944Y2092D01*
X995D01*
X1020Y2067D01*
Y1965D01*
X995Y1940D01*
X944D01*
X918Y1965D01*
X791Y1940D02*
Y2092D01*
X868Y2016D01*
X766D01*
X783Y348D02*
X758Y374D01*
Y425D01*
X783Y450D01*
X885D01*
X910Y425D01*
Y374D01*
X885Y348D01*
X783Y298D02*
X758Y272D01*
Y221D01*
X783Y196D01*
X808D01*
X834Y221D01*
Y247D01*
Y221D01*
X859Y196D01*
X885D01*
X910Y221D01*
Y272D01*
X885Y298D01*
X2053Y358D02*
X2028Y384D01*
Y435D01*
X2053Y460D01*
X2155D01*
X2180Y435D01*
Y384D01*
X2155Y358D01*
X2180Y206D02*
Y308D01*
X2078Y206D01*
X2053D01*
X2028Y231D01*
Y282D01*
X2053Y308D01*
X4728Y2399D02*
Y2450D01*
Y2424D01*
X4855D01*
X4880Y2450D01*
Y2475D01*
X4855Y2500D01*
X4880Y2247D02*
Y2348D01*
X4778Y2247D01*
X4753D01*
X4728Y2272D01*
Y2323D01*
X4753Y2348D01*
D37*
X5727Y2263D02*
Y2517D01*
X4965D02*
X5727D01*
X4965Y2263D02*
Y2517D01*
Y2263D02*
X5727D01*
X9080Y975D02*
Y1055D01*
X9240Y975D02*
Y1055D01*
D38*
X2508Y1402D02*
Y1498D01*
X2472Y1402D02*
Y1498D01*
X2048Y542D02*
Y638D01*
X2012Y542D02*
Y638D01*
X1222Y1988D02*
X1318D01*
X1222Y1952D02*
X1318D01*
X1211Y705D02*
Y735D01*
X1129Y705D02*
Y735D01*
X962Y738D02*
X1058D01*
X962Y702D02*
X1058D01*
X1401Y705D02*
Y735D01*
X1319Y705D02*
Y735D01*
X1882Y312D02*
X1978D01*
X1882Y348D02*
X1978D01*
X982Y338D02*
X1078D01*
X982Y302D02*
X1078D01*
X6225Y1555D02*
Y1685D01*
X6255Y1555D02*
Y1685D01*
X6315Y955D02*
Y1085D01*
X6285Y955D02*
Y1085D01*
X960Y1225D02*
Y1535D01*
X1620D01*
X960Y1225D02*
X1620D01*
Y1535D01*
X6179Y1185D02*
X6281D01*
X6179Y1455D02*
X6179Y1185D01*
X6281D02*
Y1455D01*
X6179D02*
X6281D01*
X9321Y1970D02*
Y2000D01*
X9239Y1970D02*
Y2000D01*
X8992Y298D02*
X9088D01*
X8992Y262D02*
X9088D01*
X9332Y1150D02*
X9508D01*
X9332Y1230D02*
X9508D01*
X9149Y265D02*
Y295D01*
X9231Y265D02*
Y295D01*
X9171Y765D02*
X9171Y495D01*
X9069D02*
X9171D01*
X9069D02*
X9069Y765D01*
X9171D01*
X9325Y215D02*
X9455D01*
X9325Y245D02*
X9455D01*
D63*
X1661Y1095D02*
X1660Y1095D01*
X1660Y1095D01*
X1660Y1096D01*
X1661Y1095D01*
M02*
