G04 Layer_Physical_Order=1*
G04 Layer_Color=255*
%FSLAX42Y42*%
%MOMM*%
G71*
G01*
G75*
G04:AMPARAMS|DCode=10|XSize=1mm|YSize=0.9mm|CornerRadius=0.11mm|HoleSize=0mm|Usage=FLASHONLY|Rotation=90.000|XOffset=0mm|YOffset=0mm|HoleType=Round|Shape=RoundedRectangle|*
%AMROUNDEDRECTD10*
21,1,1.00,0.68,0,0,90.0*
21,1,0.78,0.90,0,0,90.0*
1,1,0.23,0.34,0.39*
1,1,0.23,0.34,-0.39*
1,1,0.23,-0.34,-0.39*
1,1,0.23,-0.34,0.39*
%
%ADD10ROUNDEDRECTD10*%
%ADD11R,3.00X2.00*%
%ADD12R,0.80X2.00*%
G04:AMPARAMS|DCode=13|XSize=0.8mm|YSize=0.8mm|CornerRadius=0.1mm|HoleSize=0mm|Usage=FLASHONLY|Rotation=180.000|XOffset=0mm|YOffset=0mm|HoleType=Round|Shape=RoundedRectangle|*
%AMROUNDEDRECTD13*
21,1,0.80,0.60,0,0,180.0*
21,1,0.60,0.80,0,0,180.0*
1,1,0.20,-0.30,0.30*
1,1,0.20,0.30,0.30*
1,1,0.20,0.30,-0.30*
1,1,0.20,-0.30,-0.30*
%
%ADD13ROUNDEDRECTD13*%
%ADD14C,0.30*%
%ADD15C,0.50*%
%ADD16C,1.20*%
%ADD17C,4.50*%
%ADD18C,3.50*%
%ADD19C,1.60*%
%ADD20C,1.50*%
%ADD21R,1.50X1.50*%
%ADD22R,1.20X1.20*%
%ADD23C,1.52*%
%ADD24C,1.00*%
%ADD25C,1.27*%
%ADD26C,0.80*%
G36*
X8450Y160D02*
Y50D01*
X8300Y50D01*
X50D01*
Y2550D01*
X1119D01*
X1120Y2548D01*
X1119Y2531D01*
X1112Y2521D01*
X1109Y2509D01*
Y2506D01*
X914D01*
X913Y2512D01*
X907Y2522D01*
X897Y2528D01*
X885Y2531D01*
X825D01*
X813Y2528D01*
X803Y2522D01*
X802Y2520D01*
X744D01*
X741Y2526D01*
X729Y2533D01*
X715Y2536D01*
X698D01*
Y2470D01*
Y2404D01*
X715D01*
X729Y2407D01*
X741Y2414D01*
X744Y2420D01*
X802D01*
X803Y2418D01*
X813Y2412D01*
X825Y2409D01*
X885D01*
X897Y2412D01*
X907Y2418D01*
X913Y2428D01*
X914Y2434D01*
X1109D01*
Y2431D01*
X1112Y2419D01*
X1119Y2409D01*
X1129Y2402D01*
X1141Y2399D01*
X1209D01*
X1219Y2401D01*
X1220Y2400D01*
X1294D01*
Y2351D01*
X1280Y2340D01*
X1269Y2325D01*
X1262Y2308D01*
X1259Y2290D01*
X1262Y2272D01*
X1269Y2255D01*
X1280Y2240D01*
X1295Y2229D01*
X1312Y2222D01*
X1330Y2219D01*
X1348Y2222D01*
X1365Y2229D01*
X1380Y2240D01*
X1391Y2255D01*
X1398Y2272D01*
X1401Y2290D01*
X1398Y2308D01*
X1391Y2325D01*
X1380Y2340D01*
X1366Y2351D01*
Y2399D01*
X1379D01*
X1391Y2402D01*
X1401Y2409D01*
X1408Y2419D01*
X1411Y2431D01*
Y2509D01*
X1408Y2521D01*
X1401Y2531D01*
X1400Y2548D01*
X1401Y2550D01*
X8450Y2550D01*
X8450Y160D01*
D02*
G37*
G36*
X9850Y50D02*
X8550D01*
Y2550D01*
X8744D01*
X8746Y2537D01*
X8725Y2531D01*
X8691Y2513D01*
X8661Y2489D01*
X8637Y2459D01*
X8619Y2425D01*
X8608Y2388D01*
X8604Y2350D01*
X8608Y2312D01*
X8619Y2275D01*
X8637Y2241D01*
X8661Y2211D01*
X8691Y2187D01*
X8725Y2169D01*
X8762Y2158D01*
X8800Y2154D01*
X8838Y2158D01*
X8875Y2169D01*
X8909Y2187D01*
X8939Y2211D01*
X8963Y2241D01*
X8981Y2275D01*
X8992Y2312D01*
X8996Y2350D01*
X8992Y2388D01*
X8981Y2425D01*
X8963Y2459D01*
X8939Y2489D01*
X8909Y2513D01*
X8875Y2531D01*
X8854Y2537D01*
X8856Y2550D01*
X9850D01*
Y50D01*
D02*
G37*
%LPC*%
G36*
X672Y2536D02*
X655D01*
X641Y2533D01*
X629Y2526D01*
X622Y2514D01*
X619Y2500D01*
Y2483D01*
X672D01*
Y2536D01*
D02*
G37*
G36*
X3455Y2527D02*
Y2465D01*
X3517D01*
X3516Y2472D01*
X3509Y2491D01*
X3496Y2506D01*
X3481Y2519D01*
X3462Y2526D01*
X3455Y2527D01*
D02*
G37*
G36*
X3430D02*
X3423Y2526D01*
X3405Y2519D01*
X3389Y2506D01*
X3377Y2491D01*
X3369Y2472D01*
X3368Y2465D01*
X3430D01*
Y2527D01*
D02*
G37*
G36*
X4203Y2524D02*
Y2463D01*
X4264D01*
X4263Y2470D01*
X4256Y2488D01*
X4244Y2504D01*
X4228Y2516D01*
X4210Y2523D01*
X4203Y2524D01*
D02*
G37*
G36*
X4177D02*
X4170Y2523D01*
X4152Y2516D01*
X4136Y2504D01*
X4124Y2488D01*
X4117Y2470D01*
X4116Y2463D01*
X4177D01*
Y2524D01*
D02*
G37*
G36*
X3813D02*
Y2463D01*
X3874D01*
X3873Y2470D01*
X3866Y2488D01*
X3854Y2504D01*
X3838Y2516D01*
X3820Y2523D01*
X3813Y2524D01*
D02*
G37*
G36*
X3787D02*
X3780Y2523D01*
X3762Y2516D01*
X3746Y2504D01*
X3734Y2488D01*
X3727Y2470D01*
X3726Y2463D01*
X3787D01*
Y2524D01*
D02*
G37*
G36*
X3063D02*
Y2463D01*
X3124D01*
X3123Y2470D01*
X3116Y2488D01*
X3104Y2504D01*
X3088Y2516D01*
X3070Y2523D01*
X3063Y2524D01*
D02*
G37*
G36*
X3037D02*
X3030Y2523D01*
X3012Y2516D01*
X2996Y2504D01*
X2984Y2488D01*
X2977Y2470D01*
X2976Y2463D01*
X3037D01*
Y2524D01*
D02*
G37*
G36*
X2673D02*
Y2463D01*
X2734D01*
X2733Y2470D01*
X2726Y2488D01*
X2714Y2504D01*
X2698Y2516D01*
X2680Y2523D01*
X2673Y2524D01*
D02*
G37*
G36*
X2647D02*
X2640Y2523D01*
X2622Y2516D01*
X2606Y2504D01*
X2594Y2488D01*
X2587Y2470D01*
X2586Y2463D01*
X2647D01*
Y2524D01*
D02*
G37*
G36*
X2293D02*
Y2463D01*
X2354D01*
X2353Y2470D01*
X2346Y2488D01*
X2334Y2504D01*
X2318Y2516D01*
X2300Y2523D01*
X2293Y2524D01*
D02*
G37*
G36*
X2267D02*
X2260Y2523D01*
X2242Y2516D01*
X2226Y2504D01*
X2214Y2488D01*
X2207Y2470D01*
X2206Y2463D01*
X2267D01*
Y2524D01*
D02*
G37*
G36*
X1933D02*
Y2463D01*
X1994D01*
X1993Y2470D01*
X1986Y2488D01*
X1974Y2504D01*
X1958Y2516D01*
X1940Y2523D01*
X1933Y2524D01*
D02*
G37*
G36*
X1907D02*
X1900Y2523D01*
X1882Y2516D01*
X1866Y2504D01*
X1854Y2488D01*
X1847Y2470D01*
X1846Y2463D01*
X1907D01*
Y2524D01*
D02*
G37*
G36*
X1573D02*
Y2463D01*
X1634D01*
X1633Y2470D01*
X1626Y2488D01*
X1614Y2504D01*
X1598Y2516D01*
X1580Y2523D01*
X1573Y2524D01*
D02*
G37*
G36*
X1547D02*
X1540Y2523D01*
X1522Y2516D01*
X1506Y2504D01*
X1494Y2488D01*
X1487Y2470D01*
X1486Y2463D01*
X1547D01*
Y2524D01*
D02*
G37*
G36*
X672Y2457D02*
X619D01*
Y2440D01*
X622Y2426D01*
X629Y2414D01*
X641Y2407D01*
X655Y2404D01*
X672D01*
Y2457D01*
D02*
G37*
G36*
X5105Y2490D02*
Y2403D01*
X5192D01*
X5190Y2416D01*
X5180Y2441D01*
X5164Y2462D01*
X5143Y2478D01*
X5118Y2488D01*
X5105Y2490D01*
D02*
G37*
G36*
X5079Y2490D02*
X5066Y2488D01*
X5041Y2478D01*
X5020Y2462D01*
X5004Y2441D01*
X4994Y2416D01*
X4992Y2403D01*
X5079D01*
Y2490D01*
D02*
G37*
G36*
X3517Y2440D02*
X3455D01*
Y2378D01*
X3462Y2379D01*
X3481Y2387D01*
X3496Y2399D01*
X3509Y2415D01*
X3516Y2433D01*
X3517Y2440D01*
D02*
G37*
G36*
X3430D02*
X3368D01*
X3369Y2433D01*
X3377Y2415D01*
X3389Y2399D01*
X3405Y2387D01*
X3423Y2379D01*
X3430Y2378D01*
Y2440D01*
D02*
G37*
G36*
X4264Y2437D02*
X4203D01*
Y2376D01*
X4210Y2377D01*
X4228Y2384D01*
X4244Y2396D01*
X4256Y2412D01*
X4263Y2430D01*
X4264Y2437D01*
D02*
G37*
G36*
X4177D02*
X4116D01*
X4117Y2430D01*
X4124Y2412D01*
X4136Y2396D01*
X4152Y2384D01*
X4170Y2377D01*
X4177Y2376D01*
Y2437D01*
D02*
G37*
G36*
X3874D02*
X3813D01*
Y2376D01*
X3820Y2377D01*
X3838Y2384D01*
X3854Y2396D01*
X3866Y2412D01*
X3873Y2430D01*
X3874Y2437D01*
D02*
G37*
G36*
X3787D02*
X3726D01*
X3727Y2430D01*
X3734Y2412D01*
X3746Y2396D01*
X3762Y2384D01*
X3780Y2377D01*
X3787Y2376D01*
Y2437D01*
D02*
G37*
G36*
X3124D02*
X3063D01*
Y2376D01*
X3070Y2377D01*
X3088Y2384D01*
X3104Y2396D01*
X3116Y2412D01*
X3123Y2430D01*
X3124Y2437D01*
D02*
G37*
G36*
X3037D02*
X2976D01*
X2977Y2430D01*
X2984Y2412D01*
X2996Y2396D01*
X3012Y2384D01*
X3030Y2377D01*
X3037Y2376D01*
Y2437D01*
D02*
G37*
G36*
X2734D02*
X2673D01*
Y2376D01*
X2680Y2377D01*
X2698Y2384D01*
X2714Y2396D01*
X2726Y2412D01*
X2733Y2430D01*
X2734Y2437D01*
D02*
G37*
G36*
X2647D02*
X2586D01*
X2587Y2430D01*
X2594Y2412D01*
X2606Y2396D01*
X2622Y2384D01*
X2640Y2377D01*
X2647Y2376D01*
Y2437D01*
D02*
G37*
G36*
X2354D02*
X2293D01*
Y2376D01*
X2300Y2377D01*
X2318Y2384D01*
X2334Y2396D01*
X2346Y2412D01*
X2353Y2430D01*
X2354Y2437D01*
D02*
G37*
G36*
X2267D02*
X2206D01*
X2207Y2430D01*
X2214Y2412D01*
X2226Y2396D01*
X2242Y2384D01*
X2260Y2377D01*
X2267Y2376D01*
Y2437D01*
D02*
G37*
G36*
X1994D02*
X1933D01*
Y2376D01*
X1940Y2377D01*
X1958Y2384D01*
X1974Y2396D01*
X1986Y2412D01*
X1993Y2430D01*
X1994Y2437D01*
D02*
G37*
G36*
X1907D02*
X1846D01*
X1847Y2430D01*
X1854Y2412D01*
X1866Y2396D01*
X1882Y2384D01*
X1900Y2377D01*
X1907Y2376D01*
Y2437D01*
D02*
G37*
G36*
X1634D02*
X1573D01*
Y2376D01*
X1580Y2377D01*
X1598Y2384D01*
X1614Y2396D01*
X1626Y2412D01*
X1633Y2430D01*
X1634Y2437D01*
D02*
G37*
G36*
X1547D02*
X1486D01*
X1487Y2430D01*
X1494Y2412D01*
X1506Y2396D01*
X1522Y2384D01*
X1540Y2377D01*
X1547Y2376D01*
Y2437D01*
D02*
G37*
G36*
X313Y2500D02*
Y2313D01*
X500D01*
X498Y2339D01*
X486Y2377D01*
X467Y2412D01*
X442Y2442D01*
X412Y2467D01*
X377Y2486D01*
X339Y2497D01*
X313Y2500D01*
D02*
G37*
G36*
X287D02*
X261Y2497D01*
X223Y2486D01*
X188Y2467D01*
X158Y2442D01*
X133Y2412D01*
X114Y2377D01*
X103Y2339D01*
X100Y2313D01*
X287D01*
Y2500D01*
D02*
G37*
G36*
X5346Y2486D02*
X5321Y2483D01*
X5298Y2473D01*
X5278Y2458D01*
X5263Y2438D01*
X5253Y2415D01*
X5250Y2390D01*
X5253Y2365D01*
X5263Y2342D01*
X5278Y2322D01*
X5298Y2307D01*
X5321Y2297D01*
X5346Y2294D01*
X5371Y2297D01*
X5394Y2307D01*
X5414Y2322D01*
X5429Y2342D01*
X5439Y2365D01*
X5442Y2390D01*
X5439Y2415D01*
X5429Y2438D01*
X5414Y2458D01*
X5394Y2473D01*
X5371Y2483D01*
X5346Y2486D01*
D02*
G37*
G36*
X5192Y2377D02*
X5105D01*
Y2290D01*
X5118Y2292D01*
X5143Y2302D01*
X5164Y2318D01*
X5180Y2339D01*
X5190Y2364D01*
X5192Y2377D01*
D02*
G37*
G36*
X5079D02*
X4992D01*
X4994Y2364D01*
X5004Y2339D01*
X5020Y2318D01*
X5041Y2302D01*
X5066Y2292D01*
X5079Y2290D01*
Y2377D01*
D02*
G37*
G36*
X5898Y2355D02*
Y2263D01*
X5990D01*
X5988Y2278D01*
X5977Y2303D01*
X5960Y2325D01*
X5938Y2342D01*
X5913Y2353D01*
X5898Y2355D01*
D02*
G37*
G36*
X5872Y2355D02*
X5857Y2353D01*
X5832Y2342D01*
X5810Y2325D01*
X5793Y2303D01*
X5782Y2278D01*
X5780Y2263D01*
X5872D01*
Y2355D01*
D02*
G37*
G36*
Y2237D02*
X5780D01*
X5782Y2222D01*
X5793Y2197D01*
X5810Y2175D01*
X5832Y2158D01*
X5857Y2147D01*
X5872Y2145D01*
Y2237D01*
D02*
G37*
G36*
X5990D02*
X5898D01*
Y2145D01*
X5913Y2147D01*
X5938Y2158D01*
X5960Y2175D01*
X5977Y2197D01*
X5988Y2222D01*
X5990Y2237D01*
D02*
G37*
G36*
X2433Y2204D02*
Y2143D01*
X2494D01*
X2493Y2150D01*
X2486Y2168D01*
X2474Y2184D01*
X2458Y2196D01*
X2440Y2203D01*
X2433Y2204D01*
D02*
G37*
G36*
X2407D02*
X2400Y2203D01*
X2382Y2196D01*
X2366Y2184D01*
X2354Y2168D01*
X2347Y2150D01*
X2346Y2143D01*
X2407D01*
Y2204D01*
D02*
G37*
G36*
X2119Y2131D02*
X2051D01*
X2041Y2129D01*
X2040Y2130D01*
X1960D01*
X1959Y2129D01*
X1949Y2131D01*
X1881D01*
X1869Y2128D01*
X1859Y2121D01*
X1852Y2111D01*
X1850Y2101D01*
X1668D01*
X1665Y2105D01*
X1650Y2116D01*
X1633Y2123D01*
X1615Y2126D01*
X1597Y2123D01*
X1580Y2116D01*
X1565Y2105D01*
X1554Y2090D01*
X1547Y2073D01*
X1544Y2055D01*
X1547Y2037D01*
X1554Y2020D01*
X1565Y2005D01*
X1569Y2002D01*
Y1484D01*
X1566Y1481D01*
X1521D01*
X1511Y1479D01*
X1510Y1480D01*
X1438D01*
X1433Y1483D01*
X1431Y1484D01*
Y1765D01*
X1427Y1783D01*
X1417Y1797D01*
X1192Y2023D01*
X1186Y2038D01*
X1174Y2054D01*
X1158Y2066D01*
X1140Y2073D01*
X1133Y2074D01*
Y2000D01*
Y1926D01*
X1140Y1927D01*
X1153Y1932D01*
X1339Y1746D01*
Y1579D01*
X1328Y1574D01*
X1323Y1577D01*
X1300Y1581D01*
X1277Y1577D01*
X1257Y1563D01*
X1252Y1556D01*
X420D01*
Y1680D01*
X80D01*
Y1440D01*
X420D01*
Y1484D01*
X974D01*
Y1371D01*
X740Y1371D01*
X593Y1218D01*
Y872D01*
X728Y778D01*
X724Y766D01*
X420D01*
Y790D01*
X80D01*
Y550D01*
X420D01*
Y694D01*
X1240D01*
X1254Y697D01*
X1265Y705D01*
X1330Y770D01*
X1605Y770D01*
X1661Y714D01*
X1659Y700D01*
X1660Y692D01*
X1651Y681D01*
X1399D01*
X1383Y692D01*
X1360Y696D01*
X1337Y692D01*
X1317Y678D01*
X1303Y658D01*
X1299Y635D01*
X1303Y612D01*
X1317Y592D01*
X1337Y578D01*
X1360Y574D01*
X1383Y578D01*
X1399Y589D01*
X1675D01*
X1693Y593D01*
X1707Y603D01*
X1726Y621D01*
X1740Y619D01*
X1761Y622D01*
X1780Y630D01*
X1797Y643D01*
X1806Y654D01*
X3860D01*
X3878Y658D01*
X3892Y668D01*
X4529Y1304D01*
X5430D01*
X5437Y1291D01*
X5434Y1288D01*
X5427Y1270D01*
X5426Y1263D01*
X5574D01*
X5573Y1270D01*
X5566Y1288D01*
X5563Y1291D01*
X5570Y1304D01*
X6474D01*
X6483Y1293D01*
X6500Y1280D01*
X6519Y1272D01*
X6540Y1269D01*
X6561Y1272D01*
X6580Y1280D01*
X6597Y1293D01*
X6610Y1310D01*
X6612Y1314D01*
X6630D01*
X6694Y1250D01*
Y549D01*
X6685Y540D01*
X6605D01*
X6604Y539D01*
X6594Y541D01*
X6526D01*
X6514Y538D01*
X6504Y531D01*
X6497Y521D01*
X6494Y509D01*
Y506D01*
X6036D01*
X6030Y520D01*
X6017Y537D01*
X6000Y550D01*
X5981Y558D01*
X5960Y561D01*
X5939Y558D01*
X5920Y550D01*
X5903Y537D01*
X5890Y520D01*
X5882Y501D01*
X5879Y480D01*
X5882Y459D01*
X5890Y440D01*
X5903Y423D01*
X5920Y410D01*
X5939Y402D01*
X5960Y399D01*
X5981Y402D01*
X6000Y410D01*
X6017Y423D01*
X6026Y434D01*
X6494D01*
Y431D01*
X6497Y419D01*
X6504Y409D01*
X6514Y402D01*
X6526Y399D01*
X6594D01*
X6604Y401D01*
X6605Y400D01*
X6685D01*
X6686Y401D01*
X6696Y399D01*
X6764D01*
X6776Y402D01*
X6786Y409D01*
X6793Y419D01*
X6796Y431D01*
Y509D01*
X6793Y521D01*
X6786Y531D01*
X6776Y538D01*
X6766Y540D01*
Y1265D01*
X6763Y1279D01*
X6755Y1290D01*
X6670Y1375D01*
X6659Y1383D01*
X6645Y1386D01*
X6612D01*
X6610Y1390D01*
X6597Y1407D01*
X6580Y1420D01*
X6561Y1428D01*
X6540Y1431D01*
X6519Y1428D01*
X6500Y1420D01*
X6483Y1407D01*
X6474Y1396D01*
X4510D01*
X4492Y1392D01*
X4478Y1382D01*
X3841Y746D01*
X1806D01*
X1797Y757D01*
X1780Y770D01*
X1769Y775D01*
X1767Y789D01*
X1887Y872D01*
X1887Y1221D01*
X1737Y1371D01*
X1633Y1371D01*
X1621Y1383D01*
Y1406D01*
X1647Y1433D01*
X1657Y1447D01*
X1661Y1465D01*
Y2002D01*
X1665Y2005D01*
X1668Y2009D01*
X1852D01*
X1852Y2009D01*
X1859Y1999D01*
X1869Y1992D01*
X1881Y1989D01*
X1949D01*
X1959Y1991D01*
X1960Y1990D01*
X2040D01*
X2049Y1981D01*
Y1526D01*
X2035Y1515D01*
X2024Y1500D01*
X2017Y1483D01*
X2014Y1465D01*
X2017Y1447D01*
X2024Y1430D01*
X2035Y1415D01*
X2050Y1404D01*
X2067Y1397D01*
X2085Y1394D01*
X2103Y1397D01*
X2120Y1404D01*
X2135Y1415D01*
X2146Y1430D01*
X2153Y1447D01*
X2156Y1465D01*
X2153Y1483D01*
X2146Y1500D01*
X2135Y1515D01*
X2121Y1526D01*
Y1990D01*
X2131Y1992D01*
X2141Y1999D01*
X2148Y2009D01*
X2151Y2021D01*
Y2099D01*
X2148Y2111D01*
X2141Y2121D01*
X2131Y2128D01*
X2119Y2131D01*
D02*
G37*
G36*
X500Y2287D02*
X313D01*
Y2100D01*
X339Y2102D01*
X377Y2114D01*
X412Y2133D01*
X442Y2158D01*
X467Y2188D01*
X486Y2223D01*
X498Y2261D01*
X500Y2287D01*
D02*
G37*
G36*
X287D02*
X100D01*
X103Y2261D01*
X114Y2223D01*
X133Y2188D01*
X158Y2158D01*
X188Y2133D01*
X223Y2114D01*
X261Y2102D01*
X287Y2100D01*
Y2287D01*
D02*
G37*
G36*
X8200Y2466D02*
X8162Y2462D01*
X8125Y2451D01*
X8091Y2433D01*
X8061Y2409D01*
X8037Y2379D01*
X8019Y2345D01*
X8008Y2308D01*
X8004Y2270D01*
X8008Y2232D01*
X8019Y2195D01*
X8037Y2161D01*
X8061Y2131D01*
X8091Y2107D01*
X8125Y2089D01*
X8162Y2078D01*
X8200Y2074D01*
X8238Y2078D01*
X8275Y2089D01*
X8309Y2107D01*
X8339Y2131D01*
X8363Y2161D01*
X8381Y2195D01*
X8392Y2232D01*
X8396Y2270D01*
X8392Y2308D01*
X8381Y2345D01*
X8363Y2379D01*
X8339Y2409D01*
X8309Y2433D01*
X8275Y2451D01*
X8238Y2462D01*
X8200Y2466D01*
D02*
G37*
G36*
X7000D02*
X6962Y2462D01*
X6925Y2451D01*
X6891Y2433D01*
X6861Y2409D01*
X6837Y2379D01*
X6819Y2345D01*
X6808Y2308D01*
X6804Y2270D01*
X6808Y2232D01*
X6819Y2195D01*
X6837Y2161D01*
X6861Y2131D01*
X6891Y2107D01*
X6925Y2089D01*
X6962Y2078D01*
X7000Y2074D01*
X7038Y2078D01*
X7075Y2089D01*
X7109Y2107D01*
X7139Y2131D01*
X7163Y2161D01*
X7181Y2195D01*
X7192Y2232D01*
X7196Y2270D01*
X7192Y2308D01*
X7181Y2345D01*
X7163Y2379D01*
X7139Y2409D01*
X7109Y2433D01*
X7075Y2451D01*
X7038Y2462D01*
X7000Y2466D01*
D02*
G37*
G36*
X2494Y2117D02*
X2433D01*
Y2056D01*
X2440Y2057D01*
X2458Y2064D01*
X2474Y2076D01*
X2486Y2092D01*
X2493Y2110D01*
X2494Y2117D01*
D02*
G37*
G36*
X2407D02*
X2346D01*
X2347Y2110D01*
X2354Y2092D01*
X2366Y2076D01*
X2382Y2064D01*
X2400Y2057D01*
X2407Y2056D01*
Y2117D01*
D02*
G37*
G36*
X1107Y2074D02*
X1100Y2073D01*
X1082Y2066D01*
X1066Y2054D01*
X1054Y2038D01*
X1047Y2020D01*
X1046Y2013D01*
X1107D01*
Y2074D01*
D02*
G37*
G36*
X6375Y2171D02*
X6349Y2167D01*
X6325Y2157D01*
X6304Y2141D01*
X6288Y2120D01*
X6278Y2096D01*
X6274Y2070D01*
X6278Y2044D01*
X6288Y2020D01*
X6304Y1999D01*
X6325Y1983D01*
X6349Y1973D01*
X6375Y1969D01*
X6401Y1973D01*
X6425Y1983D01*
X6446Y1999D01*
X6462Y2020D01*
X6472Y2044D01*
X6476Y2070D01*
X6472Y2096D01*
X6462Y2120D01*
X6446Y2141D01*
X6425Y2157D01*
X6401Y2167D01*
X6375Y2171D01*
D02*
G37*
G36*
X1107Y1987D02*
X1046D01*
X1047Y1980D01*
X1054Y1962D01*
X1066Y1946D01*
X1082Y1934D01*
X1100Y1927D01*
X1107Y1926D01*
Y1987D01*
D02*
G37*
G36*
X8287Y1861D02*
Y1800D01*
X8348D01*
X8347Y1807D01*
X8340Y1825D01*
X8328Y1841D01*
X8312Y1853D01*
X8294Y1860D01*
X8287Y1861D01*
D02*
G37*
G36*
X8261D02*
X8254Y1860D01*
X8236Y1853D01*
X8220Y1841D01*
X8208Y1825D01*
X8200Y1807D01*
X8199Y1800D01*
X8261D01*
Y1861D01*
D02*
G37*
G36*
X8348Y1774D02*
X8287D01*
Y1713D01*
X8294Y1714D01*
X8312Y1721D01*
X8328Y1733D01*
X8340Y1749D01*
X8347Y1767D01*
X8348Y1774D01*
D02*
G37*
G36*
X8261D02*
X8199D01*
X8200Y1767D01*
X8208Y1749D01*
X8220Y1733D01*
X8236Y1721D01*
X8254Y1714D01*
X8261Y1713D01*
Y1774D01*
D02*
G37*
G36*
X680Y1757D02*
Y1695D01*
X742D01*
X741Y1702D01*
X733Y1721D01*
X721Y1736D01*
X705Y1749D01*
X687Y1756D01*
X680Y1757D01*
D02*
G37*
G36*
X655D02*
X648Y1756D01*
X629Y1749D01*
X614Y1736D01*
X601Y1721D01*
X594Y1702D01*
X593Y1695D01*
X655D01*
Y1757D01*
D02*
G37*
G36*
X742Y1670D02*
X680D01*
Y1608D01*
X687Y1609D01*
X705Y1617D01*
X721Y1629D01*
X733Y1645D01*
X741Y1663D01*
X742Y1670D01*
D02*
G37*
G36*
X655D02*
X593D01*
X594Y1663D01*
X601Y1645D01*
X614Y1629D01*
X629Y1617D01*
X648Y1609D01*
X655Y1608D01*
Y1670D01*
D02*
G37*
G36*
X2283Y1664D02*
Y1603D01*
X2344D01*
X2343Y1610D01*
X2336Y1628D01*
X2324Y1644D01*
X2308Y1656D01*
X2290Y1663D01*
X2283Y1664D01*
D02*
G37*
G36*
X2257D02*
X2250Y1663D01*
X2232Y1656D01*
X2216Y1644D01*
X2204Y1628D01*
X2197Y1610D01*
X2196Y1603D01*
X2257D01*
Y1664D01*
D02*
G37*
G36*
X1933D02*
Y1603D01*
X1994D01*
X1993Y1610D01*
X1986Y1628D01*
X1974Y1644D01*
X1958Y1656D01*
X1940Y1663D01*
X1933Y1664D01*
D02*
G37*
G36*
X1907D02*
X1900Y1663D01*
X1882Y1656D01*
X1866Y1644D01*
X1854Y1628D01*
X1847Y1610D01*
X1846Y1603D01*
X1907D01*
Y1664D01*
D02*
G37*
G36*
X5523Y1654D02*
Y1593D01*
X5584D01*
X5583Y1600D01*
X5576Y1618D01*
X5564Y1634D01*
X5548Y1646D01*
X5530Y1653D01*
X5523Y1654D01*
D02*
G37*
G36*
X5497D02*
X5490Y1653D01*
X5472Y1646D01*
X5456Y1634D01*
X5444Y1618D01*
X5437Y1600D01*
X5436Y1593D01*
X5497D01*
Y1654D01*
D02*
G37*
G36*
X2344Y1577D02*
X2283D01*
Y1516D01*
X2290Y1517D01*
X2308Y1524D01*
X2324Y1536D01*
X2336Y1552D01*
X2343Y1570D01*
X2344Y1577D01*
D02*
G37*
G36*
X2257D02*
X2196D01*
X2197Y1570D01*
X2204Y1552D01*
X2216Y1536D01*
X2232Y1524D01*
X2250Y1517D01*
X2257Y1516D01*
Y1577D01*
D02*
G37*
G36*
X1994D02*
X1933D01*
Y1516D01*
X1940Y1517D01*
X1958Y1524D01*
X1974Y1536D01*
X1986Y1552D01*
X1993Y1570D01*
X1994Y1577D01*
D02*
G37*
G36*
X1907D02*
X1846D01*
X1847Y1570D01*
X1854Y1552D01*
X1866Y1536D01*
X1882Y1524D01*
X1900Y1517D01*
X1907Y1516D01*
Y1577D01*
D02*
G37*
G36*
X5584Y1567D02*
X5523D01*
Y1506D01*
X5530Y1507D01*
X5548Y1514D01*
X5564Y1526D01*
X5576Y1542D01*
X5583Y1560D01*
X5584Y1567D01*
D02*
G37*
G36*
X5497D02*
X5436D01*
X5437Y1560D01*
X5444Y1542D01*
X5456Y1526D01*
X5472Y1514D01*
X5490Y1507D01*
X5497Y1506D01*
Y1567D01*
D02*
G37*
G36*
X5695Y2485D02*
X5505D01*
Y2295D01*
X5564D01*
Y1865D01*
X5567Y1851D01*
X5575Y1840D01*
X5794Y1621D01*
X5788Y1606D01*
X5784Y1580D01*
X5788Y1554D01*
X5798Y1530D01*
X5814Y1509D01*
X5835Y1493D01*
X5859Y1483D01*
X5885Y1479D01*
X5911Y1483D01*
X5935Y1493D01*
X5956Y1509D01*
X5972Y1530D01*
X5982Y1554D01*
X5986Y1580D01*
X5982Y1606D01*
X5972Y1630D01*
X5956Y1651D01*
X5935Y1667D01*
X5911Y1677D01*
X5885Y1681D01*
X5859Y1677D01*
X5844Y1671D01*
X5636Y1880D01*
Y2295D01*
X5695D01*
Y2485D01*
D02*
G37*
G36*
X8287Y1501D02*
Y1440D01*
X8348D01*
X8347Y1447D01*
X8340Y1465D01*
X8328Y1481D01*
X8312Y1493D01*
X8294Y1500D01*
X8287Y1501D01*
D02*
G37*
G36*
X8261D02*
X8254Y1500D01*
X8236Y1493D01*
X8220Y1481D01*
X8208Y1465D01*
X8200Y1447D01*
X8199Y1440D01*
X8261D01*
Y1501D01*
D02*
G37*
G36*
X8348Y1414D02*
X8287D01*
Y1353D01*
X8294Y1354D01*
X8312Y1361D01*
X8328Y1373D01*
X8340Y1389D01*
X8347Y1407D01*
X8348Y1414D01*
D02*
G37*
G36*
X8261D02*
X8199D01*
X8200Y1407D01*
X8208Y1389D01*
X8220Y1373D01*
X8236Y1361D01*
X8254Y1354D01*
X8261Y1353D01*
Y1414D01*
D02*
G37*
G36*
X4200Y1746D02*
X4152Y1741D01*
X4106Y1727D01*
X4063Y1705D01*
X4026Y1674D01*
X3995Y1637D01*
X3973Y1594D01*
X3959Y1548D01*
X3954Y1500D01*
X3959Y1452D01*
X3973Y1406D01*
X3995Y1363D01*
X4026Y1326D01*
X4063Y1295D01*
X4106Y1273D01*
X4152Y1259D01*
X4200Y1254D01*
X4248Y1259D01*
X4294Y1273D01*
X4337Y1295D01*
X4374Y1326D01*
X4405Y1363D01*
X4427Y1406D01*
X4441Y1452D01*
X4446Y1500D01*
X4441Y1548D01*
X4427Y1594D01*
X4405Y1637D01*
X4374Y1674D01*
X4337Y1705D01*
X4294Y1727D01*
X4248Y1741D01*
X4200Y1746D01*
D02*
G37*
G36*
X2600Y1348D02*
X2579Y1345D01*
X2560Y1337D01*
X2543Y1325D01*
X2530Y1308D01*
X2522Y1288D01*
X2519Y1268D01*
X2522Y1247D01*
X2530Y1227D01*
X2543Y1210D01*
X2560Y1198D01*
X2579Y1190D01*
X2600Y1187D01*
X2621Y1190D01*
X2640Y1198D01*
X2657Y1210D01*
X2670Y1227D01*
X2678Y1247D01*
X2681Y1268D01*
X2678Y1288D01*
X2670Y1308D01*
X2657Y1325D01*
X2640Y1337D01*
X2621Y1345D01*
X2600Y1348D01*
D02*
G37*
G36*
X5574Y1237D02*
X5513D01*
Y1176D01*
X5520Y1177D01*
X5538Y1184D01*
X5554Y1196D01*
X5566Y1212D01*
X5573Y1230D01*
X5574Y1237D01*
D02*
G37*
G36*
X5487D02*
X5426D01*
X5427Y1230D01*
X5434Y1212D01*
X5446Y1196D01*
X5462Y1184D01*
X5480Y1177D01*
X5487Y1176D01*
Y1237D01*
D02*
G37*
G36*
X8287Y1161D02*
Y1100D01*
X8348D01*
X8347Y1107D01*
X8340Y1125D01*
X8328Y1141D01*
X8312Y1153D01*
X8294Y1160D01*
X8287Y1161D01*
D02*
G37*
G36*
X8261D02*
X8254Y1160D01*
X8236Y1153D01*
X8220Y1141D01*
X8208Y1125D01*
X8200Y1107D01*
X8199Y1100D01*
X8261D01*
Y1161D01*
D02*
G37*
G36*
X8348Y1074D02*
X8287D01*
Y1013D01*
X8294Y1014D01*
X8312Y1021D01*
X8328Y1033D01*
X8340Y1049D01*
X8347Y1067D01*
X8348Y1074D01*
D02*
G37*
G36*
X8261D02*
X8199D01*
X8200Y1067D01*
X8208Y1049D01*
X8220Y1033D01*
X8236Y1021D01*
X8254Y1014D01*
X8261Y1013D01*
Y1074D01*
D02*
G37*
G36*
X5960Y1111D02*
X5939Y1108D01*
X5920Y1100D01*
X5903Y1087D01*
X5890Y1070D01*
X5882Y1051D01*
X5879Y1030D01*
X5882Y1009D01*
X5890Y990D01*
X5903Y973D01*
X5920Y960D01*
X5939Y952D01*
X5960Y949D01*
X5981Y952D01*
X6000Y960D01*
X6017Y973D01*
X6030Y990D01*
X6038Y1009D01*
X6041Y1030D01*
X6038Y1051D01*
X6030Y1070D01*
X6017Y1087D01*
X6000Y1100D01*
X5981Y1108D01*
X5960Y1111D01*
D02*
G37*
G36*
X2603Y984D02*
Y913D01*
X2674D01*
X2673Y922D01*
X2665Y943D01*
X2651Y961D01*
X2633Y975D01*
X2612Y983D01*
X2603Y984D01*
D02*
G37*
G36*
X2577Y984D02*
X2568Y983D01*
X2547Y975D01*
X2529Y961D01*
X2515Y943D01*
X2507Y922D01*
X2506Y913D01*
X2577D01*
Y984D01*
D02*
G37*
G36*
X2158Y1291D02*
X2119Y1287D01*
X2083Y1276D01*
X2049Y1258D01*
X2019Y1234D01*
X1995Y1204D01*
X1976Y1170D01*
X1965Y1133D01*
X1962Y1095D01*
X1965Y1057D01*
X1976Y1020D01*
X1995Y986D01*
X2019Y956D01*
X2049Y932D01*
X2083Y914D01*
X2119Y903D01*
X2158Y899D01*
X2196Y903D01*
X2232Y914D01*
X2266Y932D01*
X2296Y956D01*
X2320Y986D01*
X2339Y1020D01*
X2350Y1057D01*
X2353Y1095D01*
X2350Y1133D01*
X2339Y1170D01*
X2320Y1204D01*
X2296Y1234D01*
X2266Y1258D01*
X2232Y1276D01*
X2196Y1287D01*
X2158Y1291D01*
D02*
G37*
G36*
X358D02*
X319Y1287D01*
X283Y1276D01*
X249Y1258D01*
X219Y1234D01*
X195Y1204D01*
X176Y1170D01*
X165Y1133D01*
X162Y1095D01*
X165Y1057D01*
X176Y1020D01*
X195Y986D01*
X219Y956D01*
X249Y932D01*
X283Y914D01*
X319Y903D01*
X358Y899D01*
X396Y903D01*
X432Y914D01*
X466Y932D01*
X496Y956D01*
X520Y986D01*
X539Y1020D01*
X550Y1057D01*
X553Y1095D01*
X550Y1133D01*
X539Y1170D01*
X520Y1204D01*
X496Y1234D01*
X466Y1258D01*
X432Y1276D01*
X396Y1287D01*
X358Y1291D01*
D02*
G37*
G36*
X2577Y887D02*
X2506D01*
X2507Y878D01*
X2515Y857D01*
X2529Y839D01*
X2547Y825D01*
X2568Y817D01*
X2577Y816D01*
Y887D01*
D02*
G37*
G36*
X2674D02*
X2603D01*
Y816D01*
X2612Y817D01*
X2633Y825D01*
X2651Y839D01*
X2665Y857D01*
X2673Y878D01*
X2674Y887D01*
D02*
G37*
G36*
X7580Y1426D02*
X7529Y1422D01*
X7479Y1410D01*
X7432Y1390D01*
X7388Y1364D01*
X7349Y1331D01*
X7316Y1292D01*
X7290Y1248D01*
X7270Y1201D01*
X7258Y1151D01*
X7254Y1100D01*
X7258Y1049D01*
X7270Y999D01*
X7290Y952D01*
X7316Y908D01*
X7349Y869D01*
X7388Y836D01*
X7432Y810D01*
X7479Y790D01*
X7529Y778D01*
X7580Y774D01*
Y775D01*
X7582Y775D01*
X7802D01*
X7807Y774D01*
Y774D01*
X7858Y778D01*
X7907Y789D01*
X7955Y809D01*
X7998Y836D01*
X8037Y869D01*
X8070Y908D01*
X8097Y952D01*
X8117Y999D01*
X8129Y1049D01*
X8133Y1100D01*
X8129Y1151D01*
X8117Y1200D01*
X8097Y1248D01*
X8070Y1291D01*
X8037Y1330D01*
X7998Y1363D01*
X7955Y1390D01*
X7907Y1410D01*
X7858Y1422D01*
X7807Y1426D01*
Y1425D01*
X7580D01*
Y1426D01*
D02*
G37*
G36*
X6363Y834D02*
Y763D01*
X6434D01*
X6433Y772D01*
X6425Y793D01*
X6411Y811D01*
X6393Y825D01*
X6372Y833D01*
X6363Y834D01*
D02*
G37*
G36*
X6337D02*
X6328Y833D01*
X6307Y825D01*
X6289Y811D01*
X6275Y793D01*
X6267Y772D01*
X6266Y763D01*
X6337D01*
Y834D01*
D02*
G37*
G36*
X8287Y771D02*
Y710D01*
X8348D01*
X8347Y717D01*
X8340Y735D01*
X8328Y751D01*
X8312Y763D01*
X8294Y770D01*
X8287Y771D01*
D02*
G37*
G36*
X8261D02*
X8254Y770D01*
X8236Y763D01*
X8220Y751D01*
X8208Y735D01*
X8200Y717D01*
X8199Y710D01*
X8261D01*
Y771D01*
D02*
G37*
G36*
X6000Y831D02*
X5979Y828D01*
X5960Y820D01*
X5943Y807D01*
X5930Y790D01*
X5922Y771D01*
X5919Y750D01*
X5922Y729D01*
X5930Y710D01*
X5943Y693D01*
X5960Y680D01*
X5979Y672D01*
X6000Y669D01*
X6021Y672D01*
X6040Y680D01*
X6057Y693D01*
X6070Y710D01*
X6078Y729D01*
X6081Y750D01*
X6078Y771D01*
X6070Y790D01*
X6057Y807D01*
X6040Y820D01*
X6021Y828D01*
X6000Y831D01*
D02*
G37*
G36*
X6434Y737D02*
X6363D01*
Y666D01*
X6372Y667D01*
X6393Y675D01*
X6411Y689D01*
X6425Y707D01*
X6433Y728D01*
X6434Y737D01*
D02*
G37*
G36*
X6337D02*
X6266D01*
X6267Y728D01*
X6275Y707D01*
X6289Y689D01*
X6307Y675D01*
X6328Y667D01*
X6337Y666D01*
Y737D01*
D02*
G37*
G36*
X8348Y684D02*
X8287D01*
Y623D01*
X8294Y624D01*
X8312Y631D01*
X8328Y643D01*
X8340Y659D01*
X8347Y677D01*
X8348Y684D01*
D02*
G37*
G36*
X8261D02*
X8199D01*
X8200Y677D01*
X8208Y659D01*
X8220Y643D01*
X8236Y631D01*
X8254Y624D01*
X8261Y623D01*
Y684D01*
D02*
G37*
G36*
X680Y587D02*
Y525D01*
X742D01*
X741Y532D01*
X733Y551D01*
X721Y566D01*
X705Y579D01*
X687Y586D01*
X680Y587D01*
D02*
G37*
G36*
X655D02*
X648Y586D01*
X629Y579D01*
X614Y566D01*
X601Y551D01*
X594Y532D01*
X593Y525D01*
X655D01*
Y587D01*
D02*
G37*
G36*
X742Y500D02*
X680D01*
Y438D01*
X687Y439D01*
X705Y447D01*
X721Y459D01*
X733Y475D01*
X741Y493D01*
X742Y500D01*
D02*
G37*
G36*
X655D02*
X593D01*
X594Y493D01*
X601Y475D01*
X614Y459D01*
X629Y447D01*
X648Y439D01*
X655Y438D01*
Y500D01*
D02*
G37*
G36*
X8287Y425D02*
Y350D01*
X8362D01*
X8360Y360D01*
X8351Y382D01*
X8337Y400D01*
X8319Y415D01*
X8297Y424D01*
X8287Y425D01*
D02*
G37*
G36*
X8261D02*
X8251Y424D01*
X8229Y415D01*
X8210Y400D01*
X8196Y382D01*
X8187Y360D01*
X8186Y350D01*
X8261D01*
Y425D01*
D02*
G37*
G36*
X2580Y511D02*
X2559Y508D01*
X2540Y500D01*
X2523Y487D01*
X2510Y470D01*
X2502Y451D01*
X2499Y430D01*
X2502Y409D01*
X2510Y390D01*
X2523Y373D01*
X2540Y360D01*
X2559Y352D01*
X2580Y349D01*
X2601Y352D01*
X2620Y360D01*
X2637Y373D01*
X2650Y390D01*
X2658Y409D01*
X2661Y430D01*
X2658Y451D01*
X2650Y470D01*
X2637Y487D01*
X2620Y500D01*
X2601Y508D01*
X2580Y511D01*
D02*
G37*
G36*
X4200Y746D02*
X4152Y741D01*
X4106Y727D01*
X4063Y705D01*
X4026Y674D01*
X3995Y637D01*
X3973Y594D01*
X3959Y548D01*
X3954Y500D01*
X3959Y452D01*
X3973Y406D01*
X3995Y363D01*
X4026Y326D01*
X4063Y295D01*
X4106Y273D01*
X4152Y259D01*
X4200Y254D01*
X4248Y259D01*
X4294Y273D01*
X4337Y295D01*
X4374Y326D01*
X4405Y363D01*
X4427Y406D01*
X4441Y452D01*
X4446Y500D01*
X4441Y548D01*
X4427Y594D01*
X4405Y637D01*
X4374Y674D01*
X4337Y705D01*
X4294Y727D01*
X4248Y741D01*
X4200Y746D01*
D02*
G37*
G36*
X5973Y324D02*
Y253D01*
X6044D01*
X6043Y262D01*
X6035Y283D01*
X6021Y301D01*
X6003Y315D01*
X5982Y323D01*
X5973Y324D01*
D02*
G37*
G36*
X5947Y324D02*
X5938Y323D01*
X5917Y315D01*
X5899Y301D01*
X5885Y283D01*
X5877Y262D01*
X5876Y253D01*
X5947D01*
Y324D01*
D02*
G37*
G36*
X8362Y324D02*
X8287D01*
Y249D01*
X8297Y250D01*
X8319Y259D01*
X8337Y274D01*
X8351Y292D01*
X8360Y314D01*
X8362Y324D01*
D02*
G37*
G36*
X8261D02*
X8186D01*
X8187Y314D01*
X8196Y292D01*
X8210Y274D01*
X8229Y259D01*
X8251Y250D01*
X8261Y249D01*
Y324D01*
D02*
G37*
G36*
X5453Y244D02*
Y183D01*
X5514D01*
X5513Y190D01*
X5506Y208D01*
X5494Y224D01*
X5478Y236D01*
X5460Y243D01*
X5453Y244D01*
D02*
G37*
G36*
X5427D02*
X5420Y243D01*
X5402Y236D01*
X5386Y224D01*
X5374Y208D01*
X5367Y190D01*
X5366Y183D01*
X5427D01*
Y244D01*
D02*
G37*
G36*
X4963D02*
Y183D01*
X5024D01*
X5023Y190D01*
X5016Y208D01*
X5004Y224D01*
X4988Y236D01*
X4970Y243D01*
X4963Y244D01*
D02*
G37*
G36*
X4937D02*
X4930Y243D01*
X4912Y236D01*
X4896Y224D01*
X4884Y208D01*
X4877Y190D01*
X4876Y183D01*
X4937D01*
Y244D01*
D02*
G37*
G36*
X4533D02*
Y183D01*
X4594D01*
X4593Y190D01*
X4586Y208D01*
X4574Y224D01*
X4558Y236D01*
X4540Y243D01*
X4533Y244D01*
D02*
G37*
G36*
X4507D02*
X4500Y243D01*
X4482Y236D01*
X4466Y224D01*
X4454Y208D01*
X4447Y190D01*
X4446Y183D01*
X4507D01*
Y244D01*
D02*
G37*
G36*
X4023D02*
Y183D01*
X4084D01*
X4083Y190D01*
X4076Y208D01*
X4064Y224D01*
X4048Y236D01*
X4030Y243D01*
X4023Y244D01*
D02*
G37*
G36*
X3997D02*
X3990Y243D01*
X3972Y236D01*
X3956Y224D01*
X3944Y208D01*
X3937Y190D01*
X3936Y183D01*
X3997D01*
Y244D01*
D02*
G37*
G36*
X3543D02*
Y183D01*
X3604D01*
X3603Y190D01*
X3596Y208D01*
X3584Y224D01*
X3568Y236D01*
X3550Y243D01*
X3543Y244D01*
D02*
G37*
G36*
X3517D02*
X3510Y243D01*
X3492Y236D01*
X3476Y224D01*
X3464Y208D01*
X3457Y190D01*
X3456Y183D01*
X3517D01*
Y244D01*
D02*
G37*
G36*
X3073D02*
Y183D01*
X3134D01*
X3133Y190D01*
X3126Y208D01*
X3114Y224D01*
X3098Y236D01*
X3080Y243D01*
X3073Y244D01*
D02*
G37*
G36*
X3047D02*
X3040Y243D01*
X3022Y236D01*
X3006Y224D01*
X2994Y208D01*
X2987Y190D01*
X2986Y183D01*
X3047D01*
Y244D01*
D02*
G37*
G36*
X2363D02*
Y183D01*
X2424D01*
X2423Y190D01*
X2416Y208D01*
X2404Y224D01*
X2388Y236D01*
X2370Y243D01*
X2363Y244D01*
D02*
G37*
G36*
X2337D02*
X2330Y243D01*
X2312Y236D01*
X2296Y224D01*
X2284Y208D01*
X2277Y190D01*
X2276Y183D01*
X2337D01*
Y244D01*
D02*
G37*
G36*
X6044Y227D02*
X5973D01*
Y156D01*
X5982Y157D01*
X6003Y165D01*
X6021Y179D01*
X6035Y197D01*
X6043Y218D01*
X6044Y227D01*
D02*
G37*
G36*
X5947D02*
X5876D01*
X5877Y218D01*
X5885Y197D01*
X5899Y179D01*
X5917Y165D01*
X5938Y157D01*
X5947Y156D01*
Y227D01*
D02*
G37*
G36*
X5514Y157D02*
X5453D01*
Y96D01*
X5460Y97D01*
X5478Y104D01*
X5494Y116D01*
X5506Y132D01*
X5513Y150D01*
X5514Y157D01*
D02*
G37*
G36*
X5427D02*
X5366D01*
X5367Y150D01*
X5374Y132D01*
X5386Y116D01*
X5402Y104D01*
X5420Y97D01*
X5427Y96D01*
Y157D01*
D02*
G37*
G36*
X5024D02*
X4963D01*
Y96D01*
X4970Y97D01*
X4988Y104D01*
X5004Y116D01*
X5016Y132D01*
X5023Y150D01*
X5024Y157D01*
D02*
G37*
G36*
X4937D02*
X4876D01*
X4877Y150D01*
X4884Y132D01*
X4896Y116D01*
X4912Y104D01*
X4930Y97D01*
X4937Y96D01*
Y157D01*
D02*
G37*
G36*
X4594D02*
X4533D01*
Y96D01*
X4540Y97D01*
X4558Y104D01*
X4574Y116D01*
X4586Y132D01*
X4593Y150D01*
X4594Y157D01*
D02*
G37*
G36*
X4507D02*
X4446D01*
X4447Y150D01*
X4454Y132D01*
X4466Y116D01*
X4482Y104D01*
X4500Y97D01*
X4507Y96D01*
Y157D01*
D02*
G37*
G36*
X4084D02*
X4023D01*
Y96D01*
X4030Y97D01*
X4048Y104D01*
X4064Y116D01*
X4076Y132D01*
X4083Y150D01*
X4084Y157D01*
D02*
G37*
G36*
X3997D02*
X3936D01*
X3937Y150D01*
X3944Y132D01*
X3956Y116D01*
X3972Y104D01*
X3990Y97D01*
X3997Y96D01*
Y157D01*
D02*
G37*
G36*
X3604D02*
X3543D01*
Y96D01*
X3550Y97D01*
X3568Y104D01*
X3584Y116D01*
X3596Y132D01*
X3603Y150D01*
X3604Y157D01*
D02*
G37*
G36*
X3517D02*
X3456D01*
X3457Y150D01*
X3464Y132D01*
X3476Y116D01*
X3492Y104D01*
X3510Y97D01*
X3517Y96D01*
Y157D01*
D02*
G37*
G36*
X3134D02*
X3073D01*
Y96D01*
X3080Y97D01*
X3098Y104D01*
X3114Y116D01*
X3126Y132D01*
X3133Y150D01*
X3134Y157D01*
D02*
G37*
G36*
X3047D02*
X2986D01*
X2987Y150D01*
X2994Y132D01*
X3006Y116D01*
X3022Y104D01*
X3040Y97D01*
X3047Y96D01*
Y157D01*
D02*
G37*
G36*
X2424D02*
X2363D01*
Y96D01*
X2370Y97D01*
X2388Y104D01*
X2404Y116D01*
X2416Y132D01*
X2423Y150D01*
X2424Y157D01*
D02*
G37*
G36*
X2337D02*
X2276D01*
X2277Y150D01*
X2284Y132D01*
X2296Y116D01*
X2312Y104D01*
X2330Y97D01*
X2337Y96D01*
Y157D01*
D02*
G37*
%LPD*%
G36*
X1847Y1220D02*
X1720D01*
Y1347D01*
X1847Y1220D01*
D02*
G37*
G36*
X780D02*
X653D01*
X780Y1347D01*
Y1220D01*
D02*
G37*
G36*
X1720Y793D02*
Y920D01*
X1847D01*
X1720Y793D01*
D02*
G37*
G36*
X780D02*
X653Y920D01*
X780D01*
Y793D01*
D02*
G37*
%LPC*%
G36*
X9453Y2481D02*
Y2393D01*
X9541D01*
X9539Y2407D01*
X9529Y2431D01*
X9512Y2452D01*
X9491Y2469D01*
X9467Y2479D01*
X9453Y2481D01*
D02*
G37*
G36*
X9427D02*
X9413Y2479D01*
X9389Y2469D01*
X9368Y2452D01*
X9351Y2431D01*
X9341Y2407D01*
X9339Y2393D01*
X9427D01*
Y2481D01*
D02*
G37*
G36*
X9541Y2367D02*
X9453D01*
Y2279D01*
X9467Y2281D01*
X9491Y2291D01*
X9512Y2308D01*
X9529Y2329D01*
X9539Y2353D01*
X9541Y2367D01*
D02*
G37*
G36*
X9427D02*
X9339D01*
X9341Y2353D01*
X9351Y2329D01*
X9368Y2308D01*
X9389Y2291D01*
X9413Y2281D01*
X9427Y2279D01*
Y2367D01*
D02*
G37*
G36*
X8793Y1501D02*
Y1413D01*
X8881D01*
X8879Y1427D01*
X8869Y1451D01*
X8852Y1472D01*
X8831Y1489D01*
X8807Y1499D01*
X8793Y1501D01*
D02*
G37*
G36*
X8767D02*
X8753Y1499D01*
X8729Y1489D01*
X8708Y1472D01*
X8691Y1451D01*
X8681Y1427D01*
X8679Y1413D01*
X8767D01*
Y1501D01*
D02*
G37*
G36*
X8881Y1387D02*
X8793D01*
Y1299D01*
X8807Y1301D01*
X8831Y1311D01*
X8852Y1328D01*
X8869Y1349D01*
X8879Y1373D01*
X8881Y1387D01*
D02*
G37*
G36*
X8767D02*
X8679D01*
X8681Y1373D01*
X8691Y1349D01*
X8708Y1328D01*
X8729Y1311D01*
X8753Y1301D01*
X8767Y1299D01*
Y1387D01*
D02*
G37*
G36*
X9690Y1421D02*
X9669Y1418D01*
X9650Y1410D01*
X9633Y1397D01*
X9620Y1380D01*
X9612Y1361D01*
X9609Y1340D01*
X9612Y1319D01*
X9620Y1300D01*
X9633Y1283D01*
X9650Y1270D01*
X9669Y1262D01*
X9690Y1259D01*
X9711Y1262D01*
X9730Y1270D01*
X9747Y1283D01*
X9760Y1300D01*
X9768Y1319D01*
X9771Y1340D01*
X9768Y1361D01*
X9760Y1380D01*
X9747Y1397D01*
X9730Y1410D01*
X9711Y1418D01*
X9690Y1421D01*
D02*
G37*
G36*
X8793Y1251D02*
Y1163D01*
X8881D01*
X8879Y1177D01*
X8869Y1201D01*
X8852Y1222D01*
X8831Y1239D01*
X8807Y1249D01*
X8793Y1251D01*
D02*
G37*
G36*
X8767D02*
X8753Y1249D01*
X8729Y1239D01*
X8708Y1222D01*
X8691Y1201D01*
X8681Y1177D01*
X8679Y1163D01*
X8767D01*
Y1251D01*
D02*
G37*
G36*
X8881Y1137D02*
X8793D01*
Y1049D01*
X8807Y1051D01*
X8831Y1061D01*
X8852Y1078D01*
X8869Y1099D01*
X8879Y1123D01*
X8881Y1137D01*
D02*
G37*
G36*
X8767D02*
X8679D01*
X8681Y1123D01*
X8691Y1099D01*
X8708Y1078D01*
X8729Y1061D01*
X8753Y1051D01*
X8767Y1049D01*
Y1137D01*
D02*
G37*
G36*
X9703Y1074D02*
Y1003D01*
X9774D01*
X9773Y1012D01*
X9765Y1033D01*
X9751Y1051D01*
X9733Y1065D01*
X9712Y1073D01*
X9703Y1074D01*
D02*
G37*
G36*
X9677Y1074D02*
X9668Y1073D01*
X9647Y1065D01*
X9629Y1051D01*
X9615Y1033D01*
X9607Y1012D01*
X9606Y1003D01*
X9677D01*
Y1074D01*
D02*
G37*
G36*
X9774Y977D02*
X9703D01*
Y906D01*
X9712Y907D01*
X9733Y915D01*
X9751Y929D01*
X9765Y947D01*
X9773Y968D01*
X9774Y977D01*
D02*
G37*
G36*
X9677D02*
X9606D01*
X9607Y968D01*
X9615Y947D01*
X9629Y929D01*
X9647Y915D01*
X9668Y907D01*
X9677Y906D01*
Y977D01*
D02*
G37*
G36*
X8810Y978D02*
X8650D01*
Y818D01*
X8810D01*
Y978D01*
D02*
G37*
G36*
X8730Y725D02*
X8709Y722D01*
X8690Y714D01*
X8673Y701D01*
X8660Y684D01*
X8652Y665D01*
X8649Y644D01*
X8652Y623D01*
X8660Y604D01*
X8673Y587D01*
X8690Y574D01*
X8709Y566D01*
X8730Y563D01*
X8751Y566D01*
X8770Y574D01*
X8787Y587D01*
X8800Y604D01*
X8808Y623D01*
X8811Y644D01*
X8808Y665D01*
X8800Y684D01*
X8787Y701D01*
X8770Y714D01*
X8751Y722D01*
X8730Y725D01*
D02*
G37*
G36*
X9680Y628D02*
Y540D01*
X9768D01*
X9766Y554D01*
X9756Y579D01*
X9740Y600D01*
X9719Y616D01*
X9694Y626D01*
X9680Y628D01*
D02*
G37*
G36*
X9655D02*
X9641Y626D01*
X9616Y616D01*
X9595Y600D01*
X9579Y579D01*
X9568Y554D01*
X9566Y540D01*
X9655D01*
Y628D01*
D02*
G37*
G36*
X9768Y515D02*
X9680D01*
Y426D01*
X9694Y428D01*
X9719Y439D01*
X9740Y455D01*
X9756Y476D01*
X9766Y501D01*
X9768Y515D01*
D02*
G37*
G36*
X9655D02*
X9566D01*
X9568Y501D01*
X9579Y476D01*
X9595Y455D01*
X9616Y439D01*
X9641Y428D01*
X9655Y426D01*
Y515D01*
D02*
G37*
G36*
X8730Y471D02*
X8709Y468D01*
X8690Y460D01*
X8673Y447D01*
X8660Y430D01*
X8652Y411D01*
X8649Y390D01*
X8652Y369D01*
X8660Y350D01*
X8673Y333D01*
X8690Y320D01*
X8709Y312D01*
X8730Y309D01*
X8751Y312D01*
X8770Y320D01*
X8787Y333D01*
X8800Y350D01*
X8808Y369D01*
X8811Y390D01*
X8808Y411D01*
X8800Y430D01*
X8787Y447D01*
X8770Y460D01*
X8751Y468D01*
X8730Y471D01*
D02*
G37*
G36*
X9413Y1870D02*
X9395Y1868D01*
X9378Y1861D01*
X9363Y1850D01*
X9352Y1835D01*
X9345Y1818D01*
X9342Y1800D01*
X9345Y1781D01*
X9352Y1764D01*
X9363Y1750D01*
X9377Y1739D01*
Y508D01*
X9380Y494D01*
X9388Y483D01*
X9616Y254D01*
X9615Y241D01*
X9611Y239D01*
X9596Y219D01*
X9586Y195D01*
X9583Y170D01*
X9586Y145D01*
X9596Y121D01*
X9611Y101D01*
X9631Y86D01*
X9655Y76D01*
X9680Y73D01*
X9705Y76D01*
X9729Y86D01*
X9749Y101D01*
X9764Y121D01*
X9774Y145D01*
X9777Y170D01*
X9774Y195D01*
X9764Y219D01*
X9749Y239D01*
X9729Y254D01*
X9707Y263D01*
X9705Y266D01*
X9448Y523D01*
Y1739D01*
X9463Y1750D01*
X9474Y1764D01*
X9481Y1781D01*
X9483Y1800D01*
X9481Y1818D01*
X9474Y1835D01*
X9463Y1850D01*
X9448Y1861D01*
X9431Y1868D01*
X9413Y1870D01*
D02*
G37*
%LPD*%
D10*
X2085Y2060D02*
D03*
X1915D02*
D03*
X6560Y470D02*
D03*
X6730D02*
D03*
X1555Y1410D02*
D03*
X1385D02*
D03*
X1345Y2470D02*
D03*
X1175D02*
D03*
D11*
X250Y1560D02*
D03*
Y670D02*
D03*
D12*
X880Y930D02*
D03*
X1130D02*
D03*
X1380D02*
D03*
X1630D02*
D03*
Y1210D02*
D03*
X1380D02*
D03*
X1130D02*
D03*
X880D02*
D03*
D13*
X685Y2470D02*
D03*
X855D02*
D03*
D14*
X6645Y1350D02*
X6730Y1265D01*
Y470D02*
Y1265D01*
X5960Y480D02*
X5970Y470D01*
X6560D01*
X2085Y1465D02*
Y2060D01*
X6540Y1350D02*
X6645D01*
X1370Y940D02*
X1380Y930D01*
X1240Y940D02*
X1370D01*
X1330Y2455D02*
X1345Y2470D01*
X1330Y2290D02*
Y2455D01*
X1175Y2470D02*
X1175Y2470D01*
X855Y2470D02*
X1175D01*
X1380Y870D02*
Y930D01*
X1240Y730D02*
X1380Y870D01*
X260Y730D02*
X1240D01*
X5600Y1865D02*
Y2390D01*
Y1865D02*
X5885Y1580D01*
X1010Y1080D02*
X1130Y960D01*
Y930D02*
Y960D01*
X950Y1520D02*
X950Y1520D01*
X250Y1500D02*
X270Y1520D01*
X1300D01*
X1010Y1080D02*
Y1520D01*
X9413Y508D02*
Y1800D01*
Y508D02*
X9680Y241D01*
Y170D02*
Y241D01*
D15*
X1615Y2055D02*
X1910D01*
X1120Y2000D02*
X1150D01*
X1385Y1765D01*
Y1410D02*
Y1765D01*
X1180Y1415D02*
X1380D01*
Y1210D02*
Y1415D01*
X1500Y1060D02*
Y1350D01*
X1615Y1465D01*
Y2055D01*
X1130Y1365D02*
X1180Y1415D01*
X1130Y1210D02*
Y1365D01*
X4510Y1350D02*
X6540D01*
X3860Y700D02*
X4510Y1350D01*
X1740Y700D02*
X3860D01*
X1500Y1060D02*
X1630Y930D01*
X1675Y635D02*
X1740Y700D01*
X1360Y635D02*
X1675D01*
X1630Y810D02*
Y930D01*
Y810D02*
X1740Y700D01*
D16*
X5960Y1030D02*
D03*
X2580Y430D02*
D03*
X5960Y480D02*
D03*
X2590Y900D02*
D03*
X5960Y240D02*
D03*
X2600Y1268D02*
D03*
X6350Y750D02*
D03*
X6000D02*
D03*
X8730Y390D02*
D03*
Y644D02*
D03*
X9690Y990D02*
D03*
Y1340D02*
D03*
X6540Y1350D02*
D03*
X1740Y700D02*
D03*
D17*
X4200Y1500D02*
D03*
Y500D02*
D03*
D18*
X300Y2300D02*
D03*
X8200Y2270D02*
D03*
X7000D02*
D03*
X8800Y2350D02*
D03*
X2158Y1095D02*
D03*
X358D02*
D03*
D19*
X5885Y1580D02*
D03*
Y2250D02*
D03*
X6375Y2070D02*
D03*
D20*
X5092Y2390D02*
D03*
X5346D02*
D03*
D21*
X5600D02*
D03*
D22*
X8730Y898D02*
D03*
D23*
X9667Y527D02*
D03*
X9440Y2380D02*
D03*
X8780Y1400D02*
D03*
Y1150D02*
D03*
X9680Y170D02*
D03*
D24*
X2350D02*
D03*
X2420Y2130D02*
D03*
X2085Y1465D02*
D03*
X1120Y2000D02*
D03*
X1615Y2055D02*
D03*
X1560Y2450D02*
D03*
X1920D02*
D03*
X2280D02*
D03*
X2660D02*
D03*
X3050D02*
D03*
X4190D02*
D03*
X3800D02*
D03*
X3443Y2453D02*
D03*
X3060Y170D02*
D03*
X3530D02*
D03*
X4010D02*
D03*
X4520D02*
D03*
X4950D02*
D03*
X5440D02*
D03*
X8274Y697D02*
D03*
Y1087D02*
D03*
Y1427D02*
D03*
Y1787D02*
D03*
X1330Y2290D02*
D03*
X860Y820D02*
D03*
X5510Y1580D02*
D03*
X5500Y1250D02*
D03*
X1920Y1590D02*
D03*
X2270D02*
D03*
X667Y513D02*
D03*
Y1683D02*
D03*
X9413Y1800D02*
D03*
D25*
X8274Y337D02*
D03*
D26*
X1300Y1520D02*
D03*
X1240Y940D02*
D03*
X1360Y635D02*
D03*
M02*
