G04 Layer_Color=8388736*
%FSLAX42Y42*%
%MOMM*%
G71*
G01*
G75*
G04:AMPARAMS|DCode=39|XSize=1.2mm|YSize=1.1mm|CornerRadius=0.21mm|HoleSize=0mm|Usage=FLASHONLY|Rotation=90.000|XOffset=0mm|YOffset=0mm|HoleType=Round|Shape=RoundedRectangle|*
%AMROUNDEDRECTD39*
21,1,1.20,0.68,0,0,90.0*
21,1,0.78,1.10,0,0,90.0*
1,1,0.43,0.34,0.39*
1,1,0.43,0.34,-0.39*
1,1,0.43,-0.34,-0.39*
1,1,0.43,-0.34,0.39*
%
%ADD39ROUNDEDRECTD39*%
%ADD40R,3.20X2.20*%
%ADD41R,1.00X2.20*%
G04:AMPARAMS|DCode=42|XSize=1mm|YSize=1mm|CornerRadius=0.2mm|HoleSize=0mm|Usage=FLASHONLY|Rotation=180.000|XOffset=0mm|YOffset=0mm|HoleType=Round|Shape=RoundedRectangle|*
%AMROUNDEDRECTD42*
21,1,1.00,0.60,0,0,180.0*
21,1,0.60,1.00,0,0,180.0*
1,1,0.40,-0.30,0.30*
1,1,0.40,0.30,0.30*
1,1,0.40,0.30,-0.30*
1,1,0.40,-0.30,-0.30*
%
%ADD42ROUNDEDRECTD42*%
%ADD43C,1.40*%
%ADD44C,4.70*%
%ADD45C,3.70*%
%ADD46C,1.80*%
%ADD47C,1.70*%
%ADD48R,1.70X1.70*%
%ADD49R,1.40X1.40*%
%ADD50C,1.73*%
%ADD51C,1.20*%
%ADD52C,1.47*%
%ADD53C,1.00*%
D39*
X2085Y2060D02*
D03*
X1915D02*
D03*
X6560Y470D02*
D03*
X6730D02*
D03*
X1555Y1410D02*
D03*
X1385D02*
D03*
X1345Y2470D02*
D03*
X1175D02*
D03*
D40*
X250Y1560D02*
D03*
Y670D02*
D03*
D41*
X880Y930D02*
D03*
X1130D02*
D03*
X1380D02*
D03*
X1630D02*
D03*
Y1210D02*
D03*
X1380D02*
D03*
X1130D02*
D03*
X880D02*
D03*
D42*
X685Y2470D02*
D03*
X855D02*
D03*
D43*
X5960Y1030D02*
D03*
X2580Y430D02*
D03*
X5960Y480D02*
D03*
X2590Y900D02*
D03*
X5960Y240D02*
D03*
X2600Y1268D02*
D03*
X6350Y750D02*
D03*
X6000D02*
D03*
X8730Y390D02*
D03*
Y644D02*
D03*
X9690Y990D02*
D03*
Y1340D02*
D03*
X6540Y1350D02*
D03*
X1740Y700D02*
D03*
D44*
X4200Y1500D02*
D03*
Y500D02*
D03*
D45*
X300Y2300D02*
D03*
X8200Y2270D02*
D03*
X7000D02*
D03*
X8800Y2350D02*
D03*
X2158Y1095D02*
D03*
X358D02*
D03*
D46*
X5885Y1580D02*
D03*
Y2250D02*
D03*
X6375Y2070D02*
D03*
D47*
X5092Y2390D02*
D03*
X5346D02*
D03*
D48*
X5600D02*
D03*
D49*
X8730Y898D02*
D03*
D50*
X9667Y527D02*
D03*
X9440Y2380D02*
D03*
X8780Y1400D02*
D03*
Y1150D02*
D03*
X9680Y170D02*
D03*
D51*
X2350D02*
D03*
X2420Y2130D02*
D03*
X2085Y1465D02*
D03*
X1120Y2000D02*
D03*
X1615Y2055D02*
D03*
X1560Y2450D02*
D03*
X1920D02*
D03*
X2280D02*
D03*
X2660D02*
D03*
X3050D02*
D03*
X4190D02*
D03*
X3800D02*
D03*
X3443Y2453D02*
D03*
X3060Y170D02*
D03*
X3530D02*
D03*
X4010D02*
D03*
X4520D02*
D03*
X4950D02*
D03*
X5440D02*
D03*
X8274Y697D02*
D03*
Y1087D02*
D03*
Y1427D02*
D03*
Y1787D02*
D03*
X1330Y2290D02*
D03*
X860Y820D02*
D03*
X5510Y1580D02*
D03*
X5500Y1250D02*
D03*
X1920Y1590D02*
D03*
X2270D02*
D03*
X667Y513D02*
D03*
Y1683D02*
D03*
X9413Y1800D02*
D03*
D52*
X8274Y337D02*
D03*
D53*
X1300Y1520D02*
D03*
X1240Y940D02*
D03*
X1360Y635D02*
D03*
M02*
